<?xml version="1.0" encoding="UTF-8"?><svg id="Layer_1" xmlns="http://www.w3.org/2000/svg" viewBox="0 0 206.75 209.42"><defs><style>.cls-1{fill:none;stroke:#404064;stroke-linecap:round;stroke-linejoin:round;stroke-width:8px;}</style></defs><g id="Group_3360"><path id="Path_553" class="cls-1" d="M84.16,172.32s23.62-2.8,45.22-16.56c17.07-10.88,30.19-30.1,30.19-51.75,0-31.04-25.16-56.21-56.2-56.21-.16,0-.32,0-.48,0-31.77,.27-56.65,27.4-55.68,59.16,.51,16.73,8.26,31.58,20.98,39.09,15.83,9.35,25.19,1.79,25.19-9.13v-41.17h.03c0-5.92-4.8-10.72-10.73-10.72-.1,0-.2,0-.3,0-5.66,.22-10.2,4.76-10.42,10.42-.17,5.92,4.5,10.85,10.42,11.02,.1,0,.2,0,.31,0h39.79c5.71,.07,10.51-4.27,11.03-9.96,.42-5.91-4.02-11.04-9.93-11.46-.51-.04-1.02-.04-1.53,0-5.69,.51-10.03,5.31-9.96,11.03v45.79"/><path id="Path_554" class="cls-1" d="M89.69,191.59c11.25-1.93,27.6-7.96,35.86-11.91"/><path id="Path_555" class="cls-1" d="M110.58,205.42c5.28-1.82,9.68-3.43,11.45-4.17"/><line id="Line_1224" class="cls-1" x1="103.63" y1="23.99" x2="103.63" y2="4"/><line id="Line_1225" class="cls-1" x1="73.23" y1="29.94" x2="65.58" y2="11.47"/><line id="Line_1226" class="cls-1" x1="47.43" y1="47.06" x2="33.29" y2="32.92"/><line id="Line_1227" class="cls-1" x1="29.02" y1="73.87" x2="10.55" y2="66.22"/><line id="Line_1228" class="cls-1" x1="23.99" y1="105.88" x2="4" y2="105.88"/><line id="Line_1229" class="cls-1" x1="27.71" y1="137.25" x2="9.24" y2="144.9"/><line id="Line_1230" class="cls-1" x1="47.06" y1="162.08" x2="32.92" y2="176.22"/><line id="Line_1231" class="cls-1" x1="159.32" y1="162.45" x2="173.46" y2="176.58"/><line id="Line_1232" class="cls-1" x1="178.84" y1="137.25" x2="197.31" y2="144.9"/><line id="Line_1233" class="cls-1" x1="182.75" y1="106.39" x2="202.75" y2="106.39"/><line id="Line_1234" class="cls-1" x1="177.92" y1="74.35" x2="196.39" y2="66.69"/><line id="Line_1235" class="cls-1" x1="159.69" y1="47.43" x2="173.82" y2="33.29"/><line id="Line_1236" class="cls-1" x1="133.99" y1="30.13" x2="141.64" y2="11.66"/></g></svg>