<?xml version="1.0" encoding="UTF-8"?><svg id="Layer_1" xmlns="http://www.w3.org/2000/svg" viewBox="0 0 230.48 252.89"><defs><style>.cls-1{fill:#404064;}.cls-2{stroke-dasharray:0 0 0 0;stroke-linecap:round;}.cls-2,.cls-3{fill:none;stroke:#404064;stroke-width:8px;}</style></defs><path id="Path_11" class="cls-2" d="M191.49,126.39c-26.1,.84-43.99-7.37-53.88-10.73"/><path class="cls-3" d="M77.7,88.45c2.97,4.65,10.39,12.77,21.65,16.23h0c1.26,.39,2.55,.72,3.9,.97"/><path class="cls-3" d="M136.35,105.34s.11-.05,.16-.08c1.27-.62,2.48-1.19,3.62-1.73,14.56-6.77,19.36-6.86,26.73-12.13"/><path class="cls-3" d="M121.49,58.91c-1.14,6.85-2.38,17.72-1.99,31.13,.03,1.31,.08,2.64,.16,4"/><path class="cls-3" d="M192.18,28.57c-29.64,7.65-46.96,42.06-60.35,64.98-.68,1.18-1.36,2.33-2.03,3.44"/><path class="cls-3" d="M108.78,96.78c-.57-.88-1.12-1.74-1.63-2.58-18.5-29.85-7.44-36.17-29.63-58.09"/><path class="cls-3" d="M76.52,159.85c14.77-10.03,24.72-19.43,29.71-31.07,.56-1.3,1.06-2.63,1.49-4"/><path class="cls-3" d="M27.79,214.27c2.74-15.23,10.71-25.51,20.09-31.05"/><path class="cls-3" d="M119.04,129.63c.84,1.3,1.51,2.64,2.05,3.99,2.21,5.55,2.09,11.26,1.62,15.01"/><path class="cls-3" d="M130.5,126.2c1.21,.75,2.42,1.47,3.63,2.21,11.74,7.04,24.18,14.24,43.03,40.39"/><circle class="cls-1" cx="119.96" cy="111.84" r="21.81"/><circle class="cls-3" cx="119.96" cy="111.84" r="17.81"/><path class="cls-2" d="M42.51,122.35c24.78,5.98,44.97,1.51,56.55-4.27,1.31-.66,2.52-1.33,3.6-2"/><circle class="cls-3" cx="61.87" cy="172.18" r="17.81"/><circle class="cls-3" cx="21.81" cy="231.08" r="17.81"/><circle class="cls-3" cx="124.33" cy="166.37" r="17.81"/><circle class="cls-3" cx="186.78" cy="183.78" r="17.81"/><circle class="cls-3" cx="208.66" cy="130.74" r="17.81"/><circle class="cls-3" cx="181.52" cy="81.29" r="17.81"/><circle class="cls-3" cx="208.66" cy="21.81" r="17.81"/><circle class="cls-3" cx="124.33" cy="41.31" r="17.81"/><circle class="cls-3" cx="24.72" cy="121.63" r="17.81"/><circle class="cls-3" cx="62.53" cy="79.12" r="17.81"/><circle class="cls-3" cx="66.9" cy="21.81" r="17.81"/></svg>