<svg xmlns="http://www.w3.org/2000/svg" xmlns:xlink="http://www.w3.org/1999/xlink" width="3613" height="3025" viewBox="0 0 3613 3025">
  <defs>
    <clipPath id="clip-Artboard_5">
      <rect width="3613" height="3025"/>
    </clipPath>
  </defs>
  <g id="Artboard_5" data-name="Artboard – 5" clip-path="url(#clip-Artboard_5)">
    <rect width="3613" height="3025" fill="rgba(243,243,247,0)"/>
    <path id="Path_545" data-name="Path 545" d="M224.482-19.365,21.376,54.289" transform="translate(368.5 2724.5)" fill="none" stroke="#074391" stroke-width="8"/>
    <path id="Path_544" data-name="Path 544" d="M284.744,22.593,10.216,185.524" transform="translate(368.5 2749.5)" fill="none" stroke="#074391" stroke-width="8"/>
    <line id="Line_1491" data-name="Line 1491" x1="34" y2="174" transform="translate(715.5 2743.5)" fill="none" stroke="#074391" stroke-width="8"/>
    <line id="Line_1492" data-name="Line 1492" x1="191" y1="16" transform="translate(385.5 2621.5)" fill="none" stroke="#074391" stroke-width="8"/>
    <text id="Create_a_service_that_collects_filament_maybe_neven_not_limited_to_PLA_at_public_recycling_places" data-name="Create a service that collects filament 
(maybe neven not limited to PLA) at public 
recycling places" transform="translate(0 2765)" fill="#1f274d" font-size="18" font-family="Tenon-Regular, Tenon"><tspan x="0" y="14">Create a service that collects filament </tspan><tspan x="0" y="40">(maybe neven not limited to PLA) at public </tspan><tspan x="0" y="66">recycling places</tspan></text>
    <text id="Like_how_hardware_stores_let_you_recycle_batteries_these_would_be_special_drop_off_points_for_filament" data-name="Like how hardware stores let you recycle 
batteries, these would be special drop off 
points for filament" transform="translate(0 2931)" fill="#1f274d" font-size="18" font-family="Tenon-Regular, Tenon"><tspan x="0" y="14">Like how hardware stores let you recycle </tspan><tspan x="0" y="40">batteries, these would be special drop off </tspan><tspan x="0" y="66">points for filament</tspan></text>
    <text id="The_company_would_then_create_a_buisness_out_of_turning_the_recycled_PLA_into_new_filament_and_selling_it_at_a_reduced_rate" data-name="The company would then create a buisness 
out of turning the recycled PLA into new 
filament and selling it at a reduced rate" transform="translate(514 2955)" fill="#1f274d" font-size="18" font-family="Tenon-Regular, Tenon"><tspan x="0" y="14">The company would then create a buisness </tspan><tspan x="0" y="40">out of turning the recycled PLA into new </tspan><tspan x="0" y="66">filament and selling it at a reduced rate</tspan></text>
    <text id="This_would_greatly_increase_the_sustainability_of_3D_printing_while_also_creating_a_new_cheap_filament_alternative_for_users" data-name="This would greatly increase the 
sustainability of 3D printing while also 
creating a new, cheap filament alternative 
for users" transform="translate(0 2577)" fill="#1f274d" font-size="18" font-family="Tenon-Regular, Tenon"><tspan x="0" y="14">This would greatly increase the </tspan><tspan x="0" y="40">sustainability of 3D printing while also </tspan><tspan x="0" y="66">creating a new, cheap filament alternative </tspan><tspan x="0" y="92">for users</tspan></text>
    <path id="Path_567" data-name="Path 567" d="M1858.456,3343.335l17.873-17.873,17.873,17.873" transform="matrix(-0.966, -0.259, 0.259, -0.966, 1664.889, 6617.535)" fill="none" stroke="#074391" stroke-linecap="round" stroke-width="8"/>
    <path id="Path_568" data-name="Path 568" d="M1858.456,3343.335l17.873-17.873,17.873,17.873" transform="matrix(-0.438, -0.899, 0.899, -0.438, -1790.909, 6079.138)" fill="none" stroke="#074391" stroke-linecap="round" stroke-width="8"/>
    <path id="Path_569" data-name="Path 569" d="M1858.456,3343.335l17.873-17.873,17.873,17.873" transform="translate(-2098.984 5681.623) rotate(-110)" fill="none" stroke="#074391" stroke-linecap="round" stroke-width="8"/>
    <path id="Path_570" data-name="Path 570" d="M1858.456,3343.335l17.873-17.873,17.873,17.873" transform="translate(-3217.979 3890.312) rotate(-80)" fill="none" stroke="#074391" stroke-linecap="round" stroke-width="8"/>
    <line id="Line_1515" data-name="Line 1515" y1="93" x2="262" transform="translate(2960.5 2218.5)" fill="none" stroke="#074391" stroke-width="8"/>
    <line id="Line_1516" data-name="Line 1516" x2="249" transform="translate(2973.5 2373.5)" fill="none" stroke="#074391" stroke-width="8"/>
    <line id="Line_1517" data-name="Line 1517" x2="276" y2="85" transform="translate(2946.5 2443.5)" fill="none" stroke="#074391" stroke-width="8"/>
    <line id="Line_1480" data-name="Line 1480" x1="301" y2="401" transform="translate(1525.5 2109.5)" fill="none" stroke="#074391" stroke-width="8"/>
    <line id="Line_1481" data-name="Line 1481" x1="38" y2="383" transform="translate(1932.5 2142.5)" fill="none" stroke="#074391" stroke-width="8"/>
    <line id="Line_1482" data-name="Line 1482" x2="273" y2="403" transform="translate(2072.5 2122.5)" fill="none" stroke="#074391" stroke-width="8"/>
    <line id="Line_1483" data-name="Line 1483" x1="241" y1="117" transform="translate(892.5 2008.5)" fill="none" stroke="#074391" stroke-width="8"/>
    <line id="Line_1484" data-name="Line 1484" x1="194" transform="translate(899.5 2181.5)" fill="none" stroke="#074391" stroke-width="8"/>
    <line id="Line_1485" data-name="Line 1485" x1="225" y2="109" transform="translate(899.5 2209.5)" fill="none" stroke="#074391" stroke-width="8"/>
    <line id="Line_1486" data-name="Line 1486" x1="280" y1="44" transform="translate(399.5 1397.837)" fill="none" stroke="#074391" stroke-width="8"/>
    <line id="Line_1487" data-name="Line 1487" x1="245" y2="35" transform="translate(399.5 1528.837)" fill="none" stroke="#074391" stroke-width="8"/>
    <line id="Line_1488" data-name="Line 1488" x1="327" y2="122" transform="translate(388.5 1600.837)" fill="none" stroke="#074391" stroke-width="8"/>
    <path id="Path_584" data-name="Path 584" d="M288.337,242.65-.026-10.546" transform="translate(847.5 66.5)" fill="none" stroke="#074391" stroke-width="8"/>
    <path id="Path_583" data-name="Path 583" d="M264.129,133.737,88.571-49.793" transform="translate(767.5 335.5)" fill="none" stroke="#074391" stroke-width="8"/>
    <line id="Line_1495" data-name="Line 1495" x1="37" y1="211" transform="translate(1234.5 92.5)" fill="none" stroke="#074391" stroke-width="8"/>
    <line id="Line_1496" data-name="Line 1496" x1="338" y1="222" transform="translate(885.5 709.5)" fill="none" stroke="#074391" stroke-width="8"/>
    <line id="Line_1497" data-name="Line 1497" x1="304" y1="133" transform="translate(792.5 831.5)" fill="none" stroke="#074391" stroke-width="8"/>
    <line id="Line_1498" data-name="Line 1498" x1="118" y1="41" transform="translate(897.5 1000.5)" fill="none" stroke="#074391" stroke-width="8"/>
    <line id="Line_1499" data-name="Line 1499" y1="196" x2="587" transform="translate(2631.5 743.5)" fill="none" stroke="#074391" stroke-width="8"/>
    <line id="Line_1500" data-name="Line 1500" y1="100" x2="445" transform="translate(2766.5 888.5)" fill="none" stroke="#074391" stroke-width="8"/>
    <line id="Line_1501" data-name="Line 1501" y1="21" x2="452" transform="translate(2766.5 1031.5)" fill="none" stroke="#074391" stroke-width="8"/>
    <line id="Line_1502" data-name="Line 1502" y1="134" transform="translate(2882.5 1392.5)" fill="none" stroke="#074391" stroke-width="8"/>
    <line id="Line_1503" data-name="Line 1503" y2="152" transform="translate(2882.5 1637.5)" fill="none" stroke="#074391" stroke-width="8"/>
    <line id="Line_1504" data-name="Line 1504" y1="170" x2="204" transform="translate(3007.5 1382.5)" fill="none" stroke="#074391" stroke-width="8"/>
    <line id="Line_1505" data-name="Line 1505" y1="54" x2="178" transform="translate(3050.5 1526.5)" fill="none" stroke="#074391" stroke-width="8"/>
    <line id="Line_1506" data-name="Line 1506" x2="194" y2="65" transform="translate(3024.5 1627.5)" fill="none" stroke="#074391" stroke-width="8"/>
    <line id="Line_1507" data-name="Line 1507" x2="222" y2="154" transform="translate(2989.5 1660.5)" fill="none" stroke="#074391" stroke-width="8"/>
    <line id="Line_1508" data-name="Line 1508" y1="65" x2="304" transform="translate(2914.5 57.5)" fill="none" stroke="#074391" stroke-width="8"/>
    <line id="Line_1509" data-name="Line 1509" y1="37" x2="215" transform="translate(3003.5 214.5)" fill="none" stroke="#074391" stroke-width="8"/>
    <line id="Line_1510" data-name="Line 1510" x2="256" y2="64" transform="translate(2962.5 302.5)" fill="none" stroke="#074391" stroke-width="8"/>
    <line id="Line_1511" data-name="Line 1511" x1="95" y1="503" transform="translate(1674.5 185.5)" fill="none" stroke="#074391" stroke-width="8"/>
    <line id="Line_1512" data-name="Line 1512" y1="303" transform="translate(1912.5 344.5)" fill="none" stroke="#074391" stroke-width="8"/>
    <line id="Line_1513" data-name="Line 1513" y1="282" x2="146" transform="translate(2002.5 406.5)" fill="none" stroke="#074391" stroke-width="8"/>
    <line id="Line_1514" data-name="Line 1514" y1="191" x2="195" transform="translate(2075.5 518.5)" fill="none" stroke="#074391" stroke-width="8"/>
    <path id="Path_542" data-name="Path 542" d="M-5085.378-2784.768c25.753,132.2,6.868,341.658,442.953,314.188" transform="translate(6367 3875)" fill="none" stroke="#1f274d" stroke-width="8"/>
    <path id="Path_543" data-name="Path 543" d="M-4642.425-2784.768c-25.753,132.2-6.868,341.658-442.953,314.188" transform="translate(7143.235 3875)" fill="none" stroke="#404064" stroke-width="8"/>
    <path id="Path_541" data-name="Path 541" d="M-4441.3-3066s-125.244,244.833-38.2,519.362" transform="translate(6367 3875)" fill="none" stroke="#404064" stroke-width="8"/>
    <path id="Path_539" data-name="Path 539" d="M-3510.831-3508.6s116.038,215.65-404.5,404.25S-4392.892-2492.4-4392.892-2492.4" transform="translate(6367 3875)" fill="none" stroke="#404064" stroke-width="8"/>
    <path id="Path_540" data-name="Path 540" d="M-5107.7-3289.527c-26.344,98.316-19.065,216.149,230.915,265.254s270.067,332.56,271.208,512.143" transform="translate(6367 3875)" fill="none" stroke="#404064" stroke-width="8"/>
    <path id="Path_535" data-name="Path 535" d="M-4590.936-2237.5s-413.05,85.92-504.559,440.8" transform="translate(6367 3875)" fill="none" stroke="#404064" stroke-width="8"/>
    <path id="Path_538" data-name="Path 538" d="M-5095.494-2237.5s288.765,103.348,380.275,458.225" transform="translate(-1020.602 7353.715) rotate(90)" fill="none" stroke="#404064" stroke-width="8"/>
    <path id="Path_536" data-name="Path 536" d="M-4455.3-2195.889c127.049,121.9,46.355,307.321,46.355,307.321" transform="translate(6367 3875)" fill="none" stroke="#1f274d" stroke-width="8"/>
    <path id="Path_537" data-name="Path 537" d="M-4410.32-2268.623c145.083,92.482,423.629,176.626,776.716,728.582" transform="translate(6367 3875)" fill="none" stroke="#404064" stroke-width="8"/>
    <g id="Ellipse_43" data-name="Ellipse 43" transform="translate(1638 1258)" fill="#404064" stroke="#404064" stroke-width="10">
      <circle cx="250" cy="250" r="250" stroke="none"/>
      <circle cx="250" cy="250" r="245" fill="none"/>
    </g>
    <path id="Path_11" data-name="Path 11" d="M473.977,77.8C219.087,155.723-9.4,87.878-135.351,37.177" transform="translate(2211 1505)" fill="none" stroke="#404064" stroke-linecap="round" stroke-width="8" stroke-dasharray="0 0"/>
    <path id="Path_18" data-name="Path 18" d="M-407.738,11.017c111.6,77.259,524.417,103.674,645.543,25.528" transform="translate(1449 1505)" fill="none" stroke="#404064" stroke-linecap="round" stroke-width="8" stroke-dasharray="0 0"/>
    <text id="Users_would_be_able_to_take_recycling_their_PLA_into_their_own_hands_and_never_have_to_throw_out_filament_" data-name="Users would be able to take recycling their 
PLA into their own hands and never have to 
throw out filament " transform="translate(514 2303)" fill="#1f274d" font-size="18" font-family="Tenon-Regular, Tenon"><tspan x="0" y="14">Users would be able to take recycling their </tspan><tspan x="0" y="40">PLA into their own hands and never have to </tspan><tspan x="0" y="66">throw out filament </tspan></text>
    <g id="Group_3405" data-name="Group 3405" transform="translate(-245 -469)">
      <g id="Ellipse_52" data-name="Ellipse 52" transform="translate(1220 2477)" fill="#f3f3f7" stroke="#404064" stroke-width="10">
        <ellipse cx="272" cy="151" rx="272" ry="151" stroke="none"/>
        <ellipse cx="272" cy="151" rx="267" ry="146" fill="none"/>
      </g>
      <text id="A_standardized_method_of_recycling_PLA_into_usable_filament_" data-name="A standardized method of 
recycling PLA into usable 
filament " transform="translate(1320 2603)" fill="#1f274d" font-size="26" font-family="GiraSans-Medium, Gira Sans" font-weight="500"><tspan x="0" y="0">A standardized method of </tspan><tspan x="0" y="34">recycling PLA into usable </tspan><tspan x="0" y="68">filament </tspan></text>
    </g>
    <g id="Group_3404" data-name="Group 3404" transform="translate(-210 -586)">
      <g id="Ellipse_53" data-name="Ellipse 53" transform="translate(724 3091)" fill="#f3f3f7" stroke="#404064" stroke-width="10">
        <ellipse cx="293" cy="151" rx="293" ry="151" stroke="none"/>
        <ellipse cx="293" cy="151" rx="288" ry="146" fill="none"/>
      </g>
      <text id="A_service_that_recycles_your_PLA_into_filament_that_can_be_bought_at_a_reduced_cost_" data-name="A service that recycles your 
PLA into filament that can be 
bought at a reduced cost " transform="translate(824 3217)" fill="#1f274d" font-size="26" font-family="GiraSans-Medium, Gira Sans" font-weight="500"><tspan x="0" y="0">A service that recycles your </tspan><tspan x="0" y="34">PLA into filament that can be </tspan><tspan x="0" y="68">bought at a reduced cost </tspan></text>
    </g>
    <text id="Create_a_single_contained_device_that_is_able_to_process_PLA_models_straps_and_shreds_into_a_combined_new_filament_that_it_despenses_into_spools_" data-name="Create a single, contained device that is able 
to process PLA models, straps, and shreds 
into a combined, new filament that it 
despenses into spools " transform="translate(514 1971)" fill="#1f274d" font-size="18" font-family="Tenon-Regular, Tenon"><tspan x="0" y="14">Create a single, contained device that is </tspan><tspan x="0" y="40">able </tspan><tspan x="0" y="66">to process PLA models, straps, and shreds </tspan><tspan x="0" y="92">into a combined, new filament that it </tspan><tspan x="0" y="118">despenses into spools </tspan></text>
    <text id="would_require_a_lot_of_physical_computing_and_might_not_be_a_practical_thesis_project" data-name="would require a lot of physical computing 
and might not be a practical thesis project" transform="translate(514 2159)" fill="#1f274d" font-size="18" font-family="Tenon-Regular, Tenon"><tspan x="0" y="14">would require a lot of physical computing </tspan><tspan x="0" y="40">and might not be a practical thesis project</tspan></text>
    <g id="Group_3403" data-name="Group 3403" transform="translate(-268 -1159)">
      <g id="Ellipse_54" data-name="Ellipse 54" transform="translate(1957 3044)" fill="#f3f3f7" stroke="#404064" stroke-width="10">
        <ellipse cx="285" cy="168" rx="285" ry="168" stroke="none"/>
        <ellipse cx="285" cy="168" rx="280" ry="163" fill="none"/>
      </g>
      <text id="Online_platform_to_connect_hobbiest_printers_to_people_who_need_prints_distribute_jobs_based_on_location" data-name="Online platform to connect 
hobbiest, printers to people 
who need prints, distribute 
jobs based on location" transform="translate(2058 3170)" fill="#1f274d" font-size="26" font-family="GiraSans-Medium, Gira Sans" font-weight="500"><tspan x="0" y="0">Online platform to connect </tspan><tspan x="0" y="34">hobbiest, printers to people </tspan><tspan x="0" y="68">who need prints, distribute </tspan><tspan x="0" y="102">jobs based on location</tspan></text>
    </g>
    <text id="People_with_3D_printers_would_be_connected_with_people_who_need_3D_prints_done" data-name="People with 3D printers would be connected 
with people who need 3D prints done" transform="translate(2235 2577)" fill="#1f274d" font-size="18" font-family="Tenon-Regular, Tenon"><tspan x="0" y="14">People with 3D printers would be connected </tspan><tspan x="0" y="40">with people who need 3D prints done</tspan></text>
    <g id="Group_3402" data-name="Group 3402" transform="translate(-118 -406)">
      <g id="Ellipse_44" data-name="Ellipse 44" transform="translate(2650 2555)" fill="#f3f3f7" stroke="#1f274d" stroke-width="10">
        <ellipse cx="257" cy="202" rx="257" ry="202" stroke="none"/>
        <ellipse cx="257" cy="202" rx="252" ry="197" fill="none"/>
      </g>
      <text id="Gig-Economizing_3D_printing_manufacturing._Hobbyist_owners_with_sparetime_can_earn_passive_income_from_local_3D_print_jobs" data-name="Gig-Economizing 3D 
printing manufacturing. 
Hobbyist owners with 
sparetime can earn 
passive income from 
local 3D print jobs" transform="translate(2750 2681)" fill="#1f274d" font-size="26" font-family="GiraSans-Medium, Gira Sans" font-weight="500"><tspan x="0" y="0">Gig-Economizing 3D </tspan><tspan x="0" y="34">printing manufacturing. </tspan><tspan x="0" y="68">Hobbyist owners with </tspan><tspan x="0" y="102">sparetime can earn </tspan><tspan x="0" y="136">passive income from </tspan><tspan x="0" y="170">local 3D print jobs</tspan></text>
    </g>
    <text id="Pay_local_owners_of_3D_printers_to_create_your_prints_rather_than_a_maker_space_or_service" data-name="Pay local owners of 3D printers to create 
your prints rather than a maker space or 
service" transform="translate(3257 2185)" fill="#1f274d" font-size="18" font-family="Tenon-Regular, Tenon"><tspan x="0" y="14">Pay local owners of 3D printers to create </tspan><tspan x="0" y="40">your prints rather than a maker space or </tspan><tspan x="0" y="66">service</tspan></text>
    <text id="Undercut_the_costs_of_maker_labs_by_paying_only_1_person_with_a_hobbyist_printer_rather_than_a_team_with_many_printers" data-name="Undercut the costs of maker labs by paying 
only 1 person with a hobbyist printer rather 
than a team with many printers" transform="translate(3257 2495)" fill="#1f274d" font-size="18" font-family="Tenon-Regular, Tenon"><tspan x="0" y="14">Undercut the costs of maker labs by paying </tspan><tspan x="0" y="40">only 1 person with a hobbyist printer rather </tspan><tspan x="0" y="66">than a team with many printers</tspan></text>
    <text id="Allow_quick_delivery_and_a_user_friendly_interface_like_uber_profiles_ratings_etc." data-name="Allow quick delivery, and a user friendly 
interface like uber; profiles, ratings, etc." transform="translate(3257 2351)" fill="#1f274d" font-size="18" font-family="Tenon-Regular, Tenon"><tspan x="0" y="14">Allow quick delivery, and a user friendly </tspan><tspan x="0" y="40">interface like uber; profiles, ratings, etc.</tspan></text>
    <text id="The_service_would_have_instructions_and_regulations_that_all_users_would_have_to_follow_" data-name="The service would have instructions and 
regulations that all users would have to 
follow " transform="translate(2704 1830)" fill="#1f274d" font-size="18" font-family="Tenon-Regular, Tenon"><tspan x="0" y="14">The service would have instructions and </tspan><tspan x="0" y="40">regulations that all users would have to </tspan><tspan x="0" y="66">follow </tspan></text>
    <text id="Users_could_bring_their_own_material_or_use_available_material_that_they_already_have_in_stock_or_special_order_new_types" data-name="Users could bring their own material or use 
available material that they already have in 
stock or special order new types" transform="translate(2704 1282)" fill="#1f274d" font-size="18" font-family="Tenon-Regular, Tenon"><tspan x="0" y="14">Users could bring their own material or use </tspan><tspan x="0" y="40">available material that they already have in </tspan><tspan x="0" y="66">stock or special order new types</tspan></text>
    <text id="Users_can_pay_a_subscription_fee_like_a_gym_membership_and_come_in_whenever_they_want_to_create_3D_prints_on_available_machines" data-name="Users can pay a subscription fee like a gym 
membership and come in whenever they 
want to create 3D prints on available 
machines" transform="translate(3257 1482)" fill="#1f274d" font-size="18" font-family="Tenon-Regular, Tenon"><tspan x="0" y="14">Users can pay a subscription fee like a gym </tspan><tspan x="0" y="40">membership and come in whenever they </tspan><tspan x="0" y="66">want to create 3D prints on available </tspan><tspan x="0" y="92">machines</tspan></text>
    <text id="this_could_extend_to_other_maker_services_like_lasercutting_" data-name="this could extend to other maker services 
like lasercutting " transform="translate(3257 1338)" fill="#1f274d" font-size="18" font-family="Tenon-Regular, Tenon"><tspan x="0" y="14">this could extend to other maker services </tspan><tspan x="0" y="40">like lasercutting </tspan></text>
    <text id="The_more_I_write_about_this_the_more_I_feel_like_its_already_a_thing" data-name="The more I write about this the more I feel 
like its already a thing" transform="translate(3257 1670)" fill="#1f274d" font-size="18" font-family="Tenon-Regular, Tenon"><tspan x="0" y="14">The more I write about this the more I feel </tspan><tspan x="0" y="40">like its already a thing</tspan></text>
    <text id="Users_would_be_encouraged_to_hlep_and_support_eachother_with_their_3D_prints" data-name="Users would be encouraged to hlep and 
support eachother with their 3D prints" transform="translate(3257 1814)" fill="#1f274d" font-size="18" font-family="Tenon-Regular, Tenon"><tspan x="0" y="14">Users would be encouraged to hlep and </tspan><tspan x="0" y="40">support eachother with their 3D prints</tspan></text>
    <g id="Group_3412" data-name="Group 3412" transform="translate(-102 -467)">
      <g id="Ellipse_45" data-name="Ellipse 45" transform="translate(2759 1939)" fill="#f3f3f7" stroke="#1f274d" stroke-width="10">
        <ellipse cx="222.5" cy="117" rx="222.5" ry="117" stroke="none"/>
        <ellipse cx="222.5" cy="117" rx="217.5" ry="112" fill="none"/>
      </g>
      <text id="Paid_maker_spaces" data-name="Paid maker spaces" transform="translate(2859 2065)" fill="#1f274d" font-size="26" font-family="GiraSans-Medium, Gira Sans" font-weight="500"><tspan x="0" y="0">Paid maker spaces</tspan></text>
    </g>
    <g id="Group_3415" data-name="Group 3415" transform="translate(-93 -429.669)">
      <text id="Users_are_walked_through_the_process_one_step_at_a_time" data-name="Users are walked through the process, one 
step at a time" transform="translate(3350 1140.669)" fill="#1f274d" font-size="18" font-family="Tenon-Regular, Tenon"><tspan x="0" y="14">Users are walked through the process, one </tspan><tspan x="0" y="40">step at a time</tspan></text>
      <text id="Spreading_knowledge_while_also_collectively_benefitting_from_the_technology_" data-name="Spreading knowledge while also collectively 
benefitting from the technology " transform="translate(3350 1284.669)" fill="#1f274d" font-size="18" font-family="Tenon-Regular, Tenon"><tspan x="0" y="14">Spreading knowledge while also collectively </tspan><tspan x="0" y="40">benefitting from the technology </tspan></text>
      <text id="People_knowledgable_in_3D_printing_could_volunteer_to_help_other_users_in_exchange_for_free_printing" data-name="People knowledgable in 3D printing could 
volunteer to help other users in exchange for 
free printing" transform="translate(3350 1428.669)" fill="#1f274d" font-size="18" font-family="Tenon-Regular, Tenon"><tspan x="0" y="14">People knowledgable in 3D printing could </tspan><tspan x="0" y="40">volunteer to help other users in exchange for </tspan><tspan x="0" y="66">free printing</tspan></text>
    </g>
    <g id="Group_3410" data-name="Group 3410" transform="translate(-344.597 -215.235)">
      <g id="Ellipse_46" data-name="Ellipse 46" transform="translate(2628 1096)" fill="#f3f3f7" stroke="#1f274d" stroke-width="10">
        <ellipse cx="291" cy="151" rx="291" ry="151" stroke="none"/>
        <ellipse cx="291" cy="151" rx="286" ry="146" fill="none"/>
      </g>
      <text id="Beginner_maker_spaces_with_tutoring_staff_available_to_help" data-name="Beginner maker spaces, with 
tutoring staff available to 
help" transform="translate(2728 1222)" fill="#1f274d" font-size="26" font-family="GiraSans-Medium, Gira Sans" font-weight="500"><tspan x="0" y="0">Beginner maker spaces, with </tspan><tspan x="0" y="34">tutoring staff available to </tspan><tspan x="0" y="68">help</tspan></text>
    </g>
    <g id="Group_3414" data-name="Group 3414" transform="translate(-80 -519)">
      <text id="Every_month_or_something_you_could_upload_files_or_select_reccomended_that_are_printed_for_you_and_sent_to_your_door_lootcrate-style" data-name="Every month or something you could upload 
files or select reccomended that are printed 
for you and sent to your door lootcrate-style" transform="translate(3337 700)" fill="#1f274d" font-size="18" font-family="Tenon-Regular, Tenon"><tspan x="0" y="14">Every month or something you could upload </tspan><tspan x="0" y="40">files or select reccomended that are printed </tspan><tspan x="0" y="66">for you and sent to your door lootcrate-style</tspan></text>
      <text id="Different_tiers_of_the_service_for_different_costs" data-name="Different tiers of the service for different 
costs" transform="translate(3337 556)" fill="#1f274d" font-size="18" font-family="Tenon-Regular, Tenon"><tspan x="0" y="14">Different tiers of the service for different </tspan><tspan x="0" y="40">costs</tspan></text>
      <text id="You_d_only_have_to_pay_shipping_or_maybe_free_shipping_for_certain_things_" data-name="You&rsquo;d only have to pay shipping or maybe 
free shipping for certain things " transform="translate(3337 866)" fill="#1f274d" font-size="18" font-family="Tenon-Regular, Tenon"><tspan x="0" y="14">You&rsquo;d only have to pay shipping or maybe </tspan><tspan x="0" y="40">free shipping for certain things </tspan></text>
    </g>
    <g id="Group_3411" data-name="Group 3411" transform="translate(-60.5 -239.956)">
      <g id="Ellipse_47" data-name="Ellipse 47" transform="translate(2680 297)" fill="#f3f3f7" stroke="#1f274d" stroke-width="10">
        <ellipse cx="238" cy="185" rx="238" ry="185" stroke="none"/>
        <ellipse cx="238" cy="185" rx="233" ry="180" fill="none"/>
      </g>
      <text id="_3D_manufacturing_subscription-based_service_X_amount_of_material_for_Y_per_month" data-name="3D manufacturing 
subscription-based 
service, X amount of 
material for $Y per 
month" transform="translate(2780 423)" fill="#1f274d" font-size="26" font-family="GiraSans-Medium, Gira Sans" font-weight="500"><tspan x="0" y="0">3D manufacturing </tspan><tspan x="0" y="34">subscription-based </tspan><tspan x="0" y="68">service, X amount of </tspan><tspan x="0" y="102">material for $Y per </tspan><tspan x="0" y="136">month</tspan></text>
    </g>
    <text id="Potentially_too_large-scale_for_a_thesis_project" data-name="Potentially too large-scale for a thesis 
project" transform="translate(1556 123)" fill="#1f274d" font-size="18" font-family="Tenon-Regular, Tenon"><tspan x="0" y="14">Potentially too large-scale for a thesis </tspan><tspan x="0" y="40">project</tspan></text>
    <text id="_3D_printer_that_is_incredibly_user_friendly" data-name="3D printer that is incredibly user friendly" transform="translate(2061 344)" fill="#1f274d" font-size="18" font-family="Tenon-Regular, Tenon"><tspan x="0" y="14">3D printer that is incredibly user friendly</tspan></text>
    <text id="connects_to_wifi_so_it_can_be_controlled_from_your_computer_used_to_print_day_to_day_items_and_maybe_comes_with_its_own_selection_and_library_of_objects_pre-installed" data-name="connects to wifi so it can be controlled from 
your computer, used to print day to day 
items and maybe comes with its own 
selection and library of objects pre-installed" transform="translate(2301 445)" fill="#1f274d" font-size="18" font-family="Tenon-Regular, Tenon"><tspan x="0" y="14">connects to wifi so it can be controlled from </tspan><tspan x="0" y="40">your computer, used to print day to day </tspan><tspan x="0" y="66">items and maybe comes with its own </tspan><tspan x="0" y="92">selection and library of objects pre-installed</tspan></text>
    <text id="basic_things_like_washers_and_fixtures_or_simple_nuts_and_bolts_maybe_at_home_stuff_like_pencil_holders_mic_stands_coasters" data-name="basic things like washers and fixtures or 
simple nuts and bolts, maybe at home stuff 
like pencil holders, mic stands, coasters" transform="translate(1792 219)" fill="#1f274d" font-size="18" font-family="Tenon-Regular, Tenon"><tspan x="0" y="14">basic things like washers and fixtures or </tspan><tspan x="0" y="40">simple nuts and bolts, maybe at home stuff </tspan><tspan x="0" y="66">like pencil holders, mic stands, coasters</tspan></text>
    <g id="Group_3409" data-name="Group 3409" transform="translate(-210 -470)">
      <g id="Ellipse_48" data-name="Ellipse 48" transform="translate(1908 1080)" fill="#f3f3f7" stroke="#404064" stroke-width="10">
        <ellipse cx="232.5" cy="151" rx="232.5" ry="151" stroke="none"/>
        <ellipse cx="232.5" cy="151" rx="227.5" ry="146" fill="none"/>
      </g>
      <text id="_3D_printer_designed_for_at_home_use_by_the_average_joe" data-name="3D printer designed 
for at home use by 
the average joe" transform="translate(2008 1206)" fill="#1f274d" font-size="26" font-family="GiraSans-Medium, Gira Sans" font-weight="500"><tspan x="0" y="0">3D printer designed </tspan><tspan x="0" y="34">for at home use by </tspan><tspan x="0" y="68">the average joe</tspan></text>
    </g>
    <text id="Combining_free_3D_printing_resources_all_in_one_place_could_make_the_tech_more_accessible_to_people_without_3D_printing_knowledge" data-name="Combining free 3D printing resources all in 
one place could make the tech more 
accessible to people without 3D printing 
knowledge" transform="translate(0 1353.337)" fill="#1f274d" font-size="18" font-family="Tenon-Regular, Tenon"><tspan x="0" y="14">Combining free 3D printing resources all in </tspan><tspan x="0" y="40">one place could make the tech more </tspan><tspan x="0" y="66">accessible to people without 3D printing </tspan><tspan x="0" y="92">knowledge</tspan></text>
    <text id="Users_could_filter_and_search_with_categories_and_tags_and_other_tools" data-name="Users could filter and search with categories 
and tags and other tools" transform="translate(0 1541.337)" fill="#1f274d" font-size="18" font-family="Tenon-Regular, Tenon"><tspan x="0" y="14">Users could filter and search with categories </tspan><tspan x="0" y="40">and tags and other tools</tspan></text>
    <text id="A_frontpage_of_featured_objects_and_models_that_changes_frequently_based_on_user_interests_and_staff_favorites_and_stuff" data-name="A frontpage of featured objects and models 
that changes frequently based on user 
interests and staff favorites and stuff" transform="translate(0 1685.337)" fill="#1f274d" font-size="18" font-family="Tenon-Regular, Tenon"><tspan x="0" y="14">A frontpage of featured objects and models </tspan><tspan x="0" y="40">that changes frequently based on user </tspan><tspan x="0" y="66">interests and staff favorites and stuff</tspan></text>
    <g id="Group_3406" data-name="Group 3406" transform="translate(-224 -499)">
      <g id="Ellipse_51" data-name="Ellipse 51" transform="translate(775 1831)" fill="#f3f3f7" stroke="#404064" stroke-width="10">
        <ellipse cx="273" cy="202" rx="273" ry="202" stroke="none"/>
        <ellipse cx="273" cy="202" rx="268" ry="197" fill="none"/>
      </g>
      <text id="An_aggrogate_3D_object_catalouge_that_combines_several_3D_printing_object_databases_like_thingiverse_and_allows_you_to_search_them_all_at_once" data-name="An aggrogate 3D object 
catalouge that combines 
several 3D printing object 
databases like thingiverse 
and allows you to search 
them all at once" transform="translate(875 1957)" fill="#1f274d" font-size="26" font-family="GiraSans-Medium, Gira Sans" font-weight="500"><tspan x="0" y="0">An aggrogate 3D object </tspan><tspan x="0" y="34">catalouge that combines </tspan><tspan x="0" y="68">several 3D printing object </tspan><tspan x="0" y="102">databases like thingiverse </tspan><tspan x="0" y="136">and allows you to search </tspan><tspan x="0" y="170">them all at once</tspan></text>
    </g>
    <g id="Group_3407" data-name="Group 3407" transform="translate(129 -348)">
      <g id="Ellipse_49" data-name="Ellipse 49" transform="translate(826 1251)" fill="#f3f3f7" stroke="#404064" stroke-width="10">
        <ellipse cx="287" cy="168" rx="287" ry="168" stroke="none"/>
        <ellipse cx="287" cy="168" rx="282" ry="163" fill="none"/>
      </g>
      <text id="Peer_to_peer_manufacturing_make_3D_prints_for_other_users_to_earn_points_that_you_can_spend_on_prints" data-name="Peer to peer manufacturing, 
make 3D prints for other 
users to earn points that 
you can spend on prints" transform="translate(926 1377)" fill="#1f274d" font-size="26" font-family="GiraSans-Medium, Gira Sans" font-weight="500"><tspan x="0" y="0">Peer to peer manufacturing, </tspan><tspan x="0" y="34">make 3D prints for other </tspan><tspan x="0" y="68">users to earn points that </tspan><tspan x="0" y="102">you can spend on prints</tspan></text>
    </g>
    <text id="Render_farm-style_system_" data-name="Render farm-style system " transform="translate(514 809)" fill="#1f274d" font-size="18" font-family="Tenon-Regular, Tenon"><tspan x="0" y="14">Render farm-style system </tspan></text>
    <text id="Some_materials_cost_more_points_than_others_machines_too" data-name="Some materials cost more points than 
others, machines too" transform="translate(514 665)" fill="#1f274d" font-size="18" font-family="Tenon-Regular, Tenon"><tspan x="0" y="14">Some materials cost more points than </tspan><tspan x="0" y="40">others, machines too</tspan></text>
    <text id="Earn_credits_by_completeing_prints_for_other_users_then_spend_those_credits_on_3D_prints_made_by_other_people_giving_you_the_ability_to_print_with_different_materials_and_machines_then_you_have_access_to." data-name="Earn credits by completeing prints for other 
users, then spend those credits on 3D prints 
made by other people, giving you the ability 
to print with different materials and 
machines then you have access to." transform="translate(514 931)" fill="#1f274d" font-size="18" font-family="Tenon-Regular, Tenon"><tspan x="0" y="14">Earn credits by completeing prints for other </tspan><tspan x="0" y="40">users, then spend those credits on 3D prints </tspan><tspan x="0" y="66">made by other people, giving you the ability </tspan><tspan x="0" y="92">to print with different materials and </tspan><tspan x="0" y="118">machines then you have access to.</tspan></text>
    <text id="Supply_schools_with_3D_printers_that_students_have_to_incorporate_into_a_simple_project" data-name="Supply schools with 3D printers that 
students have to incorporate into a simple 
project" transform="translate(1056)" fill="#1f274d" font-size="18" font-family="Tenon-Regular, Tenon"><tspan x="0" y="14">Supply schools with 3D printers that </tspan><tspan x="0" y="40">students have to incorporate into a simple </tspan><tspan x="0" y="66">project</tspan></text>
    <text id="Program_could_be_sponsored_by_a_maker_space_which_provides_the_school_with_a_rented_3D_printer_for_a_week_or_something_and_a_specialist_to_come_in_and_explain_it_to_the_kids" data-name="Program could be sponsored by a maker 
space, which provides the school with a 
rented 3D printer for a week or something, 
and a specialist to come in and explain it to 
the kids" transform="translate(514 144)" fill="#1f274d" font-size="18" font-family="Tenon-Regular, Tenon"><tspan x="0" y="14">Program could be sponsored by a maker </tspan><tspan x="0" y="40">space, which provides the school with a </tspan><tspan x="0" y="66">rented 3D printer for a week or something, </tspan><tspan x="0" y="92">and a specialist to come in and explain it to </tspan><tspan x="0" y="118">the kids</tspan></text>
    <g id="Group_3408" data-name="Group 3408" transform="translate(-112 -340)">
      <g id="Ellipse_50" data-name="Ellipse 50" transform="translate(1097 604)" fill="#f3f3f7" stroke="#404064" stroke-width="10">
        <ellipse cx="258" cy="185" rx="258" ry="185" stroke="none"/>
        <ellipse cx="258" cy="185" rx="253" ry="180" fill="none"/>
      </g>
      <text id="_3D_printing_curriculum_introduce_the_basics_of_3D_printing_to_high_schoolers_allow_them_to_try_the_tech" data-name="3D printing  curriculum, 
introduce the basics of 
3D printing to high 
schoolers, allow them 
to try the tech" transform="translate(1197 730)" fill="#1f274d" font-size="26" font-family="GiraSans-Medium, Gira Sans" font-weight="500"><tspan x="0" y="0" xml:space="preserve">3D printing  curriculum, </tspan><tspan x="0" y="34">introduce the basics of </tspan><tspan x="0" y="68">3D printing to high </tspan><tspan x="0" y="102">schoolers, allow them </tspan><tspan x="0" y="136">to try the tech</tspan></text>
    </g>
    <text id="Students_could_work_hands-on_with_a_specialist_to_learn_the_basics" data-name="Students could work hands-on with a 
specialist to learn the basics" transform="translate(514)" fill="#1f274d" font-size="18" font-family="Tenon-Regular, Tenon"><tspan x="0" y="14">Students could work hands-on with a </tspan><tspan x="0" y="40">specialist to learn the basics</tspan></text>
    <text id="The_owners_of_the_printers_would_be_able_to_use_their_machines_for_passive_income_while_also_charging_less_than_3D_printing_services_since_its_only_one_hobbyest_with_a_3D_printer" data-name="The owners of the printers would be able to 
use their machines for passive income while 
also charging less than 3D printing services 
since its only one hobbyest with a 3D printer" transform="translate(1323 2577)" fill="#1f274d" font-size="18" font-family="Tenon-Regular, Tenon"><tspan x="0" y="14">The owners of the printers would be able to </tspan><tspan x="0" y="40">use their machines for passive income while </tspan><tspan x="0" y="66">also charging less than 3D printing services </tspan><tspan x="0" y="92">since its only one hobbyest with a 3D printer</tspan></text>
    <text id="Online_platform_to_connect_3D_printer_owners_to_3D_artists_to_print_their_objects_locally_and_save_money_compared_to_regular_3D_printing_services" data-name="Online platform to connect 3D printer 
owners to 3D artists, to print their objects 
locally and save money compared to regular 
3D printing services" transform="translate(1779 2577)" fill="#1f274d" font-size="18" font-family="Tenon-Regular, Tenon"><tspan x="0" y="14">Online platform to connect 3D printer </tspan><tspan x="0" y="40">owners to 3D artists, to print their objects </tspan><tspan x="0" y="66">locally and save money compared to regular </tspan><tspan x="0" y="92">3D printing services</tspan></text>
    <path id="Path_58" data-name="Path 58" d="M1858.456,3343.335l17.873-17.873,17.873,17.873" transform="translate(-852.087 -2676.624) rotate(-12)" fill="none" stroke="#074391" stroke-linecap="round" stroke-width="8"/>
    <path id="Path_546" data-name="Path 546" d="M1858.456,3343.335l17.873-17.873,17.873,17.873" transform="translate(36.17 -2980.455)" fill="none" stroke="#074391" stroke-linecap="round" stroke-width="8"/>
    <path id="Path_547" data-name="Path 547" d="M1858.456,3343.335l17.873-17.873,17.873,17.873" transform="translate(1853.146 -3399.526) rotate(25)" fill="none" stroke="#074391" stroke-linecap="round" stroke-width="8"/>
    <path id="Path_548" data-name="Path 548" d="M1858.456,3343.335l17.873-17.873,17.873,17.873" transform="translate(3233.05 -3179.538) rotate(44)" fill="none" stroke="#074391" stroke-linecap="round" stroke-width="8"/>
    <path id="Path_549" data-name="Path 549" d="M1858.456,3343.335l17.873-17.873,17.873,17.873" transform="translate(5652.014 -2889.146) rotate(69)" fill="none" stroke="#074391" stroke-linecap="round" stroke-width="8"/>
    <path id="Path_550" data-name="Path 550" d="M1858.456,3343.335l17.873-17.873,17.873,17.873" transform="translate(6038.356 -2363.815) rotate(77)" fill="none" stroke="#074391" stroke-linecap="round" stroke-width="8"/>
    <path id="Path_551" data-name="Path 551" d="M1858.456,3343.335l17.873-17.873,17.873,17.873" transform="matrix(-0.342, 0.94, -0.94, -0.342, 6988.553, -257.241)" fill="none" stroke="#074391" stroke-linecap="round" stroke-width="8"/>
    <path id="Path_552" data-name="Path 552" d="M1858.456,3343.335l17.873-17.873,17.873,17.873" transform="translate(5603.216 -2244.29) rotate(68)" fill="none" stroke="#074391" stroke-linecap="round" stroke-width="8"/>
    <path id="Path_553" data-name="Path 553" d="M1858.456,3343.335l17.873-17.873,17.873,17.873" transform="translate(5943.652 -1786.901) rotate(75)" fill="none" stroke="#074391" stroke-linecap="round" stroke-width="8"/>
    <path id="Path_554" data-name="Path 554" d="M1858.456,3343.335l17.873-17.873,17.873,17.873" transform="translate(6445.13 -1016.767) rotate(87)" fill="none" stroke="#074391" stroke-linecap="round" stroke-width="8"/>
    <path id="Path_555" data-name="Path 555" d="M1858.456,3343.335l17.873-17.873,17.873,17.873" transform="translate(1005.671 -1935.083)" fill="none" stroke="#074391" stroke-linecap="round" stroke-width="8"/>
    <path id="Path_556" data-name="Path 556" d="M1858.456,3343.335l17.873-17.873,17.873,17.873" transform="translate(4758.329 5118.899) rotate(-180)" fill="none" stroke="#074391" stroke-linecap="round" stroke-width="8"/>
    <path id="Path_557" data-name="Path 557" d="M1858.456,3343.335l17.873-17.873,17.873,17.873" transform="matrix(0.656, 0.755, -0.755, 0.656, 4493.021, -2218.204)" fill="none" stroke="#074391" stroke-linecap="round" stroke-width="8"/>
    <path id="Path_558" data-name="Path 558" d="M1858.456,3343.335l17.873-17.873,17.873,17.873" transform="translate(5907.544 -1194.229) rotate(74)" fill="none" stroke="#074391" stroke-linecap="round" stroke-width="8"/>
    <path id="Path_559" data-name="Path 559" d="M1858.456,3343.335l17.873-17.873,17.873,17.873" transform="matrix(-0.391, 0.921, -0.921, -0.391, 7016.971, 1266.658)" fill="none" stroke="#074391" stroke-linecap="round" stroke-width="8"/>
    <path id="Path_560" data-name="Path 560" d="M1858.456,3343.335l17.873-17.873,17.873,17.873" transform="translate(6991.226 2387.294) rotate(128)" fill="none" stroke="#074391" stroke-linecap="round" stroke-width="8"/>
    <path id="Path_561" data-name="Path 561" d="M1858.456,3343.335l17.873-17.873,17.873,17.873" transform="translate(5803.885 -593.295) rotate(72)" fill="none" stroke="#074391" stroke-linecap="round" stroke-width="8"/>
    <path id="Path_562" data-name="Path 562" d="M1858.456,3343.335l17.873-17.873,17.873,17.873" transform="matrix(0, 1, -1, 0, 6547.664, 497.17)" fill="none" stroke="#074391" stroke-linecap="round" stroke-width="8"/>
    <path id="Path_563" data-name="Path 563" d="M1858.456,3343.335l17.873-17.873,17.873,17.873" transform="translate(6988.317 1902.759) rotate(110)" fill="none" stroke="#074391" stroke-linecap="round" stroke-width="8"/>
    <path id="Path_564" data-name="Path 564" d="M1858.456,3343.335l17.873-17.873,17.873,17.873" transform="translate(5600.662 4528.169) rotate(151)" fill="none" stroke="#074391" stroke-linecap="round" stroke-width="8"/>
    <path id="Path_565" data-name="Path 565" d="M1858.456,3343.335l17.873-17.873,17.873,17.873" transform="translate(3264.063 6108.992) rotate(-171)" fill="none" stroke="#074391" stroke-linecap="round" stroke-width="8"/>
    <path id="Path_566" data-name="Path 566" d="M1858.456,3343.335l17.873-17.873,17.873,17.873" transform="matrix(-0.731, -0.682, 0.682, -0.731, 626.706, 6225.401)" fill="none" stroke="#074391" stroke-linecap="round" stroke-width="8"/>
    <path id="Path_571" data-name="Path 571" d="M1858.456,3343.335l17.873-17.873,17.873,17.873" transform="matrix(0.545, -0.839, 0.839, 0.545, -2919.884, 1768.578)" fill="none" stroke="#074391" stroke-linecap="round" stroke-width="8"/>
    <path id="Path_574" data-name="Path 574" d="M1858.456,3343.335l17.873-17.873,17.873,17.873" transform="translate(-1834.521 4830.902) rotate(-115)" fill="none" stroke="#074391" stroke-linecap="round" stroke-width="8"/>
    <path id="Path_575" data-name="Path 575" d="M1858.456,3343.335l17.873-17.873,17.873,17.873" transform="translate(-2553.769 3990.173) rotate(-100)" fill="none" stroke="#074391" stroke-linecap="round" stroke-width="8"/>
    <path id="Path_576" data-name="Path 576" d="M1858.456,3343.335l17.873-17.873,17.873,17.873" transform="matrix(0.122, -0.993, 0.993, 0.122, -3132.808, 2854.819)" fill="none" stroke="#074391" stroke-linecap="round" stroke-width="8"/>
    <path id="Path_577" data-name="Path 577" d="M1858.456,3343.335l17.873-17.873,17.873,17.873" transform="translate(-2882.941 1558.934) rotate(-69)" fill="none" stroke="#074391" stroke-linecap="round" stroke-width="8"/>
    <path id="Path_578" data-name="Path 578" d="M1858.456,3343.335l17.873-17.873,17.873,17.873" transform="translate(-3011.893 1191.062) rotate(-66)" fill="none" stroke="#074391" stroke-linecap="round" stroke-width="8"/>
    <path id="Path_579" data-name="Path 579" d="M1858.456,3343.335l17.873-17.873,17.873,17.873" transform="translate(-2922.168 404.146) rotate(-56)" fill="none" stroke="#074391" stroke-linecap="round" stroke-width="8"/>
    <path id="Path_580" data-name="Path 580" d="M1858.456,3343.335l17.873-17.873,17.873,17.873" transform="translate(-2743.574 -995.813) rotate(-41)" fill="none" stroke="#074391" stroke-linecap="round" stroke-width="8"/>
    <path id="Path_581" data-name="Path 581" d="M1858.456,3343.335l17.873-17.873,17.873,17.873" transform="translate(-2847.931 -904.593) rotate(-46)" fill="none" stroke="#074391" stroke-linecap="round" stroke-width="8"/>
    <path id="Path_582" data-name="Path 582" d="M1858.456,3343.335l17.873-17.873,17.873,17.873" transform="translate(-1391.758 -2683.928) rotate(-14)" fill="none" stroke="#074391" stroke-linecap="round" stroke-width="8"/>
    <path id="Path_572" data-name="Path 572" d="M1858.456,3343.335l17.873-17.873,17.873,17.873" transform="translate(-2427.898 4057.829) rotate(-90)" fill="none" stroke="#074391" stroke-linecap="round" stroke-width="8"/>
    <path id="Path_573" data-name="Path 573" d="M1858.456,3343.335l17.873-17.873,17.873,17.873" transform="matrix(-0.5, -0.866, 0.866, -0.5, -1043.009, 5608.201)" fill="none" stroke="#074391" stroke-linecap="round" stroke-width="8"/>
    <text id="Cost_Difficulty_of_3D_Printing" data-name="Cost &amp; Difficulty
of 3D Printing" transform="translate(1885 1458)" fill="#fff" font-size="38" font-family="GiraSans-Medium, Gira Sans" font-weight="500"><tspan x="-156.147" y="38">Cost &amp; Difficulty</tspan><tspan x="-131.59" y="88">of 3D Printing</tspan></text>
  </g>
</svg>
