<?xml version="1.0" encoding="UTF-8"?><svg id="Layer_1" xmlns="http://www.w3.org/2000/svg" viewBox="0 0 147.7 193.83"><defs><style>.cls-1{fill:none;stroke:#404064;stroke-linecap:round;stroke-linejoin:round;stroke-width:8px;}</style></defs><g id="Group_3391"><g id="Group_3390"><g id="Group_3389"><path id="Path_556" class="cls-1" d="M33.87,29.08c-6.35-13.84,.74-21.31,7.82-23.96,6.76-2.64,14.45-.49,18.86,5.27"/><path id="Path_557" class="cls-1" d="M90.98,17.48c-4.11-15.53-19.5-14.43-30.43-7.08-3.56,2.4-20.13,15.47-6.99,39.72"/><path id="Path_558" class="cls-1" d="M79.06,57.88c-15.29,2.66-20.92,6.48-24.39,10.71-1.3,1.58-2.41,3.32-3.3,5.17-.79,1.68-1.42,3.43-1.88,5.22h0c-2.02,7.83-1.35,17.45,4.76,22.61,9.09,7.67,24.58,.71,26.43-.12,1.37-.61,2.69-1.33,3.94-2.15,4.21-2.81,6.89-6.42,15.39-12.94,4.57-3.51,9.35-6.73,14.32-9.64"/><path id="Path_559" class="cls-1" d="M86.92,38.11c5.26,9.74,6.41,18.2-7.86,19.77"/><path id="Path_560" class="cls-1" d="M125.08,59.34c-5.17,.1-16.23-1.88-19.05-18.42-1.79-10.5-3.5-19.63-16.6-21.57-16.94-2.5-32.53,16.19-10.36,38.53"/><path id="Path_562" class="cls-1" d="M67.79,86.47c10.2-12.18,29.21-18.81,41.42-13.28,13.71,6.21,17.7,7.53,23.73,5.94,18.2-4.82,12.36-43.81-10.43-39.39,6.65-10.48-2.82-39.03-26.68-26.33-2.49,1.56-4.66,3.58-6.41,5.94"/><path id="Path_563" class="cls-1" d="M10.06,58.47c-10.91,19.8,8.13,28.43,17.64,28.15,8.54-.25,17.33-3.88,21.07-7.02,.25-.21,.49-.42,.71-.62"/><path id="Path_564" class="cls-1" d="M31.43,21.74c-22.29-3.89-43.56,30.34-9.89,40.3"/><path id="Path_565" class="cls-1" d="M84.62,99.33c11.09,11.04,29.04,11,40.07-.1,5.31-5.34,8.28-12.57,8.25-20.1"/></g><path id="Path_566" class="cls-1" d="M49.49,78.98c-22.29-9.37-2.39-40.87-27.74-35.29"/></g><path id="Path_567" class="cls-1" d="M80.04,119.53l-13.88,18.98,16.79,10.46-48.84,40.86,7.11-46.4-16-9.31,7.21-30.73"/></g></svg>