<?xml version="1.0" encoding="UTF-8"?><svg id="Layer_1" xmlns="http://www.w3.org/2000/svg" viewBox="0 0 175.72 166.84"><defs><style>.cls-1{fill:#f3f3f7;}</style></defs><g id="Group_4183"><g id="Group_4180"><g id="Group_4172"><path id="Path_724" class="cls-1" d="M169.37,46.23c-1.64-2.48-5.66-9.18-7.15-11.66V11.9c-.01-6.57-5.34-11.9-11.91-11.9H25.41c-6.57,0-11.89,5.33-11.9,11.9v22.47c-1.85,2.56-6.51,9.03-8.18,11.76-1.6,2.63-5.33,9.5-5.33,16.51,0,8.66,5.39,16.41,13.51,19.43v52.54c0,6.62,5.37,11.99,11.99,12H97.85c2.21,0,4-1.79,4-4s-1.79-4-4-4H25.5c-2.21,0-3.99-1.79-3.99-4v-51.27c6.33-.24,12.2-3.36,15.94-8.48,3.89,5.34,10.1,8.5,16.71,8.5,6.68,0,12.95-3.22,16.83-8.66,4.04,5.42,10.38,8.63,17.14,8.66,6.61,0,12.82-3.16,16.72-8.49,3.9,5.34,10.11,8.49,16.72,8.49,6.61,0,12.82-3.16,16.72-8.49,3.73,5.12,9.6,8.24,15.93,8.47v21.7c0,2.21,1.79,4,4,4s4-1.79,4-4v-22.97c8.11-3.02,13.5-10.77,13.5-19.43,0-6.78-4.29-13.28-6.35-16.41ZM33.44,62.65c0,7.02-5.69,12.7-12.71,12.71-.79,0-1.58-.07-2.35-.22-.03,0-.06,0-.09-.01t-.02-.01c-5.97-1.17-10.27-6.4-10.27-12.48,0-5.12,3.19-10.74,4.16-12.34,1.4-2.29,5.39-7.85,7.39-10.63h13.89v22.98Zm33.44-.06v.06c-.01,7.02-5.7,12.7-12.72,12.71-7.02,0-12.7-5.68-12.72-12.7v-22.99h25.79l-.35,22.92Zm33.97,.06c-.01,7.02-5.7,12.7-12.72,12.71-7.13,0-13.17-5.74-13.25-12.57v-.14l.35-22.98h25.62v22.98Zm33.44-.01v.02c-.02,7.02-5.7,12.69-12.72,12.7-7.02,0-12.71-5.69-12.72-12.71v-22.98h25.44v22.97Zm.18-1.19c.07-.25,.17-.49,.3-.71-.12,.23-.22,.46-.3,.71h0Zm-63.12-29.78H21.51V11.9c0-2.15,1.75-3.9,3.9-3.9h124.9c2.16,0,3.91,1.74,3.91,3.9V31.67H71.35Zm86.11,43.45s-.01,0-.02,.01c-.03,0-.06,.01-.09,.01-.77,.15-1.56,.22-2.35,.22-7.02,0-12.7-5.69-12.71-12.71v-22.98h13.66c1.8,3,5.2,8.62,6.75,10.97,1.63,2.47,5.02,7.62,5.02,12,0,6.08-4.3,11.31-10.26,12.48Z"/></g><g id="Group_4173"><path id="Path_725" class="cls-1" d="M35.8,19.84c0,.26-.03,.52-.08,.78-.05,.25-.13,.5-.23,.74-.1,.24-.22,.48-.37,.69-.14,.22-.31,.43-.5,.61-.18,.19-.38,.35-.6,.5-.22,.14-.45,.27-.69,.37-.24,.1-.49,.17-.75,.22-.26,.06-.52,.08-.79,.08-.26,0-.52-.02-.78-.08-.25-.05-.5-.12-.74-.22-.24-.1-.47-.22-.69-.37-.22-.14-.43-.31-.61-.5-.75-.75-1.18-1.76-1.18-2.82,0-.27,.03-.53,.08-.79,.05-.26,.13-.51,.23-.75,.1-.24,.22-.47,.37-.69,.14-.22,.31-.42,.5-.6,.18-.19,.38-.36,.6-.5,.22-.15,.45-.27,.7-.37,.24-.1,.49-.18,.74-.23,.52-.1,1.05-.1,1.57,0,.26,.05,.51,.13,.75,.23,.24,.1,.47,.22,.69,.37,.22,.14,.42,.31,.6,.5,.19,.18,.36,.38,.5,.6,.15,.22,.27,.45,.37,.69,.1,.24,.18,.49,.23,.75,.05,.26,.08,.52,.08,.79Z"/></g><g id="Group_4174"><path id="Path_726" class="cls-1" d="M48.38,19.84c0,1.06-.43,2.07-1.18,2.82-.18,.19-.38,.35-.6,.5-.22,.14-.46,.27-.7,.37-.24,.1-.49,.17-.74,.22-.26,.06-.52,.08-.78,.08-.27,0-.53-.02-.79-.08-.25-.05-.5-.12-.74-.22-.24-.1-.47-.22-.69-.37-.22-.14-.43-.31-.61-.5-.75-.75-1.18-1.76-1.18-2.82,0-.27,.03-.53,.08-.79,.06-.26,.14-.51,.23-.75,.1-.24,.23-.47,.37-.69,.14-.22,.31-.42,.5-.6,.18-.19,.39-.36,.61-.5,.21-.15,.45-.27,.69-.37,.24-.1,.49-.18,.74-.23,.52-.1,1.05-.1,1.57,0,.25,.05,.5,.13,.74,.23,.25,.1,.48,.22,.7,.37,.22,.14,.42,.31,.6,.5,.19,.18,.36,.38,.5,.6,.15,.22,.27,.45,.37,.69,.1,.24,.18,.49,.23,.75,.05,.26,.08,.52,.08,.79Z"/></g><g id="Group_4175"><path id="Path_727" class="cls-1" d="M60.95,19.84c0,.26-.02,.52-.07,.78-.06,.25-.13,.5-.23,.74-.1,.24-.22,.47-.37,.69-.14,.22-.31,.43-.5,.61-.18,.19-.38,.35-.6,.5-.22,.14-.45,.27-.69,.37-.24,.1-.49,.17-.75,.22-.26,.06-.52,.08-.78,.08-.27,0-.53-.02-.79-.08-.25-.05-.5-.12-.74-.22-.24-.1-.48-.23-.7-.37-.22-.15-.42-.31-.6-.5-.75-.75-1.18-1.76-1.18-2.82,0-.27,.03-.53,.08-.79,.05-.26,.13-.51,.23-.75,.1-.24,.22-.47,.37-.69,.14-.22,.31-.42,.49-.6,.18-.19,.39-.36,.61-.5,.22-.15,.45-.27,.69-.37,.24-.1,.49-.18,.75-.23,1.31-.26,2.66,.16,3.61,1.1,.19,.18,.36,.38,.5,.6,.14,.22,.27,.45,.37,.69,.09,.24,.17,.49,.23,.75,.05,.26,.07,.53,.07,.79Z"/></g><g id="Group_4176"><path id="Path_728" class="cls-1" d="M146.04,19.83c0,2.21-1.79,4-4,4h-50.59c-2.21,0-4-1.79-4-4s1.79-4,4-4h50.59c2.21,0,4,1.79,4,4Z"/></g><g id="Group_4177"><path id="Path_729" class="cls-1" d="M134.77,60.74c-.12,.23-.22,.46-.3,.71,.07-.25,.17-.49,.3-.71Z"/></g><g id="Group_4178"><path id="Path_730" class="cls-1" d="M134.77,60.74c-.12,.23-.22,.46-.3,.71,.07-.25,.17-.49,.3-.71Z"/></g><g id="Group_4179"><path id="Path_731" class="cls-1" d="M144.1,166.84c-1.45,0-2.79-.78-3.49-2.05l-6.82-12.2-8.06,7.12c-1.13,1-2.72,1.28-4.12,.72-1.4-.56-2.37-1.85-2.51-3.35l-4.8-52.16c-.14-1.57,.65-3.08,2.03-3.85,1.38-.77,3.08-.66,4.35,.28l44.22,32.95c1.28,.96,1.88,2.59,1.5,4.15-.38,1.56-1.64,2.74-3.22,3.01l-10.95,1.85,6.7,12.07c.53,.96,.65,2.1,.32,3.14-.33,1.05-1.08,1.91-2.06,2.39l-11.31,5.52c-.55,.27-1.15,.41-1.75,.41Zm-9.25-24.53c.22,0,.45,.02,.67,.06,1.19,.2,2.23,.93,2.82,1.99l7.4,13.23,4.13-2.01-7.39-13.33c-.63-1.13-.67-2.5-.11-3.67,.56-1.17,1.66-1.99,2.94-2.21l7.3-1.23-29.52-22,3.25,35.37,5.86-5.18c.73-.65,1.67-1,2.65-1h0Z"/></g></g><g id="Group_4181"><path id="Path_732" class="cls-1" d="M68.01,106.85h-27.71c-2.21,0-4-1.79-4-4s1.79-4,4-4h27.71c2.21,0,4,1.79,4,4s-1.79,4-4,4Z"/></g><g id="Group_4182"><path id="Path_733" class="cls-1" d="M58.12,120.74h-17.72c-2.21,0-4-1.79-4-4s1.79-4,4-4h17.72c2.21,0,4,1.79,4,4s-1.79,4-4,4Z"/></g></g></svg>