<?xml version="1.0" encoding="UTF-8"?><svg id="Layer_1" xmlns="http://www.w3.org/2000/svg" viewBox="0 0 224.16 177.14"><defs><style>.cls-1{fill:#f3f3f7;}</style></defs><g id="Group_4213"><g id="Group_4191"><g id="Group_4184"><path id="Path_734" class="cls-1" d="M61.6,48.17h-.01v-.22c0,.07,0,.15,.01,.22Z"/><path id="Path_735" class="cls-1" d="M69.59,47.95v.22h-.01c0-.07,.01-.15,.01-.22Z"/></g><g id="Group_4188"><path id="Path_739" class="cls-1" d="M69.58,48.17h.01v-.22c0,.07,0,.15-.01,.22Zm-7.99-.22v.22h.01c0-.07-.01-.15-.01-.22Zm0,0v.22h.01c0-.07-.01-.15-.01-.22Zm7.99,.22h.01v-.22c0,.07,0,.15-.01,.22Z"/><path id="Path_740" class="cls-1" d="M90.94,13.61h-21.35v-3.09c0-5.81-4.71-10.51-10.52-10.52H26.18c-5.81,0-10.52,4.71-10.53,10.52v10.6h-7.65v-3.51c0-2.21-1.79-4-4-4S0,15.4,0,17.61v51.68c0,2.21,1.79,4,4,4,2.21,0,4-1.79,4-4v-3.52h7.65v3.52c0,2.21,1.79,3.99,4,4,2.21,0,4-1.79,4-4v-20.69h6.01v32.71c.01,5.84,4.74,10.57,10.58,10.57h50.7c5.84,0,10.56-4.73,10.57-10.57V24.18c0-5.84-4.73-10.56-10.57-10.57ZM15.65,57.77h-7.65V29.12h7.65v28.65Zm44.01-18.74h11.85v9.14h-11.85v-9.14Zm-2.16-8c-3.22,0-5.84,2.62-5.84,5.84v3.73h-14V24.18c0-1.42,1.16-2.57,2.58-2.57h21.35v9.42h-4.09Zm-27.84-6.85v16.42h-6.01V10.52c0-1.39,1.14-2.52,2.53-2.52H59.07c1.39,0,2.52,1.13,2.52,2.52v3.09h-21.35c-5.84,0-10.57,4.73-10.58,10.57h0Zm45.41,59.6h-18.96v-4.68h18.96v4.68Zm18.44-2.47c0,1.42-1.15,2.57-2.57,2.57h-7.87v-5.51c0-4.02-3.26-7.27-7.28-7.27h-20.41c-4.01,0-7.27,3.26-7.27,7.27v5.51h-7.87c-1.42,0-2.58-1.15-2.58-2.57V48.6h14v1.73c0,3.22,2.62,5.84,5.84,5.84h4.09v2.97c0,2.21,1.79,4,4,4s4-1.79,4-4v-2.97h4.08c3.22,0,5.84-2.62,5.84-5.84v-1.73h14v32.71Zm0-40.71h-14v-3.73c0-3.22-2.62-5.84-5.84-5.84h-4.08v-9.42h21.35c1.42,0,2.57,1.15,2.57,2.57h0v16.42Z"/></g><g id="Group_4189"><path id="Path_741" class="cls-1" d="M61.6,48.17h-.01v-.22c0,.07,0,.15,.01,.22Z"/><path id="Path_742" class="cls-1" d="M69.59,47.95v.22h-.01c0-.07,.01-.15,.01-.22Z"/></g><g id="Group_4190"><path id="Path_743" class="cls-1" d="M61.6,48.17h-.01v-.22c0,.07,0,.15,.01,.22Z"/><path id="Path_744" class="cls-1" d="M69.59,47.95v.22h-.01c0-.07,.01-.15,.01-.22Z"/></g></g><g id="Group_4196"><g id="Group_4192"><path id="Path_745" class="cls-1" d="M173.63,145.03h0Zm-.43-.01h0s.43,.01,.43,.01c-.14,0-.29,0-.43-.01Z"/></g><g id="Group_4193"><path id="Path_746" class="cls-1" d="M173.63,145.03h0Zm-.43-.01h0s.43,.01,.43,.01c-.14,0-.29,0-.43-.01Z"/></g><g id="Group_4194"><path id="Path_747" class="cls-1" d="M210.18,128.18c2.49-3.04,3.85-6.86,3.84-10.79-.01-9.45-7.67-17.11-17.12-17.12-5.6,0-10.85,2.75-14.05,7.35-2.84-1.5-6.01-2.29-9.22-2.28-3.21,0-6.37,.78-9.21,2.28-3.2-4.6-8.45-7.35-14.05-7.35-9.45,.01-17.11,7.67-17.12,17.12,0,3.93,1.35,7.75,3.84,10.79-8.45,3.44-13.98,11.66-13.99,20.79,.01,6.69,5.43,12.11,12.12,12.11h6.41c-.07,.74-.1,1.49-.1,2.25,0,7.62,6.18,13.8,13.8,13.81h36.6c7.62,0,13.81-6.19,13.81-13.81,0-.76-.03-1.51-.1-2.25h6.41c6.69,0,12.1-5.42,12.11-12.11,0-9.13-5.53-17.34-13.98-20.79Zm-13.28-19.91c5.03,0,9.12,4.09,9.12,9.12,0,5.03-4.09,9.12-9.12,9.12-1.18,0-2.35-.23-3.44-.68,.02-.21,.02-.43,.02-.65,0-4.53-1.56-8.93-4.41-12.45,1.64-2.77,4.62-4.46,7.83-4.46Zm-35.01,15.4c.19-1.53,.69-3.01,1.46-4.35,.96-1.7,2.33-3.13,3.99-4.16,1.88-1.19,4.06-1.82,6.29-1.82,2.23,0,4.42,.63,6.3,1.82,1.66,1.03,3.03,2.46,3.99,4.16,.77,1.34,1.27,2.82,1.46,4.35h0c.07,.51,.1,1.01,.1,1.51,0,.81-.08,1.61-.24,2.4-.13,.62-.31,1.22-.54,1.81-.58,1.53-1.47,2.92-2.62,4.09h-.01c-.73,.76-1.57,1.41-2.48,1.94,0,0-.01,0-.01,.01h-.01c-1.65,.96-3.5,1.5-5.4,1.58-.18,.02-.36,.02-.54,.02-.18,0-.36,0-.54-.02-1.92-.08-3.78-.63-5.43-1.61-.91-.52-1.74-1.17-2.47-1.92-1.15-1.17-2.04-2.56-2.62-4.09-.23-.59-.41-1.19-.54-1.81-.16-.79-.24-1.59-.24-2.4,0-.51,.03-1.01,.1-1.51Zm-11.52-15.4c3.21,0,6.19,1.69,7.83,4.46-2.86,3.52-4.42,7.92-4.41,12.45,0,.22,0,.44,.02,.66-1.09,.44-2.26,.67-3.44,.67-5.03,0-9.12-4.09-9.12-9.12,0-5.03,4.09-9.11,9.12-9.12Zm-6.76,44.81h-8.39c-2.27,0-4.12-1.84-4.12-4.11,0-7.99,6.48-14.46,14.47-14.46h9.6c.33,0,.65,.01,.97,.04,.78,1.45,1.74,2.8,2.85,4.01-6.92,2.49-12.5,7.75-15.38,14.52Zm48.32,16.06h-36.6c-3.21,0-5.8-2.6-5.8-5.81,0-.75,.05-1.5,.14-2.25,.16-1.37,.49-2.71,.96-4,.52-1.41,1.2-2.76,2.05-4,3.4-5.03,9.08-8.05,15.15-8.05h5.8c.14,0,.29,0,.43-.01h0s5.38,.01,5.38,.01c6.07,0,11.75,3.02,15.15,8.05,.85,1.24,1.53,2.59,2.05,4,.47,1.29,.8,2.63,.96,4,.09,.75,.14,1.5,.14,2.25,0,3.21-2.6,5.81-5.81,5.81h0Zm-3.65-30.58c1.11-1.21,2.07-2.56,2.85-4.01,.32-.03,.64-.04,.97-.04h9.6c7.98,0,14.46,6.48,14.46,14.46,0,2.27-1.84,4.11-4.11,4.11h-8.39c-2.88-6.77-8.46-12.03-15.38-14.52h0Z"/></g><g id="Group_4195"><path id="Path_748" class="cls-1" d="M173.63,145.03h0Z"/><path id="Path_749" class="cls-1" d="M174.06,145.02h0s-.43,.01-.43,.01c.14,0,.29,0,.43-.01Z"/><path id="Path_750" class="cls-1" d="M173.2,145.02h0s.43,.01,.43,.01c-.14,0-.29,0-.43-.01Zm.43,.01h0Zm-.43-.01h0s.43,.01,.43,.01c-.14,0-.29,0-.43-.01Zm.43,.01h0Zm-.43-.01h0s.43,.01,.43,.01c-.14,0-.29,0-.43-.01Zm.43,.01h0Zm0,0h0Zm-.43-.01h0s.43,.01,.43,.01c-.14,0-.29,0-.43-.01Zm0,0h0s.43,.01,.43,.01c-.14,0-.29,0-.43-.01Zm.43,.01h0Zm-.43-.01h0s.43,.01,.43,.01c-.14,0-.29,0-.43-.01Zm.43,.01h0Zm-.43-.01h0s.43,.01,.43,.01c-.14,0-.29,0-.43-.01Zm.43,.01h0Z"/></g></g><g id="Group_4197"><path id="Path_751" class="cls-1" d="M102.07,166.57c-7.43,3.07-15.4,4.65-23.44,4.66-9.84,0-19.81-2.49-27.47-8.74-7.49-6.12-15.28-18.07-12.89-40.97l-5.73,4.01c-.67,.47-1.47,.72-2.29,.72-1.31,0-2.53-.63-3.28-1.7-1.27-1.81-.83-4.3,.98-5.57l13.17-9.23c-.07,.06-.15,.13-.21,.2,.1-.1,.21-.2,.33-.29,.01-.01,.03-.02,.04-.03,.02-.02,.05-.04,.08-.05,.17-.12,.35-.23,.54-.32,.03-.01,.06-.03,.09-.05,.06-.02,.12-.05,.18-.08,.02,0,.04,0,.05-.02,.09-.02,.17-.05,.25-.08,.05-.02,.11-.04,.16-.05,.03,0,.06,0,.09-.02,.04-.01,.08-.02,.12-.02,.06-.02,.13-.03,.19-.04,.09-.02,.18-.03,.27-.03,.12-.01,.23-.02,.35-.02,.15,0,.31,.01,.46,.03,.03,0,.06,0,.09,.01,.09,.01,.19,.03,.28,.05,.02,0,.04,.01,.06,.01s.03,.01,.04,.01c.02,0,.05,0,.07,.02,.06,.01,.12,.03,.17,.05,.07,.02,.15,.04,.22,.07,.14,.05,.27,.11,.4,.18,.01,0,.02,0,.03,.01,.1,.05,.19,.1,.28,.16,.05,.02,.09,.05,.13,.08,.04,.02,.07,.04,.1,.07,.07,.05,.14,.1,.2,.15s.14,.12,.21,.19c.05,.04,.1,.1,.15,.15,.05,.04,.09,.09,.13,.14,.04,.03,.07,.07,.1,.11,.02,.03,.05,.06,.07,.09,.01,.01,.02,.03,.03,.04l.1,.14,9.56,12.92c1.32,1.78,.94,4.28-.83,5.6-.69,.51-1.52,.78-2.38,.78-1.27,0-2.46-.6-3.22-1.62l-3.95-5.34c-1.56,15.42,1.82,26.6,10.07,33.34,11.12,9.08,29.92,8.34,42.73,2.92,2.03-.87,4.38,.08,5.25,2.11,0,0,0,0,0,0,.86,2.04-.1,4.38-2.13,5.24Z"/><path id="Path_752" class="cls-1" d="M41.24,109.66c-.12,.09-.23,.19-.33,.29,.06-.07,.14-.14,.21-.2l.12-.09Z"/><path id="Path_753" class="cls-1" d="M41.9,109.26c-.19,.09-.37,.2-.54,.32-.03,.01-.06,.03-.08,.05l.12-.09c.1-.06,.19-.12,.29-.18,.07-.03,.14-.07,.21-.1Z"/><path id="Path_754" class="cls-1" d="M45.44,109.28c-.13-.07-.26-.13-.4-.18,.06,.02,.12,.04,.18,.07,.08,.03,.15,.07,.22,.11Z"/></g><g id="Group_4198"><path id="Path_755" class="cls-1" d="M41.24,109.66c-.12,.09-.23,.19-.33,.29,.06-.07,.14-.14,.21-.2l.12-.09Z"/><path id="Path_756" class="cls-1" d="M46.67,110.23c-.04-.05-.08-.1-.13-.14,.01,0,.02,.01,.03,.02,.03,.04,.07,.08,.1,.12Z"/></g><g id="Group_4199"><path id="Path_757" class="cls-1" d="M41.99,109.21s-.06,.04-.09,.05c-.19,.09-.37,.2-.54,.32,.01-.02,.03-.03,.04-.04,.1-.06,.19-.12,.29-.18s.2-.11,.3-.15Z"/><path id="Path_758" class="cls-1" d="M45.44,109.28c-.13-.07-.26-.13-.4-.18,.06,.02,.12,.04,.18,.07,.08,.03,.15,.07,.22,.11Z"/><path id="Path_759" class="cls-1" d="M46.67,110.23c-.04-.05-.08-.1-.13-.14,.01,0,.02,.01,.03,.02,.03,.04,.07,.08,.1,.12Z"/></g><g id="Group_4200"><path id="Path_760" class="cls-1" d="M195.22,73.66l-13.19,9.25c.08-.06,.16-.13,.23-.21-.12,.11-.24,.21-.37,.31-.03,.02-.05,.04-.08,.06s-.03,.02-.05,.03c-.03,.03-.06,.05-.1,.07-.03,.02-.05,.04-.08,.05-.02,.01-.03,.02-.04,.02l-.21,.12-.06,.03c-.05,.02-.1,.05-.15,.07-.03,.01-.05,.02-.08,.03-.06,.03-.12,.05-.18,.07-.04,.02-.08,.03-.12,.04-.09,.03-.19,.06-.28,.08,0,0-.01,0-.02,.01-.08,.02-.16,.04-.24,.05-.02,0-.05,.01-.07,.01-.09,.02-.18,.03-.27,.03-.12,.01-.23,.02-.35,.02-.15,0-.3-.01-.45-.03-.11-.01-.22-.03-.34-.05-.02,0-.05,0-.07-.02-.03,0-.05-.01-.07-.01-.11-.03-.23-.06-.34-.1-.04,0-.08-.02-.12-.04-.1-.03-.19-.07-.28-.12-.05-.02-.1-.04-.15-.07-.04-.02-.08-.04-.12-.07-.08-.04-.16-.08-.23-.13-.02-.02-.04-.03-.06-.04-.05-.03-.1-.07-.15-.11-.08-.06-.16-.12-.23-.18-.13-.12-.25-.24-.37-.37-.1-.12-.2-.24-.29-.37-.12-.17-.23-.35-.32-.54,.08,.17,.17,.33,.27,.49l-9.56-12.92c-1.31-1.78-.94-4.29,.84-5.6,1.77-1.31,4.27-.94,5.59,.83h0s3.95,5.34,3.95,5.34c1.56-15.41-1.82-26.6-10.06-33.33-11.13-9.09-29.92-8.34-42.74-2.92-2.03,.86-4.37-.08-5.24-2.11,0,0,0,0,0,0-.86-2.04,.09-4.38,2.12-5.25,14.56-6.16,36.71-7.51,50.91,4.09,7.5,6.12,15.3,18.07,12.89,40.98l5.73-4.02c1.8-1.27,4.29-.84,5.56,.96,0,0,0,0,0,0,1.27,1.81,.84,4.3-.97,5.57Z"/><path id="Path_761" class="cls-1" d="M176.24,82.09c.09,.13,.19,.25,.29,.37-.09-.09-.17-.19-.24-.29l-.1-.13c-.1-.16-.19-.32-.27-.49,.09,.19,.2,.37,.32,.54Z"/><path id="Path_762" class="cls-1" d="M178.65,83.7s.05,.02,.07,.02h-.01s-.04-.01-.06-.02Z"/><path id="Path_763" class="cls-1" d="M180.46,83.68c.09-.02,.19-.05,.28-.08-.03,.02-.07,.03-.1,.04-.07,.02-.13,.03-.2,.05,0,0,.01,0,.02-.01Z"/><path id="Path_764" class="cls-1" d="M181.76,83.1s.03-.02,.05-.03c-.01,.02-.03,.03-.05,.04-.03,.02-.07,.04-.1,.06,.04-.02,.07-.04,.1-.07Z"/><path id="Path_765" class="cls-1" d="M181.89,83.01c.13-.1,.25-.2,.37-.31-.07,.08-.15,.15-.23,.21l-.14,.1Z"/></g><g id="Group_4201"><path id="Path_766" class="cls-1" d="M180.46,83.68c.09-.02,.19-.05,.28-.08-.03,.02-.07,.03-.1,.04-.06,0-.12,.03-.18,.04Z"/><path id="Path_767" class="cls-1" d="M181.89,83.01c.13-.1,.25-.2,.37-.31-.07,.08-.15,.15-.23,.21l-.14,.1Z"/></g><g id="Group_4202"><path id="Path_768" class="cls-1" d="M176.24,82.09c.09,.13,.19,.25,.29,.37-.09-.09-.17-.19-.24-.29l-.1-.13c-.1-.16-.19-.32-.27-.49,.09,.19,.2,.37,.32,.54Z"/><path id="Path_769" class="cls-1" d="M178.65,83.7s.05,.02,.07,.02h-.01s-.08-.02-.13-.03c.02,0,.04,.01,.07,.01Z"/><path id="Path_770" class="cls-1" d="M181.66,83.17s.07-.04,.1-.07h0s-.07,.05-.1,.07Z"/></g></g></svg>