<?xml version="1.0" encoding="UTF-8"?>
<svg id="Layer_1" data-name="Layer 1" xmlns="http://www.w3.org/2000/svg" viewBox="0 0 199.66 182.73">
  <defs>
    <style>
      .cls-1 {
        fill: #404064;
      }

      .cls-2 {
        fill: none;
        stroke: #404064;
        stroke-linecap: round;
        stroke-linejoin: round;
        stroke-width: 8px;
      }
    </style>
  </defs>
  <circle class="cls-2" cx="20.95" cy="48.29" r="16.95"/>
  <path class="cls-2" d="m39.9,155.41h-13.99c-13.55,0-19.23-7.09-19.96-19.89l-1.61-35.13c-.57-10.32,7.41-19.24,17.73-19.81h0c10.32-.57,19.24,7.41,19.81,17.73l1.53,33.58c.14,2.51,1.94,4.61,4.4,5.12h0c9.03,1.89,15.5,9.86,15.5,19.09v22.64"/>
  <g>
    <circle class="cls-2" cx="178.71" cy="48.29" r="16.95"/>
    <path class="cls-2" d="m159.76,155.41h13.99c13.55,0,19.23-7.09,19.96-19.89l1.61-35.13c.57-10.32-7.41-19.24-17.73-19.81h0c-10.32-.57-19.24,7.41-19.81,17.73l-1.53,33.58c-.14,2.51-1.94,4.61-4.4,5.12h0c-9.03,1.89-15.5,9.86-15.5,19.09v22.64"/>
  </g>
  <line class="cls-2" x1="64.86" y1="120.82" x2="134.79" y2="120.82"/>
  <path class="cls-2" d="m59.48,59.62h48.74c4.73,0,8.56,3.84,8.56,8.56v13.44c0,4.73-3.84,8.56-8.56,8.56h-40.17c-4.73,0-8.56-3.84-8.56-8.56v-22h0Z"/>
  <path class="cls-2" d="m91.18,4h43.33c5.1,0,9.23,4.14,9.23,9.23v23.73h-52.57c-5.1,0-9.23-4.14-9.23-9.23v-14.5c0-5.1,4.14-9.23,9.23-9.23Z"/>
  <circle class="cls-2" cx="99.01" cy="20.48" r="1.02"/>
  <circle class="cls-2" cx="112.84" cy="20.48" r="1.02"/>
  <circle class="cls-2" cx="126.68" cy="20.48" r="1.02"/>
  <line class="cls-2" x1="99.83" y1="120.82" x2="99.83" y2="178.73"/>
  <path class="cls-1" d="m99.99,78.9h-23.72c-2.21,0-4-1.79-4-4s1.79-4,4-4h23.72c2.21,0,4,1.79,4,4s-1.79,4-4,4Z"/>
</svg>