<?xml version="1.0" encoding="utf-8"?>
<!-- Generator: Adobe Illustrator 27.5.0, SVG Export Plug-In . SVG Version: 6.00 Build 0)  -->
<svg version="1.1" id="Layer_1" xmlns="http://www.w3.org/2000/svg" xmlns:xlink="http://www.w3.org/1999/xlink" x="0px" y="0px"
	 viewBox="0 0 199.7 182.7" style="enable-background:new 0 0 199.7 182.7;" xml:space="preserve">
<style type="text/css">
	.st0{fill:none;stroke:#404064;stroke-width:8;stroke-linecap:round;stroke-linejoin:round;}
	.st1{fill:#404064;}
</style>
<circle class="st0" cx="21" cy="48.3" r="17"/>
<path class="st0" d="M39.9,155.4h-14c-13.6,0-19.2-7.1-20-19.9l-1.6-35.1c-0.6-10.3,7.4-19.2,17.7-19.8l0,0
	C32.4,80,41.3,88,41.9,98.3l1.5,33.6c0.1,2.5,1.9,4.6,4.4,5.1l0,0c9,1.9,15.5,9.9,15.5,19.1v22.6"/>
<g>
	<circle class="st0" cx="178.7" cy="48.3" r="17"/>
	<path class="st0" d="M159.8,155.4h14c13.6,0,19.2-7.1,20-19.9l1.6-35.1c0.6-10.3-7.4-19.2-17.7-19.8l0,0
		c-10.3-0.6-19.2,7.4-19.8,17.7l-1.5,33.6c-0.1,2.5-1.9,4.6-4.4,5.1l0,0c-9,1.9-15.5,9.9-15.5,19.1v22.6"/>
</g>
<line class="st0" x1="64.9" y1="120.8" x2="134.8" y2="120.8"/>
<path class="st0" d="M59.5,59.6h48.7c4.7,0,8.6,3.8,8.6,8.6v13.4c0,4.7-3.8,8.6-8.6,8.6H68.1c-4.7,0-8.6-3.8-8.6-8.6L59.5,59.6
	L59.5,59.6L59.5,59.6z"/>
<path class="st0" d="M91.2,4h43.3c5.1,0,9.2,4.1,9.2,9.2V37H91.2c-5.1,0-9.2-4.1-9.2-9.2V13.2C81.9,8.1,86.1,4,91.2,4L91.2,4z"/>
<g>
	<path class="st1" d="M99,25.5c-2.8,0-5-2.3-5-5s2.3-5,5-5c2.8,0,5,2.3,5,5S101.8,25.5,99,25.5z"/>
</g>
<g>
	<path class="st1" d="M112.8,25.5c-2.8,0-5-2.3-5-5s2.3-5,5-5c2.8,0,5,2.3,5,5S115.6,25.5,112.8,25.5z"/>
</g>
<g>
	<path class="st1" d="M126.7,25.5c-2.8,0-5-2.3-5-5s2.3-5,5-5c2.8,0,5,2.3,5,5S129.4,25.5,126.7,25.5z"/>
</g>
<line class="st0" x1="99.8" y1="120.8" x2="99.8" y2="178.7"/>
<path class="st1" d="M100,78.9H76.3c-2.2,0-4-1.8-4-4s1.8-4,4-4H100c2.2,0,4,1.8,4,4S102.2,78.9,100,78.9z"/>
</svg>
