<?xml version="1.0" encoding="utf-8"?>
<!-- Generator: Adobe Illustrator 26.5.2, SVG Export Plug-In . SVG Version: 6.00 Build 0)  -->
<svg version="1.1" id="Layer_1" xmlns="http://www.w3.org/2000/svg" xmlns:xlink="http://www.w3.org/1999/xlink" x="0px" y="0px"
	 viewBox="0 0 1045.5 430.2" style="enable-background:new 0 0 1045.5 430.2;" xml:space="preserve">
<style type="text/css">
	.st0{fill:#AC2725;}
	.st1{enable-background:new    ;}
	.st2{fill:#FFFFFF;}
	.st3{fill:#06872D;}
	.st4{fill:#0C66CC;}
	.st5{fill:#616181;}
	.st6{fill:none;}
	.st7{fill:#F3F3F7;}
	.st8{fill:none;stroke:#F3F3F7;}
	.st9{fill:#BE1863;}
</style>
<g>
	<g id="Rectangle_15_00000049198450822048435340000003009705803125273990_">
		<path class="st0" d="M896,101h113c20.2,0,36.5,16.3,36.5,36.5l0,0c0,20.2-16.3,36.5-36.5,36.5H896c-20.2,0-36.5-16.3-36.5-36.5
			l0,0C859.5,117.3,875.9,101,896,101z"/>
	</g>
	<g class="st1">
		<path class="st2" d="M881.4,122.3h4.3c2.4,0,3.8,1.1,3.8,3.4c0,1.8-1,3-2.8,3.4l3.3,5H888l-3.2-4.9h-1.9v4.9h-1.5V122.3z
			 M885.5,127.9c1.5,0,2.3-0.8,2.3-2.3c0-1.4-0.8-2.1-2.3-2.1h-2.7v4.4H885.5z"/>
		<path class="st2" d="M891.3,129.6c0-2.5,1.6-4.5,4.1-4.5c2.5,0,3.9,1.7,3.9,4.4c0,0.2,0,0.4,0,0.6h-6.5c0.2,1.7,1.2,2.8,2.7,2.8
			c1.3,0,2.1-0.6,2.4-1.5l1.2,0.3c-0.5,1.6-1.8,2.5-3.6,2.5C892.9,134.2,891.3,132.2,891.3,129.6z M897.9,128.9
			c-0.1-1.6-1-2.6-2.5-2.6c-1.5,0-2.4,1-2.6,2.6H897.9z"/>
		<path class="st2" d="M901,129.7c0-2.6,1.6-4.5,4.2-4.5c2,0,3.4,0.9,3.9,3l-1.3,0.2c-0.3-1.2-1.1-1.9-2.5-1.9
			c-1.8,0-2.8,1.4-2.8,3.2c0,1.9,1,3.2,2.8,3.2c1.4,0,2.2-0.7,2.5-1.9l1.3,0.2c-0.4,2.1-1.9,3-3.9,3
			C902.6,134.2,901,132.2,901,129.7z"/>
		<path class="st2" d="M910.7,129.6c0-2.5,1.6-4.5,4.1-4.5c2.5,0,3.9,1.7,3.9,4.4c0,0.2,0,0.4,0,0.6h-6.5c0.2,1.7,1.2,2.8,2.7,2.8
			c1.3,0,2.1-0.6,2.4-1.5l1.2,0.3c-0.5,1.6-1.8,2.5-3.6,2.5C912.3,134.2,910.7,132.2,910.7,129.6z M917.3,128.9
			c-0.1-1.6-1-2.6-2.5-2.6c-1.5,0-2.4,1-2.6,2.6H917.3z"/>
		<path class="st2" d="M921.5,121.6c0.6,0,1.1,0.5,1.1,1s-0.5,1-1.1,1c-0.6,0-1-0.5-1-1S921,121.6,921.5,121.6z M920.8,125.3h1.5
			v8.7h-1.5V125.3z"/>
		<path class="st2" d="M924.1,125.3h1.6l1.8,5.4c0.2,0.7,0.5,1.4,0.7,2.2c0.2-0.7,0.5-1.4,0.7-2.2l1.8-5.4h1.6l-3.1,8.7h-2.1
			L924.1,125.3z"/>
		<path class="st2" d="M933.2,129.6c0-2.5,1.6-4.5,4.1-4.5c2.5,0,3.9,1.7,3.9,4.4c0,0.2,0,0.4,0,0.6h-6.5c0.2,1.7,1.2,2.8,2.7,2.8
			c1.3,0,2.1-0.6,2.4-1.5l1.2,0.3c-0.5,1.6-1.8,2.5-3.6,2.5C934.8,134.2,933.2,132.2,933.2,129.6z M939.7,128.9
			c-0.1-1.6-1-2.6-2.5-2.6c-1.5,0-2.4,1-2.6,2.6H939.7z"/>
		<path class="st2" d="M950.5,121.3c0.8,0,1.5,0.2,2.2,0.8l-0.6,1.1c-0.5-0.5-1-0.7-1.5-0.7c-1,0-1.6,0.6-1.6,1.8v1h2.7v1.2H949v7.5
			h-1.5v-7.5H946v-1.2h1.6v-1C947.5,122.4,948.7,121.3,950.5,121.3z"/>
		<path class="st2" d="M952.5,129.6c0-2.5,1.6-4.5,4.1-4.5c2.5,0,3.9,1.7,3.9,4.4c0,0.2,0,0.4,0,0.6H954c0.2,1.7,1.2,2.8,2.7,2.8
			c1.3,0,2.1-0.6,2.4-1.5l1.2,0.3c-0.5,1.6-1.8,2.5-3.6,2.5C954.1,134.2,952.5,132.2,952.5,129.6z M959,128.9
			c-0.1-1.6-1-2.6-2.5-2.6c-1.5,0-2.4,1-2.6,2.6H959z"/>
		<path class="st2" d="M962.1,129.6c0-2.5,1.6-4.5,4.1-4.5c2.5,0,3.9,1.7,3.9,4.4c0,0.2,0,0.4,0,0.6h-6.5c0.2,1.7,1.2,2.8,2.7,2.8
			c1.3,0,2.1-0.6,2.4-1.5l1.2,0.3c-0.5,1.6-1.8,2.5-3.6,2.5C963.8,134.2,962.1,132.2,962.1,129.6z M968.7,128.9
			c-0.1-1.6-1-2.6-2.5-2.6c-1.5,0-2.4,1-2.6,2.6H968.7z"/>
		<path class="st2" d="M971.8,129.6c0-2.7,1.5-4.5,4-4.5c1.4,0,2.4,0.6,3,1.6v-5.3h1.5V134h-1.4l0-1.6c-0.6,1.2-1.5,1.8-3,1.8
			C973.3,134.2,971.8,132.3,971.8,129.6z M976,132.9c1.8,0,2.9-1.4,2.9-3.2s-1.1-3.2-2.9-3.2c-1.8,0-2.7,1.3-2.7,3.2
			S974.2,132.9,976,132.9z"/>
		<path class="st2" d="M984.4,132.3l0,1.7H983v-12.6h1.5v5.4c0.6-1.1,1.6-1.7,3.1-1.7c2.5,0,3.9,1.9,3.9,4.5c0,2.7-1.4,4.5-3.9,4.5
			C986,134.2,985,133.5,984.4,132.3z M987.3,132.9c1.8,0,2.7-1.4,2.7-3.2s-0.9-3.2-2.7-3.2c-1.8,0-2.9,1.4-2.9,3.2
			S985.5,132.9,987.3,132.9z"/>
		<path class="st2" d="M999.1,132.6c-0.6,0.9-1.7,1.5-3.1,1.5c-1.8,0-3-1-3-2.6c0-1.9,1.8-2.5,4.1-2.5c0.6,0,1.2,0,1.9,0.1v-0.5
			c0-1.3-0.5-2.3-2.1-2.3c-1.3,0-1.9,0.6-2.3,1.7l-1.3-0.3c0.4-1.7,1.7-2.6,3.6-2.6c3.3,0,3.5,2.3,3.5,3.6v3.3
			c0,0.5,0.1,0.9,0.7,0.9c0.2,0,0.3,0,0.5,0v1.2c-0.3,0.1-0.5,0.1-0.8,0.1C999.6,134.1,999.2,133.6,999.1,132.6z M996.3,132.9
			c1.1,0,2.2-0.5,2.7-1.4v-1.3c-0.6-0.1-1.2-0.1-1.8-0.1c-1.7,0-2.6,0.4-2.6,1.4C994.6,132.6,995.3,132.9,996.3,132.9z"/>
		<path class="st2" d="M1002.7,129.7c0-2.6,1.6-4.5,4.2-4.5c2,0,3.4,0.9,3.9,3l-1.3,0.2c-0.3-1.2-1.1-1.9-2.5-1.9
			c-1.8,0-2.8,1.4-2.8,3.2c0,1.9,1,3.2,2.8,3.2c1.4,0,2.2-0.7,2.5-1.9l1.3,0.2c-0.4,2.1-1.9,3-3.9,3
			C1004.3,134.2,1002.7,132.2,1002.7,129.7z"/>
		<path class="st2" d="M1012.8,121.4h1.4v8.2l3.9-4.3h1.8l-3.4,3.7l3.8,5h-1.7l-3.1-4.1l-1.3,1.4v2.7h-1.4V121.4z"/>
		<path class="st2" d="M1022.9,134.1L1022.9,134.1c-0.7,0-1.1-0.4-1.1-1.1c0-0.6,0.5-1.1,1.2-1.1c0.8,0,1.2,0.5,1.2,1.5
			c0,1.5-0.8,2.6-2.2,3.4l-0.7-0.8C1022.2,135.4,1022.8,134.8,1022.9,134.1z"/>
	</g>
	<g class="st1">
		<path class="st2" d="M900.3,151.6c-0.6,0.9-1.7,1.5-3.1,1.5c-1.8,0-3-1-3-2.6c0-1.9,1.8-2.5,4.1-2.5c0.6,0,1.2,0,1.9,0.1v-0.5
			c0-1.3-0.5-2.3-2.1-2.3c-1.3,0-1.9,0.6-2.3,1.7l-1.3-0.3c0.4-1.7,1.7-2.6,3.6-2.6c3.3,0,3.5,2.3,3.5,3.6v3.3
			c0,0.5,0.1,0.9,0.7,0.9c0.2,0,0.3,0,0.5,0v1.2c-0.3,0.1-0.5,0.1-0.8,0.1C900.9,153.1,900.4,152.6,900.3,151.6z M897.5,151.9
			c1.1,0,2.2-0.5,2.7-1.4v-1.3c-0.6-0.1-1.2-0.1-1.8-0.1c-1.7,0-2.6,0.4-2.6,1.4C895.9,151.6,896.6,151.9,897.5,151.9z"/>
		<path class="st2" d="M906.1,151.3l0,1.7h-1.4v-12.6h1.5v5.4c0.6-1.1,1.6-1.7,3.1-1.7c2.5,0,3.9,1.9,3.9,4.5c0,2.7-1.4,4.5-3.9,4.5
			C907.7,153.2,906.7,152.5,906.1,151.3z M908.9,151.9c1.8,0,2.7-1.4,2.7-3.2s-0.9-3.2-2.7-3.2c-1.8,0-2.9,1.4-2.9,3.2
			S907.2,151.9,908.9,151.9z"/>
		<path class="st2" d="M915.1,140.4h1.5V153h-1.5V140.4z"/>
		<path class="st2" d="M918.5,148.6c0-2.5,1.6-4.5,4.1-4.5c2.5,0,3.9,1.7,3.9,4.4c0,0.2,0,0.4,0,0.6H920c0.2,1.7,1.2,2.8,2.7,2.8
			c1.3,0,2.1-0.6,2.4-1.5l1.2,0.3c-0.5,1.6-1.8,2.5-3.6,2.5C920.2,153.2,918.5,151.2,918.5,148.6z M925.1,147.9
			c-0.1-1.6-1-2.6-2.5-2.6c-1.5,0-2.4,1-2.6,2.6H925.1z"/>
		<path class="st2" d="M933.1,150.2v-4.7h-1.8v-1.2h1.8v-2.6l1.5-0.2v2.8h2.9v1.2h-2.9v4.5c0,1.2,0.4,1.8,1.5,1.8
			c0.5,0,0.8-0.1,1.2-0.3l0.4,1.2c-0.5,0.3-1.1,0.4-1.8,0.4C934.1,153.1,933.1,152.2,933.1,150.2z"/>
		<path class="st2" d="M938.7,148.7c0-2.6,1.7-4.5,4.4-4.5c2.7,0,4.3,1.9,4.3,4.5c0,2.6-1.7,4.5-4.3,4.5
			C940.4,153.2,938.7,151.3,938.7,148.7z M943,151.9c1.7,0,2.9-1.4,2.9-3.2c0-1.9-1.1-3.2-2.9-3.2c-1.8,0-2.9,1.3-2.9,3.2
			C940.1,150.5,941.3,151.9,943,151.9z"/>
		<path class="st2" d="M953.1,144.3h1.4l0,1.8c0.6-1.5,1.9-2.2,3.5-1.9l0,1.5c-1.7-0.4-3.4,0.6-3.4,2.9v4.4h-1.4V144.3z"/>
		<path class="st2" d="M958.7,148.6c0-2.5,1.6-4.5,4.1-4.5c2.5,0,3.9,1.7,3.9,4.4c0,0.2,0,0.4,0,0.6h-6.5c0.2,1.7,1.2,2.8,2.7,2.8
			c1.3,0,2.1-0.6,2.4-1.5l1.2,0.3c-0.5,1.6-1.8,2.5-3.6,2.5C960.3,153.2,958.7,151.2,958.7,148.6z M965.2,147.9
			c-0.1-1.6-1-2.6-2.5-2.6c-1.5,0-2.4,1-2.6,2.6H965.2z"/>
		<path class="st2" d="M974.4,151.6c-0.6,0.9-1.7,1.5-3.1,1.5c-1.8,0-3-1-3-2.6c0-1.9,1.8-2.5,4.1-2.5c0.6,0,1.2,0,1.9,0.1v-0.5
			c0-1.3-0.5-2.3-2.1-2.3c-1.3,0-1.9,0.6-2.3,1.7l-1.3-0.3c0.4-1.7,1.7-2.6,3.6-2.6c3.3,0,3.5,2.3,3.5,3.6v3.3
			c0,0.5,0.1,0.9,0.7,0.9c0.2,0,0.3,0,0.5,0v1.2c-0.3,0.1-0.5,0.1-0.8,0.1C974.9,153.1,974.5,152.6,974.4,151.6z M971.6,151.9
			c1.1,0,2.2-0.5,2.7-1.4v-1.3c-0.6-0.1-1.2-0.1-1.8-0.1c-1.7,0-2.6,0.4-2.6,1.4C969.9,151.6,970.6,151.9,971.6,151.9z"/>
		<path class="st2" d="M980.2,151.4v5.1h-1.5v-12.2h1.4l0,1.6c0.6-1.2,1.6-1.8,3.1-1.8c2.5,0,3.9,1.8,3.9,4.5c0,2.7-1.4,4.5-3.9,4.5
			C981.8,153.2,980.8,152.5,980.2,151.4z M983,151.9c1.8,0,2.7-1.4,2.7-3.2s-0.9-3.2-2.7-3.2c-1.8,0-2.9,1.4-2.9,3.2
			S981.3,151.9,983,151.9z"/>
		<path class="st2" d="M990.7,151.4v5.1h-1.5v-12.2h1.4l0,1.6c0.6-1.2,1.6-1.8,3.1-1.8c2.5,0,3.9,1.8,3.9,4.5c0,2.7-1.4,4.5-3.9,4.5
			C992.3,153.2,991.2,152.5,990.7,151.4z M993.5,151.9c1.8,0,2.7-1.4,2.7-3.2s-0.9-3.2-2.7-3.2c-1.8,0-2.9,1.4-2.9,3.2
			S991.7,151.9,993.5,151.9z"/>
		<path class="st2" d="M999.6,140.4h1.5V153h-1.5V140.4z"/>
		<path class="st2" d="M1006.3,153.6l0.2-0.5h-0.4l-3.2-8.7h1.7l1.8,5.2c0.3,0.8,0.5,1.5,0.8,2.3c0.2-0.8,0.5-1.5,0.7-2.3l1.8-5.2
			h1.7l-3.5,9.4c-0.8,2.4-2.5,3.1-4.8,2.7l0.2-1.3C1004.8,155.3,1005.8,155,1006.3,153.6z"/>
	</g>
	<g id="Rectangle_15-2_00000127006142646725033970000003316344482693947520_">
		<path class="st3" d="M895,0h115c19.6,0,35.5,15.9,35.5,35.5l0,0c0,19.6-15.9,35.5-35.5,35.5H895c-19.6,0-35.5-15.9-35.5-35.5l0,0
			C859.5,15.9,875.4,0,895,0z"/>
	</g>
	<g class="st1">
		<path class="st2" d="M894.3,28.1l1.4-0.2c0,1.9,1,3,3.2,3c1.5,0,2.4-0.6,2.4-1.9c0-1.3-1.1-1.7-2.9-2.2c-2.1-0.6-3.8-1.3-3.8-3.4
			c0-2.1,1.7-3.2,4-3.2c2.5,0,4.1,1.2,4.1,3.8l-1.3,0.3c-0.1-1.7-1-2.8-2.9-2.8c-1.6,0-2.4,0.7-2.4,1.9c0,1.3,1.1,1.7,2.9,2.2
			c2,0.6,3.8,1.2,3.8,3.4c0,2-1.5,3.3-4,3.3C896.3,32.2,894.2,31,894.3,28.1z"/>
		<path class="st2" d="M906.1,29.2v-4.7h-1.8v-1.2h1.8v-2.6l1.5-0.2v2.8h2.9v1.2h-2.9v4.5c0,1.2,0.4,1.8,1.5,1.8
			c0.5,0,0.8-0.1,1.2-0.3l0.4,1.2c-0.5,0.3-1.1,0.4-1.8,0.4C907.1,32.1,906.1,31.2,906.1,29.2z"/>
		<path class="st2" d="M917.9,30.6c-0.6,0.9-1.7,1.5-3.1,1.5c-1.8,0-3-1-3-2.6c0-1.9,1.8-2.5,4.1-2.5c0.6,0,1.2,0,1.9,0.1v-0.5
			c0-1.3-0.5-2.3-2.1-2.3c-1.3,0-1.9,0.6-2.3,1.7l-1.3-0.3c0.4-1.7,1.7-2.6,3.6-2.6c3.3,0,3.5,2.3,3.5,3.6V30c0,0.5,0.1,0.9,0.7,0.9
			c0.2,0,0.3,0,0.5,0V32c-0.3,0.1-0.5,0.1-0.8,0.1C918.4,32.1,918,31.6,917.9,30.6z M915.1,30.9c1.1,0,2.2-0.5,2.7-1.4v-1.3
			c-0.6-0.1-1.2-0.1-1.8-0.1c-1.7,0-2.6,0.4-2.6,1.4C913.4,30.6,914.1,30.9,915.1,30.9z"/>
		<path class="st2" d="M922.2,23.3h1.4l0,1.8c0.6-1.5,1.9-2.2,3.5-1.9l0,1.5c-1.7-0.4-3.4,0.6-3.4,2.9V32h-1.4V23.3z"/>
		<path class="st2" d="M929.7,29.2v-4.7h-1.8v-1.2h1.8v-2.6l1.5-0.2v2.8h2.9v1.2h-2.9v4.5c0,1.2,0.4,1.8,1.5,1.8
			c0.5,0,0.8-0.1,1.2-0.3l0.4,1.2c-0.5,0.3-1.1,0.4-1.8,0.4C930.7,32.1,929.7,31.2,929.7,29.2z"/>
		<path class="st2" d="M939.7,23.3h1.4l0,1.8c0.6-1.5,1.9-2.2,3.5-1.9l0,1.5c-1.7-0.4-3.4,0.6-3.4,2.9V32h-1.4V23.3z"/>
		<path class="st2" d="M945.3,27.6c0-2.5,1.6-4.5,4.1-4.5c2.5,0,3.9,1.7,3.9,4.4c0,0.2,0,0.4,0,0.6h-6.5c0.2,1.7,1.2,2.8,2.7,2.8
			c1.3,0,2.1-0.6,2.4-1.5l1.2,0.3c-0.5,1.6-1.8,2.5-3.6,2.5C947,32.2,945.3,30.2,945.3,27.6z M951.9,26.9c-0.1-1.6-1-2.6-2.5-2.6
			c-1.5,0-2.4,1-2.6,2.6H951.9z"/>
		<path class="st2" d="M955,27.7c0-2.6,1.6-4.5,4.2-4.5c2,0,3.4,0.9,3.9,3l-1.3,0.2c-0.3-1.2-1.1-1.9-2.5-1.9
			c-1.8,0-2.8,1.4-2.8,3.2c0,1.9,1,3.2,2.8,3.2c1.4,0,2.2-0.7,2.5-1.9l1.3,0.2c-0.4,2.1-1.9,3-3.9,3C956.6,32.2,955,30.2,955,27.7z"
			/>
		<path class="st2" d="M964.7,27.6c0-2.5,1.6-4.5,4.1-4.5c2.5,0,3.9,1.7,3.9,4.4c0,0.2,0,0.4,0,0.6h-6.5c0.2,1.7,1.2,2.8,2.7,2.8
			c1.3,0,2.1-0.6,2.4-1.5l1.2,0.3c-0.5,1.6-1.8,2.5-3.6,2.5C966.3,32.2,964.7,30.2,964.7,27.6z M971.3,26.9c-0.1-1.6-1-2.6-2.5-2.6
			c-1.5,0-2.4,1-2.6,2.6H971.3z"/>
		<path class="st2" d="M975.5,19.6c0.6,0,1.1,0.5,1.1,1s-0.5,1-1.1,1c-0.6,0-1-0.5-1-1S975,19.6,975.5,19.6z M974.8,23.3h1.5V32
			h-1.5V23.3z"/>
		<path class="st2" d="M978.1,23.3h1.6l1.8,5.4c0.2,0.7,0.5,1.4,0.7,2.2c0.2-0.7,0.4-1.4,0.7-2.2l1.8-5.4h1.6l-3.1,8.7h-2.1
			L978.1,23.3z"/>
		<path class="st2" d="M988.9,19.6c0.6,0,1.1,0.5,1.1,1s-0.5,1-1.1,1c-0.6,0-1-0.5-1-1S988.3,19.6,988.9,19.6z M988.1,23.3h1.5V32
			h-1.5V23.3z"/>
		<path class="st2" d="M996.5,24.5c-1.5,0-2.6,1.1-2.6,3V32h-1.5v-8.7h1.4l0,1.7c0.5-1.2,1.5-1.9,3-1.9c2.1,0,3.2,1.3,3.2,3.5V32
			h-1.5v-5C998.5,25.3,997.8,24.5,996.5,24.5z"/>
		<path class="st2" d="M1002.1,34.1l0.8-1.1c0.9,1,2,1.4,3.2,1.4c1.7,0,2.9-1,2.9-3V30c-0.5,1.3-1.5,2-3.1,2c-2.5,0-4-1.8-4-4.4
			c0-2.6,1.5-4.4,4-4.4c1.6,0,2.6,0.7,3.2,2l0-1.8h1.3v8.2c0,2.8-1.8,4.2-4.3,4.2C1004.5,35.7,1003.2,35.2,1002.1,34.1z
			 M1006.1,30.7c1.8,0,2.9-1.4,2.9-3.2s-1.1-3.1-2.9-3.1c-1.8,0-2.7,1.3-2.7,3.1C1003.4,29.4,1004.3,30.7,1006.1,30.7z"/>
	</g>
	<g class="st1">
		<path class="st2" d="M914.2,51.6v-9.3h1.5v9.3c0,1.9-0.9,3.2-3.3,3.1v-1.2C913.7,53.5,914.2,52.9,914.2,51.6z M914.9,38.6
			c0.6,0,1.1,0.5,1.1,1s-0.5,1-1.1,1c-0.6,0-1-0.5-1-1S914.3,38.6,914.9,38.6z"/>
		<path class="st2" d="M917.7,46.7c0-2.6,1.7-4.5,4.4-4.5c2.7,0,4.3,1.9,4.3,4.5c0,2.6-1.7,4.5-4.3,4.5
			C919.3,51.2,917.7,49.3,917.7,46.7z M922,49.9c1.7,0,2.9-1.4,2.9-3.2c0-1.9-1.1-3.2-2.9-3.2c-1.8,0-2.9,1.3-2.9,3.2
			C919.1,48.5,920.3,49.9,922,49.9z"/>
		<path class="st2" d="M929.7,49.3l0,1.7h-1.4V38.4h1.5v5.4c0.6-1.1,1.6-1.7,3.1-1.7c2.5,0,3.9,1.9,3.9,4.5c0,2.7-1.4,4.5-3.9,4.5
			C931.3,51.2,930.3,50.5,929.7,49.3z M932.6,49.9c1.8,0,2.7-1.4,2.7-3.2s-0.9-3.2-2.7-3.2c-1.8,0-2.9,1.4-2.9,3.2
			S930.8,49.9,932.6,49.9z"/>
		<path class="st2" d="M941.7,46.7c0-2.6,1.7-4.5,4.4-4.5c2.7,0,4.3,1.9,4.3,4.5c0,2.6-1.7,4.5-4.3,4.5
			C943.4,51.2,941.7,49.3,941.7,46.7z M946.1,49.9c1.7,0,2.9-1.4,2.9-3.2c0-1.9-1.1-3.2-2.9-3.2c-1.8,0-2.9,1.3-2.9,3.2
			C943.2,48.5,944.3,49.9,946.1,49.9z"/>
		<path class="st2" d="M952.4,42.3h1.4l0,1.8c0.6-1.5,1.9-2.2,3.5-1.9l0,1.5c-1.7-0.4-3.4,0.6-3.4,2.9V51h-1.4V42.3z"/>
		<path class="st2" d="M958.1,46.6c0-2.7,1.5-4.5,4-4.5c1.4,0,2.4,0.6,3,1.6v-5.3h1.5V51h-1.4l0-1.6c-0.6,1.2-1.5,1.8-3,1.8
			C959.5,51.2,958.1,49.3,958.1,46.6z M962.3,49.9c1.8,0,2.9-1.4,2.9-3.2s-1.1-3.2-2.9-3.2c-1.8,0-2.7,1.3-2.7,3.2
			S960.5,49.9,962.3,49.9z"/>
		<path class="st2" d="M968.5,46.6c0-2.5,1.6-4.5,4.1-4.5c2.5,0,3.9,1.7,3.9,4.4c0,0.2,0,0.4,0,0.6H970c0.2,1.7,1.2,2.8,2.7,2.8
			c1.3,0,2.1-0.6,2.4-1.5l1.2,0.3c-0.5,1.6-1.8,2.5-3.6,2.5C970.1,51.2,968.5,49.2,968.5,46.6z M975.1,45.9c-0.1-1.6-1-2.6-2.5-2.6
			c-1.5,0-2.4,1-2.6,2.6H975.1z"/>
		<path class="st2" d="M978.6,42.3h1.4l0,1.8c0.6-1.5,1.9-2.2,3.5-1.9l0,1.5c-1.7-0.4-3.4,0.6-3.4,2.9V51h-1.4V42.3z"/>
		<path class="st2" d="M984.4,48.2l1.3-0.2c0.1,1.4,1.1,2,2.5,2c1.2,0,1.8-0.4,1.8-1.3c0-1-0.8-1.2-2.1-1.4
			c-2.2-0.5-3.3-1.1-3.3-2.6c0-1.6,1.3-2.6,3.2-2.6c2.3,0,3.4,1.2,3.5,2.9l-1.3,0.2c-0.1-1.3-1-1.9-2.2-1.9c-1.2,0-1.8,0.5-1.8,1.3
			c0,0.9,0.7,1.2,2.1,1.5c2,0.4,3.2,0.9,3.2,2.5c0,1.5-1.2,2.5-3.2,2.5C986.1,51.2,984.6,50.3,984.4,48.2z"/>
	</g>
	<g id="Rectangle_16_00000070088958916947811550000010442466255031078810_">
		<path class="st4" d="M186.5,0h158c4.4,0,8,3.6,8,8v55c0,4.4-3.6,8-8,8h-158c-4.4,0-8-3.6-8-8V8C178.5,3.6,182.1,0,186.5,0z"/>
	</g>
	<g class="st1">
		<path class="st2" d="M197.9,20.3h1.7l2.5,7.5c0.3,0.9,0.6,2.1,0.9,2.9c0.3-1.1,0.6-1.9,0.9-2.9l2.5-7.5h1.7L204,32h-2.1
			L197.9,20.3z"/>
		<path class="st2" d="M208.5,27.6c0-2.5,1.6-4.5,4.1-4.5c2.5,0,3.9,1.7,3.9,4.4c0,0.2,0,0.4,0,0.6H210c0.2,1.7,1.2,2.8,2.7,2.8
			c1.3,0,2.1-0.6,2.4-1.5l1.2,0.3c-0.5,1.6-1.8,2.5-3.6,2.5C210.1,32.2,208.5,30.2,208.5,27.6z M215,26.9c-0.1-1.6-1-2.6-2.5-2.6
			c-1.5,0-2.4,1-2.6,2.6H215z"/>
		<path class="st2" d="M218.5,23.3h1.4l0,1.8c0.6-1.5,1.9-2.2,3.5-1.9l0,1.5c-1.7-0.4-3.4,0.6-3.4,2.9V32h-1.4V23.3z"/>
		<path class="st2" d="M225.7,19.6c0.6,0,1.1,0.5,1.1,1s-0.5,1-1.1,1c-0.6,0-1-0.5-1-1S225.2,19.6,225.7,19.6z M225,23.3h1.5V32H225
			V23.3z"/>
		<path class="st2" d="M232.8,19.3c0.8,0,1.5,0.2,2.2,0.8l-0.6,1.1c-0.5-0.5-1-0.7-1.5-0.7c-1,0-1.6,0.6-1.6,1.8v1h2.7v1.2h-2.7V32
			h-1.5v-7.5h-1.6v-1.2h1.6v-1C229.8,20.4,231,19.3,232.8,19.3z"/>
		<path class="st2" d="M238,32.6l0.2-0.5h-0.4l-3.2-8.7h1.7l1.8,5.2c0.3,0.8,0.5,1.5,0.8,2.3c0.2-0.8,0.5-1.5,0.7-2.3l1.8-5.2h1.7
			l-3.5,9.4c-0.8,2.4-2.5,3.1-4.8,2.7l0.2-1.3C236.5,34.3,237.5,34,238,32.6z"/>
		<path class="st2" d="M247.7,27.6c0-2.5,1.6-4.5,4.1-4.5c2.5,0,3.9,1.7,3.9,4.4c0,0.2,0,0.4,0,0.6h-6.5c0.2,1.7,1.2,2.8,2.7,2.8
			c1.3,0,2.1-0.6,2.4-1.5l1.2,0.3c-0.5,1.6-1.8,2.5-3.6,2.5C249.3,32.2,247.7,30.2,247.7,27.6z M254.3,26.9c-0.1-1.6-1-2.6-2.5-2.6
			c-1.5,0-2.4,1-2.6,2.6H254.3z"/>
		<path class="st2" d="M257.4,27.6c0-2.7,1.5-4.5,4-4.5c1.5,0,2.5,0.6,3,1.8l0-1.6h1.4v12.2h-1.5v-5c-0.6,1.1-1.5,1.7-3,1.7
			C258.8,32.2,257.4,30.3,257.4,27.6z M261.6,30.9c1.8,0,2.9-1.4,2.9-3.2s-1.1-3.2-2.9-3.2c-1.8,0-2.7,1.3-2.7,3.2
			S259.8,30.9,261.6,30.9z"/>
		<path class="st2" d="M268.4,28.6v-5.3h1.5v5c0,1.7,0.7,2.5,2,2.5c1.5,0,2.6-1.1,2.6-3v-4.5h1.5V32h-1.4l0-1.7
			c-0.5,1.2-1.5,1.9-3,1.9C269.5,32.2,268.4,30.9,268.4,28.6z"/>
		<path class="st2" d="M279.4,19.6c0.6,0,1.1,0.5,1.1,1s-0.5,1-1.1,1c-0.6,0-1-0.5-1-1S278.9,19.6,279.4,19.6z M278.7,23.3h1.5V32
			h-1.5V23.3z"/>
		<path class="st2" d="M284.4,30.4v5.1H283V23.3h1.4l0,1.6c0.6-1.2,1.6-1.8,3.1-1.8c2.5,0,3.9,1.8,3.9,4.5c0,2.7-1.4,4.5-3.9,4.5
			C286,32.2,285,31.5,284.4,30.4z M287.2,30.9c1.8,0,2.7-1.4,2.7-3.2s-0.9-3.2-2.7-3.2c-1.8,0-2.9,1.4-2.9,3.2
			S285.5,30.9,287.2,30.9z"/>
		<path class="st2" d="M302.7,24.4c-1.5,0-2.4,1.1-2.4,3V32h-1.4v-5.1c0-1.7-0.4-2.4-1.7-2.4c-1.5,0-2.4,1.1-2.4,3V32h-1.4v-8.7h1.4
			l0,1.4c0.5-1,1.4-1.6,2.8-1.6c1.4,0,2.2,0.6,2.6,1.8c0.5-1.1,1.4-1.8,2.9-1.8c2,0,2.9,1.3,2.9,3.5V32h-1.4v-5.1
			C304.4,25.2,304,24.4,302.7,24.4z"/>
		<path class="st2" d="M307.7,27.6c0-2.5,1.6-4.5,4.1-4.5c2.5,0,3.9,1.7,3.9,4.4c0,0.2,0,0.4,0,0.6h-6.5c0.2,1.7,1.2,2.8,2.7,2.8
			c1.3,0,2.1-0.6,2.4-1.5l1.2,0.3c-0.5,1.6-1.8,2.5-3.6,2.5C309.4,32.2,307.7,30.2,307.7,27.6z M314.3,26.9c-0.1-1.6-1-2.6-2.5-2.6
			c-1.5,0-2.4,1-2.6,2.6H314.3z"/>
		<path class="st2" d="M321.9,24.5c-1.5,0-2.6,1.1-2.6,3V32h-1.5v-8.7h1.4l0,1.7c0.5-1.2,1.5-1.9,3-1.9c2.1,0,3.2,1.3,3.2,3.5V32
			h-1.5v-5C323.9,25.3,323.3,24.5,321.9,24.5z"/>
		<path class="st2" d="M328.8,29.2v-4.7H327v-1.2h1.8v-2.6l1.5-0.2v2.8h2.9v1.2h-2.9v4.5c0,1.2,0.4,1.8,1.5,1.8
			c0.5,0,0.8-0.1,1.2-0.3l0.4,1.2c-0.5,0.3-1.1,0.4-1.8,0.4C329.8,32.1,328.8,31.2,328.8,29.2z"/>
	</g>
	<g class="st1">
		<path class="st2" d="M227.5,47.9c0-1.6,1.2-2.4,2.6-3.2c-0.9-0.9-1.6-1.8-1.6-2.9c0-1.6,1.4-2.7,3.2-2.7c1.9,0,3.1,1.1,3.1,2.6
			c0,1.5-1.2,2.4-2.6,3.2l3.1,2.8c0.3-0.6,0.5-1.4,0.5-2.3c0-0.6-0.1-1.3-0.3-2l1.3,0.1c0.2,0.7,0.3,1.4,0.3,2.1
			c0,1.2-0.3,2.2-0.9,3l1.8,1.6l-1,0.9l-1.7-1.5c-1.1,1-2.5,1.5-4,1.5C229.1,51.2,227.5,49.9,227.5,47.9z M231.5,49.9
			c1.1,0,2.2-0.4,3-1.1l-3.5-3.2c-1.1,0.6-2,1.3-2,2.3C229.1,49,229.9,49.9,231.5,49.9z M231.2,44L231.2,44c1.2-0.5,2.1-1.2,2.1-2.2
			c0-0.9-0.6-1.4-1.7-1.4c-1.1,0-1.7,0.6-1.7,1.5C230,42.6,230.4,43.3,231.2,44z"/>
		<path class="st2" d="M244.2,38.6c0.6,0,1.1,0.5,1.1,1s-0.5,1-1.1,1c-0.6,0-1-0.5-1-1S243.6,38.6,244.2,38.6z M243.4,42.3h1.5V51
			h-1.5V42.3z"/>
		<path class="st2" d="M246.9,46.6c0-2.7,1.5-4.5,4-4.5c1.4,0,2.4,0.6,3,1.6v-5.3h1.5V51H254l0-1.6c-0.6,1.2-1.5,1.8-3,1.8
			C248.4,51.2,246.9,49.3,246.9,46.6z M251.1,49.9c1.8,0,2.9-1.4,2.9-3.2s-1.1-3.2-2.9-3.2c-1.8,0-2.7,1.3-2.7,3.2
			S249.3,49.9,251.1,49.9z"/>
		<path class="st2" d="M257.4,46.6c0-2.5,1.6-4.5,4.1-4.5c2.5,0,3.9,1.7,3.9,4.4c0,0.2,0,0.4,0,0.6h-6.5c0.2,1.7,1.2,2.8,2.7,2.8
			c1.3,0,2.1-0.6,2.4-1.5l1.2,0.3c-0.5,1.6-1.8,2.5-3.6,2.5C259,51.2,257.4,49.2,257.4,46.6z M263.9,45.9c-0.1-1.6-1-2.6-2.5-2.6
			c-1.5,0-2.4,1-2.6,2.6H263.9z"/>
		<path class="st2" d="M271.5,43.5c-1.5,0-2.6,1.1-2.6,3V51h-1.5v-8.7h1.4l0,1.7c0.5-1.2,1.5-1.9,3-1.9c2.1,0,3.2,1.3,3.2,3.5V51
			h-1.5v-5C273.6,44.3,272.9,43.5,271.5,43.5z"/>
		<path class="st2" d="M278.4,48.2v-4.7h-1.8v-1.2h1.8v-2.6l1.5-0.2v2.8h2.9v1.2h-2.9v4.5c0,1.2,0.4,1.8,1.5,1.8
			c0.5,0,0.8-0.1,1.2-0.3l0.4,1.2c-0.5,0.3-1.1,0.4-1.8,0.4C279.4,51.1,278.4,50.2,278.4,48.2z"/>
		<path class="st2" d="M285.5,38.6c0.6,0,1.1,0.5,1.1,1s-0.5,1-1.1,1c-0.6,0-1-0.5-1-1S284.9,38.6,285.5,38.6z M284.8,42.3h1.5V51
			h-1.5V42.3z"/>
		<path class="st2" d="M289.8,48.2v-4.7H288v-1.2h1.8v-2.6l1.5-0.2v2.8h2.9v1.2h-2.9v4.5c0,1.2,0.4,1.8,1.5,1.8
			c0.5,0,0.8-0.1,1.2-0.3l0.4,1.2c-0.5,0.3-1.1,0.4-1.8,0.4C290.8,51.1,289.8,50.2,289.8,48.2z"/>
		<path class="st2" d="M298.6,51.6l0.2-0.5h-0.4l-3.2-8.7h1.7l1.8,5.2c0.3,0.8,0.5,1.5,0.8,2.3c0.2-0.8,0.5-1.5,0.7-2.3l1.8-5.2h1.7
			l-3.5,9.4c-0.8,2.4-2.5,3.1-4.8,2.7l0.2-1.3C297.1,53.3,298.1,53,298.6,51.6z"/>
	</g>
	<g id="Rectangle_16-2_00000054969844016586870690000002566373016818399360_">
		<path class="st4" d="M409.5,0h154c4.4,0,8,3.6,8,8v55c0,4.4-3.6,8-8,8h-154c-4.4,0-8-3.6-8-8V8C401.5,3.6,405.1,0,409.5,0z"/>
	</g>
	<g class="st1">
		<path class="st2" d="M420.1,26.1c0-3.5,2.2-6,5.7-6c3.5,0,5.7,2.5,5.7,6s-2.2,6-5.7,6C422.3,32.2,420.1,29.7,420.1,26.1z
			 M425.8,30.8c2.6,0,4.1-1.9,4.1-4.7c0-2.8-1.5-4.7-4.1-4.7c-2.6,0-4.1,1.9-4.1,4.7C421.7,28.9,423.2,30.8,425.8,30.8z"/>
		<path class="st2" d="M433.7,23.3h1.4l0,1.8c0.6-1.5,1.9-2.2,3.5-1.9l0,1.5c-1.7-0.4-3.4,0.6-3.4,2.9V32h-1.4V23.3z"/>
		<path class="st2" d="M439.3,27.6c0-2.7,1.5-4.5,4-4.5c1.4,0,2.4,0.6,3,1.6v-5.3h1.5V32h-1.4l0-1.6c-0.6,1.2-1.5,1.8-3,1.8
			C440.8,32.2,439.3,30.3,439.3,27.6z M443.5,30.9c1.8,0,2.9-1.4,2.9-3.2s-1.1-3.2-2.9-3.2c-1.8,0-2.7,1.3-2.7,3.2
			S441.7,30.9,443.5,30.9z"/>
		<path class="st2" d="M449.8,27.6c0-2.5,1.6-4.5,4.1-4.5c2.5,0,3.9,1.7,3.9,4.4c0,0.2,0,0.4,0,0.6h-6.5c0.2,1.7,1.2,2.8,2.7,2.8
			c1.3,0,2.1-0.6,2.4-1.5l1.2,0.3c-0.5,1.6-1.8,2.5-3.6,2.5C451.4,32.2,449.8,30.2,449.8,27.6z M456.3,26.9c-0.1-1.6-1-2.6-2.5-2.6
			c-1.5,0-2.4,1-2.6,2.6H456.3z"/>
		<path class="st2" d="M459.8,23.3h1.4l0,1.8c0.6-1.5,1.9-2.2,3.5-1.9l0,1.5c-1.7-0.4-3.4,0.6-3.4,2.9V32h-1.4V23.3z"/>
		<path class="st2" d="M473.6,19.3c0.8,0,1.5,0.2,2.2,0.8l-0.6,1.1c-0.5-0.5-1-0.7-1.5-0.7c-1,0-1.6,0.6-1.6,1.8v1h2.7v1.2H472V32
			h-1.5v-7.5H469v-1.2h1.6v-1C470.6,20.4,471.7,19.3,473.6,19.3z"/>
		<path class="st2" d="M476.2,28.6v-5.3h1.5v5c0,1.7,0.7,2.5,2,2.5c1.5,0,2.6-1.1,2.6-3v-4.5h1.5V32h-1.4l0-1.7
			c-0.5,1.2-1.5,1.9-3,1.9C477.2,32.2,476.2,30.9,476.2,28.6z"/>
		<path class="st2" d="M486.4,19.4h1.5V32h-1.5V19.4z"/>
		<path class="st2" d="M494.2,19.3c0.4,0,0.8,0.1,1.2,0.2v1.3c-0.3-0.2-0.7-0.2-1.1-0.2c-1,0-1.5,0.5-1.5,1.8v1h2.7v1.2h-2.7V32
			h-1.5v-7.5h-1.6v-1.2h1.6v-1C491.2,20.4,492.3,19.3,494.2,19.3z M497.9,19.6c0.6,0,1.1,0.5,1.1,1s-0.5,1-1.1,1c-0.6,0-1-0.5-1-1
			S497.3,19.6,497.9,19.6z M497.2,23.3h1.5V32h-1.5V23.3z"/>
		<path class="st2" d="M501.4,19.4h1.5V32h-1.5V19.4z"/>
		<path class="st2" d="M505.6,19.4h1.5V32h-1.5V19.4z"/>
		<path class="st2" d="M519.1,24.4c-1.5,0-2.4,1.1-2.4,3V32h-1.4v-5.1c0-1.7-0.4-2.4-1.7-2.4c-1.5,0-2.4,1.1-2.4,3V32h-1.4v-8.7h1.4
			l0,1.4c0.5-1,1.4-1.6,2.8-1.6c1.4,0,2.2,0.6,2.6,1.8c0.5-1.1,1.4-1.8,2.9-1.8c2,0,2.9,1.3,2.9,3.5V32h-1.4v-5.1
			C520.8,25.2,520.4,24.4,519.1,24.4z"/>
		<path class="st2" d="M524.1,27.6c0-2.5,1.6-4.5,4.1-4.5c2.5,0,3.9,1.7,3.9,4.4c0,0.2,0,0.4,0,0.6h-6.5c0.2,1.7,1.2,2.8,2.7,2.8
			c1.3,0,2.1-0.6,2.4-1.5l1.2,0.3c-0.5,1.6-1.8,2.5-3.6,2.5C525.8,32.2,524.1,30.2,524.1,27.6z M530.7,26.9c-0.1-1.6-1-2.6-2.5-2.6
			c-1.5,0-2.4,1-2.6,2.6H530.7z"/>
		<path class="st2" d="M538.3,24.5c-1.5,0-2.6,1.1-2.6,3V32h-1.5v-8.7h1.4l0,1.7c0.5-1.2,1.5-1.9,3-1.9c2.1,0,3.2,1.3,3.2,3.5V32
			h-1.5v-5C540.3,25.3,539.7,24.5,538.3,24.5z"/>
		<path class="st2" d="M545.2,29.2v-4.7h-1.8v-1.2h1.8v-2.6l1.5-0.2v2.8h2.9v1.2h-2.9v4.5c0,1.2,0.4,1.8,1.5,1.8
			c0.5,0,0.8-0.1,1.2-0.3l0.4,1.2c-0.5,0.3-1.1,0.4-1.8,0.4C546.2,32.1,545.2,31.2,545.2,29.2z"/>
	</g>
	<g class="st1">
		<path class="st2" d="M459.2,48.2v-4.7h-1.8v-1.2h1.8v-2.6l1.5-0.2v2.8h2.9v1.2h-2.9v4.5c0,1.2,0.4,1.8,1.5,1.8
			c0.5,0,0.8-0.1,1.2-0.3l0.4,1.2c-0.5,0.3-1.1,0.4-1.8,0.4C460.2,51.1,459.2,50.2,459.2,48.2z"/>
		<path class="st2" d="M465.4,47.6v-5.3h1.5v5c0,1.7,0.7,2.5,2,2.5c1.5,0,2.6-1.1,2.6-3v-4.5h1.5V51h-1.4l0-1.7
			c-0.5,1.2-1.5,1.9-3,1.9C466.4,51.2,465.4,49.9,465.4,47.6z"/>
		<path class="st2" d="M476.4,48.2v-4.7h-1.8v-1.2h1.8v-2.6l1.5-0.2v2.8h2.9v1.2h-2.9v4.5c0,1.2,0.4,1.8,1.5,1.8
			c0.5,0,0.8-0.1,1.2-0.3l0.4,1.2c-0.5,0.3-1.1,0.4-1.8,0.4C477.4,51.1,476.4,50.2,476.4,48.2z"/>
		<path class="st2" d="M482,46.7c0-2.6,1.7-4.5,4.4-4.5c2.7,0,4.3,1.9,4.3,4.5c0,2.6-1.7,4.5-4.3,4.5C483.7,51.2,482,49.3,482,46.7z
			 M486.4,49.9c1.7,0,2.9-1.4,2.9-3.2c0-1.9-1.1-3.2-2.9-3.2c-1.8,0-2.9,1.3-2.9,3.2C483.5,48.5,484.6,49.9,486.4,49.9z"/>
		<path class="st2" d="M492.7,42.3h1.4l0,1.8c0.6-1.5,1.9-2.2,3.5-1.9l0,1.5c-1.7-0.4-3.4,0.6-3.4,2.9V51h-1.4V42.3z"/>
		<path class="st2" d="M499.9,38.6c0.6,0,1.1,0.5,1.1,1s-0.5,1-1.1,1c-0.6,0-1-0.5-1-1S499.3,38.6,499.9,38.6z M499.2,42.3h1.5V51
			h-1.5V42.3z"/>
		<path class="st2" d="M508.9,49.6c-0.6,0.9-1.7,1.5-3.1,1.5c-1.8,0-3-1-3-2.6c0-1.9,1.8-2.5,4.1-2.5c0.6,0,1.2,0,1.9,0.1v-0.5
			c0-1.3-0.5-2.3-2.1-2.3c-1.3,0-1.9,0.6-2.3,1.7l-1.3-0.3c0.4-1.7,1.7-2.6,3.6-2.6c3.3,0,3.5,2.3,3.5,3.6V49c0,0.5,0.1,0.9,0.7,0.9
			c0.2,0,0.3,0,0.5,0V51c-0.3,0.1-0.5,0.1-0.8,0.1C509.4,51.1,509,50.6,508.9,49.6z M506.1,49.9c1.1,0,2.2-0.5,2.7-1.4v-1.3
			c-0.6-0.1-1.2-0.1-1.8-0.1c-1.7,0-2.6,0.4-2.6,1.4C504.4,49.6,505.1,49.9,506.1,49.9z"/>
		<path class="st2" d="M513.2,38.4h1.5V51h-1.5V38.4z"/>
	</g>
	<g id="Rectangle_16-3_00000099649079213781793790000004731714729163449528_">
		<path class="st4" d="M409.5,101h154c4.4,0,8,3.6,8,8v33c0,4.4-3.6,8-8,8h-154c-4.4,0-8-3.6-8-8v-33
			C401.5,104.6,405.1,101,409.5,101z"/>
	</g>
	<g class="st1">
		<path class="st2" d="M435.2,119.3h4.2c2.4,0,3.8,1.2,3.8,3.5c0,2.2-1.5,3.6-3.9,3.6h-2.6v4.6h-1.5V119.3z M439.2,125.2
			c1.5,0,2.3-0.8,2.3-2.4c0-1.5-0.8-2.2-2.3-2.2h-2.5v4.6H439.2z"/>
		<path class="st2" d="M445.1,122.3h1.4l0,1.8c0.6-1.5,1.9-2.2,3.5-1.9l0,1.5c-1.7-0.4-3.4,0.6-3.4,2.9v4.4h-1.4V122.3z"/>
		<path class="st2" d="M456.7,129.6c-0.6,0.9-1.7,1.5-3.1,1.5c-1.8,0-3-1-3-2.6c0-1.9,1.8-2.5,4.1-2.5c0.6,0,1.2,0,1.9,0.1v-0.5
			c0-1.3-0.5-2.3-2.1-2.3c-1.3,0-1.9,0.6-2.3,1.7l-1.3-0.3c0.4-1.7,1.7-2.6,3.6-2.6c3.3,0,3.5,2.3,3.5,3.6v3.3
			c0,0.5,0.1,0.9,0.7,0.9c0.2,0,0.3,0,0.5,0v1.2c-0.3,0.1-0.5,0.1-0.8,0.1C457.2,131.1,456.8,130.6,456.7,129.6z M453.9,129.9
			c1.1,0,2.2-0.5,2.7-1.4v-1.3c-0.6-0.1-1.2-0.1-1.8-0.1c-1.7,0-2.6,0.4-2.6,1.4C452.2,129.6,452.9,129.9,453.9,129.9z"/>
		<path class="st2" d="M460.3,126.7c0-2.6,1.6-4.5,4.2-4.5c2,0,3.4,0.9,3.9,3l-1.3,0.2c-0.3-1.2-1.1-1.9-2.5-1.9
			c-1.8,0-2.8,1.4-2.8,3.2c0,1.9,1,3.2,2.8,3.2c1.4,0,2.2-0.7,2.5-1.9l1.3,0.2c-0.4,2.1-1.9,3-3.9,3
			C461.9,131.2,460.3,129.2,460.3,126.7z"/>
		<path class="st2" d="M471.3,128.2v-4.7h-1.8v-1.2h1.8v-2.6l1.5-0.2v2.8h2.9v1.2h-2.9v4.5c0,1.2,0.4,1.8,1.5,1.8
			c0.5,0,0.8-0.1,1.2-0.3l0.4,1.2c-0.5,0.3-1.1,0.4-1.8,0.4C472.3,131.1,471.3,130.2,471.3,128.2z"/>
		<path class="st2" d="M478.3,118.6c0.6,0,1.1,0.5,1.1,1s-0.5,1-1.1,1c-0.6,0-1-0.5-1-1S477.8,118.6,478.3,118.6z M477.6,122.3h1.5
			v8.7h-1.5V122.3z"/>
		<path class="st2" d="M481.1,126.7c0-2.6,1.6-4.5,4.2-4.5c2,0,3.4,0.9,3.9,3l-1.3,0.2c-0.3-1.2-1.1-1.9-2.5-1.9
			c-1.8,0-2.8,1.4-2.8,3.2c0,1.9,1,3.2,2.8,3.2c1.4,0,2.2-0.7,2.5-1.9l1.3,0.2c-0.4,2.1-1.9,3-3.9,3
			C482.7,131.2,481.1,129.2,481.1,126.7z"/>
		<path class="st2" d="M496.9,129.6c-0.6,0.9-1.7,1.5-3.1,1.5c-1.8,0-3-1-3-2.6c0-1.9,1.8-2.5,4.1-2.5c0.6,0,1.2,0,1.9,0.1v-0.5
			c0-1.3-0.5-2.3-2.1-2.3c-1.3,0-1.9,0.6-2.3,1.7l-1.3-0.3c0.4-1.7,1.7-2.6,3.6-2.6c3.3,0,3.5,2.3,3.5,3.6v3.3
			c0,0.5,0.1,0.9,0.7,0.9c0.2,0,0.3,0,0.5,0v1.2c-0.3,0.1-0.5,0.1-0.8,0.1C497.5,131.1,497,130.6,496.9,129.6z M494.1,129.9
			c1.1,0,2.2-0.5,2.7-1.4v-1.3c-0.6-0.1-1.2-0.1-1.8-0.1c-1.7,0-2.6,0.4-2.6,1.4C492.5,129.6,493.2,129.9,494.1,129.9z"/>
		<path class="st2" d="M501.3,118.4h1.5V131h-1.5V118.4z"/>
		<path class="st2" d="M510,128.2v-4.7h-1.8v-1.2h1.8v-2.6l1.5-0.2v2.8h2.9v1.2h-2.9v4.5c0,1.2,0.4,1.8,1.5,1.8
			c0.5,0,0.8-0.1,1.2-0.3l0.4,1.2c-0.5,0.3-1.1,0.4-1.8,0.4C511,131.1,510,130.2,510,128.2z"/>
		<path class="st2" d="M515.5,126.6c0-2.5,1.6-4.5,4.1-4.5c2.5,0,3.9,1.7,3.9,4.4c0,0.2,0,0.4,0,0.6H517c0.2,1.7,1.2,2.8,2.7,2.8
			c1.3,0,2.1-0.6,2.4-1.5l1.2,0.3c-0.5,1.6-1.8,2.5-3.6,2.5C517.2,131.2,515.5,129.2,515.5,126.6z M522.1,125.9
			c-0.1-1.6-1-2.6-2.5-2.6c-1.5,0-2.4,1-2.6,2.6H522.1z"/>
		<path class="st2" d="M525,128.2l1.3-0.2c0.1,1.4,1.1,2,2.5,2c1.2,0,1.8-0.4,1.8-1.3c0-1-0.8-1.2-2.1-1.4c-2.2-0.5-3.3-1.1-3.3-2.6
			c0-1.6,1.3-2.6,3.2-2.6c2.3,0,3.4,1.2,3.5,2.9l-1.3,0.2c-0.1-1.3-1-1.9-2.2-1.9c-1.2,0-1.8,0.5-1.8,1.3c0,0.9,0.7,1.2,2.1,1.5
			c2,0.4,3.2,0.9,3.2,2.5c0,1.5-1.2,2.5-3.2,2.5C526.7,131.2,525.2,130.3,525,128.2z"/>
		<path class="st2" d="M535.1,128.2v-4.7h-1.8v-1.2h1.8v-2.6l1.5-0.2v2.8h2.9v1.2h-2.9v4.5c0,1.2,0.4,1.8,1.5,1.8
			c0.5,0,0.8-0.1,1.2-0.3l0.4,1.2c-0.5,0.3-1.1,0.4-1.8,0.4C536.1,131.1,535.1,130.2,535.1,128.2z"/>
	</g>
	<g id="Rectangle_15-3_00000146499161039265114680000004553151240771363714_">
		<path class="st5" d="M644,0h143c13.5,0,24.5,11,24.5,24.5l0,0c0,13.5-11,24.5-24.5,24.5H644c-13.5,0-24.5-11-24.5-24.5l0,0
			C619.5,11,630.5,0,644,0z"/>
	</g>
	<g class="st1">
		<path class="st2" d="M641,27.1l1.4-0.2c0,1.9,1,3,3.2,3c1.5,0,2.4-0.6,2.4-1.9c0-1.3-1.1-1.7-2.9-2.2c-2.1-0.6-3.8-1.3-3.8-3.4
			c0-2.1,1.7-3.2,4-3.2c2.5,0,4.1,1.2,4.1,3.8l-1.3,0.3c-0.1-1.7-1-2.8-2.9-2.8c-1.6,0-2.4,0.7-2.4,1.9c0,1.3,1.1,1.7,2.9,2.2
			c2,0.6,3.8,1.2,3.8,3.4c0,2-1.5,3.3-4,3.3C643,31.2,640.9,30,641,27.1z"/>
		<path class="st2" d="M651.8,27.6v-5.3h1.5v5c0,1.7,0.7,2.5,2,2.5c1.5,0,2.6-1.1,2.6-3v-4.5h1.5V31H658l0-1.7
			c-0.5,1.2-1.5,1.9-3,1.9C652.9,31.2,651.8,29.9,651.8,27.6z"/>
		<path class="st2" d="M663.5,29.3l0,1.7h-1.4V18.4h1.5v5.4c0.6-1.1,1.6-1.7,3.1-1.7c2.5,0,3.9,1.9,3.9,4.5c0,2.7-1.4,4.5-3.9,4.5
			C665.1,31.2,664.1,30.5,663.5,29.3z M666.4,29.9c1.8,0,2.7-1.4,2.7-3.2s-0.9-3.2-2.7-3.2c-1.8,0-2.9,1.4-2.9,3.2
			S664.6,29.9,666.4,29.9z"/>
		<path class="st2" d="M681.9,23.4c-1.5,0-2.4,1.1-2.4,3V31h-1.4v-5.1c0-1.7-0.4-2.4-1.7-2.4c-1.5,0-2.4,1.1-2.4,3V31h-1.4v-8.7h1.4
			l0,1.4c0.5-1,1.4-1.6,2.8-1.6c1.4,0,2.2,0.6,2.6,1.8c0.5-1.1,1.4-1.8,2.9-1.8c2,0,2.9,1.3,2.9,3.5V31h-1.4v-5.1
			C683.6,24.2,683.1,23.4,681.9,23.4z"/>
		<path class="st2" d="M688.4,18.6c0.6,0,1.1,0.5,1.1,1s-0.5,1-1.1,1c-0.6,0-1-0.5-1-1S687.8,18.6,688.4,18.6z M687.7,22.3h1.5V31
			h-1.5V22.3z"/>
		<path class="st2" d="M692.7,28.2v-4.7h-1.8v-1.2h1.8v-2.6l1.5-0.2v2.8h2.9v1.2h-2.9v4.5c0,1.2,0.4,1.8,1.5,1.8
			c0.5,0,0.8-0.1,1.2-0.3l0.4,1.2c-0.5,0.3-1.1,0.4-1.8,0.4C693.7,31.1,692.7,30.2,692.7,28.2z"/>
		<path class="st2" d="M708.2,29.6c-0.6,0.9-1.7,1.5-3.1,1.5c-1.8,0-3-1-3-2.6c0-1.9,1.8-2.5,4.1-2.5c0.6,0,1.2,0,1.9,0.1v-0.5
			c0-1.3-0.5-2.3-2.1-2.3c-1.3,0-1.9,0.6-2.3,1.7l-1.3-0.3c0.4-1.7,1.7-2.6,3.6-2.6c3.3,0,3.5,2.3,3.5,3.6V29c0,0.5,0.1,0.9,0.7,0.9
			c0.2,0,0.3,0,0.5,0V31c-0.3,0.1-0.5,0.1-0.8,0.1C708.8,31.1,708.3,30.6,708.2,29.6z M705.4,29.9c1.1,0,2.2-0.5,2.7-1.4v-1.3
			c-0.6-0.1-1.2-0.1-1.8-0.1c-1.7,0-2.6,0.4-2.6,1.4C703.8,29.6,704.5,29.9,705.4,29.9z"/>
		<path class="st2" d="M714,29.4v5.1h-1.5V22.3h1.4l0,1.6c0.6-1.2,1.6-1.8,3.1-1.8c2.5,0,3.9,1.8,3.9,4.5c0,2.7-1.4,4.5-3.9,4.5
			C715.6,31.2,714.6,30.5,714,29.4z M716.8,29.9c1.8,0,2.7-1.4,2.7-3.2s-0.9-3.2-2.7-3.2c-1.8,0-2.9,1.4-2.9,3.2
			S715.1,29.9,716.8,29.9z"/>
		<path class="st2" d="M724.5,29.4v5.1H723V22.3h1.4l0,1.6c0.6-1.2,1.6-1.8,3.1-1.8c2.5,0,3.9,1.8,3.9,4.5c0,2.7-1.4,4.5-3.9,4.5
			C726.1,31.2,725.1,30.5,724.5,29.4z M727.3,29.9c1.8,0,2.7-1.4,2.7-3.2s-0.9-3.2-2.7-3.2c-1.8,0-2.9,1.4-2.9,3.2
			S725.5,29.9,727.3,29.9z"/>
		<path class="st2" d="M733.4,18.4h1.5V31h-1.5V18.4z"/>
		<path class="st2" d="M738.4,18.6c0.6,0,1.1,0.5,1.1,1s-0.5,1-1.1,1c-0.6,0-1-0.5-1-1S737.8,18.6,738.4,18.6z M737.7,22.3h1.5V31
			h-1.5V22.3z"/>
		<path class="st2" d="M741.2,26.7c0-2.6,1.6-4.5,4.2-4.5c2,0,3.4,0.9,3.9,3l-1.3,0.2c-0.3-1.2-1.1-1.9-2.5-1.9
			c-1.8,0-2.8,1.4-2.8,3.2c0,1.9,1,3.2,2.8,3.2c1.4,0,2.2-0.7,2.5-1.9l1.3,0.2c-0.4,2.1-1.9,3-3.9,3
			C742.8,31.2,741.2,29.2,741.2,26.7z"/>
		<path class="st2" d="M757,29.6c-0.6,0.9-1.7,1.5-3.1,1.5c-1.8,0-3-1-3-2.6c0-1.9,1.8-2.5,4.1-2.5c0.6,0,1.2,0,1.9,0.1v-0.5
			c0-1.3-0.5-2.3-2.1-2.3c-1.3,0-1.9,0.6-2.3,1.7l-1.3-0.3c0.4-1.7,1.7-2.6,3.6-2.6c3.3,0,3.5,2.3,3.5,3.6V29c0,0.5,0.1,0.9,0.7,0.9
			c0.2,0,0.3,0,0.5,0V31c-0.3,0.1-0.5,0.1-0.8,0.1C757.5,31.1,757.1,30.6,757,29.6z M754.2,29.9c1.1,0,2.2-0.5,2.7-1.4v-1.3
			c-0.6-0.1-1.2-0.1-1.8-0.1c-1.7,0-2.6,0.4-2.6,1.4C752.5,29.6,753.2,29.9,754.2,29.9z"/>
		<path class="st2" d="M761.7,28.2v-4.7h-1.8v-1.2h1.8v-2.6l1.5-0.2v2.8h2.9v1.2h-2.9v4.5c0,1.2,0.4,1.8,1.5,1.8
			c0.5,0,0.8-0.1,1.2-0.3l0.4,1.2c-0.5,0.3-1.1,0.4-1.8,0.4C762.7,31.1,761.7,30.2,761.7,28.2z"/>
		<path class="st2" d="M768.8,18.6c0.6,0,1.1,0.5,1.1,1s-0.5,1-1.1,1c-0.6,0-1-0.5-1-1S768.2,18.6,768.8,18.6z M768.1,22.3h1.5V31
			h-1.5V22.3z"/>
		<path class="st2" d="M771.6,26.7c0-2.6,1.7-4.5,4.4-4.5c2.7,0,4.3,1.9,4.3,4.5c0,2.6-1.7,4.5-4.3,4.5
			C773.2,31.2,771.6,29.3,771.6,26.7z M775.9,29.9c1.7,0,2.9-1.4,2.9-3.2c0-1.9-1.1-3.2-2.9-3.2c-1.8,0-2.9,1.3-2.9,3.2
			C773,28.5,774.2,29.9,775.9,29.9z"/>
		<path class="st2" d="M786.4,23.5c-1.5,0-2.6,1.1-2.6,3V31h-1.5v-8.7h1.4l0,1.7c0.5-1.2,1.5-1.9,3-1.9c2.1,0,3.2,1.3,3.2,3.5V31
			h-1.5v-5C788.4,24.3,787.7,23.5,786.4,23.5z"/>
	</g>
	<g id="Rectangle_16-4_00000163037090430239330300000008856295732573375422_" transform="translate(50 50)">
		<g>
			<path class="st6" d="M-38.5-50h111c4.4,0,8,3.6,8,8v34c0,4.4-3.6,8-8,8h-111c-4.4,0-8-3.6-8-8v-34C-46.5-46.4-42.9-50-38.5-50z"
				/>
		</g>
		<g>
			<path class="st5" d="M72.5,0h-111c-4.4,0-8-3.6-8-8v-34c0-4.4,3.6-8,8-8h111c4.4,0,8,3.6,8,8v34C80.5-3.6,77,0,72.5,0z M-38.5-47
				c-2.8,0-5,2.2-5,5v34c0,2.8,2.2,5,5,5h111c2.8,0,5-2.2,5-5v-34c0-2.8-2.2-5-5-5H-38.5z"/>
		</g>
	</g>
	<g class="st1">
		<path class="st7" d="M44.2,19.3h2.4l2.9,7.8c0.2,0.6,0.5,1.3,0.7,2c0.2-0.7,0.4-1.3,0.7-2l2.9-7.8h2.4V31h-1.5v-7.9
			c0-0.8,0-1.5,0-2.3c-0.2,0.8-0.5,1.6-0.8,2.4l-3,7.8h-1.4l-3-7.8c-0.3-0.8-0.6-1.6-0.8-2.4c0,0.8,0,1.5,0,2.3V31h-1.5V19.3z"/>
		<path class="st7" d="M64.6,29.6c-0.6,0.9-1.7,1.5-3.1,1.5c-1.8,0-3-1-3-2.6c0-1.9,1.8-2.5,4.1-2.5c0.6,0,1.2,0,1.9,0.1v-0.5
			c0-1.3-0.5-2.3-2.1-2.3c-1.3,0-1.9,0.6-2.3,1.7l-1.3-0.3c0.4-1.7,1.7-2.6,3.6-2.6c3.3,0,3.5,2.3,3.5,3.6V29c0,0.5,0.1,0.9,0.7,0.9
			c0.2,0,0.3,0,0.5,0V31c-0.3,0.1-0.5,0.1-0.8,0.1C65.1,31.1,64.7,30.6,64.6,29.6z M61.8,29.9c1.1,0,2.2-0.5,2.7-1.4v-1.3
			c-0.6-0.1-1.2-0.1-1.8-0.1c-1.7,0-2.6,0.4-2.6,1.4C60.1,29.6,60.8,29.9,61.8,29.9z"/>
		<path class="st7" d="M68.9,18.4h1.4v8.2l3.9-4.3h1.8L72.7,26l3.8,5h-1.7l-3.1-4.1l-1.3,1.4V31h-1.4V18.4z"/>
		<path class="st7" d="M77,26.6c0-2.5,1.6-4.5,4.1-4.5c2.5,0,3.9,1.7,3.9,4.4c0,0.2,0,0.4,0,0.6h-6.5c0.2,1.7,1.2,2.8,2.7,2.8
			c1.3,0,2.1-0.6,2.4-1.5l1.2,0.3c-0.5,1.6-1.8,2.5-3.6,2.5C78.6,31.2,77,29.2,77,26.6z M83.5,25.9c-0.1-1.6-1-2.6-2.5-2.6
			c-1.5,0-2.4,1-2.6,2.6H83.5z"/>
		<path class="st7" d="M87,22.3h1.4l0,1.8c0.6-1.5,1.9-2.2,3.5-1.9l0,1.5c-1.7-0.4-3.4,0.6-3.4,2.9V31H87V22.3z"/>
	</g>
	<g id="Path_588_00000054260329904931085270000009591332929161588877_">
		<path class="st8" d="M67,23.5"/>
	</g>
	<g id="Line-5_00000062190861112300583930000017622489069580655281_">
		<path class="st7" d="M163.5,27.5h-20c-0.8,0-1.5-0.7-1.5-1.5s0.7-1.5,1.5-1.5h20c0.8,0,1.5,0.7,1.5,1.5S164.4,27.5,163.5,27.5z"/>
	</g>
	<g id="Path_703">
		<path class="st7" d="M158.3,32.7c-0.4,0-0.8-0.1-1.1-0.4c-0.6-0.6-0.6-1.5,0-2.1l4.2-4.2l-4.2-4.2c-0.6-0.6-0.6-1.5,0-2.1
			c0.6-0.6,1.5-0.6,2.1,0l6.3,6.3l-6.3,6.3C159.1,32.6,158.7,32.7,158.3,32.7z"/>
	</g>
	<g id="Path_704">
		<path class="st7" d="M382.3,32.7c-0.4,0-0.8-0.1-1.1-0.4c-0.6-0.6-0.6-1.5,0-2.1l4.2-4.2l-4.2-4.2c-0.6-0.6-0.6-1.5,0-2.1
			c0.6-0.6,1.5-0.6,2.1,0l6.3,6.3l-6.3,6.3C383.1,32.6,382.7,32.7,382.3,32.7z"/>
	</g>
	<g id="Path_705">
		<path class="st7" d="M602.3,32.7c-0.4,0-0.8-0.1-1.1-0.4c-0.6-0.6-0.6-1.5,0-2.1l4.2-4.2l-4.2-4.2c-0.6-0.6-0.6-1.5,0-2.1
			c0.6-0.6,1.5-0.6,2.1,0l6.3,6.3l-6.3,6.3C603.1,32.6,602.7,32.7,602.3,32.7z"/>
	</g>
	<g id="Path_706">
		<path class="st7" d="M602.3,411.4c-0.4,0-0.8-0.1-1.1-0.4c-0.6-0.6-0.6-1.5,0-2.1l4.2-4.2l-4.2-4.2c-0.6-0.6-0.6-1.5,0-2.1
			c0.6-0.6,1.5-0.6,2.1,0l6.3,6.3l-6.3,6.3C603.1,411.2,602.7,411.4,602.3,411.4z"/>
	</g>
	<g id="Path_707">
		<path class="st7" d="M842.3,411.4c-0.4,0-0.8-0.1-1.1-0.4c-0.6-0.6-0.6-1.5,0-2.1l4.2-4.2l-4.2-4.2c-0.6-0.6-0.6-1.5,0-2.1
			c0.6-0.6,1.5-0.6,2.1,0l6.3,6.3l-6.3,6.3C843.1,411.2,842.7,411.4,842.3,411.4z"/>
	</g>
	<g id="Line-5-2">
		<path class="st7" d="M845.5,138.3H824V24.5h21.5c0.8,0,1.5,0.7,1.5,1.5s-0.7,1.5-1.5,1.5H827v107.8h18.5c0.8,0,1.5,0.7,1.5,1.5
			S846.4,138.3,845.5,138.3z"/>
	</g>
	<g id="Path_708">
		<path class="st7" d="M841.3,32.7c-0.4,0-0.8-0.1-1.1-0.4c-0.6-0.6-0.6-1.5,0-2.1l4.2-4.2l-4.2-4.2c-0.6-0.6-0.6-1.5,0-2.1
			c0.6-0.6,1.5-0.6,2.1,0l6.3,6.3l-6.3,6.3C842.1,32.6,841.7,32.7,841.3,32.7z"/>
	</g>
	<g id="Path_709">
		<path class="st7" d="M841.3,143.5c-0.4,0-0.8-0.1-1.1-0.4c-0.6-0.6-0.6-1.5,0-2.1l4.2-4.2l-4.2-4.2c-0.6-0.6-0.6-1.5,0-2.1
			c0.6-0.6,1.5-0.6,2.1,0l6.3,6.3l-6.3,6.3C842.1,143.4,841.7,143.5,841.3,143.5z"/>
	</g>
	<g id="Line-5-3">
		<path class="st7" d="M386.5,127H365V24.5h21.5c0.8,0,1.5,0.7,1.5,1.5s-0.7,1.5-1.5,1.5H368V124h18.5c0.8,0,1.5,0.7,1.5,1.5
			S387.4,127,386.5,127z"/>
	</g>
	<g id="Path_710">
		<path class="st7" d="M382.3,132.2c-0.4,0-0.8-0.1-1.1-0.4c-0.6-0.6-0.6-1.5,0-2.1l4.2-4.2l-4.2-4.2c-0.6-0.6-0.6-1.5,0-2.1
			c0.6-0.6,1.5-0.6,2.1,0l6.3,6.3l-6.3,6.3C383.1,132.1,382.7,132.2,382.3,132.2z"/>
	</g>
	<g id="Line-5-4">
		<path class="st7" d="M585.5,127c-0.8,0-1.5-0.7-1.5-1.5v-101h21.5c0.8,0,1.5,0.7,1.5,1.5s-0.7,1.5-1.5,1.5H587v98
			C587,126.3,586.4,127,585.5,127z"/>
	</g>
	<g id="Line-5-5">
		<path class="st7" d="M605.5,406.2H584v-83c0-0.8,0.7-1.5,1.5-1.5s1.5,0.7,1.5,1.5v80h18.5c0.8,0,1.5,0.7,1.5,1.5
			S606.4,406.2,605.5,406.2z"/>
	</g>
	<g id="Line-5-6">
		<path class="st7" d="M845.5,406.2H824v-83c0-0.8,0.7-1.5,1.5-1.5s1.5,0.7,1.5,1.5v80h18.5c0.8,0,1.5,0.7,1.5,1.5
			S846.4,406.2,845.5,406.2z"/>
	</g>
	<g id="Rectangle_16-5_00000101092931609974857380000007306360091508244373_" transform="translate(448 349.902)">
		<g>
			<path class="st6" d="M-38.5-50h154c4.4,0,8,3.6,8,8v34c0,4.4-3.6,8-8,8h-154c-4.4,0-8-3.6-8-8v-34C-46.5-46.4-42.9-50-38.5-50z"
				/>
		</g>
		<g>
			<path class="st5" d="M115.5,0h-154c-4.4,0-8-3.6-8-8v-34c0-4.4,3.6-8,8-8h154c4.4,0,8,3.6,8,8v34C123.5-3.6,120,0,115.5,0z
				 M-38.5-47c-2.8,0-5,2.2-5,5v34c0,2.8,2.2,5,5,5h154c2.8,0,5-2.2,5-5v-34c0-2.8-2.2-5-5-5H-38.5z"/>
		</g>
	</g>
	<g class="st1">
		<path class="st7" d="M445.1,325.1c0-3.6,2.2-6,5.6-6c2.8,0,4.7,1.3,5.2,4.1l-1.5,0.2c-0.5-2.2-1.8-3.1-3.7-3.1c-2.5,0-4,1.9-4,4.7
			c0,2.8,1.5,4.7,4,4.7c1.9,0,3.2-0.8,3.7-3.1l1.5,0.2c-0.5,2.8-2.3,4.1-5.2,4.1C447.2,331.1,445.1,328.6,445.1,325.1z"/>
		<path class="st7" d="M458,327.5v-5.3h1.5v5c0,1.7,0.7,2.5,2,2.5c1.5,0,2.6-1.1,2.6-3v-4.5h1.5v8.7h-1.4l0-1.7
			c-0.5,1.2-1.5,1.9-3,1.9C459,331.1,458,329.8,458,327.5z"/>
		<path class="st7" d="M467.7,328.1l1.3-0.2c0.1,1.4,1.1,2,2.5,2c1.2,0,1.8-0.4,1.8-1.3c0-1-0.8-1.2-2.1-1.4
			c-2.2-0.5-3.3-1.1-3.3-2.6c0-1.6,1.3-2.6,3.2-2.6c2.3,0,3.4,1.2,3.5,2.9l-1.3,0.2c-0.1-1.3-1-1.9-2.2-1.9c-1.2,0-1.8,0.5-1.8,1.3
			c0,0.9,0.7,1.2,2.1,1.5c2,0.4,3.2,0.9,3.2,2.5c0,1.5-1.2,2.5-3.2,2.5C469.3,331.1,467.8,330.2,467.7,328.1z"/>
		<path class="st7" d="M477.7,328.1v-4.7H476v-1.2h1.8v-2.6l1.5-0.2v2.8h2.9v1.2h-2.9v4.5c0,1.2,0.4,1.8,1.5,1.8
			c0.5,0,0.8-0.1,1.2-0.3l0.4,1.2c-0.5,0.3-1.1,0.4-1.8,0.4C478.8,331,477.7,330.1,477.7,328.1z"/>
		<path class="st7" d="M483.3,326.6c0-2.6,1.7-4.5,4.4-4.5c2.7,0,4.3,1.9,4.3,4.5c0,2.6-1.7,4.5-4.3,4.5
			C485,331.1,483.3,329.2,483.3,326.6z M487.7,329.8c1.7,0,2.9-1.4,2.9-3.2c0-1.9-1.1-3.2-2.9-3.2c-1.8,0-2.9,1.3-2.9,3.2
			C484.8,328.4,485.9,329.8,487.7,329.8z"/>
		<path class="st7" d="M503.3,323.3c-1.5,0-2.4,1.1-2.4,3v4.5h-1.4v-5.1c0-1.7-0.4-2.4-1.7-2.4c-1.5,0-2.4,1.1-2.4,3v4.5H494v-8.7
			h1.4l0,1.4c0.5-1,1.4-1.6,2.8-1.6c1.4,0,2.2,0.6,2.6,1.8c0.5-1.1,1.4-1.8,2.9-1.8c2,0,2.9,1.3,2.9,3.5v5.3H505v-5.1
			C505,324.2,504.6,323.3,503.3,323.3z"/>
		<path class="st7" d="M509.8,318.5c0.6,0,1.1,0.4,1.1,1s-0.5,1-1.1,1c-0.6,0-1-0.5-1-1S509.3,318.5,509.8,318.5z M509.1,322.2h1.5
			v8.7h-1.5V322.2z"/>
		<path class="st7" d="M512.8,329.8l5-6.4H513v-1.2h6.7v1.1l-5,6.4h5v1.2h-6.8V329.8z"/>
		<path class="st7" d="M521.1,326.5c0-2.5,1.6-4.5,4.1-4.5c2.5,0,3.9,1.7,3.9,4.4c0,0.2,0,0.4,0,0.6h-6.5c0.2,1.7,1.2,2.8,2.7,2.8
			c1.3,0,2.1-0.6,2.4-1.5l1.2,0.3c-0.5,1.6-1.8,2.5-3.6,2.5C522.8,331.1,521.1,329.1,521.1,326.5z M527.7,325.9
			c-0.1-1.6-1-2.6-2.5-2.6c-1.5,0-2.4,1-2.6,2.6H527.7z"/>
	</g>
	<g id="Rectangle_16-6_00000175315190169382260290000007502118555244262328_" transform="translate(666 349.902)">
		<g>
			<path class="st6" d="M-38.5-50h176c4.4,0,8,3.6,8,8v34c0,4.4-3.6,8-8,8h-176c-4.4,0-8-3.6-8-8v-34C-46.5-46.4-42.9-50-38.5-50z"
				/>
		</g>
		<g>
			<path class="st5" d="M137.5,0h-176c-4.4,0-8-3.6-8-8v-34c0-4.4,3.6-8,8-8h176c4.4,0,8,3.6,8,8v34C145.5-3.6,142,0,137.5,0z
				 M-38.5-47c-2.8,0-5,2.2-5,5v34c0,2.8,2.2,5,5,5h176c2.8,0,5-2.2,5-5v-34c0-2.8-2.2-5-5-5H-38.5z"/>
		</g>
	</g>
	<g class="st1">
		<path class="st7" d="M697.9,320.5h-3.4v-1.3h8.4v1.3h-3.4v10.4h-1.5L697.9,320.5z"/>
		<path class="st7" d="M704.1,322.2h1.4l0,1.8c0.6-1.5,1.9-2.2,3.5-1.9l0,1.5c-1.7-0.4-3.4,0.6-3.4,2.9v4.4h-1.4V322.2z"/>
		<path class="st7" d="M715.7,329.6c-0.6,0.9-1.7,1.5-3.1,1.5c-1.8,0-3-1-3-2.6c0-1.9,1.8-2.5,4.1-2.5c0.6,0,1.2,0,1.9,0.1v-0.5
			c0-1.3-0.5-2.3-2.1-2.3c-1.3,0-1.9,0.6-2.3,1.7l-1.3-0.3c0.4-1.7,1.7-2.6,3.6-2.6c3.3,0,3.5,2.3,3.5,3.6v3.3
			c0,0.5,0.1,0.9,0.7,0.9c0.2,0,0.3,0,0.5,0v1.2c-0.3,0.1-0.5,0.1-0.8,0.1C716.3,331,715.8,330.5,715.7,329.6z M712.9,329.8
			c1.1,0,2.2-0.5,2.7-1.4v-1.3c-0.6-0.1-1.2-0.1-1.8-0.1c-1.7,0-2.6,0.4-2.6,1.4C711.3,329.5,712,329.8,712.9,329.8z"/>
		<path class="st7" d="M719.3,326.6c0-2.6,1.6-4.5,4.2-4.5c2,0,3.4,0.9,3.9,3l-1.3,0.2c-0.3-1.2-1.1-1.9-2.5-1.9
			c-1.8,0-2.8,1.4-2.8,3.2c0,1.9,1,3.2,2.8,3.2c1.4,0,2.2-0.7,2.5-1.9l1.3,0.2c-0.4,2.1-1.9,3-3.9,3
			C720.9,331.1,719.3,329.1,719.3,326.6z"/>
		<path class="st7" d="M729.5,318.3h1.4v8.2l3.9-4.3h1.8l-3.4,3.7l3.8,5h-1.7l-3.1-4.1l-1.3,1.4v2.7h-1.4V318.3z"/>
	</g>
	<g id="Rectangle_15-4_00000142151387738716912770000007155189564126953895_">
		<path class="st5" d="M884,381.2h137c13.5,0,24.5,11,24.5,24.5l0,0c0,13.5-11,24.5-24.5,24.5H884c-13.5,0-24.5-11-24.5-24.5l0,0
			C859.5,392.1,870.5,381.2,884,381.2z"/>
	</g>
	<g class="st1">
		<path class="st2" d="M903.4,399.5h4.3c2.4,0,3.8,1.1,3.8,3.4c0,1.8-1,3-2.8,3.4l3.3,5H910l-3.2-4.9h-1.9v4.9h-1.5V399.5z
			 M907.5,405.1c1.5,0,2.3-0.8,2.3-2.3c0-1.4-0.8-2.1-2.3-2.1h-2.7v4.4H907.5z"/>
		<path class="st2" d="M913.3,406.8c0-2.5,1.6-4.5,4.1-4.5c2.5,0,3.9,1.7,3.9,4.4c0,0.2,0,0.4,0,0.6h-6.5c0.2,1.7,1.2,2.8,2.7,2.8
			c1.3,0,2.1-0.6,2.4-1.5l1.2,0.3c-0.5,1.6-1.8,2.5-3.6,2.5C915,411.3,913.3,409.4,913.3,406.8z M919.9,406.1
			c-0.1-1.6-1-2.6-2.5-2.6c-1.5,0-2.4,1-2.6,2.6H919.9z"/>
		<path class="st2" d="M923,406.8c0-2.6,1.6-4.5,4.2-4.5c2,0,3.4,0.9,3.9,3l-1.3,0.2c-0.3-1.2-1.1-1.9-2.5-1.9
			c-1.8,0-2.8,1.4-2.8,3.2c0,1.9,1,3.2,2.8,3.2c1.4,0,2.2-0.7,2.5-1.9l1.3,0.2c-0.4,2.1-1.9,3-3.9,3
			C924.6,411.3,923,409.4,923,406.8z"/>
		<path class="st2" d="M932.7,406.8c0-2.5,1.6-4.5,4.1-4.5c2.5,0,3.9,1.7,3.9,4.4c0,0.2,0,0.4,0,0.6h-6.5c0.2,1.7,1.2,2.8,2.7,2.8
			c1.3,0,2.1-0.6,2.4-1.5l1.2,0.3c-0.5,1.6-1.8,2.5-3.6,2.5C934.3,411.3,932.7,409.4,932.7,406.8z M939.3,406.1
			c-0.1-1.6-1-2.6-2.5-2.6c-1.5,0-2.4,1-2.6,2.6H939.3z"/>
		<path class="st2" d="M943.5,398.7c0.6,0,1.1,0.5,1.1,1s-0.5,1-1.1,1c-0.6,0-1-0.5-1-1S943,398.7,943.5,398.7z M942.8,402.5h1.5
			v8.7h-1.5V402.5z"/>
		<path class="st2" d="M946.1,402.5h1.6l1.8,5.4c0.2,0.7,0.5,1.4,0.7,2.2c0.2-0.7,0.5-1.4,0.7-2.2l1.8-5.4h1.6l-3.1,8.7h-2.1
			L946.1,402.5z"/>
		<path class="st2" d="M955.2,406.8c0-2.5,1.6-4.5,4.1-4.5c2.5,0,3.9,1.7,3.9,4.4c0,0.2,0,0.4,0,0.6h-6.5c0.2,1.7,1.2,2.8,2.7,2.8
			c1.3,0,2.1-0.6,2.4-1.5l1.2,0.3c-0.5,1.6-1.8,2.5-3.6,2.5C956.8,411.3,955.2,409.4,955.2,406.8z M961.8,406.1
			c-0.1-1.6-1-2.6-2.5-2.6c-1.5,0-2.4,1-2.6,2.6H961.8z"/>
		<path class="st2" d="M969.7,398.7c0.6,0,1.1,0.5,1.1,1s-0.5,1-1.1,1c-0.6,0-1-0.5-1-1S969.2,398.7,969.7,398.7z M969,402.5h1.5
			v8.7H969V402.5z"/>
		<path class="st2" d="M974,408.4v-4.7h-1.8v-1.2h1.8v-2.6l1.5-0.2v2.8h2.9v1.2h-2.9v4.5c0,1.2,0.4,1.8,1.5,1.8
			c0.5,0,0.8-0.1,1.2-0.3l0.4,1.2c-0.5,0.3-1.1,0.4-1.8,0.4C975,411.3,974,410.4,974,408.4z"/>
		<path class="st2" d="M979.6,406.8c0-2.5,1.6-4.5,4.1-4.5c2.5,0,3.9,1.7,3.9,4.4c0,0.2,0,0.4,0,0.6h-6.5c0.2,1.7,1.2,2.8,2.7,2.8
			c1.3,0,2.1-0.6,2.4-1.5l1.2,0.3c-0.5,1.6-1.8,2.5-3.6,2.5C981.2,411.3,979.6,409.4,979.6,406.8z M986.2,406.1
			c-0.1-1.6-1-2.6-2.5-2.6c-1.5,0-2.4,1-2.6,2.6H986.2z"/>
		<path class="st2" d="M999,403.6c-1.5,0-2.4,1.1-2.4,3v4.5h-1.4V406c0-1.7-0.4-2.4-1.7-2.4c-1.5,0-2.4,1.1-2.4,3v4.5h-1.4v-8.7h1.4
			l0,1.4c0.5-1,1.4-1.6,2.8-1.6c1.4,0,2.2,0.6,2.6,1.8c0.5-1.1,1.4-1.8,2.9-1.8c2,0,2.9,1.3,2.9,3.5v5.3h-1.4V406
			C1000.7,404.4,1000.2,403.6,999,403.6z"/>
	</g>
	<g id="Rectangle_16-7_00000054236908413600338630000005840915207203674512_">
		<path class="st4" d="M186.5,359.2h158c4.4,0,8,3.6,8,8v55c0,4.4-3.6,8-8,8h-158c-4.4,0-8-3.6-8-8v-55
			C178.5,362.7,182.1,359.2,186.5,359.2z"/>
	</g>
	<g class="st1">
		<path class="st2" d="M237.6,378.5h4.4c2.4,0,3.5,1,3.5,2.9c0,1.4-0.6,2.3-1.7,2.6c1.6,0.3,2.4,1.5,2.4,3c0,2-1.5,3.2-3.6,3.2h-5
			V378.5z M241.8,383.5c1.4,0,2.2-0.6,2.2-2c0-1.4-0.8-1.8-2.2-1.8h-2.7v3.8H241.8z M242.5,388.9c1.4,0,2.2-0.7,2.2-2
			c0-1.6-0.8-2.2-2.6-2.2h-2.9v4.2H242.5z"/>
		<path class="st2" d="M248.6,381.5h1.4l0,1.8c0.6-1.5,1.9-2.2,3.5-1.9l0,1.5c-1.7-0.4-3.4,0.6-3.4,2.9v4.4h-1.4V381.5z"/>
		<path class="st2" d="M254.2,385.8c0-2.6,1.7-4.5,4.4-4.5c2.7,0,4.3,1.9,4.3,4.5c0,2.6-1.7,4.5-4.3,4.5
			C255.9,390.3,254.2,388.4,254.2,385.8z M258.6,389c1.7,0,2.9-1.4,2.9-3.2c0-1.9-1.1-3.2-2.9-3.2c-1.8,0-2.9,1.3-2.9,3.2
			C255.7,387.7,256.8,389,258.6,389z"/>
		<path class="st2" d="M264,381.5h1.5l1.3,4.9c0.2,0.9,0.4,1.7,0.6,2.7c0.2-1,0.4-1.8,0.7-2.7l1.4-4.9h1.7l1.4,4.9
			c0.2,0.9,0.5,1.7,0.7,2.7c0.2-0.9,0.4-1.8,0.6-2.7l1.3-4.9h1.5l-2.4,8.7h-1.9l-1.5-5.4c-0.2-0.6-0.3-1.2-0.5-1.9
			c-0.2,0.7-0.3,1.3-0.5,1.9l-1.5,5.4h-1.9L264,381.5z"/>
		<path class="st2" d="M277.8,387.4l1.3-0.2c0.1,1.4,1.1,2,2.5,2c1.2,0,1.8-0.4,1.8-1.3c0-1-0.8-1.2-2.1-1.4
			c-2.2-0.5-3.3-1.1-3.3-2.6c0-1.6,1.3-2.6,3.2-2.6c2.3,0,3.4,1.2,3.5,2.9l-1.3,0.2c-0.1-1.3-1-1.9-2.2-1.9c-1.2,0-1.8,0.5-1.8,1.3
			c0,0.9,0.7,1.2,2.1,1.5c2,0.4,3.2,0.9,3.2,2.5c0,1.5-1.2,2.5-3.2,2.5C279.5,390.3,277.9,389.4,277.8,387.4z"/>
		<path class="st2" d="M286.4,385.8c0-2.5,1.6-4.5,4.1-4.5c2.5,0,3.9,1.7,3.9,4.4c0,0.2,0,0.4,0,0.6h-6.5c0.2,1.7,1.2,2.8,2.7,2.8
			c1.3,0,2.1-0.6,2.4-1.5l1.2,0.3c-0.5,1.6-1.8,2.5-3.6,2.5C288,390.3,286.4,388.4,286.4,385.8z M292.9,385.1
			c-0.1-1.6-1-2.6-2.5-2.6c-1.5,0-2.4,1-2.6,2.6H292.9z"/>
	</g>
	<g class="st1">
		<path class="st2" d="M198.7,404.8c0-2.6,1.7-4.5,4.4-4.5c2.7,0,4.3,1.9,4.3,4.5c0,2.6-1.7,4.5-4.3,4.5
			C200.4,409.3,198.7,407.4,198.7,404.8z M203,408c1.7,0,2.9-1.4,2.9-3.2c0-1.9-1.1-3.2-2.9-3.2c-1.8,0-2.9,1.3-2.9,3.2
			C200.2,406.7,201.3,408,203,408z"/>
		<path class="st2" d="M210.8,407.5l0,1.7h-1.4v-12.6h1.5v5.4c0.6-1.1,1.6-1.7,3.1-1.7c2.5,0,3.9,1.9,3.9,4.5c0,2.7-1.4,4.5-3.9,4.5
			C212.4,409.3,211.3,408.7,210.8,407.5z M213.6,408c1.8,0,2.7-1.4,2.7-3.2s-0.9-3.2-2.7-3.2c-1.8,0-2.9,1.4-2.9,3.2
			S211.9,408,213.6,408z"/>
		<path class="st2" d="M219.8,409.8v-9.3h1.5v9.3c0,1.9-0.9,3.2-3.3,3.1v-1.2C219.4,411.7,219.8,411,219.8,409.8z M220.5,396.7
			c0.6,0,1.1,0.5,1.1,1s-0.5,1-1.1,1c-0.6,0-1-0.5-1-1S220,396.7,220.5,396.7z"/>
		<path class="st2" d="M223.3,404.8c0-2.5,1.6-4.5,4.1-4.5c2.5,0,3.9,1.7,3.9,4.4c0,0.2,0,0.4,0,0.6h-6.5c0.2,1.7,1.2,2.8,2.7,2.8
			c1.3,0,2.1-0.6,2.4-1.5l1.2,0.3c-0.5,1.6-1.8,2.5-3.6,2.5C224.9,409.3,223.3,407.4,223.3,404.8z M229.9,404.1
			c-0.1-1.6-1-2.6-2.5-2.6c-1.5,0-2.4,1-2.6,2.6H229.9z"/>
		<path class="st2" d="M233,404.8c0-2.6,1.6-4.5,4.2-4.5c2,0,3.4,0.9,3.9,3l-1.3,0.2c-0.3-1.2-1.1-1.9-2.5-1.9
			c-1.8,0-2.8,1.4-2.8,3.2c0,1.9,1,3.2,2.8,3.2c1.4,0,2.2-0.7,2.5-1.9l1.3,0.2c-0.4,2.1-1.9,3-3.9,3
			C234.6,409.3,233,407.4,233,404.8z"/>
		<path class="st2" d="M243.9,406.4v-4.7h-1.8v-1.2h1.8v-2.6l1.5-0.2v2.8h2.9v1.2h-2.9v4.5c0,1.2,0.4,1.8,1.5,1.8
			c0.5,0,0.8-0.1,1.2-0.3l0.4,1.2c-0.5,0.3-1.1,0.4-1.8,0.4C244.9,409.3,243.9,408.4,243.9,406.4z"/>
		<path class="st2" d="M253.2,404.8c0-2.6,1.6-4.5,4.2-4.5c2,0,3.4,0.9,3.9,3l-1.3,0.2c-0.3-1.2-1.1-1.9-2.5-1.9
			c-1.8,0-2.8,1.4-2.8,3.2c0,1.9,1,3.2,2.8,3.2c1.4,0,2.2-0.7,2.5-1.9l1.3,0.2c-0.4,2.1-1.9,3-3.9,3
			C254.8,409.3,253.2,407.4,253.2,404.8z"/>
		<path class="st2" d="M269.1,407.8c-0.6,0.9-1.7,1.5-3.1,1.5c-1.8,0-3-1-3-2.6c0-1.9,1.8-2.5,4.1-2.5c0.6,0,1.2,0,1.9,0.1v-0.5
			c0-1.3-0.5-2.3-2.1-2.3c-1.3,0-1.9,0.6-2.3,1.7l-1.3-0.3c0.4-1.7,1.7-2.6,3.6-2.6c3.3,0,3.5,2.3,3.5,3.6v3.3
			c0,0.5,0.1,0.9,0.7,0.9c0.2,0,0.3,0,0.5,0v1.2c-0.3,0.1-0.5,0.1-0.8,0.1C269.6,409.2,269.2,408.8,269.1,407.8z M266.2,408.1
			c1.1,0,2.2-0.5,2.7-1.4v-1.3c-0.6-0.1-1.2-0.1-1.8-0.1c-1.7,0-2.6,0.4-2.6,1.4C264.6,407.7,265.3,408.1,266.2,408.1z"/>
		<path class="st2" d="M273.8,406.4v-4.7H272v-1.2h1.8v-2.6l1.5-0.2v2.8h2.9v1.2h-2.9v4.5c0,1.2,0.4,1.8,1.5,1.8
			c0.5,0,0.8-0.1,1.2-0.3l0.4,1.2c-0.5,0.3-1.1,0.4-1.8,0.4C274.8,409.3,273.8,408.4,273.8,406.4z"/>
		<path class="st2" d="M285.6,407.8c-0.6,0.9-1.7,1.5-3.1,1.5c-1.8,0-3-1-3-2.6c0-1.9,1.8-2.5,4.1-2.5c0.6,0,1.2,0,1.9,0.1v-0.5
			c0-1.3-0.5-2.3-2.1-2.3c-1.3,0-1.9,0.6-2.3,1.7l-1.3-0.3c0.4-1.7,1.7-2.6,3.6-2.6c3.3,0,3.5,2.3,3.5,3.6v3.3
			c0,0.5,0.1,0.9,0.7,0.9c0.2,0,0.3,0,0.5,0v1.2c-0.3,0.1-0.5,0.1-0.8,0.1C286.1,409.2,285.7,408.8,285.6,407.8z M282.8,408.1
			c1.1,0,2.2-0.5,2.7-1.4v-1.3c-0.6-0.1-1.2-0.1-1.8-0.1c-1.7,0-2.6,0.4-2.6,1.4C281.1,407.7,281.8,408.1,282.8,408.1z"/>
		<path class="st2" d="M289.9,396.6h1.5v12.6h-1.5V396.6z"/>
		<path class="st2" d="M293.4,404.8c0-2.6,1.7-4.5,4.4-4.5c2.7,0,4.3,1.9,4.3,4.5c0,2.6-1.7,4.5-4.3,4.5
			C295.1,409.3,293.4,407.4,293.4,404.8z M297.7,408c1.7,0,2.9-1.4,2.9-3.2c0-1.9-1.1-3.2-2.9-3.2c-1.8,0-2.9,1.3-2.9,3.2
			C294.9,406.7,296,408,297.7,408z"/>
		<path class="st2" d="M304,411.3l0.8-1.1c0.9,1,2,1.4,3.2,1.4c1.7,0,2.9-1,2.9-3v-1.5c-0.5,1.3-1.5,2-3.1,2c-2.5,0-4-1.8-4-4.4
			c0-2.6,1.5-4.4,4-4.4c1.6,0,2.6,0.7,3.2,2l0-1.8h1.3v8.2c0,2.8-1.8,4.2-4.3,4.2C306.3,412.9,305,412.4,304,411.3z M307.9,407.9
			c1.8,0,2.9-1.4,2.9-3.2s-1.1-3.1-2.9-3.1c-1.8,0-2.7,1.3-2.7,3.1C305.2,406.6,306.1,407.9,307.9,407.9z"/>
		<path class="st2" d="M314.8,405.8v-5.3h1.5v5c0,1.7,0.7,2.5,2,2.5c1.5,0,2.6-1.1,2.6-3v-4.5h1.5v8.7H321l0-1.7
			c-0.5,1.2-1.5,1.9-3,1.9C315.9,409.3,314.8,408.1,314.8,405.8z"/>
		<path class="st2" d="M324.3,404.8c0-2.5,1.6-4.5,4.1-4.5c2.5,0,3.9,1.7,3.9,4.4c0,0.2,0,0.4,0,0.6h-6.5c0.2,1.7,1.2,2.8,2.7,2.8
			c1.3,0,2.1-0.6,2.4-1.5l1.2,0.3c-0.5,1.6-1.8,2.5-3.6,2.5C326,409.3,324.3,407.4,324.3,404.8z M330.9,404.1
			c-0.1-1.6-1-2.6-2.5-2.6c-1.5,0-2.4,1-2.6,2.6H330.9z"/>
	</g>
	<g id="Rectangle_16-8_00000145058653718310537350000017785268956462760353_">
		<path class="st4" d="M409.5,381.2h154c4.4,0,8,3.6,8,8v33c0,4.4-3.6,8-8,8h-154c-4.4,0-8-3.6-8-8v-33
			C401.5,384.7,405.1,381.2,409.5,381.2z"/>
	</g>
	<g class="st1">
		<path class="st2" d="M456.9,405.3c0-3.6,2.2-6,5.6-6c2.8,0,4.7,1.3,5.2,4.1l-1.5,0.2c-0.5-2.2-1.8-3.1-3.7-3.1c-2.5,0-4,1.9-4,4.7
			c0,2.8,1.5,4.7,4,4.7c1.9,0,3.2-0.8,3.7-3.1l1.5,0.2c-0.5,2.8-2.3,4.1-5.2,4.1C459.1,411.3,456.9,408.9,456.9,405.3z"/>
		<path class="st2" d="M474,403.7c-1.5,0-2.6,1.1-2.6,3v4.5h-1.5v-12.6h1.5v5.4c0.5-1,1.6-1.7,2.9-1.7c2.2,0,3.2,1.3,3.2,3.5v5.3
			H476v-5C476,404.4,475.4,403.7,474,403.7z"/>
		<path class="st2" d="M479.4,406.8c0-2.6,1.7-4.5,4.4-4.5c2.7,0,4.3,1.9,4.3,4.5c0,2.6-1.7,4.5-4.3,4.5
			C481.1,411.3,479.4,409.4,479.4,406.8z M483.7,410c1.7,0,2.9-1.4,2.9-3.2c0-1.9-1.1-3.2-2.9-3.2c-1.8,0-2.9,1.3-2.9,3.2
			C480.8,408.7,482,410,483.7,410z"/>
		<path class="st2" d="M489.6,406.8c0-2.6,1.7-4.5,4.4-4.5c2.7,0,4.3,1.9,4.3,4.5c0,2.6-1.7,4.5-4.3,4.5
			C491.3,411.3,489.6,409.4,489.6,406.8z M494,410c1.7,0,2.9-1.4,2.9-3.2c0-1.9-1.1-3.2-2.9-3.2c-1.8,0-2.9,1.3-2.9,3.2
			C491.1,408.7,492.2,410,494,410z"/>
		<path class="st2" d="M499.7,408.4l1.3-0.2c0.1,1.4,1.1,2,2.5,2c1.2,0,1.8-0.4,1.8-1.3c0-1-0.8-1.2-2.1-1.4
			c-2.2-0.5-3.3-1.1-3.3-2.6c0-1.6,1.3-2.6,3.2-2.6c2.3,0,3.4,1.2,3.5,2.9l-1.3,0.2c-0.1-1.3-1-1.9-2.2-1.9c-1.2,0-1.8,0.5-1.8,1.3
			c0,0.9,0.7,1.2,2.1,1.5c2,0.4,3.2,0.9,3.2,2.5c0,1.5-1.2,2.5-3.2,2.5C501.4,411.3,499.9,410.4,499.7,408.4z"/>
		<path class="st2" d="M508.3,406.8c0-2.5,1.6-4.5,4.1-4.5c2.5,0,3.9,1.7,3.9,4.4c0,0.2,0,0.4,0,0.6h-6.5c0.2,1.7,1.2,2.8,2.7,2.8
			c1.3,0,2.1-0.6,2.4-1.5l1.2,0.3c-0.5,1.6-1.8,2.5-3.6,2.5C510,411.3,508.3,409.4,508.3,406.8z M514.9,406.1
			c-0.1-1.6-1-2.6-2.5-2.6c-1.5,0-2.4,1-2.6,2.6H514.9z"/>
	</g>
	<g id="Rectangle_16-9_00000065032670502763501550000014922204015202119849_">
		<path class="st4" d="M627.5,381.2h176c4.4,0,8,3.6,8,8v33c0,4.4-3.6,8-8,8h-176c-4.4,0-8-3.6-8-8v-33
			C619.5,384.7,623.1,381.2,627.5,381.2z"/>
	</g>
	<g class="st1">
		<path class="st2" d="M693.5,405.3c0-3.5,2.2-6,5.7-6c3.5,0,5.7,2.5,5.7,6s-2.2,6-5.7,6C695.7,411.3,693.5,408.8,693.5,405.3z
			 M699.3,410c2.6,0,4.1-1.9,4.1-4.7c0-2.8-1.5-4.7-4.1-4.7c-2.6,0-4.1,1.9-4.1,4.7C695.1,408.1,696.7,410,699.3,410z"/>
		<path class="st2" d="M707.2,402.5h1.4l0,1.8c0.6-1.5,1.9-2.2,3.5-1.9l0,1.5c-1.7-0.4-3.4,0.6-3.4,2.9v4.4h-1.4V402.5z"/>
		<path class="st2" d="M712.8,406.8c0-2.7,1.5-4.5,4-4.5c1.4,0,2.4,0.6,3,1.6v-5.3h1.5v12.6h-1.4l0-1.6c-0.6,1.2-1.5,1.8-3,1.8
			C714.3,411.3,712.8,409.5,712.8,406.8z M717,410c1.8,0,2.9-1.4,2.9-3.2s-1.1-3.2-2.9-3.2c-1.8,0-2.7,1.3-2.7,3.2
			S715.2,410,717,410z"/>
		<path class="st2" d="M723.2,406.8c0-2.5,1.6-4.5,4.1-4.5c2.5,0,3.9,1.7,3.9,4.4c0,0.2,0,0.4,0,0.6h-6.5c0.2,1.7,1.2,2.8,2.7,2.8
			c1.3,0,2.1-0.6,2.4-1.5l1.2,0.3c-0.5,1.6-1.8,2.5-3.6,2.5C724.9,411.3,723.2,409.4,723.2,406.8z M729.8,406.1
			c-0.1-1.6-1-2.6-2.5-2.6c-1.5,0-2.4,1-2.6,2.6H729.8z"/>
		<path class="st2" d="M733.3,402.5h1.4l0,1.8c0.6-1.5,1.9-2.2,3.5-1.9l0,1.5c-1.7-0.4-3.4,0.6-3.4,2.9v4.4h-1.4V402.5z"/>
	</g>
	<g id="Rectangle_16-10_00000166664487563336836980000007303469573564661681_" transform="translate(50 431.164)">
		<g>
			<path class="st6" d="M-38.5-50h111c4.4,0,8,3.6,8,8v33c0,4.4-3.6,8-8,8h-111c-4.4,0-8-3.6-8-8v-33C-46.5-46.4-42.9-50-38.5-50z"
				/>
		</g>
		<g>
			<path class="st5" d="M72.5-1h-111c-4.4,0-8-3.6-8-8v-33c0-4.4,3.6-8,8-8h111c4.4,0,8,3.6,8,8v33C80.5-4.6,77-1,72.5-1z M-38.5-47
				c-2.8,0-5,2.2-5,5v33c0,2.8,2.2,5,5,5h111c2.8,0,5-2.2,5-5v-33c0-2.8-2.2-5-5-5H-38.5z"/>
		</g>
	</g>
	<g class="st1">
		<path class="st7" d="M28.4,405.3c0-3.6,2.2-6,5.6-6c2.8,0,4.7,1.3,5.2,4.1l-1.5,0.2c-0.5-2.2-1.8-3.1-3.7-3.1c-2.5,0-4,1.9-4,4.7
			c0,2.8,1.5,4.7,4,4.7c1.9,0,3.2-0.8,3.7-3.1l1.5,0.2c-0.5,2.8-2.3,4.1-5.2,4.1C30.5,411.3,28.4,408.9,28.4,405.3z"/>
		<path class="st7" d="M41.3,407.8v-5.3h1.5v5c0,1.7,0.7,2.5,2,2.5c1.5,0,2.6-1.1,2.6-3v-4.5h1.5v8.7h-1.4l0-1.7
			c-0.5,1.2-1.5,1.9-3,1.9C42.3,411.3,41.3,410.1,41.3,407.8z"/>
		<path class="st7" d="M50.9,408.4l1.3-0.2c0.1,1.4,1.1,2,2.5,2c1.2,0,1.8-0.4,1.8-1.3c0-1-0.8-1.2-2.1-1.4
			c-2.2-0.5-3.3-1.1-3.3-2.6c0-1.6,1.3-2.6,3.2-2.6c2.3,0,3.4,1.2,3.5,2.9l-1.3,0.2c-0.1-1.3-1-1.9-2.2-1.9c-1.2,0-1.8,0.5-1.8,1.3
			c0,0.9,0.7,1.2,2.1,1.5c2,0.4,3.2,0.9,3.2,2.5c0,1.5-1.2,2.5-3.2,2.5C52.6,411.3,51.1,410.4,50.9,408.4z"/>
		<path class="st7" d="M61,408.4v-4.7h-1.8v-1.2H61v-2.6l1.5-0.2v2.8h2.9v1.2h-2.9v4.5c0,1.2,0.4,1.8,1.5,1.8c0.5,0,0.8-0.1,1.2-0.3
			l0.4,1.2c-0.5,0.3-1.1,0.4-1.8,0.4C62,411.3,61,410.4,61,408.4z"/>
		<path class="st7" d="M66.6,406.8c0-2.6,1.7-4.5,4.4-4.5c2.7,0,4.3,1.9,4.3,4.5c0,2.6-1.7,4.5-4.3,4.5
			C68.3,411.3,66.6,409.4,66.6,406.8z M70.9,410c1.7,0,2.9-1.4,2.9-3.2c0-1.9-1.1-3.2-2.9-3.2c-1.8,0-2.9,1.3-2.9,3.2
			C68.1,408.7,69.2,410,70.9,410z"/>
		<path class="st7" d="M86.6,403.6c-1.5,0-2.4,1.1-2.4,3v4.5h-1.4V406c0-1.7-0.4-2.4-1.7-2.4c-1.5,0-2.4,1.1-2.4,3v4.5h-1.4v-8.7
			h1.4l0,1.4c0.5-1,1.4-1.6,2.8-1.6c1.4,0,2.2,0.6,2.6,1.8c0.5-1.1,1.4-1.8,2.9-1.8c2,0,2.9,1.3,2.9,3.5v5.3h-1.4V406
			C88.3,404.4,87.9,403.6,86.6,403.6z"/>
		<path class="st7" d="M91.6,406.8c0-2.5,1.6-4.5,4.1-4.5c2.5,0,3.9,1.7,3.9,4.4c0,0.2,0,0.4,0,0.6h-6.5c0.2,1.7,1.2,2.8,2.7,2.8
			c1.3,0,2.1-0.6,2.4-1.5l1.2,0.3c-0.5,1.6-1.8,2.5-3.6,2.5C93.2,411.3,91.6,409.4,91.6,406.8z M98.1,406.1c-0.1-1.6-1-2.6-2.5-2.6
			c-1.5,0-2.4,1-2.6,2.6H98.1z"/>
		<path class="st7" d="M101.7,402.5h1.4l0,1.8c0.6-1.5,1.9-2.2,3.5-1.9l0,1.5c-1.7-0.4-3.4,0.6-3.4,2.9v4.4h-1.4V402.5z"/>
	</g>
	<g id="Line-5-7">
		<path class="st7" d="M163.5,408.2h-20c-0.8,0-1.5-0.7-1.5-1.5s0.7-1.5,1.5-1.5h20c0.8,0,1.5,0.7,1.5,1.5S164.4,408.2,163.5,408.2z
			"/>
	</g>
	<g id="Path_711">
		<path class="st7" d="M158.3,413.4c-0.4,0-0.8-0.1-1.1-0.4c-0.6-0.6-0.6-1.5,0-2.1l4.2-4.2l-4.2-4.2c-0.6-0.6-0.6-1.5,0-2.1
			c0.6-0.6,1.5-0.6,2.1,0l6.3,6.3l-6.3,6.3C159.1,413.2,158.7,413.4,158.3,413.4z"/>
	</g>
	<g id="Line-5-8">
		<path class="st7" d="M386.5,408.2h-20c-0.8,0-1.5-0.7-1.5-1.5s0.7-1.5,1.5-1.5h20c0.8,0,1.5,0.7,1.5,1.5S387.4,408.2,386.5,408.2z
			"/>
	</g>
	<g id="Path_712">
		<path class="st7" d="M381.3,413.4c-0.4,0-0.8-0.1-1.1-0.4c-0.6-0.6-0.6-1.5,0-2.1l4.2-4.2l-4.2-4.2c-0.6-0.6-0.6-1.5,0-2.1
			c0.6-0.6,1.5-0.6,2.1,0l6.3,6.3l-6.3,6.3C382.1,413.2,381.7,413.4,381.3,413.4z"/>
	</g>
	<g id="Line-5-9">
		<path class="st7" d="M716.5,372.9c-0.8,0-1.5-0.7-1.5-1.5v-12c0-0.8,0.7-1.5,1.5-1.5s1.5,0.7,1.5,1.5v12
			C718,372.2,717.4,372.9,716.5,372.9z"/>
	</g>
	<g id="Path_713">
		<path class="st7" d="M721.8,366.1c-0.4,0-0.8-0.1-1.1-0.4l-4.2-4.2l-4.2,4.2c-0.6,0.6-1.5,0.6-2.1,0s-0.6-1.5,0-2.1l6.3-6.3
			l6.3,6.3c0.6,0.6,0.6,1.5,0,2.1C722.5,365.9,722.2,366.1,721.8,366.1z"/>
	</g>
	<g id="Line-5-10">
		<path class="st7" d="M487.9,372.9c-0.8,0-1.5-0.7-1.5-1.5v-12c0-0.8,0.7-1.5,1.5-1.5s1.5,0.7,1.5,1.5v12
			C489.4,372.2,488.7,372.9,487.9,372.9z"/>
	</g>
	<g id="Path_714">
		<path class="st7" d="M493.1,366.1c-0.4,0-0.8-0.1-1.1-0.4l-4.2-4.2l-4.2,4.2c-0.6,0.6-1.5,0.6-2.1,0s-0.6-1.5,0-2.1l6.3-6.3
			l6.3,6.3c0.6,0.6,0.6,1.5,0,2.1C493.9,365.9,493.5,366.1,493.1,366.1z"/>
	</g>
	<g id="Rectangle_17_00000151523068498726594860000007417869512177247140_">
		<path class="st9" d="M70.6,149.7l62,62c2,2,2,5.1,0,7.1l-62,62c-2,2-5.1,2-7.1,0l-62-62c-2-2-2-5.1,0-7.1l62-62
			C65.5,147.8,68.6,147.8,70.6,149.7z"/>
	</g>
	<g class="st1">
		<path class="st2" d="M40.3,204c0-3.6,2.2-6,5.6-6c2.8,0,4.7,1.3,5.2,4.1l-1.5,0.2c-0.5-2.2-1.8-3.1-3.7-3.1c-2.5,0-4,1.9-4,4.7
			c0,2.8,1.5,4.7,4,4.7c1.9,0,3.2-0.8,3.7-3.1l1.5,0.2c-0.5,2.8-2.3,4.1-5.2,4.1C42.5,210,40.3,207.5,40.3,204z"/>
		<path class="st2" d="M53.4,201.1h1.4l0,1.8c0.6-1.5,1.9-2.2,3.5-1.9l0,1.5c-1.7-0.4-3.4,0.6-3.4,2.9v4.4h-1.4V201.1z"/>
		<path class="st2" d="M59,205.4c0-2.5,1.6-4.5,4.1-4.5c2.5,0,3.9,1.7,3.9,4.4c0,0.2,0,0.4,0,0.6h-6.5c0.2,1.7,1.2,2.8,2.7,2.8
			c1.3,0,2.1-0.6,2.4-1.5l1.2,0.3c-0.5,1.6-1.8,2.5-3.6,2.5C60.6,210,59,208,59,205.4z M65.5,204.7c-0.1-1.6-1-2.6-2.5-2.6
			c-1.5,0-2.4,1-2.6,2.6H65.5z"/>
		<path class="st2" d="M74.7,208.4c-0.6,0.9-1.7,1.5-3.1,1.5c-1.8,0-3-1-3-2.6c0-1.9,1.8-2.5,4.1-2.5c0.6,0,1.2,0,1.9,0.1v-0.5
			c0-1.3-0.5-2.3-2.1-2.3c-1.3,0-1.9,0.6-2.3,1.7l-1.3-0.3c0.4-1.7,1.7-2.6,3.6-2.6c3.3,0,3.5,2.3,3.5,3.6v3.3
			c0,0.5,0.1,0.9,0.7,0.9c0.2,0,0.3,0,0.5,0v1.2c-0.3,0.1-0.5,0.1-0.8,0.1C75.2,209.9,74.8,209.4,74.7,208.4z M71.9,208.7
			c1.1,0,2.2-0.5,2.7-1.4v-1.3c-0.6-0.1-1.2-0.1-1.8-0.1c-1.7,0-2.6,0.4-2.6,1.4C70.2,208.3,70.9,208.7,71.9,208.7z"/>
		<path class="st2" d="M79.4,207v-4.7h-1.8v-1.2h1.8v-2.6l1.5-0.2v2.8h2.9v1.2h-2.9v4.5c0,1.2,0.4,1.8,1.5,1.8
			c0.5,0,0.8-0.1,1.2-0.3l0.4,1.2c-0.5,0.3-1.1,0.4-1.8,0.4C80.4,209.9,79.4,209,79.4,207z"/>
		<path class="st2" d="M85,205.4c0-2.5,1.6-4.5,4.1-4.5c2.5,0,3.9,1.7,3.9,4.4c0,0.2,0,0.4,0,0.6h-6.5c0.2,1.7,1.2,2.8,2.7,2.8
			c1.3,0,2.1-0.6,2.4-1.5l1.2,0.3c-0.5,1.6-1.8,2.5-3.6,2.5C86.6,210,85,208,85,205.4z M91.5,204.7c-0.1-1.6-1-2.6-2.5-2.6
			c-1.5,0-2.4,1-2.6,2.6H91.5z"/>
	</g>
	<g class="st1">
		<path class="st2" d="M40.1,227.4c-0.6,0.9-1.7,1.5-3.1,1.5c-1.8,0-3-1-3-2.6c0-1.9,1.8-2.5,4.1-2.5c0.6,0,1.2,0,1.9,0.1v-0.5
			c0-1.3-0.5-2.3-2.1-2.3c-1.3,0-1.9,0.6-2.3,1.7l-1.3-0.3c0.4-1.7,1.7-2.6,3.6-2.6c3.3,0,3.5,2.3,3.5,3.6v3.3
			c0,0.5,0.1,0.9,0.7,0.9c0.2,0,0.3,0,0.5,0v1.2c-0.3,0.1-0.5,0.1-0.8,0.1C40.6,228.9,40.2,228.4,40.1,227.4z M37.3,227.7
			c1.1,0,2.2-0.5,2.7-1.4v-1.3c-0.6-0.1-1.2-0.1-1.8-0.1c-1.7,0-2.6,0.4-2.6,1.4C35.6,227.3,36.3,227.7,37.3,227.7z"/>
		<path class="st2" d="M43.7,224.4c0-2.6,1.6-4.5,4.2-4.5c2,0,3.4,0.9,3.9,3l-1.3,0.2c-0.3-1.2-1.1-1.9-2.5-1.9
			c-1.8,0-2.8,1.4-2.8,3.2c0,1.9,1,3.2,2.8,3.2c1.4,0,2.2-0.7,2.5-1.9l1.3,0.2c-0.4,2.1-1.9,3-3.9,3C45.3,229,43.7,227,43.7,224.4z"
			/>
		<path class="st2" d="M53.4,224.4c0-2.6,1.6-4.5,4.2-4.5c2,0,3.4,0.9,3.9,3l-1.3,0.2c-0.3-1.2-1.1-1.9-2.5-1.9
			c-1.8,0-2.8,1.4-2.8,3.2c0,1.9,1,3.2,2.8,3.2c1.4,0,2.2-0.7,2.5-1.9l1.3,0.2c-0.4,2.1-1.9,3-3.9,3C55,229,53.4,227,53.4,224.4z"/>
		<path class="st2" d="M63.1,224.4c0-2.6,1.7-4.5,4.4-4.5c2.7,0,4.3,1.9,4.3,4.5c0,2.6-1.7,4.5-4.3,4.5
			C64.8,229,63.1,227,63.1,224.4z M67.5,227.7c1.7,0,2.9-1.4,2.9-3.2c0-1.9-1.1-3.2-2.9-3.2c-1.8,0-2.9,1.3-2.9,3.2
			C64.6,226.3,65.7,227.7,67.5,227.7z"/>
		<path class="st2" d="M73.7,225.4v-5.3h1.5v5c0,1.7,0.7,2.5,2,2.5c1.5,0,2.6-1.1,2.6-3v-4.5h1.5v8.7h-1.4l0-1.7
			c-0.5,1.2-1.5,1.9-3,1.9C74.7,229,73.7,227.7,73.7,225.4z"/>
		<path class="st2" d="M88.1,221.3c-1.5,0-2.6,1.1-2.6,3v4.5h-1.5v-8.7h1.4l0,1.7c0.5-1.2,1.5-1.9,3-1.9c2.1,0,3.2,1.3,3.2,3.5v5.3
			h-1.5v-5C90.2,222.1,89.5,221.3,88.1,221.3z"/>
		<path class="st2" d="M95,226v-4.7h-1.8v-1.2H95v-2.6l1.5-0.2v2.8h2.9v1.2h-2.9v4.5c0,1.2,0.4,1.8,1.5,1.8c0.5,0,0.8-0.1,1.2-0.3
			l0.4,1.2c-0.5,0.3-1.1,0.4-1.8,0.4C96,228.9,95,228,95,226z"/>
	</g>
	<g id="Path_599">
		<path class="st7" d="M72.5,73.9c-0.4,0-0.8-0.1-1.1-0.4l-4.2-4.2l-4.2,4.2c-0.6,0.6-1.5,0.6-2.1,0s-0.6-1.5,0-2.1l6.3-6.3l6.3,6.3
			c0.6,0.6,0.6,1.5,0,2.1C73.3,73.7,72.9,73.9,72.5,73.9z"/>
	</g>
	<g id="Path_664">
		<path class="st7" d="M67.5,129c-0.8,0-1.5-0.7-1.5-1.5l-0.1-59.2c0-0.8,0.7-1.5,1.5-1.5c0,0,0,0,0,0c0.8,0,1.5,0.7,1.5,1.5
			l0.1,59.2C69,128.3,68.3,129,67.5,129C67.5,129,67.5,129,67.5,129z"/>
	</g>
	<g id="Path_599-2">
		<path class="st7" d="M67.3,364.4l-6.3-6.3c-0.6-0.6-0.6-1.5,0-2.1c0.6-0.6,1.5-0.6,2.1,0l4.2,4.2l4.2-4.2c0.6-0.6,1.5-0.6,2.1,0
			s0.6,1.5,0,2.1L67.3,364.4z"/>
	</g>
	<g id="Path_664-2">
		<path class="st7" d="M67.4,362.6C67.4,362.6,67.4,362.6,67.4,362.6c-0.8,0-1.5-0.7-1.5-1.5l0.1-59.2c0-0.8,0.7-1.5,1.5-1.5
			c0,0,0,0,0,0c0.8,0,1.5,0.7,1.5,1.5l-0.1,59.2C68.9,362,68.3,362.6,67.4,362.6z"/>
	</g>
</g>
</svg>
