<?xml version="1.0" encoding="UTF-8"?><svg id="Layer_1" xmlns="http://www.w3.org/2000/svg" viewBox="0 0 95.56 105.54"><defs><style>.cls-1{stroke-linejoin:round;}.cls-1,.cls-2{stroke-linecap:round;}.cls-1,.cls-2,.cls-3{fill:none;stroke:#f3f3f7;stroke-width:8px;}.cls-2,.cls-3{stroke-miterlimit:10;}</style></defs><g id="Group_4106"><line class="cls-2" x1="91.56" y1="20" x2="60.56" y2="20"/><line class="cls-2" x1="34.99" y1="20" x2="4" y2="20"/><line class="cls-2" x1="47.78" y1="46.62" x2="47.78" y2="36.61"/><path id="Path_687" class="cls-3" d="M36.67,4h22.21c1.78,0,3.22,1.44,3.22,3.21,0,.13,0,.27-.02,.4l-3.21,26.17c-.2,1.61-1.57,2.83-3.2,2.83h-15.8c-1.63,0-3-1.21-3.2-2.83l-3.21-26.17c-.22-1.76,1.04-3.37,2.8-3.59,.13-.02,.26-.02,.4-.02Z"/><g id="Group_4020"><path id="Path_688" class="cls-1" d="M70.97,94.69l-22.56,6.85v-33.92l20.85-2.79,1.71,29.86Z"/><path id="Path_689" class="cls-1" d="M20.57,96.39l27.83,5.16v-33.92l-25.35-2.79-2.48,31.55Z"/></g><line id="Line_1738" class="cls-1" x1="23.06" y1="64.83" x2="48.41" y2="61.74"/><line id="Line_1739" class="cls-1" x1="69.26" y1="64.83" x2="48.41" y2="61.74"/></g></svg>