<?xml version="1.0" encoding="UTF-8"?><svg id="Layer_1" xmlns="http://www.w3.org/2000/svg" viewBox="0 0 101.37 197.83"><defs><style>.cls-1{fill:none;stroke:#404064;stroke-linecap:round;stroke-linejoin:round;stroke-width:8px;}</style></defs><g id="Group_3394"><g id="Group_3393"><line id="Line_1237" class="cls-1" x1="63.67" y1="16.7" x2="79.24" y2="21.2"/><line id="Line_1238" class="cls-1" x1="70.75" y1="4" x2="79.58" y2="6.55"/><g id="Group_3392"><path id="Path_568" class="cls-1" d="M78.76,35.96l-.73,2.17c-2.43,8.41,.99,17.54,3.44,26.73,2.31,8.67,5.42,18.42,2.06,30.05-1,3.63-2.59,7.07-4.69,10.19"/><path id="Path_569" class="cls-1" d="M25.77,105.1c-6.21-6.64-9.49-16.12-5.89-28.6,3.37-11.63,11.2-18.22,17.78-24.32,6.97-6.47,14.74-12.36,17.17-20.77l.56-1.95"/></g></g><path id="Path_570" class="cls-1" d="M97.37,105.11l-33.37,37.27v34.44l-22.79,17.01v-51.45L4,105.11H97.37Z"/><path id="Path_571" class="cls-1" d="M66.04,82.18l-7.81,4.31-4.38-7.95-8.09,4.46-4.45-8.07"/></g></svg>