<?xml version="1.0" encoding="utf-8"?>
<!-- Generator: Adobe Illustrator 27.5.0, SVG Export Plug-In . SVG Version: 6.00 Build 0)  -->
<svg version="1.1" id="Layer_1" xmlns="http://www.w3.org/2000/svg" xmlns:xlink="http://www.w3.org/1999/xlink" x="0px" y="0px"
	 viewBox="0 0 191.6 184.4" style="enable-background:new 0 0 191.6 184.4;" xml:space="preserve">
<style type="text/css">
	.st0{fill:#404064;}
	.st1{fill:none;stroke:#404064;stroke-width:8;stroke-linecap:round;stroke-linejoin:round;}
</style>
<g>
	<path class="st0" d="M64.4,42.9c-6.5,0-11.8-5.3-11.8-11.8c0-6.5,5.3-11.8,11.8-11.8c6.5,0,11.8,5.3,11.8,11.8
		C76.2,37.6,70.9,42.9,64.4,42.9z"/>
</g>
<g>
	<path class="st0" d="M35.2,78.8c-6.5,0-11.8-5.3-11.8-11.8c0-6.5,5.3-11.8,11.8-11.8c6.5,0,11.8,5.3,11.8,11.8
		C47,73.5,41.7,78.8,35.2,78.8z"/>
</g>
<polyline class="st1" points="136,4 30.8,4 4,30.8 4,180.4 136,180.4 136,119.3 "/>
<line class="st1" x1="25.9" y1="103" x2="59.6" y2="103"/>
<line class="st1" x1="25.9" y1="120.3" x2="38.7" y2="120.3"/>
<line class="st1" x1="38.7" y1="154.5" x2="38.7" y2="139.5"/>
<line class="st1" x1="59.6" y1="154.5" x2="59.6" y2="129.4"/>
<line class="st1" x1="80.4" y1="154.5" x2="80.4" y2="103"/>
<line class="st1" x1="25.7" y1="158.3" x2="114.3" y2="158.3"/>
<line class="st1" x1="101.3" y1="154.5" x2="101.3" y2="120.3"/>
<g>
	<path class="st0" d="M35.2,71.1c-0.9,0-1.8-0.3-2.5-0.9c-1.7-1.4-2-3.9-0.6-5.6l29.2-35.9c1.4-1.7,3.9-2,5.6-0.6
		c1.7,1.4,2,3.9,0.6,5.6L38.3,69.6C37.5,70.6,36.4,71.1,35.2,71.1z"/>
</g>
<circle class="st1" cx="122.6" cy="59.6" r="36.2"/>
<path class="st1" d="M155.3,75.2l29.2,26.6c3.9,3.6,4.2,9.6,0.6,13.5l-1.5,1.6c-3.6,3.9-9.6,4.2-13.5,0.6l-29.3-26.7"/>
<polygon class="st1" points="30.8,30.8 4,30.8 30.8,4 "/>
</svg>
