<?xml version="1.0" encoding="UTF-8"?><svg id="Layer_1" xmlns="http://www.w3.org/2000/svg" viewBox="0 0 191.61 184.39"><defs><style>.cls-1{fill:none;stroke:#404064;stroke-linecap:round;stroke-linejoin:round;stroke-width:8px;}</style></defs><circle class="cls-1" cx="64.42" cy="31.16" r="7.76"/><circle class="cls-1" cx="35.22" cy="67.06" r="7.76"/><polyline class="cls-1" points="136 4 30.77 4 4 30.77 4 180.39 136 180.39 136 119.35"/><line class="cls-1" x1="25.94" y1="103.01" x2="59.56" y2="103.01"/><line class="cls-1" x1="25.94" y1="120.35" x2="38.69" y2="120.35"/><line class="cls-1" x1="38.69" y1="154.52" x2="38.69" y2="139.49"/><line class="cls-1" x1="59.56" y1="154.52" x2="59.56" y2="129.35"/><line class="cls-1" x1="80.44" y1="154.52" x2="80.44" y2="103.01"/><line class="cls-1" x1="25.69" y1="158.33" x2="114.31" y2="158.33"/><line class="cls-1" x1="101.31" y1="154.52" x2="101.31" y2="120.35"/><line class="cls-1" x1="64.42" y1="31.16" x2="35.22" y2="67.06"/><circle class="cls-1" cx="122.63" cy="59.6" r="36.2"/><path class="cls-1" d="M155.29,75.23l29.19,26.57c3.91,3.55,4.19,9.58,.64,13.48l-1.5,1.64c-3.55,3.9-9.58,4.18-13.48,.63l-29.29-26.66"/><polygon class="cls-1" points="30.77 30.77 4 30.77 30.77 4 30.77 30.77"/></svg>