<?xml version="1.0" encoding="UTF-8"?>
<svg id="Layer_1" data-name="Layer 1" xmlns="http://www.w3.org/2000/svg" viewBox="0 0 200 200">
  <defs>
    <style>
      .cls-1 {
        fill: #f3f3f7;
      }

      .cls-2 {
        fill: #074391;
      }
    </style>
  </defs>
  <rect class="cls-1" x="0" width="200" height="200" rx="28.79" ry="28.79"/>
  <g>
    <path class="cls-2" d="m30.08,109.26l13.8-1.73c-.25,1.39-.4,3.17-.4,4.45,0,9.15,7.77,12.57,17.66,12.57,8.21,0,16.43-2.33,16.43-10.59,0-8.71-9.1-9.35-21.03-11.68-14.15-2.77-25.78-6.88-25.78-20.58,0-14.7,13.26-22.76,30.88-22.76,14.15,0,28.85,5.19,28.85,20.09,0,1.73-.2,3.12-.4,4.26l-13.86,1.68c.15-1.04.25-2.28.25-3.27,0-8.06-6.68-11.13-15.54-11.13-7.52,0-14.84,2.23-14.84,9.65,0,8.02,8.66,8.61,19.94,10.74,16.13,3.07,26.87,7.42,26.87,21.43,0,15.54-13.31,23.8-32.61,23.8-14.89,0-30.88-4.9-30.88-21.43,0-2.03.25-3.91.64-5.49Z"/>
    <path class="cls-2" d="m138.64,58.93c14.7,0,30.38,5.69,30.38,21.87,0,1.48-.15,2.87-.4,4.21l-14.5,1.78c.2-1.04.25-2.03.25-2.92,0-9.5-6.88-13.31-15.93-13.31-15.29,0-21.08,11.13-21.08,26.82s5.44,27.17,22.51,27.17c5.59,0,11.68-1.29,15.98-4.16v-12.52h-16.28v-11.68h31.12v29.54c-8.41,6.63-19.2,10.44-31.82,10.44-24.94,0-36.86-14.99-36.86-38.1s12.22-39.14,36.62-39.14Z"/>
  </g>
</svg>