<?xml version="1.0" encoding="UTF-8"?>
<svg id="Layer_1" data-name="Layer 1" xmlns="http://www.w3.org/2000/svg" viewBox="0 0 514 337.17">
  <defs>
    <style>
      .cls-1 {
        opacity: .2;
      }

      .cls-2 {
        fill: #404064;
      }

      .cls-3 {
        fill: rgba(64, 64, 100, 0);
      }

      .cls-4, .cls-5, .cls-6 {
        fill: none;
      }

      .cls-5 {
        stroke-linejoin: round;
      }

      .cls-5, .cls-6 {
        stroke: #404064;
        stroke-linecap: round;
        stroke-width: 8px;
      }

      .cls-6 {
        stroke-miterlimit: 10;
      }
    </style>
  </defs>
  <g id="Group_4274" data-name="Group 4274">
    <g id="Group_4273" data-name="Group 4273" class="cls-1">
      <g id="Group_4272" data-name="Group 4272">
        <g id="Group_4271" data-name="Group 4271">
          <path id="Path_810" data-name="Path 810" class="cls-3" d="m249.61,198.62v75.58c.02,4.17-.25,8.34-.8,12.48-1.69,1.18-3.69,1.8-5.75,1.8h-47.28c-5.59,0-10.11-4.53-10.11-10.12h0v-79.74h63.94Z"/>
        </g>
      </g>
    </g>
    <path id="Path_811" data-name="Path 811" class="cls-6" d="m126.26,110.53l35.29,34.05c4.04,3.89,10.48,3.77,14.37-.27.61-.63,1.13-1.34,1.56-2.1C230.22,47.96,195.19,10.15,168.96,6.29c-20.78-3.05-63.22-3.06-84,0-26.22,3.86-61.21,41.62-8.63,135.72,2.73,4.9,8.93,6.66,13.83,3.93.81-.45,1.56-1.01,2.22-1.67l33.88-33.74Z"/>
    <path id="Path_812" data-name="Path 812" class="cls-6" d="m249.61,198.62v75.58c.02,4.17-.25,8.34-.8,12.48-1.69,1.18-3.69,1.8-5.75,1.8h-47.28c-5.59,0-10.11-4.53-10.11-10.12h0v-79.74h63.94Z"/>
    <line id="Line_1785" data-name="Line 1785" class="cls-6" x1="249.61" y1="220.27" x2="185.67" y2="220.27"/>
    <path id="Path_813" data-name="Path 813" class="cls-6" d="m55.78,201.19v69.25c0,5.59-4.53,10.11-10.11,10.11H4.2c-.13-2.04-.2-4.15-.2-6.35v-83.12h41.67c5.58,0,10.11,4.53,10.11,10.11Z"/>
    <line id="Line_1786" data-name="Line 1786" class="cls-6" x1="110.99" y1="333.14" x2="110.99" y2="125.74"/>
    <line id="Line_1787" data-name="Line 1787" class="cls-6" x1="141.14" y1="333.13" x2="141.14" y2="124.88"/>
    <path id="Path_814" data-name="Path 814" class="cls-2" d="m125.73,128.29c-2.74,0-4.95,2.22-4.95,4.95,0,2.74,2.22,4.95,4.95,4.95,2.74,0,4.95-2.22,4.95-4.95h0c0-2.73-2.22-4.95-4.95-4.95h0Z"/>
    <path id="Path_815" data-name="Path 815" class="cls-2" d="m93.44,114.16c-2.74,0-4.95,2.22-4.95,4.95,0,2.74,2.22,4.95,4.95,4.95s4.95-2.22,4.95-4.95h0c0-2.73-2.22-4.95-4.95-4.95h0Z"/>
    <path id="Path_816" data-name="Path 816" class="cls-2" d="m158.81,114.16c-2.74,0-4.95,2.22-4.95,4.95,0,2.74,2.22,4.95,4.95,4.95,2.74,0,4.95-2.22,4.95-4.95h0c0-2.73-2.22-4.95-4.95-4.95h0Z"/>
    <path id="Path_817" data-name="Path 817" class="cls-2" d="m125.73,164.19c-2.74,0-4.95,2.22-4.95,4.95,0,2.74,2.22,4.95,4.95,4.95,2.74,0,4.95-2.22,4.95-4.95h0c0-2.73-2.22-4.95-4.95-4.95h0Z"/>
    <path id="Path_818" data-name="Path 818" class="cls-2" d="m125.73,200.08c-2.74,0-4.95,2.22-4.95,4.95,0,2.74,2.22,4.95,4.95,4.95,2.74,0,4.95-2.22,4.95-4.95h0c0-2.73-2.22-4.95-4.95-4.95h0Z"/>
    <path id="Path_819" data-name="Path 819" class="cls-2" d="m125.73,271.88c-2.74,0-4.95,2.22-4.95,4.95,0,2.74,2.22,4.95,4.95,4.95s4.95-2.22,4.95-4.95c0-2.73-2.22-4.95-4.95-4.95h0Z"/>
    <path id="Path_865" data-name="Path 865" class="cls-2" d="m39.66,258.29c-2.74,0-4.95,2.22-4.95,4.95,0,2.74,2.22,4.95,4.95,4.95s4.95-2.22,4.95-4.95c0-2.73-2.22-4.95-4.95-4.95h0Z"/>
    <path id="Path_820" data-name="Path 820" class="cls-2" d="m125.73,235.98c-2.74,0-4.95,2.22-4.95,4.95,0,2.74,2.22,4.95,4.95,4.95s4.95-2.22,4.95-4.95c0-2.73-2.22-4.95-4.95-4.95h0Z"/>
    <path id="Path_822" data-name="Path 822" class="cls-2" d="m125.73,307.78c-2.74,0-4.95,2.22-4.95,4.95,0,2.74,2.22,4.95,4.95,4.95s4.95-2.22,4.95-4.95c0-2.73-2.22-4.95-4.95-4.95h0Z"/>
    <path id="Path_823" data-name="Path 823" class="cls-6" d="m55.78,216.56v17.15c0,7.49-6.07,13.57-13.57,13.57H4"/>
    <path id="Path_824" data-name="Path 824" class="cls-6" d="m206.52,62.91c39.76,4.16,43.12,32.67,43.09,74.41v136.88c.02,4.17-.25,8.34-.8,12.48-6.78,49.6-54.83,46.46-78.93,46.46h-86.14c-24.11,0-72.16,3.15-78.93-46.46-.55-4.14-.82-8.31-.8-12.48v-136.88c-.03-41.74,3.33-70.25,43.09-74.41"/>
    <path id="Path_825" data-name="Path 825" class="cls-6" d="m125.74,110.53h0s29.68-28.25,41.08-44.97c10.14-14.88,12.23-36.1-17.14-37.54-11.96-.59-35.93-.59-47.9,0-29.36,1.43-27.28,22.66-17.14,37.54,11.39,16.72,41.08,44.97,41.08,44.97h0"/>
    <path id="Path_826" data-name="Path 826" class="cls-6" d="m79.97,56.75c3.08-5.41,9.83-9.3,21.82-9.88,11.96-.58,35.94-.58,47.89,0,11.98.57,18.74,4.46,21.83,9.86"/>
    <path id="Path_827" data-name="Path 827" class="cls-6" d="m284.88,272.32v-60.04c0-7.82,6.34-14.15,14.16-14.15h60.04c7.81,0,14.15,6.33,14.15,14.14h0v60.05c0,7.81-6.33,14.15-14.14,14.15h-60.05c-7.82,0-14.16-6.33-14.16-14.15h0Z"/>
    <path class="cls-6" d="m482.13,268.21v-53.5c0-4.55-1.83-8.66-4.8-11.65-2.99-3.05-7.17-4.93-11.78-4.93h-55.18c-9.16,0-16.58,7.42-16.58,16.58v55.18c0,4.61,1.88,8.78,4.92,11.78,2.99,2.97,7.11,4.81,11.66,4.81h40.11"/>
    <line class="cls-6" x1="482.13" y1="226.12" x2="458.87" y2="249.38"/>
    <line class="cls-6" x1="447.28" y1="260.97" x2="421.78" y2="286.47"/>
    <line class="cls-6" x1="477.33" y1="203.06" x2="398.71" y2="281.67"/>
    <line id="Line_1790" data-name="Line 1790" class="cls-6" x1="393.78" y1="258.74" x2="454.39" y2="198.13"/>
    <line id="Line_1791" data-name="Line 1791" class="cls-6" x1="207.85" y1="220.27" x2="185.66" y2="242.47"/>
    <line id="Line_1792" data-name="Line 1792" class="cls-6" x1="230.23" y1="220.27" x2="185.66" y2="264.83"/>
    <line id="Line_1793" data-name="Line 1793" class="cls-6" x1="249.61" y1="223.28" x2="188.02" y2="284.85"/>
    <line id="Line_1794" data-name="Line 1794" class="cls-6" x1="249.61" y1="245.64" x2="206.77" y2="288.48"/>
    <line id="Line_1795" data-name="Line 1795" class="cls-6" x1="249.61" y1="268.02" x2="229.14" y2="288.48"/>
    <line id="Line_1796" data-name="Line 1796" class="cls-6" x1="393.78" y1="230.86" x2="426.52" y2="198.13"/>
    <path id="Path_828" data-name="Path 828" class="cls-4" d="m348.66,282.39c0-9.1,7.38-16.48,16.48-16.48,2.84,0,5.62.73,8.09,2.12v4.28c0,7.81-6.33,14.15-14.14,14.15h-9.91c-.34-1.33-.51-2.7-.51-4.08h0Z"/>
    <path id="Path_829" data-name="Path 829" class="cls-5" d="m348.66,282.39c0-9.1,7.38-16.48,16.48-16.48,2.84,0,5.62.73,8.09,2.12v4.28c0,7.81-6.33,14.15-14.14,14.15h-9.91c-.34-1.33-.51-2.7-.51-4.08Z"/>
    <path id="Path_830" data-name="Path 830" class="cls-4" d="m284.88,272.32v-14.14c11.62-10.23,29.33-9.11,39.56,2.51,6.2,7.04,8.47,16.72,6.04,25.78h-31.44c-7.82,0-14.16-6.33-14.16-14.15h0s0,0,0,0Z"/>
    <path id="Path_831" data-name="Path 831" class="cls-5" d="m284.88,272.32v-14.14c11.62-10.23,29.33-9.11,39.56,2.51,6.2,7.04,8.47,16.72,6.04,25.78h-31.44c-7.82,0-14.16-6.33-14.16-14.15h0Z"/>
    <path id="Path_832" data-name="Path 832" class="cls-4" d="m328.21,232.58c0-8.65,7.01-15.67,15.66-15.67,8.65,0,15.67,7.01,15.67,15.66,0,8.65-7.01,15.67-15.66,15.67h0c-8.65,0-15.67-7.01-15.67-15.67h0s0,0,0,0Z"/>
    <path id="Path_833" data-name="Path 833" class="cls-5" d="m328.21,232.58c0-8.65,7.01-15.67,15.66-15.67,8.65,0,15.67,7.01,15.67,15.66,0,8.65-7.01,15.67-15.66,15.67h0c-8.65,0-15.67-7.01-15.67-15.66Z"/>
    <path id="Path_834" data-name="Path 834" class="cls-4" d="m284.88,217.02v-4.74c0-7.82,6.34-14.15,14.16-14.15h16.07c4.9,8.54,1.95,19.44-6.59,24.35-8.09,4.65-18.4,2.27-23.64-5.46h0Z"/>
    <path id="Path_835" data-name="Path 835" class="cls-5" d="m284.88,217.02v-4.74c0-7.82,6.34-14.15,14.16-14.15h16.07c4.9,8.54,1.95,19.44-6.59,24.35-8.09,4.65-18.4,2.27-23.64-5.46Z"/>
    <g>
      <path class="cls-2" d="m370.16,86.89s-.01-.02-.02-.03c-.02-.02-.05-.04-.08-.06-3.61-3.11-8.29-5.01-13.42-5.01h-55.18c-5.34,0-10.2,2.06-13.86,5.41-.1.08-.2.14-.29.23-.05.05-.09.11-.14.16-3.87,3.75-6.29,8.98-6.29,14.78v55.18c0,4.78,1.65,9.17,4.39,12.66.05.08.12.15.17.23.09.11.17.22.26.32.04.04.06.09.1.13.01.01.03.02.05.04,3.78,4.4,9.37,7.2,15.61,7.2h55.18c4.72,0,9.05-1.61,12.53-4.29,0,0,0,0,0,0,4.88-3.77,8.05-9.66,8.05-16.29v-55.18c0-6.18-2.75-11.71-7.07-15.49Zm-37.03,42.5l34.03-33.91c1.31,1.98,2.07,4.35,2.07,6.9v55.18c0,2.64-.82,5.1-2.22,7.13l-33.87-35.29Zm23.51-39.6c1.46,0,2.86.26,4.16.72l-33.22,33.1-31.36-32.67c1.6-.73,3.36-1.15,5.23-1.15h55.18Zm-67.1,71.75c-.42-1.25-.66-2.59-.66-3.98v-55.18c0-2.16.55-4.19,1.51-5.97l31.53,32.85-32.39,32.27Zm11.93,8.6c-2.61,0-5.04-.8-7.05-2.17l33.05-32.94,33.09,34.47c-1.23.4-2.54.63-3.91.63h-55.18Z"/>
      <path class="cls-2" d="m486.13,157.56v-55.18c0-11.35-9.23-20.59-20.59-20.59h-55.18c-7.65,0-14.32,4.2-17.87,10.41-.04.06-.07.13-.11.19-.06.1-.11.2-.17.3-.05.11-.11.21-.15.32-1.44,2.81-2.27,5.99-2.27,9.36v55.18c0,11.35,9.23,20.58,20.58,20.58h55.18c7.42,0,13.92-3.96,17.54-9.87.09-.14.18-.27.26-.42,1.76-3.03,2.79-6.54,2.79-10.3Zm-9.96-2.86c-2.66-1.57-5.42-2.11-7.85-2.59-1.47-.29-2.86-.56-4.09-1.03-2.48-.94-4.45-2.79-5.51-5.1-1.5-3.51-.72-7.52,1.92-10.15,1.94-1.83,4.81-2.85,7.86-3.93.48-.17.96-.34,1.44-.52,3.27-1.19,6-2.74,8.18-4.57v29.32c-.62-.51-1.26-1.01-1.96-1.44Zm1.94-52.55c-3.21-2.5-7-3.49-10.36-4.36-.66-.17-1.32-.34-1.97-.52-2.83-.79-7.32-2.77-8.42-7.46h8.18c6.86,0,12.44,5.52,12.57,12.35Zm-67.75-12.35h9.24c.89,7.26,6.1,12.85,14.35,15.17.71.2,1.43.38,2.14.57,2.91.76,5.67,1.47,7.54,2.99,1.6,1.32,2.6,3.19,2.79,5.25.42,4.4-2.57,7.8-8.89,10.1-.46.17-.93.33-1.4.5-3.51,1.25-7.49,2.67-10.66,5.64l-.08.08c-5.05,5.02-6.51,12.49-3.72,19.04l.05.11c1.99,4.32,5.54,7.63,9.97,9.31,1.87.72,3.68,1.08,5.43,1.42,2.03.39,3.78.74,5.24,1.58,2.9,1.88,4.45,5.24,4.13,8.6h-21.64c.3-6.06-2.64-12.01-7.91-15.38l-.11-.07c-2.66-1.57-5.41-2.11-7.84-2.58-1.47-.29-2.86-.56-4.1-1.04-2.46-.93-4.42-2.75-5.53-5.14-1.47-3.51-.68-7.49,1.95-10.1,1.94-1.83,4.83-2.86,7.88-3.94.47-.17.95-.34,1.42-.51,9.75-3.55,14.89-10.25,14.11-18.38-.4-4.2-2.42-7.98-5.68-10.66-3.24-2.65-7.15-3.66-10.6-4.56-.67-.17-1.33-.35-1.98-.53-2.31-.65-4.25-1.69-5.7-2.99,2.31-2.73,5.75-4.47,9.6-4.47Zm-12.58,12.58c0-.11.01-.22.02-.33,1.9,1.24,4.07,2.23,6.51,2.91.71.2,1.42.38,2.14.57,2.91.76,5.67,1.47,7.54,3,1.6,1.31,2.59,3.18,2.79,5.24.42,4.4-2.57,7.8-8.88,10.1-.45.16-.9.32-1.36.48-2.83,1-5.95,2.13-8.75,4.1v-26.08Zm0,55.18v-1.34c1.3.95,2.73,1.75,4.27,2.33,1.87.72,3.67,1.07,5.42,1.41,2.03.4,3.78.74,5.24,1.58,2.9,1.89,4.46,5.24,4.14,8.6h-6.48c-6.94,0-12.58-5.65-12.58-12.58Zm67.76,12.58h-11.01c.3-6.06-2.63-12.01-7.9-15.38l-.12-.07c-2.66-1.57-5.41-2.11-7.84-2.58-1.47-.29-2.86-.56-4.1-1.04-2.46-.93-4.42-2.76-5.54-5.14-1.46-3.49-.69-7.46,1.98-10.14,1.94-1.8,4.79-2.82,7.81-3.89.49-.17.98-.35,1.46-.52,9.74-3.55,14.88-10.24,14.11-18.38-.41-4.19-2.42-7.97-5.69-10.67-3.24-2.64-7.15-3.65-10.6-4.55-.67-.17-1.34-.35-2-.53-2.82-.79-7.32-2.77-8.41-7.46h21.56c.89,7.26,6.1,12.85,14.37,15.17.7.19,1.41.38,2.12.56,2.92.76,5.68,1.47,7.56,2.99,1.58,1.31,2.59,3.22,2.79,5.25.42,4.41-2.57,7.81-8.89,10.11-.46.17-.92.33-1.38.49-3.52,1.25-7.52,2.67-10.75,5.72-5.06,5.02-6.51,12.49-3.67,19.13,1.98,4.32,5.52,7.64,9.96,9.33,1.87.72,3.68,1.07,5.42,1.41,2.06.4,3.83.75,5.22,1.57,1.5.94,2.66,2.27,3.37,3.85-2.31,2.9-5.86,4.77-9.84,4.77Z"/>
    </g>
    <path id="Path_839" data-name="Path 839" class="cls-4" d="m510,290.77l-25.08.1,14.75,26.59-15.46,6.02-14.45-25.83-15.64,17.85-9.78-77.89,65.65,53.16Z"/>
    <path id="Path_840" data-name="Path 840" class="cls-5" d="m510,290.77l-25.08.1,14.75,26.59-15.46,6.02-14.45-25.83-15.64,17.85-9.78-77.89,65.65,53.16Z"/>
  </g>
</svg>