<?xml version="1.0" encoding="UTF-8"?>
<svg id="Layer_1" data-name="Layer 1" xmlns="http://www.w3.org/2000/svg" viewBox="0 0 146.65 163.69">
  <defs>
    <style>
      .cls-1 {
        fill: #404064;
      }

      .cls-2 {
        fill: none;
        stroke: #404064;
        stroke-linecap: round;
        stroke-linejoin: round;
        stroke-width: 8px;
      }
    </style>
  </defs>
  <g id="Group_4289" data-name="Group 4289">
    <g id="Group_4285" data-name="Group 4285">
      <path id="Path_850" data-name="Path 850" class="cls-2" d="m18.74,102.23c.77,4.03-1.87,7.93-5.9,8.7-4.03.77-7.93-1.87-8.7-5.9-.77-4.03,1.87-7.93,5.9-8.7,4.03-.77,7.93,1.87,8.71,5.9Z"/>
      <path id="Path_851" data-name="Path 851" class="cls-2" d="m23.98,129.47c.77,4.03-1.87,7.93-5.9,8.7s-7.93-1.87-8.7-5.9c-.77-4.03,1.87-7.93,5.9-8.7,4.03-.77,7.93,1.87,8.71,5.9Z"/>
      <path id="Path_852" data-name="Path 852" class="cls-2" d="m50.22,90.96l-19.01,22.62-9.76,11.6"/>
      <path id="Path_853" data-name="Path 853" class="cls-2" d="m57.07,126.57l-25.86-12.99-13.13-6.61"/>
      <line id="Line_1815" data-name="Line 1815" class="cls-2" x1="33.97" y1="68.45" x2="43.41" y2="27.03"/>
      <path id="Path_854" data-name="Path 854" class="cls-2" d="m16.05,24.65c4.22,5.94,11.35,13.95,22.16,17.28,13.57,4.18,24.05-1.75,40.47-4.89,11.36-2.17,28.36-3.54,50.67,1.57"/>
      <path id="Path_855" data-name="Path 855" class="cls-2" d="m98.73,4l43.92,5.12-9.23,13.74-28.87-3.36-5.82-15.5Z"/>
      <path id="Path_856" data-name="Path 856" class="cls-2" d="m135.76,68.21l-43.92-5.12,9.04-12.15,28.87,3.36,6.01,13.9Z"/>
      <line id="Line_1816" data-name="Line 1816" class="cls-2" x1="104.55" y1="19.5" x2="100.89" y2="50.94"/>
      <line id="Line_1817" data-name="Line 1817" class="cls-2" x1="133.42" y1="22.86" x2="129.76" y2="54.31"/>
      <path id="Path_857" data-name="Path 857" class="cls-2" d="m100.04,97.55h0c-12.19,5.82-17.35,20.42-11.53,32.6,0,0,0,0,0,0l10.53,22.07,33.7-16.09c5.77-2.75,8.21-9.66,5.46-15.42l-5.55-11.63c-5.82-12.19-20.41-17.35-32.6-11.53,0,0,0,0,0,0Z"/>
      <path id="Path_858" data-name="Path 858" class="cls-2" d="m94.43,142.58l-19.32,9.22,3.77,7.89"/>
      <path id="Path_859" data-name="Path 859" class="cls-1" d="m113.94,126.67c-3.9,1.86-8.56.21-10.42-3.69-1.86-3.9-.21-8.56,3.69-10.42,3.9-1.86,8.56-.21,10.42,3.69,0,0,0,0,0,0,1.85,3.9.21,8.56-3.69,10.42"/>
    </g>
  </g>
</svg>