<?xml version="1.0" encoding="UTF-8"?><svg id="Layer_1" xmlns="http://www.w3.org/2000/svg" viewBox="0 0 360.84 330.02"><defs><style>.cls-1{fill:#404064;}.cls-2{isolation:isolate;}.cls-3{fill:none;stroke:#404064;stroke-linecap:round;stroke-miterlimit:10;stroke-width:6px;}</style></defs><path id="Path_387" class="cls-3" d="M74.53,90.08c0,6.38,.95,12.73,2.83,18.82h-28.59v-36.46h28.24c-1.65,5.74-2.49,11.67-2.48,17.64Z"/><path id="Path_388" class="cls-3" d="M312.26,72.44v36.46h-113.34c3.65-11.86,3.77-24.53,.35-36.46h112.99Z"/><line id="Line_738" class="cls-3" x1="116.75" y1="215.43" x2="106.99" y2="251.89"/><line id="Line_739" class="cls-3" x1="91.9" y1="251.89" x2="101.67" y2="215.43"/><path id="Path_389" class="cls-3" d="M162.24,215.43c-3.55,11.9-3.56,24.57-.02,36.47H48.77v-36.47h113.47Z"/><path id="Path_390" class="cls-3" d="M312.27,215.43v36.47h-28.4c3.54-11.9,3.53-24.57-.02-36.47h28.42Z"/><path id="Path_391" class="cls-3" d="M48.77,47.46v250.45H27.28V47.46c.18,.09,.37,.18,.55,.27,6.44,3.09,13.94,3.09,20.39,0,.18-.09,.37-.18,.55-.27Z"/><path id="Path_392" class="cls-3" d="M73.05,304.77v15.38c-.01,3.79-3.08,6.85-6.87,6.86H9.87c-3.79,0-6.86-3.08-6.87-6.86v-15.38c.01-3.79,3.08-6.85,6.87-6.86h56.32c3.79,0,6.85,3.08,6.86,6.86Z"/><path id="Path_393" class="cls-3" d="M333.36,47.56v250.35h-21.1V47.56c.12,.06,.24,.12,.36,.18,6.44,3.09,13.94,3.09,20.39,0,.12-.06,.24-.12,.35-.18Z"/><path id="Path_394" class="cls-3" d="M357.84,304.77v15.38c-.01,3.79-3.08,6.85-6.87,6.86h-56.32c-3.79,0-6.86-3.08-6.87-6.86v-15.38c.01-3.79,3.08-6.85,6.87-6.86h56.32c3.79,0,6.85,3.08,6.86,6.86Z"/><path id="Path_395" class="cls-3" d="M286.51,233.69c-.05,35.01-28.46,63.35-63.47,63.3s-63.35-28.46-63.3-63.47,28.46-63.35,63.47-63.3c27.97,.04,52.61,18.41,60.64,45.2,1.77,5.93,2.67,12.08,2.66,18.26Z"/><path id="Path_396" class="cls-3" d="M212.21,217.8c-7.33,3.88-14.78,9.72-19.74,18.49-2.63,4.64-8.84,15.62-4.12,25.68,.34,.73,5.06,10.34,15.38,11.26,3.45,.29,6.91-.43,9.97-2.05"/><path id="Path_397" class="cls-3" d="M232.33,217.43c6.65,3.82,12.14,9.37,15.9,16.05,5.08,9.29,10,27.21,1.5,33.98-3.41,2.72-8.05,2.89-11.93,2.35"/><path id="Path_398" class="cls-3" d="M242.26,258.98c1.03,4.19-.77,8.57-4.45,10.83-3.72,2.22-7.92,3.49-12.24,3.69-4.08,.17-8.15-.63-11.87-2.33-3.19-1.44-6.1-3.45-8.59-5.91"/><path id="Path_401" class="cls-3" d="M237.83,197.22c1.79,.34,7.5,3.39,6.54,8.54s-9.46,8.59-18.14,8.86"/><path id="Path_402" class="cls-3" d="M232.33,217.43c-.52-.3-1.06-.56-1.62-.78-4.77-1.89-10.06-2.01-14.91-.33-1.23,.4-2.44,.9-3.59,1.48"/><path id="Path_403" class="cls-3" d="M210.96,201.71c-3.25-.08-7.56,1.3-8.57,4.2-2.71,7.76,12.92,8.65,14.48,8.69"/><path id="Path_404" class="cls-3" d="M237.83,197.22c-.02,.07-.03,.13-.04,.19-.39,1.87-1.16,2.97-2.56,5.08-4.62,6.94-4.91,7.96-6.43,9.64-.17,.19-.36,.39-.58,.61-.53,.54-1.19,1.18-1.99,1.87-.23-.05-.46-.1-.7-.15-.94-.18-1.89-.3-2.85-.35h-.12c-1.6-.07-3.19,.06-4.76,.38-.62-.81-1.16-1.54-1.62-2.16-4.75-6.51-5.26-8.87-5.22-10.62-.01-.74,.15-1.48,.46-2.15,1.06-2.07,3.78-2.99,4.01-3.06,.98-.27,1.99-.38,3-.31,4.47-.17,5.36-4.96,10.15-6.38,2.98-.88,7.02-.33,8.65,2.06,1.23,1.8,.83,4.16,.59,5.35Z"/><g class="cls-2"><path class="cls-1" d="M212.23,245.87l3.83-.53c-.1,.48-.15,1.04-.15,1.5,0,2.99,2.22,4.07,5.13,4.07,2.63,0,4.7-.87,4.7-3.47s-1.97-3.01-5.66-3.81c-3.66-.8-7.54-1.69-7.54-6.1,0-3.98,3.16-5.88,6.73-6.27v-4.14h3.54v4.1c3.16,.24,6.41,1.83,6.41,5.52,0,.53-.07,.94-.15,1.32l-3.88,.55c.09-.43,.15-.96,.15-1.37,0-2.44-2.32-3.09-4.39-3.09-2.2,0-4.26,.74-4.26,3.08,0,2.55,2.44,2.84,5.61,3.54,4.41,.97,7.59,2.12,7.59,6.32s-3.14,6.27-7.08,6.7v4.15h-3.54v-4.1c-3.59-.24-7.26-2-7.26-6.12,0-.68,.1-1.33,.22-1.85Z"/></g><path id="Path_405" class="cls-3" d="M201.76,90.08c-.03,35.1-28.52,63.52-63.61,63.49-35.1-.03-63.52-28.52-63.49-63.61,.03-35.1,28.52-63.52,63.61-63.49,28.3,.03,53.18,18.77,61.01,45.97,1.65,5.74,2.49,11.67,2.48,17.64Z"/><path id="Path_406" class="cls-3" d="M111,63.51c.62-1.53,1.45-2.95,2.48-4.24,5.43-6.95,15.47-8.18,22.42-2.75,.58,.45,1.12,.94,1.63,1.47"/><path id="Path_407" class="cls-3" d="M159.21,65.47c-2.05-4.93-6.49-8.47-11.76-9.37-3.42-.52-6.92,.15-9.91,1.9-1.53,.85-2.92,1.93-4.12,3.2"/><path id="Path_408" class="cls-3" d="M154.16,68.16c1.5-1.21,3.21-2.12,5.05-2.69,1.53-.46,3.14-.58,4.73-.35,6.95,1.03,10.5,8.55,11.02,13.98,.25,2.78-.22,5.57-1.35,8.12"/><path id="Path_409" class="cls-3" d="M170.9,85.39c.95,.53,1.86,1.14,2.71,1.82,4.14,3.17,6.5,8.13,6.35,13.34-.24,4.5-2.73,11.29-8.27,12.77-.3,.08-.6,.14-.9,.19-3.72,.57-7.8-1.3-10.48-4.82-1.3-1.71-2.21-3.69-2.66-5.8"/><path id="Path_410" class="cls-3" d="M146.23,91.4c-3.79-1.34-7.81-1.88-11.82-1.58-3.78,.26-7.41,1.53-10.52,3.69-1.09,.78-2.09,1.7-2.96,2.72-.78,.93-1.47,1.93-2.07,2.99h0c-2.6,4.62-3.79,10.83-.78,15.12,4.47,6.38,15.45,4.57,16.76,4.36,.97-.15,1.93-.39,2.86-.7,3.14-1.07,5.44-2.91,11.92-5.62,3.48-1.45,7.05-2.69,10.69-3.7"/><path id="Path_411" class="cls-3" d="M146.14,76.67c1.94,3.06,2.63,6.75,1.92,10.3-.34,1.57-.96,3.08-1.84,4.43"/><path id="Path_412" class="cls-3" d="M134.41,89.82c.04-1.33,.24-2.65,.59-3.93,.36-1.31,.88-2.57,1.55-3.75"/><path id="Path_413" class="cls-3" d="M160.3,82.58c1.08-4.56-.32-9.35-3.67-12.61-.74-.71-1.57-1.31-2.47-1.81-4.61-2.54-10.15-1.54-13.58,.31-1.42,.77-6.01,3.24-6.2,7.89-.02,2.13,.76,4.19,2.18,5.78"/><path id="Path_414" class="cls-3" d="M160.3,82.58c1.34,1.31,2.28,2.99,2.69,4.82,.54,2.68-.03,5.47-1.58,7.73"/><path id="Path_415" class="cls-3" d="M147.6,102.3c1.96-4.22,6.04-7.05,10.68-7.4,1.05-.06,2.1,.02,3.12,.23,4.14,.9,7.6,3.75,9.29,7.64"/><path id="Path_416" class="cls-3" d="M125.27,109.58c3.97-3.8,8.99-6.31,14.4-7.22,2.62-.42,5.3-.44,7.93-.07"/><path id="Path_417" class="cls-3" d="M123.43,78.95c-1.6-1.6-2.53-3.75-2.59-6.01-.02-1.07,.16-2.13,.55-3.12,1.02-2.53,3.19-4.41,5.84-5.07"/><path id="Path_418" class="cls-3" d="M123.43,78.95c-1.31,1.77-2.1,3.86-2.29,6.04-.03,.33-.04,.66-.04,.98,.06,2.75,1.03,5.41,2.78,7.54"/><path id="Path_419" class="cls-3" d="M102.45,89.82c3.3-3.19,7.69-5,12.28-5.08,2.19,0,4.35,.42,6.38,1.23"/><path id="Path_420" class="cls-3" d="M106.73,70.34c1.53,2.11,3.26,3.38,6.07,3.98,2.62,.56,5.79-.3,8.05-1.37"/><path id="Path_421" class="cls-3" d="M96.82,75.56c-3.77,3.47-5.52,8.61-4.66,13.66,1.66,8.38,10.71,11.12,12.1,11.54,4.88,1.37,10.11,.83,14.6-1.53h0"/><path id="Path_422" class="cls-3" d="M113.49,59.27c-8.49-.67-15.49,3.76-17.08,9.45-.57,2.27-.43,4.66,.42,6.84,.66,1.8,1.59,3.49,2.77,5"/><path id="Path_423" class="cls-3" d="M137.7,118.01c5.17,8.85,16.54,11.84,25.4,6.66,4.26-2.49,7.35-6.57,8.6-11.35"/><path id="Path_424" class="cls-3" d="M346.33,26.54c0,8.9-5.01,17.03-12.97,21.02-.12,.06-.24,.12-.36,.18-6.44,3.09-13.94,3.09-20.39,0-.12-.06-.24-.12-.36-.18-11.61-5.82-16.31-19.96-10.49-31.57,5.82-11.62,19.96-16.31,31.57-10.49,7.96,3.99,12.98,12.13,12.98,21.04h0Z"/><path id="Path_425" class="cls-3" d="M61.54,26.54c0,8.82-4.93,16.9-12.77,20.93-.18,.1-.37,.19-.55,.27-6.44,3.09-13.94,3.09-20.39,0-.19-.09-.37-.18-.55-.27-11.56-5.93-16.13-20.11-10.2-31.67C23.01,4.23,37.19-.33,48.75,5.6c7.85,4.03,12.79,12.11,12.79,20.94Z"/><line id="Line_742" class="cls-3" x1="265.77" y1="72.44" x2="256" y2="108.91"/><line id="Line_743" class="cls-3" x1="240.92" y1="108.91" x2="250.68" y2="72.44"/></svg>