<?xml version="1.0" encoding="UTF-8"?><svg id="Layer_1" xmlns="http://www.w3.org/2000/svg" viewBox="0 0 889.88 162.04"><defs><style>.cls-1{fill:#404064;}</style></defs><g id="Group_3110"><g id="Group_3091"><path id="Path_426" class="cls-1" d="M203.26,41.28h23.77l26.07,36.07,26.07-36.07h23.78v90.78h-22.69v-57.14l-20.4,28.23h-13.51l-20.26-28.23v57.14h-22.83V41.28Z"/><path id="Path_427" class="cls-1" d="M346.98,89.37c3.85,.04,7.69,.4,11.48,1.08v-.54c0-5.13-4.86-8.91-11.62-8.91s-14.05,1.76-21.61,4.86l-5.94-16.34c9.73-3.81,20.08-5.82,30.53-5.94,18.37,0,30.39,10.81,30.39,26.88v22.02c-.11,1.76,1.23,3.27,2.99,3.38,.13,0,.26,0,.38,0,1.04-.02,2.08-.11,3.11-.27l1.49,17.02c-3.69,.73-7.45,1.09-11.21,1.08-6.62,0-11.89-2.84-14.86-7.7-6.16,4.89-13.76,7.59-21.61,7.7-14.45,0-24.59-8.92-24.59-21.75,0-14.32,11.62-22.56,31.07-22.56Zm-.14,27.96c6.75,0,11.62-4.73,11.62-11.21v-2.43c-2.8-.6-5.65-.91-8.51-.95-7.02,0-11.75,2.97-11.75,7.7,0,3.92,3.65,6.89,8.64,6.89h0Z"/><path id="Path_428" class="cls-1" d="M395.47,36.96h22.83v52.41l19.32-24.18h26.75l-27.42,31.34,28.5,35.53h-27.28l-16.48-21.61-3.38,3.65v17.97h-22.83V36.96Z"/><path id="Path_429" class="cls-1" d="M499.62,63.57c19.99,0,33.9,13.91,33.9,34.04,0,2.39-.13,4.78-.4,7.16h-45.8c1.76,7.02,8.51,11.48,17.43,11.48,5.4,0,11.75-1.89,18.51-5.4l7.02,15.94c-10.13,4.73-20.13,6.89-28.5,6.89-22.69,0-38.23-14.46-38.23-34.99,0-20.67,14.86-35.12,36.07-35.12Zm-12.3,27.28h23.37c-.81-5.94-5.13-9.86-11.08-9.86-5.95-.15-11.14,4.02-12.29,9.86Z"/></g><g id="Group_3092"><path id="Path_430" class="cls-1" d="M550.3,41.55h41.07c19.32,0,32.96,12.29,32.96,29.85,0,13.1-7.29,23.5-19.05,26.88l23.23,34.04h-26.75l-19.32-30.12h-8.38v30.12h-23.78V41.55Zm23.77,41.74h13.37c7.29,0,12.56-4.46,12.56-11.48s-5.27-11.35-12.56-11.35h-13.37v22.83Z"/><path id="Path_431" class="cls-1" d="M650.25,34.26c7.97,0,13.64,5.67,13.64,13.64s-5.67,13.51-13.64,13.51c-7.21,.25-13.25-5.38-13.51-12.59-.01-.31-.01-.61,0-.92,0-7.97,5.67-13.64,13.51-13.64Zm-11.89,31.21h23.77v66.86h-23.77V65.46Z"/><path id="Path_432" class="cls-1" d="M745.76,128.81c0,19.32-16.48,33.23-38.9,33.23-10.49-.14-20.85-2.3-30.53-6.35l6.48-17.42c8.38,3.78,16.08,5.4,22.02,5.4,10.13,0,17.16-5.67,17.16-13.91v-2.16c-5.05,4.17-11.42,6.42-17.97,6.35-18.24,0-31.07-14.45-31.07-34.99s12.83-35.12,31.07-35.12c7.4-.14,14.55,2.68,19.86,7.83l2.97-6.21h18.91v63.35Zm-35.39-13.51c7.16,0,12.02-5.4,12.02-12.83v-7.02c0-7.57-4.86-12.97-12.02-12.97-7.7,0-13.1,6.76-13.1,16.48,0,9.59,5.4,16.34,13.1,16.34h0Z"/><path id="Path_433" class="cls-1" d="M759.8,37.23h23.77v34.04c5.48-4.93,12.63-7.59,19.99-7.43,15.8,0,26.75,10.81,26.75,26.21v42.28h-23.77v-38.36c.23-5.66-4.17-10.43-9.83-10.67-.24,0-.47-.01-.71,0-7.29,0-12.43,5.4-12.43,13.24v35.8h-23.78V37.23Z"/><path id="Path_434" class="cls-1" d="M871.92,65.46h15.94v17.97h-15.94v24.45c0,4.46,2.84,7.16,7.16,7.16,2.63-.03,5.25-.3,7.84-.81l2.97,17.56c-5.43,1.41-11.01,2.13-16.61,2.16-14.99,0-25.12-9.46-25.12-23.64v-26.88h-11.21v-17.97h11.21v-19.45h23.77v19.45Z"/></g></g><g id="Group_549"><g id="Group_486"><g id="Path_49"><path id="Path_435" class="cls-1" d="M34.41,84.01c3.84-1.88,8.33-1.88,12.17,0l80.58,45.1c3.36,1.88,3.36,4.93,0,6.81h0c-3.84,1.88-8.33,1.88-12.17,0L34.41,90.82c-3.36-1.88-3.36-4.93,0-6.81Z"/></g><g id="Path_50"><path id="Path_436" class="cls-1" d="M18.65,92.94c3.84-1.88,8.33-1.88,12.17,0l80.58,45.1c3.36,1.88,3.36,4.93,0,6.81-3.84,1.88-8.33,1.88-12.17,0L18.65,99.75c-3.36-1.88-3.36-4.93,0-6.81Z"/></g><g id="Path_51"><path id="Path_437" class="cls-1" d="M2.52,101.97c3.84-1.88,8.33-1.88,12.17,0l80.58,45.1c3.36,1.88,3.36,4.93,0,6.81-3.84,1.88-8.33,1.88-12.17,0L2.52,108.78c-3.36-1.88-3.36-4.93,0-6.81Z"/></g><g id="Path_46"><path id="Path_438" class="cls-1" d="M108.67,91.65h0c-4.78,2.68-7.9,5.31-3.12,7.98l32.43,18.15c3.24,1.81,3.64,4.76,.62,6.69-1.97,1.14-4.21,1.71-6.49,1.65-2.11,.04-4.21-.44-6.09-1.41l-41.63-23.3c-1.33-.58-2.28-1.8-2.51-3.23v-.23c0-.06,0-.11,0-.17,.23-1.44,1.18-2.65,2.51-3.23l17.99-9.05s-2.2-1.27-2.19-1.25l8.48,7.37s.01,.02,0,.03Z"/></g><g id="Path_47"><path id="Path_439" class="cls-1" d="M105.55,99.63l-14.73-8.31-3.92-28.34,39.61,22.16-20.96,14.5Z"/></g><g id="Path_48"><path id="Path_440" class="cls-1" d="M158.2,52.07L65.18,0V45.15l93.02,52.07V52.07Z"/></g></g></g></svg>