<?xml version="1.0" encoding="UTF-8"?><svg id="Layer_1" xmlns="http://www.w3.org/2000/svg" viewBox="0 0 158.88 178.89"><defs><style>.cls-1{stroke-miterlimit:10;stroke-width:8px;}.cls-1,.cls-2{stroke-linecap:round;}.cls-1,.cls-2,.cls-3{fill:none;stroke:#f3f3f7;}.cls-2,.cls-3{stroke-miterlimit:10;stroke-width:8px;}</style></defs><path class="cls-2" d="M53.13,28.66H12.14c-2.24,0-4.28,.91-5.75,2.38s-2.39,3.51-2.39,5.76c0,4.49,3.65,8.14,8.14,8.14H55.13"/><path class="cls-2" d="M103.82,28.66h42.93c4.49,0,8.13,3.64,8.13,8.14,0,2.24-.91,4.28-2.38,5.75-1.47,1.48-3.5,2.39-5.75,2.39h-44.93"/><path class="cls-2" d="M85.12,66.73v13.77c0,3.67-2.97,6.64-6.64,6.64-1.84,0-3.5-.74-4.7-1.94s-1.94-2.86-1.94-4.7v-13.77"/><path id="Path_772" class="cls-3" d="M57.11,4h42.73c3.42,0,6.19,2.77,6.19,6.19,0,.25-.02,.5-.05,.75l-6.18,50.35c-.38,3.1-3.02,5.44-6.15,5.44h-30.38c-3.13,0-5.77-2.33-6.15-5.44l-6.18-50.35c-.42-3.4,2-6.49,5.39-6.9,.25-.03,.5-.05,.75-.05Z"/><g id="Group_4214"><path class="cls-2" d="M55.87,151.24v14.69c0,4.95,9.98,8.96,22.29,8.96s22.28-4.01,22.28-8.96v-14.69"/><path class="cls-2" d="M55.87,151.24c0,4.94,9.98,8.95,22.29,8.95s22.28-4.01,22.28-8.95"/></g><g id="Group_4215"><path class="cls-2" d="M55.87,136.55v14.69c0,4.94,9.98,8.95,22.29,8.95s22.28-4.01,22.28-8.95v-14.69"/><path class="cls-2" d="M55.87,136.55c0,3.04,3.78,5.73,9.57,7.35h.01c3.6,1.01,7.98,1.6,12.71,1.6s9.1-.59,12.7-1.6h.01c5.79-1.62,9.57-4.31,9.57-7.35"/></g><g id="Group_4216"><path class="cls-2" d="M145.02,151.24v14.69c0,4.95-9.98,8.96-22.29,8.96s-22.29-4.01-22.29-8.96v-14.69"/><path class="cls-2" d="M100.44,151.24c0,4.94,9.98,8.95,22.29,8.95s22.29-4.01,22.29-8.95"/></g><g id="Group_4217"><path id="Path_776" class="cls-2" d="M145.02,151.24c0,4.94-9.98,8.95-22.29,8.95s-22.29-4.01-22.29-8.95v-14.69c0-4.94,9.98-8.95,22.29-8.95s22.29,4.01,22.29,8.95v14.69Z"/><ellipse id="Ellipse_267" class="cls-2" cx="122.73" cy="136.55" rx="22.29" ry="8.95"/></g><g id="Group_4218"><path id="Path_777" class="cls-2" d="M100.44,136.55c0,4.94-9.98,8.95-22.29,8.95s-22.29-4.01-22.29-8.95v-14.69c0-4.94,9.98-8.95,22.29-8.95s22.29,4.01,22.29,8.95v14.69Z"/><ellipse id="Ellipse_268" class="cls-2" cx="78.16" cy="121.86" rx="22.29" ry="8.95"/></g><g id="Group_4219"><path id="Path_778" class="cls-2" d="M53.45,134.84c4.27,2.49,2.72,13.13-3.47,23.77s-14.68,17.24-18.95,14.76l-12.7-7.39c-4.27-2.49-2.72-13.13,3.48-23.77s14.68-17.24,18.95-14.76l12.7,7.39Z"/><ellipse id="Ellipse_269" class="cls-1" cx="29.54" cy="146.71" rx="22.28" ry="8.95" transform="translate(-112.11 98.43) rotate(-59.79)"/></g></svg>