<?xml version="1.0" encoding="UTF-8"?><svg id="Layer_1" xmlns="http://www.w3.org/2000/svg" viewBox="0 0 102.24 128.4"><defs><style>.cls-1{fill:none;stroke:#404064;stroke-linecap:round;stroke-linejoin:round;stroke-width:5px;}</style></defs><g id="Group_4228"><line id="Line_752" class="cls-1" x1="39.16" y1="87.92" x2="15.12" y2="87.92"/><line id="Line_753" class="cls-1" x1="27.31" y1="98.32" x2="15.14" y2="98.32"/><path id="Path_462" class="cls-1" d="M56.74,110.89H5.12c-1.45,0-2.62-1.17-2.62-2.62V5.12c0-1.45,1.17-2.62,2.62-2.62H85.29c1.45,0,2.62,1.17,2.62,2.62V81.3"/><path id="Path_463" class="cls-1" d="M99.74,108.67l-11.24,1.9,6.42,11.57-7.7,3.75-6.29-11.24-8.01,7.08-3.26-35.47,30.08,22.41Z"/><g id="Group_3194"><path id="Path_464" class="cls-1" d="M32.34,25.43l-.29-10.71,10.24-.31,.38,10.85"/><path id="Path_465" class="cls-1" d="M30.25,59.84l-.32-23.79-7.14,.14-.4-10.34,40.1-1.21,.31,10.2-5.81,.28v13.95"/><path id="Path_466" class="cls-1" d="M39.16,59.36l-.38-19.39c-.05-2.57,1.98-4.69,4.55-4.75,2.57-.05,4.69,1.99,4.74,4.55l.2,18"/><path id="Path_467" class="cls-1" d="M15.27,59.81l2.13,13.41h30.75c7.34,0,9.55-.06,10.43-.54,8.06-4.44,16.62-18.14,15.86-28.34l-17.35,5.08s-1.48,4.8-5.26,6.92c-6.2,3.47-22.51,3.78-36.55,3.48Z"/></g></g></svg>