<?xml version="1.0" encoding="UTF-8"?><svg id="Layer_1" xmlns="http://www.w3.org/2000/svg" xmlns:xlink="http://www.w3.org/1999/xlink" viewBox="0 0 110.73 100.59"><defs><style>.cls-1{stroke-miterlimit:10;}.cls-1,.cls-2{fill:none;stroke:#404064;}.cls-2{stroke-linecap:round;stroke-linejoin:round;stroke-width:5px;}.cls-3{clip-path:url(#clippath);}</style><clipPath id="clippath"><path class="cls-1" d="M-130.68,65.02l7.04,14.67,40.51,.38c12.01,0,15.64-.1,17.07-.89,13.19-7.26,26.2-22.79,24.95-39.48l-28.4,8.31s-2.42,7.86-8.61,11.32c-10.15,5.67-29.58,6.19-52.56,5.69Z"/></clipPath></defs><g id="Group_3210"><g id="Group_3198"><g id="Group_3197"><g><g class="cls-3"><g id="Group_3196"><line id="Line_760" class="cls-2" x1="17.25" y1="144.18" x2="-50.93" y2="15.97"/></g></g><path class="cls-1" d="M-130.68,65.02l7.04,14.67,40.51,.38c12.01,0,15.64-.1,17.07-.89,13.19-7.26,26.2-22.79,24.95-39.48l-28.4,8.31s-2.42,7.86-8.61,11.32c-10.15,5.67-29.58,6.19-52.56,5.69Z"/></g></g></g></g><g id="Group_3203"><path id="Path_475" class="cls-2" d="M2.5,37.93l7.08,25.85,65.25,5.55"/><path id="Path_477" class="cls-2" d="M108.23,8.41l-16.83,4.4-16.57,56.53"/><line id="Line_762" class="cls-2" x1="67.73" y1="90.89" x2="33.53" y2="90.87"/><circle id="Ellipse_220" class="cls-2" cx="17" cy="90.89" r="7.19"/><circle id="Ellipse_221" class="cls-2" cx="84.34" cy="90.89" r="7.19"/><g id="Group_3202"><line id="Line_763" class="cls-2" x1="40.13" y1="2.5" x2="40.13" y2="8.42"/><path id="Path_478" class="cls-2" d="M36.38,35.95l.19-18.07-6.74,.24-.34-8.92,32.5-1.01,.26,8.64-6.07,.24-.31,9.58"/><line id="Line_764" class="cls-2" x1="46.32" y1="32.88" x2="46.17" y2="18.12"/><path id="Path_479" class="cls-2" d="M21.94,36.55l1.8,11.96h24.42c6.21,0,8.09-.05,8.83-.46,6.82-3.76,14.07-15.96,13.42-24.59l-14.69,4.3s-1.25,4.07-4.45,5.86c-5.25,2.93-17.44,3.2-29.33,2.94Z"/></g><line id="Line_765" class="cls-2" x1="74.83" y1="69.33" x2="81" y2="84.52"/></g></svg>