<?xml version="1.0" encoding="UTF-8"?><svg id="Layer_1" xmlns="http://www.w3.org/2000/svg" xmlns:xlink="http://www.w3.org/1999/xlink" viewBox="0 0 96.56 119.75"><defs><style>.cls-1{stroke-miterlimit:10;}.cls-1,.cls-2{fill:none;stroke:#404064;}.cls-2{stroke-linecap:round;stroke-linejoin:round;stroke-width:5px;}.cls-3{clip-path:url(#clippath);}</style><clipPath id="clippath"><path class="cls-1" d="M4.1,65.02l7.04,14.67,40.51,.38c12.01,0,15.64-.1,17.07-.89,13.19-7.26,26.2-22.79,24.95-39.48l-28.4,8.31s-2.42,7.86-8.61,11.32c-10.15,5.67-29.58,6.19-52.56,5.69Z"/></clipPath></defs><g id="Group_3210"><g id="Group_3198"><path id="Path_468" class="cls-2" d="M31.53,14.97l-.47-11.92,11.25-.55,.6,11.86"/><path id="Path_469" class="cls-2" d="M65.54,48.14V24.56l9.21-.45-.5-11.45-52.73,2.85,.65,12.17,8.82-.58,.54,37.66"/><path id="Path_470" class="cls-2" d="M42.15,63.68l-.61-31.03c-.08-3.81,2.95-6.97,6.76-7.05,3.81-.08,6.97,2.95,7.05,6.76l.31,27.49"/><path id="Path_471" class="cls-2" d="M4.1,65.02l7.04,14.67,40.51,.38c12.01,0,15.64-.1,17.07-.89,13.19-7.26,26.2-22.79,24.95-39.48l-28.4,8.31s-2.42,7.86-8.61,11.32c-10.15,5.67-29.58,6.19-52.56,5.69Z"/><g id="Group_3197"><g><g class="cls-3"><g id="Group_3196"><line id="Line_754" class="cls-2" x1="57.15" y1="144.18" x2="-11.03" y2="15.97"/><line id="Line_755" class="cls-2" x1="70.64" y1="144.18" x2="2.46" y2="15.97"/><line id="Line_756" class="cls-2" x1="85.59" y1="144.18" x2="17.41" y2="15.97"/><line id="Line_757" class="cls-2" x1="100.67" y1="144.18" x2="32.49" y2="15.97"/><line id="Line_758" class="cls-2" x1="116.56" y1="144.18" x2="48.37" y2="15.97"/><line id="Line_759" class="cls-2" x1="131.23" y1="143.18" x2="63.05" y2="14.97"/><line id="Line_760" class="cls-2" x1="152.03" y1="144.18" x2="83.85" y2="15.97"/></g></g><path class="cls-1" d="M4.1,65.02l7.04,14.67,40.51,.38c12.01,0,15.64-.1,17.07-.89,13.19-7.26,26.2-22.79,24.95-39.48l-28.4,8.31s-2.42,7.86-8.61,11.32c-10.15,5.67-29.58,6.19-52.56,5.69Z"/></g></g></g><g id="Group_3201"><circle id="Ellipse_214" class="cls-2" cx="12.83" cy="106.92" r="10.33"/><g id="Group_3199"><circle id="Ellipse_215" class="cls-2" cx="48.28" cy="106.92" r="10.33"/><line id="Line_761" class="cls-2" x1="54.5" y1="100.7" x2="42.05" y2="113.15"/></g><g id="Group_3200"><circle id="Ellipse_216" class="cls-2" cx="83.73" cy="106.92" r="10.33"/><circle id="Ellipse_217" class="cls-2" cx="79.48" cy="100.23" r="1.77"/><circle id="Ellipse_218" class="cls-2" cx="80.34" cy="113.5" r="1.77"/><circle id="Ellipse_219" class="cls-2" cx="92.16" cy="104.97" r="1.77"/></g></g></g></svg>