<svg xmlns="http://www.w3.org/2000/svg" width="592" height="310" viewBox="0 0 592 310">
  <g id="Group_2240" data-name="Group 2240" transform="translate(-428 -18279)">
    <g id="Group_32" data-name="Group 32" transform="translate(384 18099)">
      <rect id="Rectangle_15" data-name="Rectangle 15" width="114" height="33" rx="16.5" transform="translate(44 180)" fill="#404064"/>
      <text id="Login_Onboarding" data-name="Login / Onboarding" transform="translate(101 200)" fill="#fff" font-size="10" font-family="GiraSans-Regular, Gira Sans"><tspan x="-47.292" y="0">Login / Onboarding</tspan></text>
    </g>
    <g id="Group_33" data-name="Group 33" transform="translate(208.078 18161.531)">
      <rect id="Rectangle_17" data-name="Rectangle 17" width="64.067" height="64.067" rx="5" transform="translate(276.224 179.47) rotate(45)" fill="#c41263"/>
      <text id="Create_child_profile_" data-name="Create
child
profile?" transform="translate(276.224 214.272)" fill="#fff" font-size="10" font-family="GiraSans-Regular, Gira Sans"><tspan x="-16.726" y="0">Create</tspan><tspan x="-11.792" y="13">child</tspan><tspan x="-18.396" y="26">profile?</tspan></text>
    </g>
    <g id="Group_108" data-name="Group 108" transform="translate(591.926 18280) rotate(90)">
      <path id="Path_18" data-name="Path 18" d="M6.341,0,4.449,2.278l-.791.953a.633.633,0,0,1-.974,0L0,0" transform="matrix(-0.035, -0.999, 0.999, -0.035, 48.544, 110.228)" fill="none" stroke="#404064" stroke-linecap="round" stroke-width="2"/>
      <g id="arrows_dark_arrow_1" data-name="arrows dark/arrow 1" transform="translate(42 107)">
        <path id="Line" d="M.5,1.5H9.508" transform="translate(-0.5 -1.5)" fill="none" stroke="#404064" stroke-linecap="round" stroke-miterlimit="10" stroke-width="2"/>
      </g>
    </g>
    <g id="Group_108-2" data-name="Group 108" transform="translate(498 18279.303)">
      <path id="Path_18-2" data-name="Path 18" d="M6.341,0,4.449,2.278l-.791.953a.633.633,0,0,1-.974,0L0,0" transform="matrix(-0.035, -0.999, 0.999, -0.035, 48.544, 110.228)" fill="none" stroke="#404064" stroke-linecap="round" stroke-width="2"/>
      <g id="arrows_dark_arrow_1-2" data-name="arrows dark/arrow 1" transform="translate(42 107)">
        <path id="Line-2" data-name="Line" d="M.5,1.5H9.508" transform="translate(-0.5 -1.5)" fill="none" stroke="#404064" stroke-linecap="round" stroke-miterlimit="10" stroke-width="2"/>
      </g>
    </g>
    <g id="Group_108-3" data-name="Group 108" transform="translate(566 18279.303)">
      <path id="Path_18-3" data-name="Path 18" d="M6.341,0,4.449,2.278l-.791.953a.633.633,0,0,1-.974,0L0,0" transform="matrix(-0.035, -0.999, 0.999, -0.035, 48.544, 110.228)" fill="none" stroke="#404064" stroke-linecap="round" stroke-width="2"/>
      <g id="arrows_dark_arrow_1-3" data-name="arrows dark/arrow 1" transform="translate(42 107)">
        <path id="Line-3" data-name="Line" d="M.5,1.5H9.508" transform="translate(-0.5 -1.5)" fill="none" stroke="#404064" stroke-linecap="round" stroke-miterlimit="10" stroke-width="2"/>
      </g>
    </g>
    <g id="Group_108-4" data-name="Group 108" transform="translate(591.926 18399) rotate(90)">
      <path id="Path_18-4" data-name="Path 18" d="M6.341,0,4.449,2.278l-.791.953a.633.633,0,0,1-.974,0L0,0" transform="matrix(-0.035, -0.999, 0.999, -0.035, 48.544, 110.228)" fill="none" stroke="#404064" stroke-linecap="round" stroke-width="2"/>
      <g id="arrows_dark_arrow_1-4" data-name="arrows dark/arrow 1" transform="translate(42 107)">
        <path id="Line-4" data-name="Line" d="M.5,1.5H9.508" transform="translate(-0.5 -1.5)" fill="none" stroke="#404064" stroke-linecap="round" stroke-miterlimit="10" stroke-width="2"/>
      </g>
    </g>
    <g id="Group_108-5" data-name="Group 108" transform="translate(475 18374.5)">
      <path id="Path_18-5" data-name="Path 18" d="M6.341,0,4.449,2.278l-.791.953a.633.633,0,0,1-.974,0L0,0" transform="matrix(-0.035, -0.999, 0.999, -0.035, 68.544, 110.228)" fill="none" stroke="#404064" stroke-linecap="round" stroke-width="2"/>
      <g id="arrows_dark_arrow_1-5" data-name="arrows dark/arrow 1" transform="translate(42 107)">
        <path id="Line-5" data-name="Line" d="M.5,1.5H29.508" transform="translate(-0.5 -1.5)" fill="none" stroke="#404064" stroke-linecap="round" stroke-miterlimit="10" stroke-width="2"/>
      </g>
    </g>
    <g id="Group_108-6" data-name="Group 108" transform="translate(536 18493) rotate(-90)">
      <path id="Path_18-6" data-name="Path 18" d="M6.341,0,4.449,2.278l-.791.953a.633.633,0,0,1-.974,0L0,0" transform="matrix(-0.035, -0.999, 0.999, -0.035, 73.544, 110.228)" fill="none" stroke="#404064" stroke-linecap="round" stroke-width="2"/>
      <g id="arrows_dark_arrow_1-6" data-name="arrows dark/arrow 1" transform="translate(42 107)">
        <path id="Line-6" data-name="Line" d="M.5,1.5H34.508" transform="translate(-0.5 -1.5)" fill="none" stroke="#404064" stroke-linecap="round" stroke-miterlimit="10" stroke-width="2"/>
      </g>
    </g>
    <g id="Group_108-7" data-name="Group 108" transform="translate(812.5 18402.5) rotate(180)">
      <path id="Path_18-7" data-name="Path 18" d="M6.341,0,4.449,2.278l-.791.953a.633.633,0,0,1-.974,0L0,0" transform="matrix(-0.035, -0.999, 0.999, -0.035, 55.544, 110.228)" fill="none" stroke="#404064" stroke-linecap="round" stroke-width="2"/>
      <g id="arrows_dark_arrow_1-7" data-name="arrows dark/arrow 1" transform="translate(42 107)">
        <path id="Line-7" data-name="Line" d="M.5,1.5H16.508" transform="translate(-0.5 -1.5)" fill="none" stroke="#404064" stroke-linecap="round" stroke-miterlimit="10" stroke-width="2"/>
      </g>
    </g>
    <g id="Group_108-8" data-name="Group 108" transform="translate(884.084 18363.9) rotate(133)">
      <path id="Path_18-8" data-name="Path 18" d="M6.341,0,4.449,2.278l-.791.953a.633.633,0,0,1-.974,0L0,0" transform="matrix(-0.035, -0.999, 0.999, -0.035, 89.6, 110.228)" fill="none" stroke="#404064" stroke-linecap="round" stroke-width="2"/>
      <g id="arrows_dark_arrow_1-8" data-name="arrows dark/arrow 1" transform="translate(42 107)">
        <path id="Line-8" data-name="Line" d="M.5,1.5H50.564" transform="translate(-0.5 -1.5)" fill="none" stroke="#404064" stroke-linecap="round" stroke-miterlimit="10" stroke-width="2"/>
      </g>
    </g>
    <g id="Group_108-9" data-name="Group 108" transform="matrix(-0.891, 0.454, -0.454, -0.891, 972.229, 18607.043)">
      <path id="Path_18-9" data-name="Path 18" d="M6.341,0,4.449,2.278l-.791.953a.633.633,0,0,1-.974,0L0,0" transform="matrix(-0.035, -0.999, 0.999, -0.035, 88.369, 110.228)" fill="none" stroke="#404064" stroke-linecap="round" stroke-width="2"/>
      <g id="arrows_dark_arrow_1-9" data-name="arrows dark/arrow 1" transform="translate(42 107)">
        <path id="Line-9" data-name="Line" d="M.5,1.5H49.333" transform="translate(-0.5 -1.5)" fill="none" stroke="#404064" stroke-linecap="round" stroke-miterlimit="10" stroke-width="2"/>
      </g>
      <g id="Group_108-10" data-name="Group 108" transform="translate(45.678 110.228) rotate(180)">
        <path id="Path_18-10" data-name="Path 18" d="M6.341,0,4.449,2.278l-.791.953a.633.633,0,0,1-.974,0L0,0" transform="matrix(-0.035, -0.999, 0.999, -0.035, 0.222, 6.456)" fill="none" stroke="#404064" stroke-linecap="round" stroke-width="2"/>
      </g>
    </g>
    <g id="Group_108-11" data-name="Group 108" transform="translate(710 18397.881) rotate(-90)">
      <path id="Path_18-11" data-name="Path 18" d="M6.341,0,4.449,2.278l-.791.953a.633.633,0,0,1-.974,0L0,0" transform="matrix(-0.035, -0.999, 0.999, -0.035, 69.14, 110.228)" fill="none" stroke="#404064" stroke-linecap="round" stroke-width="2"/>
      <g id="arrows_dark_arrow_1-10" data-name="arrows dark/arrow 1" transform="translate(42 107)">
        <path id="Line-10" data-name="Line" d="M.5,1.5H30.1" transform="translate(-0.5 -1.5)" fill="none" stroke="#404064" stroke-linecap="round" stroke-miterlimit="10" stroke-width="2"/>
      </g>
    </g>
    <g id="Group_108-12" data-name="Group 108" transform="translate(704.5 18279.5)">
      <path id="Path_18-12" data-name="Path 18" d="M6.341,0,4.449,2.278l-.791.953a.633.633,0,0,1-.974,0L0,0" transform="matrix(-0.035, -0.999, 0.999, -0.035, 44.62, 110.228)" fill="none" stroke="#404064" stroke-linecap="round" stroke-width="2"/>
      <g id="arrows_dark_arrow_1-11" data-name="arrows dark/arrow 1" transform="translate(38.138 107)">
        <path id="Line-11" data-name="Line" d="M.5,1.5H9.446" transform="translate(-0.5 -1.5)" fill="none" stroke="#404064" stroke-linecap="round" stroke-miterlimit="10" stroke-width="2"/>
      </g>
    </g>
    <g id="Group_108-13" data-name="Group 108" transform="translate(724 18506.271)">
      <path id="Path_18-13" data-name="Path 18" d="M6.341,0,4.449,2.278l-.791.953a.633.633,0,0,1-.974,0L0,0" transform="matrix(-0.035, -0.999, 0.999, -0.035, 24.503, 6.456)" fill="none" stroke="#404064" stroke-linecap="round" stroke-width="2"/>
      <g id="arrows_dark_arrow_1-12" data-name="arrows dark/arrow 1" transform="translate(0 3.228)">
        <path id="Line-12" data-name="Line" d="M.5,1.5H27.467" transform="translate(-0.5 -1.5)" fill="none" stroke="#404064" stroke-linecap="round" stroke-miterlimit="10" stroke-width="2"/>
      </g>
    </g>
    <g id="Group_108-14" data-name="Group 108" transform="translate(724 18443.271)">
      <path id="Path_18-14" data-name="Path 18" d="M6.341,0,4.449,2.278l-.791.953a.633.633,0,0,1-.974,0L0,0" transform="matrix(-0.035, -0.999, 0.999, -0.035, 24.503, 6.456)" fill="none" stroke="#404064" stroke-linecap="round" stroke-width="2"/>
      <g id="arrows_dark_arrow_1-13" data-name="arrows dark/arrow 1" transform="translate(0 3.228)">
        <path id="Line-13" data-name="Line" d="M.5,1.5H27.467" transform="translate(-0.5 -1.5)" fill="none" stroke="#404064" stroke-linecap="round" stroke-miterlimit="10" stroke-width="2"/>
      </g>
    </g>
    <g id="Group_108-15" data-name="Group 108" transform="translate(942.058 18493.5) rotate(180)">
      <path id="Path_18-15" data-name="Path 18" d="M6.341,0,4.449,2.278l-.791.953a.633.633,0,0,1-.974,0L0,0" transform="matrix(-0.035, -0.999, 0.999, -0.035, 53.66, 110.228)" fill="none" stroke="#404064" stroke-linecap="round" stroke-width="2"/>
      <g id="arrows_dark_arrow_1-14" data-name="arrows dark/arrow 1" transform="translate(42 107)">
        <path id="Line-14" data-name="Line" d="M.5,1.5H14.624" transform="translate(-0.5 -1.5)" fill="none" stroke="#404064" stroke-linecap="round" stroke-miterlimit="10" stroke-width="2"/>
      </g>
      <path id="Path_18-16" data-name="Path 18" d="M0,0,1.891,2.277l.791.953a.633.633,0,0,0,.974,0L6.338,0" transform="matrix(-0.035, 0.999, -0.999, -0.035, 45.678, 103.893)" fill="none" stroke="#404064" stroke-linecap="round" stroke-width="2"/>
    </g>
    <g id="Group_108-16" data-name="Group 108" transform="translate(899 18679.5) rotate(180)">
      <path id="Path_18-17" data-name="Path 18" d="M6.341,0,4.449,2.278l-.791.953a.633.633,0,0,1-.974,0L0,0" transform="matrix(-0.035, -0.999, 0.999, -0.035, 53.66, 110.228)" fill="none" stroke="#404064" stroke-linecap="round" stroke-width="2"/>
      <g id="arrows_dark_arrow_1-15" data-name="arrows dark/arrow 1" transform="translate(42 107)">
        <path id="Line-15" data-name="Line" d="M.5,1.5H14.624" transform="translate(-0.5 -1.5)" fill="none" stroke="#404064" stroke-linecap="round" stroke-miterlimit="10" stroke-width="2"/>
      </g>
      <path id="Path_18-18" data-name="Path 18" d="M0,0,1.891,2.277l.791.953a.633.633,0,0,0,.974,0L6.338,0" transform="matrix(-0.035, 0.999, -0.999, -0.035, 45.678, 103.893)" fill="none" stroke="#404064" stroke-linecap="round" stroke-width="2"/>
    </g>
    <g id="Group_108-17" data-name="Group 108" transform="translate(819.121 18591.141) rotate(-90)">
      <path id="Path_18-19" data-name="Path 18" d="M6.341,0,4.449,2.278l-.791.953a.633.633,0,0,1-.974,0L0,0" transform="matrix(-0.035, -0.999, 0.999, -0.035, 53.66, 110.228)" fill="none" stroke="#404064" stroke-linecap="round" stroke-width="2"/>
      <g id="arrows_dark_arrow_1-16" data-name="arrows dark/arrow 1" transform="translate(42 107)">
        <path id="Line-16" data-name="Line" d="M.5,1.5H14.624" transform="translate(-0.5 -1.5)" fill="none" stroke="#404064" stroke-linecap="round" stroke-miterlimit="10" stroke-width="2"/>
      </g>
      <path id="Path_18-20" data-name="Path 18" d="M0,0,1.891,2.277l.791.953a.633.633,0,0,0,.974,0L6.338,0" transform="matrix(-0.035, 0.999, -0.999, -0.035, 45.678, 103.893)" fill="none" stroke="#404064" stroke-linecap="round" stroke-width="2"/>
    </g>
    <path id="Path_18-21" data-name="Path 18" d="M6.341,0,4.449,2.278l-.791.953a.633.633,0,0,1-.974,0L0,0" transform="matrix(0.035, 0.999, -0.999, 0.035, 888.398, 18443.771)" fill="none" stroke="#404064" stroke-linecap="round" stroke-width="2"/>
    <path id="Path_18-22" data-name="Path 18" d="M6.341,0,4.449,2.278l-.791.953a.633.633,0,0,1-.974,0L0,0" transform="translate(969.169 18419.459) rotate(180)" fill="none" stroke="#404064" stroke-linecap="round" stroke-width="2"/>
    <g id="color2" transform="translate(547 18455)">
      <rect id="Rectangle_16" data-name="Rectangle 16" width="98" height="33" transform="translate(12 8)" fill="#074391"/>
      <text id="Process" transform="translate(22 28)" fill="#fff" font-size="10" font-family="GiraSans-Regular, Gira Sans"><tspan x="0" y="0">Select interests</tspan></text>
    </g>
    <g id="color2-2" data-name="color2" transform="translate(616 18362)">
      <rect id="Rectangle_16-2" data-name="Rectangle 16" width="105" height="33" rx="8" transform="translate(12 8)" fill="#074391"/>
      <text id="Process-2" data-name="Process" transform="translate(22 28)" fill="#fff" font-size="10" font-family="GiraSans-Regular, Gira Sans"><tspan x="0" y="0">Browse Activities</tspan></text>
    </g>
    <g id="color2-3" data-name="color2" transform="translate(751 18422)">
      <rect id="Rectangle_16-3" data-name="Rectangle 16" width="108" height="33" rx="8" transform="translate(12 8)" fill="#074391"/>
      <text id="Process-3" data-name="Process" transform="translate(22 28)" fill="#fff" font-size="10" font-family="GiraSans-Regular, Gira Sans"><tspan x="0" y="0">Browse Locations</tspan></text>
    </g>
    <g id="color2-4" data-name="color2" transform="translate(751 18362)">
      <rect id="Rectangle_16-4" data-name="Rectangle 16" width="111" height="33" transform="translate(12 8)" fill="#074391"/>
      <text id="Process-4" data-name="Process" transform="translate(22 28)" fill="#fff" font-size="10" font-family="GiraSans-Regular, Gira Sans"><tspan x="0" y="0">Choose an activity</tspan></text>
    </g>
    <g id="color2-5" data-name="color2" transform="translate(770 18271)">
      <rect id="Rectangle_16-5" data-name="Rectangle 16" width="70" height="33" rx="16.5" transform="translate(12 8)" fill="#404064"/>
      <text id="Process-5" data-name="Process" transform="translate(22 28)" fill="#fff" font-size="10" font-family="GiraSans-Regular, Gira Sans"><tspan x="0" y="0">Have fun!!</tspan></text>
    </g>
    <g id="color2-6" data-name="color2" transform="translate(899 18362)">
      <rect id="Rectangle_16-6" data-name="Rectangle 16" width="109" height="33" transform="translate(12 8)" fill="#074391"/>
      <text id="Process-6" data-name="Process" transform="translate(22 28)" fill="#fff" font-size="10" font-family="GiraSans-Regular, Gira Sans"><tspan x="0" y="0">Choose a location</tspan></text>
    </g>
    <g id="color2-7" data-name="color2" transform="translate(616 18271)">
      <g id="Rectangle_16-7" data-name="Rectangle 16" transform="translate(12 8)" fill="none" stroke="#074391" stroke-width="3">
        <rect width="112" height="33" stroke="none"/>
        <rect x="1.5" y="1.5" width="109" height="30" fill="none"/>
      </g>
      <text id="Process-7" data-name="Process" transform="translate(22 28)" fill="#074391" stroke="rgba(0,0,0,0)" stroke-width="3" font-size="10" font-family="GiraSans-Regular, Gira Sans"><tspan x="0" y="0">Optional Feedback</tspan></text>
    </g>
    <g id="color2-8" data-name="color2" transform="translate(885 18485)">
      <g id="Rectangle_16-8" data-name="Rectangle 16" transform="translate(12 8)" fill="none" stroke="#074391" stroke-width="3">
        <rect width="96" height="33" stroke="none"/>
        <rect x="1.5" y="1.5" width="93" height="30" fill="none"/>
      </g>
      <text id="Process-8" data-name="Process" transform="translate(22 28)" fill="#074391" stroke="rgba(0,0,0,0)" stroke-width="3" font-size="10" font-family="GiraSans-Regular, Gira Sans"><tspan x="0" y="0">Activity History</tspan></text>
    </g>
    <text id="Process-9" data-name="Process" transform="translate(546 18576)" fill="#c4123c" stroke="rgba(0,0,0,0)" stroke-width="3" font-size="10" font-family="GiraSans-Regular, Gira Sans"><tspan x="0" y="0">*Child profile required*</tspan></text>
    <g id="color2-9" data-name="color2" transform="translate(751 18485)">
      <rect id="Rectangle_16-9" data-name="Rectangle 16" width="94" height="33" rx="8" transform="translate(12 8)" fill="#074391"/>
      <text id="Process-10" data-name="Process" transform="translate(22 28)" fill="#fff" font-size="10" font-family="GiraSans-Regular, Gira Sans"><tspan x="0" y="0">View Statistics</tspan></text>
    </g>
    <g id="color2-10" data-name="color2" transform="translate(751 18548)">
      <rect id="Rectangle_16-10" data-name="Rectangle 16" width="69" height="33" rx="8" transform="translate(12 8)" fill="#074391"/>
      <text id="Process-11" data-name="Process" transform="translate(22 28)" fill="#fff" font-size="10" font-family="GiraSans-Regular, Gira Sans"><tspan x="0" y="0">My Profile</tspan></text>
    </g>
    <g id="color2-11" data-name="color2" transform="translate(855 18548)">
      <rect id="Rectangle_16-11" data-name="Rectangle 16" width="80" height="33" rx="8" transform="translate(12 8)" fill="#074391"/>
      <text id="Process-12" data-name="Process" transform="translate(22 28)" fill="#fff" font-size="10" font-family="GiraSans-Regular, Gira Sans"><tspan x="0" y="0">Child Profile</tspan></text>
    </g>
    <g id="Group_91" data-name="Group 91" transform="translate(466 18460)">
      <g id="Ellipse_13" data-name="Ellipse 13" fill="none" stroke="#08b430" stroke-width="3">
        <circle cx="19.5" cy="19.5" r="19.5" stroke="none"/>
        <circle cx="19.5" cy="19.5" r="18" fill="none"/>
      </g>
      <path id="Icon_awesome-check" data-name="Icon awesome-check" d="M6.02,18,.26,12.035a.942.942,0,0,1,0-1.3l1.253-1.3a.864.864,0,0,1,1.253,0l3.88,4.021,8.311-8.612a.864.864,0,0,1,1.253,0l1.253,1.3a.942.942,0,0,1,0,1.3L7.273,18A.864.864,0,0,1,6.02,18Z" transform="translate(11.138 8.074)" fill="#08b430"/>
    </g>
    <g id="Group_2926" data-name="Group 2926" transform="translate(559 18366)">
      <g id="Ellipse_11" data-name="Ellipse 11" fill="none" stroke="#c4123c" stroke-width="3">
        <circle cx="19.5" cy="19.5" r="19.5" stroke="none"/>
        <circle cx="19.5" cy="19.5" r="18" fill="none"/>
      </g>
      <path id="Icon_awesome-times" data-name="Icon awesome-times" d="M9.228,12.317l3.8-3.8a1.2,1.2,0,0,0,0-1.691l-.846-.846a1.2,1.2,0,0,0-1.691,0l-3.8,3.8-3.8-3.8a1.2,1.2,0,0,0-1.691,0L.35,6.821a1.2,1.2,0,0,0,0,1.691l3.8,3.8-3.8,3.8a1.2,1.2,0,0,0,0,1.691l.846.846a1.2,1.2,0,0,0,1.691,0l3.8-3.8,3.8,3.8a1.2,1.2,0,0,0,1.691,0l.846-.846a1.2,1.2,0,0,0,0-1.691Z" transform="translate(12.808 7.184)" fill="#c4123c"/>
    </g>
    <path id="Path_18-23" data-name="Path 18" d="M6.341,0,4.449,2.278l-.791.953a.633.633,0,0,1-.974,0L0,0" transform="translate(727.169 18419.459) rotate(180)" fill="none" stroke="#404064" stroke-linecap="round" stroke-width="2"/>
    <path id="Path_18-24" data-name="Path 18" d="M6.341,0,4.449,2.278l-.791.953a.633.633,0,0,1-.974,0L0,0" transform="translate(748.501 18576.17) rotate(-90)" fill="none" stroke="#404064" stroke-linecap="round" stroke-width="2"/>
    <path id="Path_194" data-name="Path 194" d="M27.959,157H8a8,8,0,0,1-8-8V.02" transform="translate(724 18416)" fill="none" stroke="#404064" stroke-width="2"/>
    <path id="Path_195" data-name="Path 195" d="M83,.83V23a8,8,0,0,1-8,8H3.241" transform="translate(883 18416)" fill="none" stroke="#404064" stroke-width="2"/>
    <rect id="Rectangle_1435" data-name="Rectangle 1435" width="19" height="6" transform="translate(715 18479)" fill="#ededf4"/>
    <path id="Path_197" data-name="Path 197" d="M1084.981-5413.332l50.1-78.959H1155.5" transform="translate(-421 23971)" fill="none" stroke="#c4123c" stroke-linecap="round" stroke-width="2"/>
    <g id="Group_108-18" data-name="Group 108" transform="translate(787.5 18283.285) rotate(90)">
      <path id="Path_18-25" data-name="Path 18" d="M6.341,0,4.449,2.278l-.791.953a.633.633,0,0,1-.974,0L0,0" transform="matrix(-0.035, -0.999, 0.999, -0.035, 69.139, 110.228)" fill="none" stroke="#404064" stroke-linecap="round" stroke-width="2"/>
      <g id="arrows_dark_arrow_1-17" data-name="arrows dark/arrow 1" transform="translate(42 107)">
        <path id="Line-17" data-name="Line" d="M.5,1.5H30.1" transform="translate(-0.5 -1.5)" fill="none" stroke="#404064" stroke-linecap="round" stroke-miterlimit="10" stroke-width="2"/>
      </g>
    </g>
  </g>
</svg>
