<svg xmlns="http://www.w3.org/2000/svg" width="144.26" height="129.588" viewBox="0 0 144.26 129.588">
  <g id="Group_4512" data-name="Group 4512" transform="translate(-1030.62 -4552.998)">
    <path id="Path_996" data-name="Path 996" d="M637.847,95.115c-4.44,1.5-12.55,3.24-23.49,1.36-1.57-.26-3.2-.6-4.88-1.03-19.45-4.93-26.31,2.86-25.63,8.57,1.12,9.47,15.21,7.47,22.39,10.56,7.3,3.15,9.11,11.01,18.7,11.01,9.9.01,9.45-7.65,19.35-8.37,10.3-.76,11.7,7.92,19.21,7.47,9.03-.54,7.17-8.04,16.79-9.22,9.21-1.13,13.66,6.74,21.58,3.91,9.11-3.26,4.19-11.47,11.05-14.24,9.83-3.97,7.65-11.78,4.16-14.26-5.16-3.67-12.73-1.53-18.55.5" transform="translate(450.844 4553)" fill="none" stroke="#404064" stroke-linecap="round" stroke-linejoin="round" stroke-width="8"/>
    <path id="Path_997" data-name="Path 997" d="M630.607,50.6c-1.03,17.08,2.51,34.62,7.24,44.51a21.266,21.266,0,0,0,4.46,6.6s5.37,2.99,22.46,2.52c1.01-.03,1.99-.06,2.94-.11,14.51-.73,21.27-3.65,21.27-3.65a34.347,34.347,0,0,0,9.55-9.1c19.12-25.89,22.919-84.435-22.911-87.265C655.5,2.87,642.317,12.335,636.157,26" transform="translate(450.844 4553)" fill="none" stroke="#404064" stroke-linecap="round" stroke-linejoin="round" stroke-width="8"/>
    <path id="Path_998" data-name="Path 998" d="M667.7,104.123a74.907,74.907,0,0,1-11.036-39.262c0-20.136,11.815-25.246,19.463-24.468,6.45.656,12.712,4.554,13.966,13.693,1.211,8.821-1.752,19.69-9.467,19.15-8.212-.575-10.335-10.113-6.3-16.761" transform="translate(450.844 4553)" fill="none" stroke="#404064" stroke-linecap="round" stroke-linejoin="round" stroke-width="8"/>
    <path id="Path_999" data-name="Path 999" d="M649.282,55.228c-.6,2.983-2.4,5.136-4.023,4.808s-2.443-3.01-1.841-5.993,2.4-5.135,4.023-4.808,2.444,3.01,1.841,5.993" transform="translate(450.844 4553)" fill="#404064"/>
    <path id="Path_1000" data-name="Path 1000" d="M656.88,36.01c-2.007,2.655-4.8,3.924-6.244,2.834s-.982-4.125,1.025-6.78,4.8-3.924,6.244-2.834.982,4.125-1.025,6.78" transform="translate(450.844 4553)" fill="#404064"/>
    <path id="Path_1001" data-name="Path 1001" d="M693.006,36.02c-1.724-2.655-1.953-5.566-.511-6.5s4.007.458,5.731,3.113,1.952,5.567.511,6.5-4.007-.459-5.731-3.114" transform="translate(450.844 4553)" fill="#404064"/>
    <path id="Path_1002" data-name="Path 1002" d="M698.633,55.643c.173-2.031,1.207-3.6,2.31-3.506s1.855,1.816,1.682,3.847-1.208,3.6-2.31,3.506-1.855-1.817-1.682-3.847" transform="translate(450.844 4553)" fill="#404064"/>
    <path id="Path_1003" data-name="Path 1003" d="M675.368,29.564c-4.737-.4-8.394-2.994-8.168-5.8s4.249-4.764,8.986-4.368,8.394,2.994,8.168,5.8-4.249,4.764-8.986,4.368" transform="translate(450.844 4553)" fill="#404064"/>
    <path id="Path_1004" data-name="Path 1004" d="M602.877,46.585c1.37,10.61-1.04,33.97-1.88,46.68" transform="translate(450.844 4553)" fill="none" stroke="#404064" stroke-linecap="round" stroke-linejoin="round" stroke-width="8"/>
    <path id="Path_1005" data-name="Path 1005" d="M614.357,96.485v-.01c.73-11.03,1.73-31.7,4.35-44.46" transform="translate(450.844 4553)" fill="none" stroke="#404064" stroke-linecap="round" stroke-linejoin="round" stroke-width="8"/>
    <path id="Path_1006" data-name="Path 1006" d="M608.7,44.615a15.11,15.11,0,0,1-5.82,1.97,14.172,14.172,0,0,1-1.97.13,15.6,15.6,0,0,1-13.82-8.37v-.01a15.572,15.572,0,0,1-1.65-9.14v-.01a15.588,15.588,0,0,1,28.18-7.07" transform="translate(450.844 4553)" fill="none" stroke="#404064" stroke-linecap="round" stroke-linejoin="round" stroke-width="8"/>
    <circle id="Ellipse_292" data-name="Ellipse 292" cx="16.609" cy="16.609" r="16.609" transform="translate(1055.524 4574.031) rotate(-5.655)" fill="none" stroke="#404064" stroke-linecap="round" stroke-linejoin="round" stroke-width="8"/>
    <path id="Path_1007" data-name="Path 1007" d="M623.407,36.814a7.621,7.621,0,1,1-7.621-7.621,7.621,7.621,0,0,1,7.621,7.621" transform="translate(450.844 4553)" fill="#404064"/>
    <path id="Path_1008" data-name="Path 1008" d="M599.815,32.694a7.618,7.618,0,0,1-12.73,5.65v-.009a15.575,15.575,0,0,1-1.65-9.141v-.03a7.625,7.625,0,0,1,14.38,3.53" transform="translate(450.844 4553)" fill="#404064"/>
  </g>
</svg>
