<?xml version="1.0" encoding="UTF-8"?><svg id="Layer_1" xmlns="http://www.w3.org/2000/svg" viewBox="0 0 96.95 117.8"><defs><style>.cls-1{fill:none;stroke:#404064;stroke-linecap:round;stroke-linejoin:round;stroke-width:5px;}</style></defs><g id="Group_3209"><path id="Path_488" class="cls-1" d="M59.3,115.3h29.74c2.99,0,5.41-2.42,5.41-5.41h0V7.91c0-2.99-2.42-5.41-5.41-5.41H28.16c-2.98,0-5.4,2.41-5.41,5.39l-.17,48.44"/><g id="Group_3208"><path id="Path_489" class="cls-1" d="M22.33,87.34l.23,17.23c-3.48,.22-9.97,.2-14.23,.11l3.01,10.04,19.81,.16c5.12,0,6.68-.04,7.29-.38,5.63-3.1,11.19-13.5,10.65-20.63l-12.01,3.51v-11.13"/></g><path id="Path_493" class="cls-1" d="M33.6,72.38l2.03,8.6c.06,.28,.09,.56,.09,.84-.04,1.52-1.09,2.82-2.57,3.17l-6.17,1.46c-1.48,.35-3.01-.35-3.72-1.7-.13-.25-.23-.51-.29-.78l-2.03-8.6c-.06-.28-.09-.56-.09-.84,.04-1.52,1.09-2.82,2.57-3.17l6.17-1.46c1.48-.35,3.01,.35,3.72,1.7,.13,.25,.23,.51,.29,.79Z"/><path id="Path_494" class="cls-1" d="M22.96,83.97c.06,.27,.16,.53,.29,.78-5.37,5.99-15.66,15.44-18.56,3.14l-1.75-7.43c-3.03-12.86,10.38-8.99,17.9-5.95,0,.28,.02,.57,.09,.84l2.04,8.61Z"/><path id="Path_495" class="cls-1" d="M51.87,68.45l1.75,7.43c3.04,12.86-10.38,8.99-17.9,5.95,0-.28-.02-.57-.09-.84l-2.03-8.6c-.06-.27-.16-.53-.29-.78,5.37-5.99,15.65-15.44,18.56-3.15Z"/><line id="Line_768" class="cls-1" x1="43.49" y1="74.59" x2="34.61" y2="76.68"/><line id="Line_769" class="cls-1" x1="21.95" y1="79.67" x2="13.06" y2="81.77"/><path id="Rectangle_1666" class="cls-1" d="M58.59,13.85h0c11.86,0,21.48,9.62,21.48,21.48v12.52H37.1v-12.52c0-11.86,9.62-21.48,21.48-21.48Z"/><circle id="Ellipse_223" class="cls-1" cx="74.93" cy="77.3" r="7.28"/></g></svg>