<svg xmlns="http://www.w3.org/2000/svg" width="122.294" height="121.162" viewBox="0 0 122.294 121.162">
  <g id="Group_4514" data-name="Group 4514" transform="translate(-740.213 -4557.57)">
    <path id="Path_989" data-name="Path 989" d="M302.639,34.528c5.33,3.365,11.526,11.9,8.084,25.18a26.861,26.861,0,0,1-14.45,17.513" transform="translate(450.844 4553)" fill="none" stroke="#404064" stroke-linecap="round" stroke-linejoin="round" stroke-width="8"/>
    <path id="Path_990" data-name="Path 990" d="M340.842,100.7c0,2.758-.043,4.387-1.483,4.507-1.65.138-1.48-1.922-1.48-4.507,0-2.049-.186-3.745,1.44-3.849C341.186,96.736,340.842,98.922,340.842,100.7Z" transform="translate(450.844 4553)" fill="none" stroke="#404064" stroke-linecap="round" stroke-linejoin="round" stroke-width="8"/>
    <path id="Path_991" data-name="Path 991" d="M386,98.829c7.522,0,20.659-12.946,21.569-30.924C409.049,38.682,389.946,8.57,350.516,8.57S291.982,38.682,293.462,67.9c.91,17.978,14.047,30.924,21.569,30.924" transform="translate(450.844 4553)" fill="none" stroke="#404064" stroke-linecap="round" stroke-linejoin="round" stroke-width="8"/>
    <path id="Path_992" data-name="Path 992" d="M350.516,121.733c19.971,0,35.518-5.234,35.518-21.956,0-10.085-11.041-17.488-35.518-17.488S315,89.692,315,99.777C315,116.5,330.545,121.733,350.516,121.733Z" transform="translate(450.844 4553)" fill="none" stroke="#404064" stroke-linecap="round" stroke-linejoin="round" stroke-width="8"/>
    <path id="Path_993" data-name="Path 993" d="M350.516,68.713c13.572,0,25.482-7.744,25.482-22.77,0-17.285-11.9-24.352-25.482-24.352s-25.482,7.067-25.482,24.352C325.034,60.969,336.944,68.713,350.516,68.713Z" transform="translate(450.844 4553)" fill="none" stroke="#404064" stroke-linecap="round" stroke-linejoin="round" stroke-width="8"/>
    <path id="Path_994" data-name="Path 994" d="M360.19,100.7c0,2.758.043,4.387,1.483,4.507,1.65.138,1.48-1.922,1.48-4.507,0-2.049.186-3.745-1.44-3.849C359.846,96.736,360.19,98.922,360.19,100.7Z" transform="translate(450.844 4553)" fill="none" stroke="#404064" stroke-linecap="round" stroke-linejoin="round" stroke-width="8"/>
    <path id="Path_995" data-name="Path 995" d="M398.392,34.528c-5.33,3.365-11.526,11.9-8.084,25.18a26.861,26.861,0,0,0,14.45,17.513" transform="translate(450.844 4553)" fill="none" stroke="#404064" stroke-linecap="round" stroke-linejoin="round" stroke-width="8"/>
  </g>
</svg>
