<svg xmlns="http://www.w3.org/2000/svg" width="137.608" height="137.059" viewBox="0 0 137.608 137.059">
  <g id="Group_4513" data-name="Group 4513" transform="translate(-1331.546 -4553)">
    <path id="Path_1009" data-name="Path 1009" d="M899.581,129.122c8.989-25.768,51.484-16.452,52.944-32.26,1.139-12.342-25.48-10.4-24.345-28.082.527-8.221,7.249-13.127,8.773-14.1" transform="translate(450.844 4553)" fill="none" stroke="#404064" stroke-linecap="round" stroke-linejoin="round" stroke-width="8"/>
    <path id="Path_1010" data-name="Path 1010" d="M949.161,131.8c9.789-22.689,39.954-16.368,41.812-32.812,2.522-22.312-41.812-20.021-39.856-35.136.657-5.079,6.115-7.357,8.178-8.319h-3.781" transform="translate(450.844 4553)" fill="none" stroke="#404064" stroke-linecap="round" stroke-linejoin="round" stroke-width="8"/>
    <path id="Path_1011" data-name="Path 1011" d="M914.393,56.171c28.934-3.965,59.985.475,84.846,7.574" transform="translate(450.844 4553)" fill="none" stroke="#404064" stroke-linecap="round" stroke-linejoin="round" stroke-width="8"/>
    <path id="Path_1012" data-name="Path 1012" d="M957.2,55.7a11.97,11.97,0,1,0-20.993-1" transform="translate(450.844 4553)" fill="none" stroke="#404064" stroke-linecap="round" stroke-linejoin="round" stroke-width="8"/>
    <line id="Line_1904" data-name="Line 1904" x1="0.03" y1="6.22" transform="translate(1397.805 4571.52)" fill="none" stroke="#404064" stroke-linecap="round" stroke-linejoin="round" stroke-width="8"/>
    <line id="Line_1905" data-name="Line 1905" y1="4.885" x2="3.851" transform="translate(1410.102 4577.152)" fill="none" stroke="#404064" stroke-linecap="round" stroke-linejoin="round" stroke-width="8"/>
    <line id="Line_1906" data-name="Line 1906" x1="3.851" y1="4.885" transform="translate(1381.672 4577.152)" fill="none" stroke="#404064" stroke-linecap="round" stroke-linejoin="round" stroke-width="8"/>
    <path id="Path_1013" data-name="Path 1013" d="M899.524,23.577s-33.355,59.041,0,59.041S899.524,23.577,899.524,23.577Z" transform="translate(450.844 4553)" fill="none" stroke="#404064" stroke-linecap="round" stroke-linejoin="round" stroke-width="8"/>
    <line id="Line_1907" data-name="Line 1907" y2="12.321" transform="translate(1350.368 4635.617)" fill="none" stroke="#404064" stroke-linecap="round" stroke-linejoin="round" stroke-width="8"/>
    <path id="Path_1014" data-name="Path 1014" d="M999.487,4s-33.356,59.041,0,59.041S999.487,4,999.487,4Z" transform="translate(450.844 4553)" fill="none" stroke="#404064" stroke-linecap="round" stroke-linejoin="round" stroke-width="8"/>
    <line id="Line_1908" data-name="Line 1908" y2="12.321" transform="translate(1450.331 4616.041)" fill="none" stroke="#404064" stroke-linecap="round" stroke-linejoin="round" stroke-width="8"/>
    <path id="Path_1015" data-name="Path 1015" d="M957.2,55.7a11.97,11.97,0,1,0-20.993-1" transform="translate(450.844 4553)" fill="none" stroke="#404064" stroke-linecap="round" stroke-linejoin="round" stroke-width="8"/>
    <line id="Line_1909" data-name="Line 1909" x1="0.03" y1="6.22" transform="translate(1397.805 4571.52)" fill="none" stroke="#404064" stroke-linecap="round" stroke-linejoin="round" stroke-width="8"/>
    <line id="Line_1910" data-name="Line 1910" y1="4.885" x2="3.851" transform="translate(1410.102 4577.152)" fill="none" stroke="#404064" stroke-linecap="round" stroke-linejoin="round" stroke-width="8"/>
    <line id="Line_1911" data-name="Line 1911" y1="3.062" x2="5.415" transform="translate(1419.695 4589.199)" fill="none" stroke="#404064" stroke-linecap="round" stroke-linejoin="round" stroke-width="8"/>
    <line id="Line_1912" data-name="Line 1912" x1="5.358" y1="3.159" transform="translate(1370.69 4588.416)" fill="none" stroke="#404064" stroke-linecap="round" stroke-linejoin="round" stroke-width="8"/>
  </g>
</svg>
