<?xml version="1.0" encoding="utf-8"?>
<!-- Generator: Adobe Illustrator 26.5.3, SVG Export Plug-In . SVG Version: 6.00 Build 0)  -->
<svg version="1.1" id="Group_1532" xmlns="http://www.w3.org/2000/svg" xmlns:xlink="http://www.w3.org/1999/xlink" x="0px" y="0px"
	 viewBox="0 0 214.2 129.1" style="enable-background:new 0 0 214.2 129.1;" xml:space="preserve">
<style type="text/css">
	.st0{fill:#074391;}
	.st1{enable-background:new    ;}
</style>
<path id="Path_12" class="st0" d="M142,38.9c0,0-4,7.5-9,9.9c3.8-18.6-12.2-27.1-12.3-27.2l-0.1-0.1c0.1-1.6,0.3-3.1,0.5-4.7
	c0,0,2.4-12.5,11.7-16.9C132.7,0,153,12.1,142,38.9z"/>
<path id="Path_13" class="st0" d="M132.4,48.9c-2.1,0.1-13.4,0.3-19.9-10.5c0,0-5.9-10.3-2.4-19.4c3.6,0,7.1,0.9,10.3,2.7v0.1
	C118.7,32.4,123.4,43,132.4,48.9z"/>
<path id="Path_15" class="st0" d="M133,45.9c-0.1,0.8-0.2,1.8-0.4,2.7c-7.8-5.2-12.4-14.1-12.1-23.5c0-0.9,0.1-1.9,0.2-2.9
	c4.9,3,8.8,7.4,10.9,12.8C132.9,38.4,133.4,42.2,133,45.9z"/>
<path id="Path_16" class="st0" d="M83.1,71.9c0.3,11.3,7.7,19.6,20.9,19.6c13.6,0,17.1-8.8,18.7-12.9h3.9
	c-3.7,11.4-11.4,16.5-23,16.5c-15,0-24.4-9.4-24.4-24.4c0-9.5,5.8-23.7,24.5-23.7c15.2,0,24,10.4,24.1,24.9L83.1,71.9z M123.3,68.4
	c-1.6-12.4-10-17.9-20.1-17.9c-11.3,0-18.4,7.1-20.1,17.9H123.3z"/>
<path id="Path_17" class="st0" d="M54.1,48.2h4.1v10.4h0.2c3-7.7,10-11.8,18.9-11.8c1.2,0,2.3,0.2,3.4,0.5v4
	c-1.5-0.4-3.1-0.6-4.7-0.5c-11.8,0-17.7,8.7-17.7,17.6v23.8h-4.1L54.1,48.2z"/>
<path id="Path_18" class="st0" d="M182.9,49.6h4.1V60h0.1c3-7.7,10-11.8,18.9-11.8c1.2,0,2.3,0.2,3.4,0.5v4
	c-1.5-0.4-3.1-0.6-4.7-0.5c-11.8,0-17.7,8.7-17.7,17.6v23.8h-4.1V49.6z"/>
<path id="Path_19" class="st0" d="M25.2,48.1c-13.5,0-24.5,10.4-24.5,23.3v37.7l4.2-4.2V84.5C9.7,91,17.2,94.8,25.2,94.7
	c13.5,0,24.5-10.4,24.5-23.3S38.7,48.1,25.2,48.1z M25.2,90.5C14,90.5,4.9,81.9,4.9,71.4S14,52.4,25.2,52.4s20.3,8.5,20.3,19.1
	S36.4,90.5,25.2,90.5z"/>
<path id="Path_20" class="st0" d="M153.4,48.1c-13.5,0-24.5,10.4-24.5,23.3v37.7l4.2-4.2V84.5c4.7,6.5,12.3,10.3,20.3,10.2
	c13.5,0,24.5-10.4,24.5-23.3S166.9,48.1,153.4,48.1z M153.4,90.5c-11.2,0-20.3-8.5-20.3-19.1s9.1-19.1,20.3-19.1s20.3,8.5,20.3,19.1
	S164.6,90.5,153.4,90.5z"/>
<g class="st1">
	<path class="st0" d="M6,128.8c-0.6,0.3-1.2,0.5-2,0.5c-1,0-1.9-0.3-2.5-1c-0.6-0.6-1-1.5-1-2.5c0-1.2,0.3-2.1,1-2.8
		c0.7-0.7,1.6-1,2.8-1c0.6,0,1.2,0.1,1.7,0.3v1.5c-0.5-0.4-1-0.5-1.6-0.5c-0.7,0-1.2,0.2-1.6,0.7c-0.4,0.5-0.6,1-0.6,1.8
		c0,0.7,0.2,1.3,0.6,1.7s0.9,0.6,1.6,0.6c0.6,0,1.1-0.2,1.6-0.6V128.8z"/>
</g>
<g class="st1">
	<path class="st0" d="M10.6,129.3c-1.1,0-1.9-0.3-2.6-1c-0.6-0.7-1-1.5-1-2.6c0-1.2,0.3-2.1,1-2.8s1.6-1,2.7-1c1.1,0,1.9,0.3,2.6,1
		s0.9,1.5,0.9,2.7c0,1.1-0.3,2-1,2.7C12.6,129,11.7,129.3,10.6,129.3z M10.7,123.2c-0.6,0-1.1,0.2-1.5,0.6s-0.5,1-0.5,1.8
		c0,0.7,0.2,1.3,0.5,1.7c0.4,0.4,0.9,0.6,1.5,0.6c0.6,0,1.1-0.2,1.4-0.6s0.5-1,0.5-1.8c0-0.8-0.2-1.4-0.5-1.8S11.3,123.2,10.7,123.2
		z"/>
</g>
<g class="st1">
	<path class="st0" d="M19.7,125.9h-3.7v-1.2h3.7V125.9z"/>
	<path class="st0" d="M27.2,129.1h-5.4v-9.8h1.6v8.4h3.8V129.1z"/>
	<path class="st0" d="M34.1,129.1h-5.5v-9.8h5.3v1.4h-3.7v2.8h3.4v1.4h-3.4v2.9h3.9V129.1z"/>
	<path class="st0" d="M44.1,129.1h-1.8l-0.9-2.5h-3.9l-0.8,2.5h-1.8l3.7-9.8h1.8L44.1,129.1z M41,125.3l-1.4-3.9
		c0-0.1-0.1-0.3-0.1-0.6h0c0,0.3-0.1,0.5-0.1,0.6l-1.3,3.9H41z"/>
	<path class="st0" d="M53,129.1h-1.9l-1.6-2.6c-0.1-0.2-0.3-0.4-0.4-0.6c-0.1-0.2-0.3-0.3-0.4-0.4s-0.3-0.2-0.5-0.2
		s-0.3-0.1-0.6-0.1H47v4h-1.6v-9.8h3.2c0.5,0,0.9,0.1,1.3,0.2s0.7,0.3,1,0.5c0.3,0.2,0.5,0.5,0.7,0.8c0.2,0.3,0.2,0.7,0.2,1.2
		c0,0.3-0.1,0.7-0.2,1c-0.1,0.3-0.2,0.5-0.4,0.8c-0.2,0.2-0.4,0.4-0.7,0.6s-0.6,0.3-0.9,0.4v0c0.2,0.1,0.3,0.2,0.5,0.3
		c0.1,0.1,0.3,0.2,0.4,0.4s0.2,0.3,0.4,0.4c0.1,0.2,0.2,0.3,0.4,0.6L53,129.1z M47,120.7v3.2h1.4c0.3,0,0.5,0,0.7-0.1
		s0.4-0.2,0.6-0.3s0.3-0.3,0.4-0.5s0.1-0.4,0.1-0.7c0-0.5-0.1-0.8-0.4-1.1s-0.7-0.4-1.3-0.4H47z"/>
	<path class="st0" d="M62.4,129.1h-1.8l-4.7-7.2c-0.1-0.2-0.2-0.4-0.3-0.6h0c0,0.2,0.1,0.7,0.1,1.3v6.4h-1.6v-9.8H56l4.5,7
		c0.2,0.3,0.3,0.5,0.4,0.6h0c0-0.3-0.1-0.7-0.1-1.3v-6.3h1.6V129.1z"/>
	<path class="st0" d="M65.3,129.3c-0.3,0-0.5-0.1-0.7-0.3c-0.2-0.2-0.3-0.4-0.3-0.6c0-0.3,0.1-0.5,0.3-0.7s0.4-0.3,0.7-0.3
		c0.3,0,0.5,0.1,0.7,0.3s0.3,0.4,0.3,0.7c0,0.3-0.1,0.5-0.3,0.6C65.8,129.2,65.6,129.3,65.3,129.3z"/>
</g>
<g class="st1">
	<path class="st0" d="M76.9,128.8c-0.6,0.3-1.2,0.5-2,0.5c-1,0-1.9-0.3-2.5-1c-0.6-0.6-1-1.5-1-2.5c0-1.2,0.3-2.1,1-2.8
		c0.7-0.7,1.6-1,2.8-1c0.6,0,1.2,0.1,1.7,0.3v1.5c-0.5-0.4-1-0.5-1.6-0.5c-0.7,0-1.2,0.2-1.6,0.7c-0.4,0.5-0.6,1-0.6,1.8
		c0,0.7,0.2,1.3,0.6,1.7s0.9,0.6,1.6,0.6c0.6,0,1.1-0.2,1.6-0.6V128.8z"/>
</g>
<g class="st1">
	<path class="st0" d="M81.4,129.3c-1.1,0-1.9-0.3-2.6-1c-0.6-0.7-1-1.5-1-2.6c0-1.2,0.3-2.1,1-2.8s1.6-1,2.7-1c1.1,0,1.9,0.3,2.6,1
		s0.9,1.5,0.9,2.7c0,1.1-0.3,2-1,2.7C83.4,129,82.6,129.3,81.4,129.3z M81.5,123.2c-0.6,0-1.1,0.2-1.5,0.6s-0.5,1-0.5,1.8
		c0,0.7,0.2,1.3,0.5,1.7c0.4,0.4,0.9,0.6,1.5,0.6c0.6,0,1.1-0.2,1.4-0.6s0.5-1,0.5-1.8c0-0.8-0.2-1.4-0.5-1.8S82.1,123.2,81.5,123.2
		z"/>
</g>
<g class="st1">
	<path class="st0" d="M90.7,125.9h-3.7v-1.2h3.7V125.9z"/>
	<path class="st0" d="M98.2,129.1h-5.4v-9.8h1.6v8.4h3.8V129.1z"/>
	<path class="st0" d="M108,129.1h-1.8l-0.9-2.5h-3.9l-0.8,2.5h-1.8l3.7-9.8h1.8L108,129.1z M104.9,125.3l-1.4-3.9
		c0-0.1-0.1-0.3-0.1-0.6h0c0,0.3-0.1,0.5-0.1,0.6l-1.3,3.9H104.9z"/>
</g>
<g class="st1">
	<path class="st0" d="M109.4,129.1v-9.8h3.1c0.9,0,1.7,0.2,2.3,0.6s0.8,1,0.8,1.6c0,0.6-0.2,1-0.5,1.4s-0.7,0.7-1.3,0.9v0
		c0.7,0.1,1.2,0.3,1.6,0.7c0.4,0.4,0.6,1,0.6,1.6c0,0.8-0.3,1.5-1,2c-0.7,0.5-1.5,0.8-2.5,0.8H109.4z M111,120.6v2.8h1.1
		c0.6,0,1-0.1,1.3-0.4c0.3-0.3,0.5-0.6,0.5-1.1c0-0.8-0.6-1.3-1.7-1.3H111z M111,124.7v3.1h1.4c0.6,0,1.1-0.1,1.4-0.4
		c0.3-0.3,0.5-0.7,0.5-1.2c0-1-0.7-1.5-2.1-1.5H111z"/>
</g>
<g class="st1">
	<path class="st0" d="M118.2,129.3c-0.3,0-0.5-0.1-0.7-0.3c-0.2-0.2-0.3-0.4-0.3-0.6c0-0.3,0.1-0.5,0.3-0.7s0.4-0.3,0.7-0.3
		c0.3,0,0.5,0.1,0.7,0.3c0.2,0.2,0.3,0.4,0.3,0.7c0,0.3-0.1,0.5-0.3,0.6C118.7,129.2,118.5,129.3,118.2,129.3z"/>
</g>
<g class="st1">
	<path class="st0" d="M129.8,128.8c-0.6,0.3-1.2,0.5-2,0.5c-1,0-1.9-0.3-2.5-1c-0.6-0.6-1-1.5-1-2.5c0-1.2,0.3-2.1,1-2.8
		c0.7-0.7,1.6-1,2.8-1c0.6,0,1.2,0.1,1.7,0.3v1.5c-0.5-0.4-1-0.5-1.6-0.5c-0.7,0-1.2,0.2-1.6,0.7c-0.4,0.5-0.6,1-0.6,1.8
		c0,0.7,0.2,1.3,0.6,1.7c0.4,0.4,0.9,0.6,1.6,0.6c0.6,0,1.1-0.2,1.6-0.6V128.8z"/>
</g>
<g class="st1">
	<path class="st0" d="M134.3,129.3c-1.1,0-1.9-0.3-2.6-1c-0.6-0.7-1-1.5-1-2.6c0-1.2,0.3-2.1,1-2.8c0.7-0.7,1.6-1,2.7-1
		c1.1,0,1.9,0.3,2.6,1c0.6,0.6,0.9,1.5,0.9,2.7c0,1.1-0.3,2-1,2.7C136.3,129,135.4,129.3,134.3,129.3z M134.4,123.2
		c-0.6,0-1.1,0.2-1.5,0.6c-0.4,0.4-0.5,1-0.5,1.8c0,0.7,0.2,1.3,0.5,1.7c0.4,0.4,0.9,0.6,1.5,0.6c0.6,0,1.1-0.2,1.4-0.6
		s0.5-1,0.5-1.8c0-0.8-0.2-1.4-0.5-1.8S135,123.2,134.4,123.2z"/>
</g>
<g class="st1">
	<path class="st0" d="M143.4,125.9h-3.7v-1.2h3.7V125.9z"/>
	<path class="st0" d="M145.1,128.7v-1.7c0.2,0.1,0.3,0.3,0.5,0.4c0.2,0.1,0.4,0.2,0.7,0.3c0.2,0.1,0.5,0.1,0.7,0.2s0.4,0.1,0.6,0.1
		c0.7,0,1.2-0.1,1.5-0.3c0.3-0.2,0.5-0.6,0.5-1c0-0.2-0.1-0.4-0.2-0.6c-0.1-0.2-0.3-0.3-0.5-0.5s-0.4-0.3-0.7-0.4
		c-0.3-0.1-0.6-0.3-0.9-0.4c-0.3-0.2-0.6-0.4-0.9-0.5s-0.5-0.4-0.7-0.6c-0.2-0.2-0.4-0.5-0.5-0.7c-0.1-0.3-0.2-0.6-0.2-1
		c0-0.5,0.1-0.9,0.3-1.2c0.2-0.3,0.5-0.6,0.8-0.8c0.3-0.2,0.7-0.4,1.2-0.5c0.4-0.1,0.9-0.2,1.3-0.2c1,0,1.8,0.1,2.2,0.3v1.6
		c-0.6-0.4-1.3-0.6-2.1-0.6c-0.2,0-0.5,0-0.7,0.1c-0.2,0-0.5,0.1-0.6,0.2c-0.2,0.1-0.3,0.2-0.5,0.4s-0.2,0.4-0.2,0.6
		c0,0.2,0,0.4,0.1,0.6s0.2,0.3,0.4,0.4c0.2,0.1,0.4,0.3,0.6,0.4c0.3,0.1,0.5,0.3,0.9,0.4c0.3,0.2,0.7,0.4,1,0.6
		c0.3,0.2,0.6,0.4,0.8,0.6c0.2,0.2,0.4,0.5,0.5,0.8c0.1,0.3,0.2,0.6,0.2,1c0,0.5-0.1,0.9-0.3,1.3s-0.5,0.6-0.8,0.8
		c-0.3,0.2-0.7,0.4-1.2,0.5s-0.9,0.1-1.4,0.1c-0.2,0-0.4,0-0.6,0c-0.2,0-0.5-0.1-0.7-0.1c-0.2,0-0.5-0.1-0.7-0.2
		S145.2,128.8,145.1,128.7z"/>
	<path class="st0" d="M157.2,129.3c-1.4,0-2.5-0.5-3.4-1.4c-0.9-0.9-1.3-2.1-1.3-3.6c0-1.6,0.4-2.8,1.3-3.8s2-1.4,3.5-1.4
		c1.4,0,2.5,0.5,3.3,1.4c0.8,0.9,1.3,2.1,1.3,3.6c0,1.6-0.4,2.9-1.3,3.8S158.6,129.3,157.2,129.3z M157.2,120.6
		c-0.9,0-1.6,0.3-2.2,1c-0.6,0.7-0.8,1.6-0.8,2.6c0,1.1,0.3,2,0.8,2.6s1.3,1,2.1,1c0.9,0,1.7-0.3,2.2-1s0.8-1.5,0.8-2.7
		c0-1.2-0.3-2.1-0.8-2.7C158.9,120.9,158.2,120.6,157.2,120.6z"/>
</g>
<g class="st1">
	<path class="st0" d="M169.1,129.1h-5.4v-9.8h1.6v8.4h3.8V129.1z"/>
</g>
<g class="st1">
	<path class="st0" d="M177.4,119.3l-3.5,9.8h-1.8l-3.5-9.8h1.8l2.4,7.4c0.1,0.2,0.1,0.5,0.2,0.8h0c0-0.3,0.1-0.5,0.2-0.8l2.5-7.4
		H177.4z"/>
	<path class="st0" d="M184.2,129.1h-5.5v-9.8h5.3v1.4h-3.7v2.8h3.4v1.4h-3.4v2.9h3.9V129.1z"/>
	<path class="st0" d="M186.4,129.3c-0.3,0-0.5-0.1-0.7-0.3c-0.2-0.2-0.3-0.4-0.3-0.6c0-0.3,0.1-0.5,0.3-0.7s0.4-0.3,0.7-0.3
		c0.3,0,0.5,0.1,0.7,0.3c0.2,0.2,0.3,0.4,0.3,0.7c0,0.3-0.1,0.5-0.3,0.6C186.9,129.2,186.7,129.3,186.4,129.3z"/>
</g>
<g class="st1">
	<path class="st0" d="M212.7,43.1c-0.4,0-0.8-0.1-1-0.4s-0.4-0.6-0.4-1c0-0.4,0.1-0.7,0.4-1c0.3-0.3,0.6-0.4,1-0.4
		c0.4,0,0.8,0.1,1,0.4c0.3,0.3,0.4,0.6,0.4,1c0,0.4-0.1,0.7-0.4,1C213.5,42.9,213.1,43.1,212.7,43.1z M212.7,40.4
		c-0.3,0-0.6,0.1-0.9,0.4c-0.2,0.2-0.4,0.5-0.4,0.9s0.1,0.6,0.4,0.9c0.2,0.2,0.5,0.4,0.9,0.4c0.3,0,0.6-0.1,0.9-0.4
		c0.2-0.2,0.4-0.5,0.4-0.9s-0.1-0.6-0.4-0.9C213.3,40.5,213.1,40.4,212.7,40.4z M213.5,42.5H213l-0.2-0.4c-0.1-0.2-0.2-0.3-0.3-0.3
		h-0.1v0.7h-0.4v-1.8h0.6c0.2,0,0.4,0,0.5,0.1c0.1,0.1,0.2,0.2,0.2,0.4c0,0.1,0,0.2-0.1,0.3c-0.1,0.1-0.2,0.1-0.3,0.2v0
		c0.1,0,0.2,0.1,0.3,0.3L213.5,42.5z M212.5,41v0.5h0.2c0.2,0,0.3-0.1,0.3-0.3c0-0.1,0-0.2-0.1-0.2c-0.1,0-0.2-0.1-0.3-0.1H212.5z"
		/>
</g>
<g class="st1">
	<path class="st0" d="M198.1,115.3h-0.4v1.2h-0.2v-1.2h-0.4v-0.2h1V115.3z"/>
	<path class="st0" d="M199.8,116.5h-0.2v-0.9c0-0.1,0-0.2,0-0.3h0c0,0.1,0,0.1,0,0.1l-0.4,1H199l-0.4-1c0,0,0-0.1,0-0.1h0
		c0,0.1,0,0.1,0,0.3v0.9h-0.2v-1.4h0.3l0.4,0.9c0,0.1,0,0.1,0.1,0.2h0c0-0.1,0-0.1,0.1-0.2l0.4-0.9h0.3V116.5z"/>
</g>
</svg>
