<svg id="Group_1681" data-name="Group 1681" xmlns="http://www.w3.org/2000/svg" width="118" height="167" viewBox="0 0 118 167">
  <path id="Path_50" data-name="Path 50" d="M131.33,214.588c-13.239.051-24.715-2.554-35.454-8.19a59.4,59.4,0,0,1-17.794-14.065,20.632,20.632,0,1,1,33.623-2.525c-2.253,3.828-1.372,7.277,2.409,9.642a30.277,30.277,0,0,0,13.684,4.327c8.744.759,15.964-2.121,21.11-9.45a19.517,19.517,0,0,0,3.331-10.143c.647-10.044-2.531-18.841-8.925-26.511-5.382-6.457-12.219-10.954-19.819-14.323-8.071-3.578-15.913-7.539-22.918-12.988-6.411-4.987-11.8-10.847-15.253-18.3a38.09,38.09,0,0,1-3.562-15.212,52.39,52.39,0,0,1,1.472-15.4,40.47,40.47,0,0,1,14.1-21.216c5.842-4.7,12.569-7.6,19.709-9.635a67.924,67.924,0,0,1,20.556-2.978c11.7.328,23.175,2.048,34.174,6.276.991.38,1.96.816,2.944,1.211a1.6,1.6,0,0,1,1.078,1.574q.5,10.474,1.051,20.946c.172,3.284.4,6.567.563,9.852.076,1.491-.178,1.718-1.7,1.722q-2.724.008-5.446,0c-1.3-.008-1.527-.2-1.57-1.458a27.178,27.178,0,0,0-8.046-18.829c-4.478-4.507-9.693-7.876-16.058-9.01-6.454-1.15-12.352.072-17.21,4.769a16.53,16.53,0,0,0-4.841,11.577c-.492,10.157,3.667,18.266,11.04,24.955,4.971,4.51,10.9,7.393,16.856,10.3,10.793,5.271,20.694,11.832,28.793,20.846a47.139,47.139,0,0,1,10.581,18.266,40.926,40.926,0,0,1,1.477,14.134,62,62,0,0,1-1.757,11.979,44.366,44.366,0,0,1-14.2,22.987c-7.031,6.057-15.249,9.754-24.117,12.127A73.073,73.073,0,0,1,131.33,214.588Z" transform="translate(-73.37 -47.6)" fill="#074391"/>
</svg>
