<svg id="Made_Logo" data-name="Made Logo" xmlns="http://www.w3.org/2000/svg" width="188.119" height="141.549" viewBox="0 0 188.119 141.549">
  <path id="Path_2" data-name="Path 2" d="M311.907,375.827a29.121,29.121,0,0,0-5.742-11.1l-7.594,10.86Z" transform="translate(-200.484 -314.391)" fill="#074391"/>
  <path id="Path_3" data-name="Path 3" d="M345.616,388.408c-2.053-.373-2.5-2.871-2.5-2.871s-12.2-76.143-13.121-81.154c-.89-4.8,3.912-4.759,3.912-4.759V294.6H306.152v5.025a7.005,7.005,0,0,1,1.952.179s3.639-.23,1.3,3.5-30.743,42.278-30.743,42.278-11.571,14.966-4.946,26.063c4.867,8.161,14.083,8.951,19.955,7.02a16.624,16.624,0,0,0,11.3-14.507v-.036L321.9,363.8c-.208-1.285-.423-2.606-.639-3.948l-16.337-.273h0l-15.619-.287a7.293,7.293,0,0,0-1.838,4.9h6.18s-.151,4.637-4.838,4.637a5.1,5.1,0,0,1-5.147-6.015c.266-1.708,1.206-5.333,9.985-17.04s23.687-33.492,23.687-33.492,10.846,68.133,11.736,72.224-4.271,4.307-4.271,4.307v4.9h22.553v-5.075C346.047,388.48,345.616,388.408,345.616,388.408Z" transform="translate(-192.891 -294.6)" fill="#074391"/>
  <path id="Path_4" data-name="Path 4" d="M182.39,481.09V453.9h5.125l12.813,16.437L212.853,453.9h5.068v27.19h-5.864v-16.8a9.244,9.244,0,0,1,.065-1.235c.065-.517.1-1.055.165-1.672-.345.718-.639,1.285-.9,1.737a9.6,9.6,0,0,1-.718,1.12l-10.214,13.581h-1.263l-10.236-13.638A16.818,16.818,0,0,1,188,462.75a9.441,9.441,0,0,1-.66-1.321c.05.56.093,1.077.115,1.543s.043.9.043,1.335v16.8Z" transform="translate(-167.697 -339.556)" fill="#074391"/>
  <path id="Path_5" data-name="Path 5" d="M243.18,481.09l15.382-27.19h6.1l15.59,27.19h-7.1l-3.273-5.943H252.655l-3.144,5.943Zm12.167-10.853h11.915L261.4,459.176Z" transform="translate(-184.852 -339.556)" fill="#074391"/>
  <path id="Path_6" data-name="Path 6" d="M307,481.09V453.9h17.5q7.479,0,11.485,3.5t4.034,9.934a14.83,14.83,0,0,1-1.565,6.855,11.9,11.9,0,0,1-4.429,4.795,12.682,12.682,0,0,1-4.407,1.608,37.01,37.01,0,0,1-6.754.5Zm6.331-5.118h8.183q6.539,0,9.26-2.031t2.728-6.719q0-4.17-2.261-6.309t-6.69-2.153H313.338Z" transform="translate(-202.863 -339.556)" fill="#074391"/>
  <path id="Path_7" data-name="Path 7" d="M369.2,481.09V453.9h27.85v4.63H375.517V464.6h12.554v4.63H375.517v6.74H397.28v5.118Z" transform="translate(-220.416 -339.556)" fill="#074391"/>
  <path id="Path_8" data-name="Path 8" d="M231.422,410.877c.316-1.436,1.9-11.054,3.8-22.8l-14.033.266c-2.153,13.286-3.783,23.6-3.783,23.6s-.438,2.469-2.491,2.871c0,0-.438.072-1.78.179v5.075h22.553v-4.9S230.532,414.969,231.422,410.877Z" transform="translate(-176.375 -320.981)" fill="#074391"/>
  <path id="Path_9" data-name="Path 9" d="M254.738,303.34c-2.333-3.725,1.3-3.5,1.3-3.5a7.006,7.006,0,0,1,1.952-.179V294.64H230.232v5.025s4.8-.043,3.912,4.759c-.524,2.871-4.7,28.712-8.2,50.5l13.954.266c3.237-20.034,6.876-42.91,6.876-42.91s10.767,15.748,19.38,27.657c2.067-2.814,4.73-6.46,7.566-10.307C265.612,318.586,256.051,305.421,254.738,303.34Z" transform="translate(-179.987 -294.611)" fill="#074391"/>
  <path id="Path_10" data-name="Path 10" d="M400.822,386.991,360.31,386c.187,1.163.373,2.3.553,3.424l39.96-.947c2.29,0,5.2-.309,5.2-.761S403.112,386.991,400.822,386.991Z" transform="translate(-217.907 -320.394)" fill="#074391"/>
  <path id="Path_11" data-name="Path 11" d="M237.532,383.778l-71.306-1.328a4.307,4.307,0,0,0,0,8.614l70.746-1.321a20.9,20.9,0,0,1,.56-5.965Zm-51.789,4.536H169.952a1.572,1.572,0,0,1,0-3.137h15.791a1.572,1.572,0,1,1,0,3.137Z" transform="translate(-161.92 -319.392)" fill="#074391"/>
</svg>
