<?xml version="1.0" encoding="utf-8"?>
<!-- Generator: Adobe Illustrator 27.4.1, SVG Export Plug-In . SVG Version: 6.00 Build 0)  -->
<svg version="1.1" id="Layer_1" xmlns="http://www.w3.org/2000/svg" xmlns:xlink="http://www.w3.org/1999/xlink" x="0px" y="0px"
	 viewBox="0 0 692 410" style="enable-background:new 0 0 692 410;" xml:space="preserve">
<style type="text/css">
	.st0{fill:#EDEDF4;}
	.st1{fill:#404064;}
	.st2{enable-background:new    ;}
	.st3{fill:#FFFFFF;}
	.st4{fill:#C41263;}
	.st5{fill:none;stroke:#404064;stroke-width:1.9992;stroke-linecap:round;stroke-miterlimit:3.9985;}
	.st6{fill:none;stroke:#404064;stroke-width:2;stroke-linecap:round;stroke-miterlimit:10;}
	.st7{fill:none;stroke:#404064;stroke-width:1.9992;stroke-linecap:round;stroke-miterlimit:3.9984;}
	.st8{fill:none;stroke:#404064;stroke-width:2;stroke-linecap:round;}
	.st9{fill:#074391;}
	.st10{fill:none;}
	.st11{fill:none;stroke:#074391;stroke-width:3;}
	.st12{fill:#C4123C;}
	.st13{fill:none;stroke:#08B430;stroke-width:3;}
	.st14{fill:#08B430;}
	.st15{fill:none;stroke:#C4123C;stroke-width:3;}
	.st16{fill:none;stroke:#404064;stroke-width:2;}
	.st17{fill:none;stroke:#C4123C;stroke-width:2;stroke-linecap:round;}
</style>
<rect class="st0" width="692" height="410"/>
<path id="Rectangle_15" class="st1" d="M66.5,50h81c9.1,0,16.5,7.4,16.5,16.5l0,0c0,9.1-7.4,16.5-16.5,16.5h-81
	C57.4,83,50,75.6,50,66.5l0,0C50,57.4,57.4,50,66.5,50z"/>
<g class="st2">
	<path class="st3" d="M60.6,62.7h1.2V69h3.7v1h-4.9V62.7z"/>
	<path class="st3" d="M68.7,64.8c1.6,0,2.6,1,2.6,2.6c0,1.6-0.9,2.7-2.6,2.7c-1.6,0-2.6-1-2.6-2.7C66.1,65.9,66.9,64.8,68.7,64.8z
		 M68.7,69.3c1.1,0,1.5-0.8,1.5-1.8c0-1-0.4-1.9-1.5-1.9c-1.1,0-1.5,0.8-1.5,1.8C67.2,68.4,67.5,69.3,68.7,69.3z"/>
	<path class="st3" d="M72.9,69.8L72.9,69.8c-0.3-0.2-0.5-0.5-0.5-0.8c0-0.5,0.4-0.8,0.7-1l0,0c-0.5-0.4-0.7-0.8-0.7-1.4
		c0-1.3,1-1.9,2.3-1.9c0.4,0,0.8,0.1,1.1,0.2l0,0c0,0,0-0.1,0-0.2c0-0.6,0.3-1.1,1.1-1.1c0.3,0,0.5,0.1,0.7,0.2l-0.1,0.9
		c-0.2-0.1-0.4-0.2-0.6-0.2c-0.4,0-0.5,0.3-0.6,0.7c0.4,0.3,0.6,0.8,0.6,1.4c0,1.3-1.1,1.9-2.3,1.9c-0.3,0-0.7,0-1-0.1
		c-0.3,0.1-0.4,0.2-0.4,0.4c0,0.1,0.1,0.3,0.3,0.3c0.3,0.1,0.7,0.1,1.3,0.1c0.8,0,1.4,0,1.8,0.3c0.4,0.2,0.6,0.6,0.6,1.1
		c0,1.3-1.5,1.8-2.8,1.8c-1,0-2.5-0.3-2.5-1.4C72.1,70.5,72.5,70.1,72.9,69.8z M74.8,71.6c0.6,0,1.6-0.1,1.6-0.8
		c0-0.6-0.7-0.6-1.4-0.6c-0.8,0-1,0-1.4-0.1c-0.2,0.2-0.4,0.4-0.4,0.7C73.2,71.4,74,71.6,74.8,71.6z M75.9,66.6
		c0-0.8-0.4-1.1-1.2-1.1c-0.7,0-1.2,0.3-1.2,1c0,0.8,0.4,1.1,1.2,1.1C75.5,67.7,75.9,67.4,75.9,66.6z"/>
	<path class="st3" d="M78.3,63.2c0-0.4,0.3-0.7,0.7-0.7s0.7,0.3,0.7,0.7S79.4,64,79,64S78.3,63.6,78.3,63.2z M78.5,64.9h1.1V70h-1.1
		V64.9z"/>
	<path class="st3" d="M81.1,64.9H82l0,0.8l0,0c0.4-0.7,1-0.9,1.8-0.9c1.1,0,1.9,0.6,1.9,1.8V70h-1.1v-3.2c0-0.7-0.3-1.2-1.1-1.2
		c-0.9,0-1.4,0.7-1.4,1.6V70h-1.1V64.9z"/>
	<path class="st3" d="M93,62.2h1l-4,8.3h-1L93,62.2z"/>
	<path class="st3" d="M100.6,62.5c2.3,0,3.5,1.4,3.5,3.8c0,2.2-1.1,3.9-3.5,3.9c-2.3,0-3.5-1.5-3.5-3.8
		C97.1,64.2,98.2,62.5,100.6,62.5z M100.6,69.2c1.7,0,2.2-1.3,2.2-2.8c0-1.5-0.6-2.9-2.3-2.9c-1.7,0-2.3,1.3-2.3,2.8
		C98.3,67.8,98.9,69.2,100.6,69.2z"/>
	<path class="st3" d="M105.3,64.9h0.9l0,0.8l0,0c0.4-0.7,1-0.9,1.8-0.9c1.1,0,1.9,0.6,1.9,1.8V70h-1.1v-3.2c0-0.7-0.3-1.2-1.1-1.2
		c-0.9,0-1.4,0.7-1.4,1.6V70h-1.1V64.9z"/>
	<path class="st3" d="M111.5,62.7h1.1v2.9l0,0c0.4-0.5,0.9-0.8,1.6-0.8c1.5,0,2.2,1.1,2.2,2.6c0,1.5-0.7,2.7-2.4,2.7
		c-0.7,0-1.3-0.3-1.8-0.8l0,0l-0.2,0.6h-0.6V62.7z M114,69.3c1.1,0,1.4-0.8,1.4-1.8c0-1.1-0.4-1.9-1.4-1.9c-0.9,0-1.4,0.6-1.4,1.6
		v1.4C112.9,68.9,113.3,69.3,114,69.3z"/>
	<path class="st3" d="M120.1,64.8c1.6,0,2.6,1,2.6,2.6c0,1.6-0.9,2.7-2.6,2.7c-1.6,0-2.6-1-2.6-2.7
		C117.5,65.9,118.4,64.8,120.1,64.8z M120.1,69.3c1.1,0,1.5-0.8,1.5-1.8c0-1-0.4-1.9-1.5-1.9c-1.1,0-1.5,0.8-1.5,1.8
		C118.6,68.4,119,69.3,120.1,69.3z"/>
	<path class="st3" d="M126,67c0.4,0,0.8,0,1.2,0.1v-0.4c0-0.7-0.2-1.1-1.2-1.1c-0.5,0-1,0.1-1,0.7c0,0.1,0,0.2,0,0.3l-1,0.1
		c-0.1-0.1-0.1-0.3-0.1-0.5c0-1,0.9-1.4,2.2-1.4c1.5,0,2.2,0.6,2.2,1.9v2.3c0,0.2,0.1,0.3,0.3,0.3c0.1,0,0.3,0,0.4-0.1L129,70
		c-0.2,0.1-0.4,0.1-0.7,0.1c-0.4,0-1-0.1-1.1-0.9h0c-0.3,0.5-0.9,0.9-1.8,0.9c-1,0-1.8-0.5-1.8-1.5C123.6,67.3,125,67,126,67z
		 M125.7,69.3c0.9,0,1.5-0.6,1.5-1.5c-0.4-0.1-0.7-0.1-1.1-0.1c-0.7,0-1.3,0.1-1.3,0.8C124.8,69.1,125.1,69.3,125.7,69.3z"/>
	<path class="st3" d="M130,64.9h0.9l0.1,0.8h0c0.4-0.7,0.8-1,1.5-1c0.3,0,0.6,0,0.8,0.2l-0.2,1c-0.2-0.2-0.5-0.3-0.8-0.3
		c-1,0-1.2,1-1.2,1.8V70H130V64.9z"/>
	<path class="st3" d="M136.2,64.8c0.6,0,1.1,0.2,1.5,0.5l0,0v-2.6h1.1V70h-0.9l-0.1-0.8h0c-0.4,0.6-1,0.9-1.8,0.9
		c-1.5,0-2.2-1.2-2.2-2.6C133.8,66.1,134.5,64.8,136.2,64.8z M136.2,69.3c0.9,0,1.4-0.7,1.4-1.6v-1.3c-0.3-0.4-0.7-0.8-1.4-0.8
		c-1,0-1.4,0.8-1.4,1.8C134.9,68.3,135.1,69.3,136.2,69.3z"/>
	<path class="st3" d="M140.2,63.2c0-0.4,0.3-0.7,0.7-0.7s0.7,0.3,0.7,0.7s-0.3,0.7-0.7,0.7S140.2,63.6,140.2,63.2z M140.3,64.9h1.1
		V70h-1.1V64.9z"/>
	<path class="st3" d="M143,64.9h0.9l0,0.8l0,0c0.4-0.7,1-0.9,1.8-0.9c1.1,0,1.9,0.6,1.9,1.8V70h-1.1v-3.2c0-0.7-0.3-1.2-1.1-1.2
		c-0.9,0-1.4,0.7-1.4,1.6V70H143V64.9z"/>
	<path class="st3" d="M149.5,69.8L149.5,69.8c-0.3-0.2-0.5-0.5-0.5-0.8c0-0.5,0.4-0.8,0.7-1l0,0c-0.5-0.4-0.7-0.8-0.7-1.4
		c0-1.3,1-1.9,2.3-1.9c0.4,0,0.8,0.1,1.1,0.2l0,0c0,0,0-0.1,0-0.2c0-0.6,0.3-1.1,1.1-1.1c0.3,0,0.5,0.1,0.7,0.2l-0.1,0.9
		c-0.2-0.1-0.4-0.2-0.6-0.2c-0.4,0-0.5,0.3-0.6,0.7c0.4,0.3,0.6,0.8,0.6,1.4c0,1.3-1.1,1.9-2.3,1.9c-0.3,0-0.7,0-1-0.1
		c-0.3,0.1-0.4,0.2-0.4,0.4c0,0.1,0.1,0.3,0.3,0.3c0.3,0.1,0.7,0.1,1.3,0.1c0.8,0,1.4,0,1.8,0.3c0.4,0.2,0.6,0.6,0.6,1.1
		c0,1.3-1.5,1.8-2.8,1.8c-1,0-2.5-0.3-2.5-1.4C148.8,70.5,149.1,70.1,149.5,69.8z M151.4,71.6c0.6,0,1.6-0.1,1.6-0.8
		c0-0.6-0.7-0.6-1.4-0.6c-0.8,0-1,0-1.4-0.1c-0.2,0.2-0.4,0.4-0.4,0.7C149.8,71.4,150.7,71.6,151.4,71.6z M152.5,66.6
		c0-0.8-0.4-1.1-1.2-1.1c-0.7,0-1.2,0.3-1.2,1c0,0.8,0.4,1.1,1.2,1.1C152.1,67.7,152.5,67.4,152.5,66.6z"/>
</g>
<path id="Rectangle_17" class="st4" d="M109.8,115.5l38.2,38.2c2,2,2,5.1,0,7.1l-38.2,38.2c-2,2-5.1,2-7.1,0l-38.2-38.2
	c-2-2-2-5.1,0-7.1l38.2-38.2C104.7,113.6,107.9,113.6,109.8,115.5z"/>
<g class="st2">
	<path class="st3" d="M93.6,139.3c1.4,0,2.9,0.6,2.9,2.2c0,0.2,0,0.4-0.1,0.6l-1.1,0.1c0-0.2,0-0.4,0-0.5c0-1-0.8-1.4-1.8-1.4
		c-1.6,0-2.3,1.2-2.3,2.8c0,1.5,0.6,2.9,2.4,2.9c1.2,0,1.9-0.6,1.9-1.9l1,0.2c0,0.1,0,0.2,0,0.3c0,1.7-1.5,2.4-3.1,2.4
		c-2.3,0-3.5-1.5-3.5-3.8C90,140.9,91.3,139.3,93.6,139.3z"/>
	<path class="st3" d="M97.9,141.7h0.9l0.1,0.8h0c0.4-0.7,0.8-1,1.5-1c0.3,0,0.6,0,0.8,0.2l-0.2,1c-0.2-0.2-0.5-0.3-0.8-0.3
		c-1,0-1.2,1-1.2,1.8v2.5h-1.1V141.7z"/>
	<path class="st3" d="M104.2,141.6c1.4,0,2.3,0.7,2.3,2.2c0,0.3,0,0.5-0.1,0.8h-3.6c0,0.9,0.5,1.6,1.5,1.6c0.7,0,1.1-0.3,1.2-1
		l1,0.2c-0.1,1.2-1.1,1.6-2.2,1.6c-1.7,0-2.6-1-2.6-2.6C101.7,142.7,102.5,141.6,104.2,141.6z M105.4,143.7c0,0,0-0.1,0-0.1
		c0-0.7-0.4-1.2-1.2-1.2c-0.8,0-1.3,0.5-1.4,1.3H105.4z"/>
	<path class="st3" d="M110,143.8c0.4,0,0.8,0,1.2,0.1v-0.4c0-0.7-0.2-1.1-1.2-1.1c-0.5,0-1,0.1-1,0.7c0,0.1,0,0.2,0,0.3l-1,0.1
		c-0.1-0.1-0.1-0.3-0.1-0.5c0-1,0.9-1.4,2.2-1.4c1.5,0,2.2,0.6,2.2,1.9v2.3c0,0.2,0.1,0.3,0.3,0.3c0.1,0,0.3,0,0.4-0.1l0.1,0.8
		c-0.2,0.1-0.4,0.1-0.7,0.1c-0.4,0-1-0.1-1.1-0.9h0c-0.3,0.5-0.9,0.9-1.8,0.9c-1,0-1.8-0.5-1.8-1.5
		C107.6,144.1,108.9,143.8,110,143.8z M109.6,146.1c0.9,0,1.5-0.6,1.5-1.5c-0.4-0.1-0.7-0.1-1.1-0.1c-0.7,0-1.3,0.1-1.3,0.8
		C108.7,145.9,109.1,146.1,109.6,146.1z"/>
	<path class="st3" d="M114.1,142.5h-0.8v-0.8h0.8v-1.2l1.1-0.1v1.4h1.6v0.8h-1.6v2.7c0,0.5,0.1,0.9,0.7,0.9c0.3,0,0.7-0.1,1-0.2
		l0.1,0.8c-0.3,0.1-0.8,0.2-1.3,0.2c-1.1,0-1.6-0.5-1.6-1.6V142.5z"/>
	<path class="st3" d="M120.1,141.6c1.4,0,2.3,0.7,2.3,2.2c0,0.3,0,0.5-0.1,0.8h-3.6c0,0.9,0.5,1.6,1.5,1.6c0.7,0,1.1-0.3,1.2-1
		l1,0.2c-0.1,1.2-1.1,1.6-2.2,1.6c-1.7,0-2.6-1-2.6-2.6C117.6,142.7,118.4,141.6,120.1,141.6z M121.3,143.7c0,0,0-0.1,0-0.1
		c0-0.7-0.4-1.2-1.2-1.2c-0.8,0-1.3,0.5-1.4,1.3H121.3z"/>
</g>
<g class="st2">
	<path class="st3" d="M97.6,154.6c1,0,2.2,0.4,2.2,1.6c0,0.1,0,0.3,0,0.4l-1,0.1c0-0.1,0-0.2,0-0.3c0-0.7-0.4-1-1.1-1
		c-1.1,0-1.5,0.8-1.5,1.8c0,0.9,0.3,1.9,1.5,1.9c0.8,0,1.2-0.4,1.2-1.2l1,0.2c0,0,0,0.1,0,0.1c0,1.2-1.1,1.7-2.3,1.7
		c-1.6,0-2.5-1-2.5-2.7C95,155.6,95.9,154.6,97.6,154.6z"/>
	<path class="st3" d="M101.1,152.5h1.1v2.8l0,0c0.4-0.5,0.9-0.7,1.6-0.7c1.1,0,1.9,0.6,1.9,1.8v3.4h-1.1v-3.2c0-0.7-0.3-1.2-1.1-1.2
		c-0.9,0-1.4,0.7-1.4,1.6v2.8h-1.1V152.5z"/>
	<path class="st3" d="M107.1,153c0-0.4,0.3-0.7,0.7-0.7s0.7,0.3,0.7,0.7s-0.3,0.7-0.7,0.7S107.1,153.4,107.1,153z M107.3,154.7h1.1
		v5.1h-1.1V154.7z"/>
	<path class="st3" d="M109.9,152.5h1.1v7.3h-1.1V152.5z"/>
	<path class="st3" d="M114.7,154.6c0.6,0,1.1,0.2,1.5,0.5l0,0v-2.6h1.1v7.3h-0.9l-0.1-0.8h0c-0.4,0.6-1,0.9-1.8,0.9
		c-1.5,0-2.2-1.2-2.2-2.6C112.3,155.9,113.1,154.6,114.7,154.6z M114.8,159.1c0.9,0,1.4-0.7,1.4-1.6v-1.3c-0.3-0.4-0.7-0.8-1.4-0.8
		c-1,0-1.4,0.8-1.4,1.8C113.4,158.1,113.7,159.1,114.8,159.1z"/>
</g>
<g class="st2">
	<path class="st3" d="M89.8,175h-1.1v-7.3h0.9l0.1,0.8l0,0c0.4-0.6,1-0.9,1.8-0.9c1.5,0,2.2,1.1,2.2,2.6c0,1.5-0.8,2.7-2.4,2.7
		c-0.6,0-1.1-0.2-1.5-0.5l0,0V175z M91.2,172.1c1,0,1.4-0.8,1.4-1.8c0-1-0.3-1.9-1.4-1.9c-0.9,0-1.4,0.7-1.4,1.6v1.4
		C90.1,171.7,90.5,172.1,91.2,172.1z"/>
	<path class="st3" d="M95,167.7h0.9l0.1,0.8h0c0.4-0.7,0.8-1,1.5-1c0.3,0,0.6,0,0.8,0.2l-0.2,1c-0.2-0.2-0.5-0.3-0.8-0.3
		c-1,0-1.2,1-1.2,1.8v2.5H95V167.7z"/>
	<path class="st3" d="M101.4,167.6c1.6,0,2.6,1,2.6,2.6c0,1.6-0.9,2.7-2.6,2.7c-1.6,0-2.6-1-2.6-2.7
		C98.8,168.7,99.7,167.6,101.4,167.6z M101.4,172.1c1.1,0,1.5-0.8,1.5-1.8c0-1-0.4-1.9-1.5-1.9c-1.1,0-1.5,0.8-1.5,1.8
		C99.9,171.2,100.3,172.1,101.4,172.1z"/>
	<path class="st3" d="M105.5,168.5h-0.8v-0.8h0.8v-0.3c0-1.5,0.8-2.1,2.2-2.1c0.8,0,1.4,0.2,1.9,0.4l-0.2,0.9
		c-0.5-0.3-1.1-0.4-1.6-0.4c-0.9,0-1.1,0.4-1.1,1.3v0.2h3.3v5.1h-1.1v-4.3h-2.2v4.3h-1.1V168.5z"/>
	<path class="st3" d="M111.4,165.5h1.1v7.3h-1.1V165.5z"/>
	<path class="st3" d="M116.4,167.6c1.4,0,2.3,0.7,2.3,2.2c0,0.3,0,0.5-0.1,0.8H115c0,0.9,0.5,1.6,1.5,1.6c0.7,0,1.1-0.3,1.2-1l1,0.2
		c-0.1,1.2-1.1,1.6-2.2,1.6c-1.7,0-2.6-1-2.6-2.6C113.8,168.7,114.6,167.6,116.4,167.6z M117.5,169.7c0,0,0-0.1,0-0.1
		c0-0.7-0.4-1.2-1.2-1.2c-0.8,0-1.3,0.5-1.4,1.3H117.5z"/>
	<path class="st3" d="M121.1,169.1c0.2,0,0.4,0.1,0.6,0.1c0.9,0,1.3-0.5,1.3-1.5c0-0.9-0.4-1.5-1.3-1.5c-0.8,0-1.2,0.5-1.2,1.3
		l-1-0.1c0-0.1,0-0.1,0-0.2c0-1.1,0.9-1.8,2.2-1.8c1.4,0,2.3,0.8,2.3,2.3c0,1.3-0.7,2.2-2,2.3l-0.1,0.8h-0.7L121.1,169.1z
		 M121.6,171.5c0.4,0,0.7,0.3,0.7,0.7c0,0.4-0.3,0.7-0.7,0.7c-0.4,0-0.7-0.3-0.7-0.7C120.9,171.8,121.2,171.5,121.6,171.5z"/>
</g>
<path id="Path_18" class="st5" d="M110,99.3l-1.8,2.3l-0.8,1c-0.2,0.3-0.6,0.3-0.9,0.1c0,0-0.1-0.1-0.1-0.1l-2.8-3.1"/>
<g id="arrows_dark_arrow_1" transform="translate(42 107)">
	<path id="Line" class="st6" d="M64.9-14v9"/>
</g>
<path id="Path_18-2" class="st5" d="M168.3,154.2l2.3,1.8l1,0.8c0.3,0.2,0.3,0.6,0.1,0.9c0,0-0.1,0.1-0.1,0.1l-3.1,2.8"/>
<g id="arrows_dark_arrow_1-2" transform="translate(42 107)">
	<path id="Line-2" class="st6" d="M120,50.3h9"/>
</g>
<path id="Path_18-3" class="st5" d="M236.3,154.2l2.3,1.8l1,0.8c0.3,0.2,0.3,0.6,0.1,0.9c0,0-0.1,0.1-0.1,0.1l-3.1,2.8"/>
<g id="arrows_dark_arrow_1-3" transform="translate(42 107)">
	<path id="Line-3" class="st6" d="M188,50.3h9"/>
</g>
<path id="Path_18-4" class="st5" d="M110,218.3l-1.8,2.3l-0.8,1c-0.2,0.3-0.6,0.3-0.9,0.1c0,0-0.1-0.1-0.1-0.1l-2.8-3.1"/>
<g id="arrows_dark_arrow_1-4" transform="translate(42 107)">
	<path id="Line-4" class="st6" d="M64.9,105v9"/>
</g>
<path id="Path_18-5" class="st5" d="M165.3,249.4l2.3,1.8l1,0.8c0.3,0.2,0.3,0.6,0.1,0.9c0,0-0.1,0.1-0.1,0.1l-3.1,2.8"/>
<g id="arrows_dark_arrow_1-5" transform="translate(42 107)">
	<path id="Line-5" class="st6" d="M97,145.5h29"/>
</g>
<path id="Path_18-6" class="st5" d="M261.9,190.7l1.8-2.3l0.8-1c0.2-0.3,0.6-0.3,0.9-0.1c0,0,0.1,0.1,0.1,0.1l2.8,3.1"/>
<g id="arrows_dark_arrow_1-6" transform="translate(42 107)">
	<path id="Line-6" class="st6" d="M223,115V81"/>
</g>
<path id="Path_18-7" class="st5" d="M379.2,69.6l-2.3-1.8l-1-0.8c-0.3-0.2-0.3-0.6-0.1-0.9c0,0,0.1-0.1,0.1-0.1l3.1-2.8"/>
<g id="arrows_dark_arrow_1-7" transform="translate(42 107)">
	<path id="Line-7" class="st6" d="M350.5-40.5h-16"/>
</g>
<path id="Path_18-8" class="st5" d="M369.1,129.4l-2.9,0.5l-1.2,0.2c-0.3,0.1-0.7-0.2-0.7-0.5c0,0,0-0.1,0-0.1l0.1-4.2"/>
<g id="arrows_dark_arrow_1-8" transform="translate(42 107)">
	<path id="Line-8" class="st6" d="M357.2-14.4L323,22.3"/>
</g>
<path id="Path_18-9" class="st7" d="M468.5,325.5l-2.9-0.5l-1.2-0.2c-0.3-0.1-0.6-0.4-0.5-0.7c0,0,0-0.1,0-0.1l1.5-3.9"/>
<g id="arrows_dark_arrow_1-9" transform="translate(42 107)">
	<path id="Line-9" class="st6" d="M466.2,194.8l-43.5,22.2"/>
</g>
<g id="Group_108-10" transform="translate(45.678 110.228) rotate(180)">
	<path id="Path_18-10" class="st7" d="M-457.9-190.4l-2.9-0.5l-1.2-0.2c-0.3-0.1-0.6-0.4-0.5-0.7c0,0,0-0.1,0-0.1l1.5-3.9"/>
</g>
<path id="Path_18-11" class="st5" d="M435.9,100l1.8-2.3l0.8-1c0.2-0.3,0.6-0.3,0.9-0.1c0,0,0.1,0.1,0.1,0.1l2.8,3.1"/>
<g id="arrows_dark_arrow_1-10" transform="translate(42 107)">
	<path id="Line-10" class="st6" d="M397,19.9V-9.7"/>
</g>
<path id="Path_18-12" class="st5" d="M370.9,154.4l2.3,1.8l1,0.8c0.3,0.2,0.3,0.6,0.1,0.9c0,0-0.1,0.1-0.1,0.1l-3.1,2.8"/>
<g id="arrows_dark_arrow_1-11" transform="translate(38.138 107)">
	<path id="Line-11" class="st6" d="M326.5,50.5h8.9"/>
</g>
<path id="Path_18-13" class="st5" d="M370.3,277.4l2.3,1.8l1,0.8c0.3,0.2,0.3,0.6,0.1,0.9c0,0-0.1,0.1-0.1,0.1l-3.1,2.8"/>
<g id="arrows_dark_arrow_1-12" transform="translate(0 3.228)">
	<path id="Line-12" class="st6" d="M346,277.3h27"/>
</g>
<path id="Path_18-14" class="st5" d="M370.3,214.4l2.3,1.8l1,0.8c0.3,0.2,0.3,0.6,0.1,0.9c0,0-0.1,0.1-0.1,0.1l-3.1,2.8"/>
<g id="arrows_dark_arrow_1-13" transform="translate(0 3.228)">
	<path id="Line-13" class="st6" d="M346,214.3h27"/>
</g>
<path id="Path_18-15" class="st5" d="M510.6,160.6l-2.3-1.8l-1-0.8c-0.3-0.2-0.3-0.6-0.1-0.9c0,0,0.1-0.1,0.1-0.1l3.1-2.8"/>
<g id="arrows_dark_arrow_1-14" transform="translate(42 107)">
	<path id="Line-14" class="st6" d="M480.1,50.5h-14.1"/>
</g>
<path id="Path_18-16" class="st5" d="M518.4,160.6l2.3-1.8l1-0.8c0.3-0.2,0.3-0.6,0.1-0.9c0,0-0.1-0.1-0.1-0.1l-3.1-2.8"/>
<path id="Path_18-17" class="st5" d="M467.6,346.6l-2.3-1.8l-1-0.8c-0.3-0.2-0.3-0.6-0.1-0.9c0,0,0.1-0.1,0.1-0.1l3.1-2.8"/>
<g id="arrows_dark_arrow_1-15" transform="translate(42 107)">
	<path id="Line-15" class="st6" d="M437,236.5h-14.1"/>
</g>
<path id="Path_18-18" class="st5" d="M475.3,346.6l2.3-1.8l1-0.8c0.3-0.2,0.3-0.6,0.1-0.9c0,0-0.1-0.1-0.1-0.1l-3.1-2.8"/>
<path id="Path_18-19" class="st5" d="M545,308.7l1.8-2.3l0.8-1c0.2-0.3,0.6-0.3,0.9-0.1c0,0,0.1,0.1,0.1,0.1l2.8,3.1"/>
<g id="arrows_dark_arrow_1-16" transform="translate(42 107)">
	<path id="Line-16" class="st6" d="M506.1,213.1V199"/>
</g>
<path id="Path_18-20" class="st5" d="M545,316.5l1.8,2.3l0.8,1c0.2,0.3,0.6,0.3,0.9,0.1c0,0,0.1-0.1,0.1-0.1l2.8-3.1"/>
<path id="Path_18-21" class="st5" d="M510.6,221.1l-2.3-1.8l-1-0.8c-0.3-0.2-0.3-0.6-0.1-0.9c0,0,0.1-0.1,0.1-0.1l3.1-2.8"/>
<path id="Path_18-22" class="st8" d="M584.8,190.5l1.9-2.3l0.8-1c0.2-0.3,0.6-0.3,0.9-0.1c0,0,0.1,0.1,0.1,0.1l2.7,3.2"/>
<rect id="Rectangle_16" x="181" y="234" class="st9" width="98" height="33"/>
<g class="st2">
	<path class="st3" d="M191.5,251.4l1.1-0.1c0,0.2,0,0.4,0,0.5c0,1,0.9,1.4,1.9,1.4c0.9,0,1.8-0.2,1.8-1.2c0-0.9-0.8-1-2-1.3
		c-1.4-0.3-2.7-0.6-2.7-2c0-1.4,1.3-2.2,2.9-2.2c1.4,0,2.8,0.6,2.8,2c0,0.2,0,0.4-0.1,0.5l-1.1,0.1c0-0.1,0-0.3,0-0.4
		c0-0.9-0.8-1.2-1.7-1.2c-0.8,0-1.6,0.2-1.6,1.1s0.8,1,2,1.2c1.6,0.3,2.7,0.7,2.7,2.1c0,1.5-1.3,2.3-3.1,2.3c-1.5,0-3-0.5-3-2.1
		C191.5,251.8,191.5,251.6,191.5,251.4z"/>
	<path class="st3" d="M201,248.8c1.4,0,2.3,0.7,2.3,2.2c0,0.3,0,0.5-0.1,0.8h-3.6c0,0.9,0.5,1.6,1.5,1.6c0.7,0,1.1-0.3,1.2-1l1,0.2
		c-0.1,1.2-1.1,1.6-2.2,1.6c-1.7,0-2.6-1-2.6-2.6C198.5,249.9,199.3,248.8,201,248.8z M202.2,250.9c0,0,0-0.1,0-0.1
		c0-0.7-0.4-1.2-1.2-1.2c-0.8,0-1.3,0.5-1.4,1.3H202.2z"/>
	<path class="st3" d="M204.7,246.7h1.1v7.3h-1.1V246.7z"/>
	<path class="st3" d="M209.6,248.8c1.4,0,2.3,0.7,2.3,2.2c0,0.3,0,0.5-0.1,0.8h-3.6c0,0.9,0.5,1.6,1.5,1.6c0.7,0,1.1-0.3,1.2-1
		l1,0.2c-0.1,1.2-1.1,1.6-2.2,1.6c-1.7,0-2.6-1-2.6-2.6C207.1,249.9,207.9,248.8,209.6,248.8z M210.8,250.9c0,0,0-0.1,0-0.1
		c0-0.7-0.4-1.2-1.2-1.2c-0.8,0-1.3,0.5-1.4,1.3H210.8z"/>
	<path class="st3" d="M215.6,248.8c1,0,2.2,0.4,2.2,1.6c0,0.1,0,0.3,0,0.4l-1,0.1c0-0.1,0-0.2,0-0.3c0-0.7-0.4-1-1.1-1
		c-1.1,0-1.5,0.8-1.5,1.8c0,0.9,0.3,1.9,1.5,1.9c0.8,0,1.2-0.4,1.2-1.2l1,0.2c0,0,0,0.1,0,0.1c0,1.2-1.1,1.7-2.3,1.7
		c-1.6,0-2.5-1-2.5-2.7C213,249.8,214,248.8,215.6,248.8z"/>
	<path class="st3" d="M219.4,249.7h-0.8v-0.8h0.8v-1.2l1.1-0.1v1.4h1.6v0.8h-1.6v2.7c0,0.5,0.1,0.9,0.7,0.9c0.3,0,0.7-0.1,1-0.2
		l0.1,0.8c-0.3,0.1-0.8,0.2-1.3,0.2c-1.1,0-1.6-0.5-1.6-1.6V249.7z"/>
	<path class="st3" d="M225.7,247.2c0-0.4,0.3-0.7,0.7-0.7s0.7,0.3,0.7,0.7s-0.3,0.7-0.7,0.7S225.7,247.6,225.7,247.2z M225.9,248.9
		h1.1v5.1h-1.1V248.9z"/>
	<path class="st3" d="M228.5,248.9h0.9l0,0.8l0,0c0.4-0.7,1-0.9,1.8-0.9c1.1,0,1.9,0.6,1.9,1.8v3.4h-1.1v-3.2c0-0.7-0.3-1.2-1.1-1.2
		c-0.9,0-1.4,0.7-1.4,1.6v2.8h-1.1V248.9z"/>
	<path class="st3" d="M234.9,249.7h-0.8v-0.8h0.8v-1.2l1.1-0.1v1.4h1.6v0.8H236v2.7c0,0.5,0.1,0.9,0.7,0.9c0.3,0,0.7-0.1,1-0.2
		l0.1,0.8c-0.3,0.1-0.8,0.2-1.3,0.2c-1.1,0-1.6-0.5-1.6-1.6V249.7z"/>
	<path class="st3" d="M240.9,248.8c1.4,0,2.3,0.7,2.3,2.2c0,0.3,0,0.5-0.1,0.8h-3.6c0,0.9,0.5,1.6,1.5,1.6c0.7,0,1.1-0.3,1.2-1
		l1,0.2c-0.1,1.2-1.1,1.6-2.2,1.6c-1.7,0-2.6-1-2.6-2.6C238.3,249.9,239.2,248.8,240.9,248.8z M242,250.9c0,0,0-0.1,0-0.1
		c0-0.7-0.4-1.2-1.2-1.2c-0.8,0-1.3,0.5-1.4,1.3H242z"/>
	<path class="st3" d="M244.6,248.9h0.9l0.1,0.8h0c0.4-0.7,0.8-1,1.5-1c0.3,0,0.6,0,0.8,0.2l-0.2,1c-0.2-0.2-0.5-0.3-0.8-0.3
		c-1,0-1.2,1-1.2,1.8v2.5h-1.1V248.9z"/>
	<path class="st3" d="M250.9,248.8c1.4,0,2.3,0.7,2.3,2.2c0,0.3,0,0.5-0.1,0.8h-3.6c0,0.9,0.5,1.6,1.5,1.6c0.7,0,1.1-0.3,1.2-1
		l1,0.2c-0.1,1.2-1.1,1.6-2.2,1.6c-1.7,0-2.6-1-2.6-2.6C248.4,249.9,249.2,248.8,250.9,248.8z M252,250.9c0,0,0-0.1,0-0.1
		c0-0.7-0.4-1.2-1.2-1.2c-0.8,0-1.3,0.5-1.4,1.3H252z"/>
	<path class="st3" d="M254.3,252.3l1-0.1c0,0.1,0,0.2,0,0.2c0,0.7,0.6,0.9,1.3,0.9c0.5,0,1.2-0.1,1.2-0.7c0-0.5-0.5-0.6-1.4-0.7
		c-1.1-0.2-2-0.4-2-1.5c0-1.2,1.1-1.6,2.2-1.6c0.9,0,2.2,0.3,2.2,1.4c0,0.1,0,0.2,0,0.3l-1,0.1c0-0.1,0-0.1,0-0.2
		c0-0.6-0.6-0.8-1.2-0.8c-0.5,0-1.1,0.1-1.1,0.7c0,0.5,0.4,0.5,1.4,0.7c1.1,0.2,2,0.4,2,1.5c0,1.2-1.2,1.6-2.4,1.6
		c-1,0-2.3-0.3-2.3-1.5C254.2,252.5,254.2,252.4,254.3,252.3z"/>
	<path class="st3" d="M260.3,249.7h-0.8v-0.8h0.8v-1.2l1.1-0.1v1.4h1.6v0.8h-1.6v2.7c0,0.5,0.1,0.9,0.7,0.9c0.3,0,0.7-0.1,1-0.2
		l0.1,0.8c-0.3,0.1-0.8,0.2-1.3,0.2c-1.1,0-1.6-0.5-1.6-1.6V249.7z"/>
	<path class="st3" d="M263.8,252.3l1-0.1c0,0.1,0,0.2,0,0.2c0,0.7,0.6,0.9,1.3,0.9c0.5,0,1.2-0.1,1.2-0.7c0-0.5-0.5-0.6-1.4-0.7
		c-1.1-0.2-2-0.4-2-1.5c0-1.2,1.1-1.6,2.2-1.6c0.9,0,2.2,0.3,2.2,1.4c0,0.1,0,0.2,0,0.3l-1,0.1c0-0.1,0-0.1,0-0.2
		c0-0.6-0.6-0.8-1.2-0.8c-0.5,0-1.1,0.1-1.1,0.7c0,0.5,0.4,0.5,1.4,0.7c1.1,0.2,2,0.4,2,1.5c0,1.2-1.2,1.6-2.4,1.6
		c-1,0-2.3-0.3-2.3-1.5C263.8,252.5,263.8,252.4,263.8,252.3z"/>
</g>
<path id="Rectangle_16-2" class="st9" d="M258,141h89c4.4,0,8,3.6,8,8v17c0,4.4-3.6,8-8,8h-89c-4.4,0-8-3.6-8-8v-17
	C250,144.6,253.6,141,258,141z"/>
<g class="st2">
	<path class="st3" d="M260.8,153.7h2.9c1.8,0,2.5,0.7,2.5,1.8c0,1-0.6,1.4-1,1.6v0c0.7,0.2,1.4,0.7,1.4,1.8c0,1.5-1.2,2.1-2.8,2.1
		h-3V153.7z M263.9,156.8c0.7,0,1.2-0.3,1.2-1.1c0-1-0.7-1.1-1.5-1.1H262v2.1H263.9z M263.8,160c0.9,0,1.6-0.1,1.6-1.1
		c0-0.9-0.6-1.2-1.5-1.2H262v2.4H263.8z"/>
	<path class="st3" d="M267.8,155.9h0.9l0.1,0.8h0c0.4-0.7,0.8-1,1.5-1c0.3,0,0.6,0,0.8,0.2l-0.2,1c-0.2-0.2-0.5-0.3-0.8-0.3
		c-1,0-1.2,1-1.2,1.8v2.5h-1.1V155.9z"/>
	<path class="st3" d="M274.2,155.8c1.6,0,2.6,1,2.6,2.6c0,1.6-0.9,2.7-2.6,2.7c-1.6,0-2.6-1-2.6-2.7
		C271.6,156.9,272.5,155.8,274.2,155.8z M274.2,160.3c1.1,0,1.5-0.8,1.5-1.8c0-1-0.4-1.9-1.5-1.9c-1.1,0-1.5,0.8-1.5,1.8
		C272.7,159.4,273.1,160.3,274.2,160.3z"/>
	<path class="st3" d="M277.3,155.9h1.1l0.7,2.5c0.2,0.5,0.3,1,0.4,1.6h0c0.2-0.6,0.3-1.1,0.4-1.6l0.7-2.5h0.9l0.7,2.5
		c0.2,0.5,0.3,1.1,0.4,1.6h0c0.2-0.6,0.3-1.1,0.4-1.6l0.7-2.5h1.1l-1.6,5.1h-1.4l-0.5-1.9c-0.2-0.6-0.3-1.1-0.4-1.6h0
		c-0.1,0.4-0.2,1-0.4,1.6l-0.5,1.9h-1.4L277.3,155.9z"/>
	<path class="st3" d="M285.6,159.3l1-0.1c0,0.1,0,0.2,0,0.2c0,0.7,0.6,0.9,1.3,0.9c0.5,0,1.2-0.1,1.2-0.7c0-0.5-0.5-0.6-1.4-0.7
		c-1.1-0.2-2-0.4-2-1.5c0-1.2,1.1-1.6,2.2-1.6c0.9,0,2.2,0.3,2.2,1.4c0,0.1,0,0.2,0,0.3l-1,0.1c0-0.1,0-0.1,0-0.2
		c0-0.6-0.6-0.8-1.2-0.8c-0.5,0-1.1,0.1-1.1,0.7c0,0.5,0.4,0.5,1.4,0.7c1.1,0.2,2,0.4,2,1.5c0,1.2-1.2,1.6-2.4,1.6
		c-1,0-2.3-0.3-2.3-1.5C285.6,159.5,285.6,159.4,285.6,159.3z"/>
	<path class="st3" d="M293.7,155.8c1.4,0,2.3,0.7,2.3,2.2c0,0.3,0,0.5-0.1,0.8h-3.6c0,0.9,0.5,1.6,1.5,1.6c0.7,0,1.1-0.3,1.2-1
		l1,0.2c-0.1,1.2-1.1,1.6-2.2,1.6c-1.7,0-2.6-1-2.6-2.6C291.2,156.9,292,155.8,293.7,155.8z M294.8,157.9c0,0,0-0.1,0-0.1
		c0-0.7-0.4-1.2-1.2-1.2c-0.8,0-1.3,0.5-1.4,1.3H294.8z"/>
	<path class="st3" d="M302.2,153.7h1.4l2.9,7.3h-1.3l-0.8-2.1h-3.1l-0.8,2.1h-1.2L302.2,153.7z M304.1,158l-0.5-1.4
		c-0.3-0.7-0.5-1.2-0.7-1.8h0c-0.2,0.6-0.4,1.1-0.7,1.8l-0.5,1.4H304.1z"/>
	<path class="st3" d="M309.6,155.8c1,0,2.2,0.4,2.2,1.6c0,0.1,0,0.3,0,0.4l-1,0.1c0-0.1,0-0.2,0-0.3c0-0.7-0.4-1-1.1-1
		c-1.1,0-1.5,0.8-1.5,1.8c0,0.9,0.3,1.9,1.5,1.9c0.8,0,1.2-0.4,1.2-1.2l1,0.2c0,0,0,0.1,0,0.1c0,1.2-1.1,1.7-2.3,1.7
		c-1.6,0-2.5-1-2.5-2.7C307,156.8,308,155.8,309.6,155.8z"/>
	<path class="st3" d="M313.4,156.7h-0.8v-0.8h0.8v-1.2l1.1-0.1v1.4h1.6v0.8h-1.6v2.7c0,0.5,0.1,0.9,0.7,0.9c0.3,0,0.7-0.1,1-0.2
		l0.1,0.8c-0.3,0.1-0.8,0.2-1.3,0.2c-1.1,0-1.6-0.5-1.6-1.6V156.7z"/>
	<path class="st3" d="M317,154.2c0-0.4,0.3-0.7,0.7-0.7s0.7,0.3,0.7,0.7s-0.3,0.7-0.7,0.7S317,154.6,317,154.2z M317.2,155.9h1.1
		v5.1h-1.1V155.9z"/>
	<path class="st3" d="M319.2,155.9h1.2l0.9,2.5c0.2,0.5,0.4,1,0.6,1.7h0c0.2-0.7,0.4-1.2,0.6-1.7l0.9-2.5h1.2l-2,5.1h-1.3
		L319.2,155.9z"/>
	<path class="st3" d="M325.3,154.2c0-0.4,0.3-0.7,0.7-0.7s0.7,0.3,0.7,0.7s-0.3,0.7-0.7,0.7S325.3,154.6,325.3,154.2z M325.4,155.9
		h1.1v5.1h-1.1V155.9z"/>
	<path class="st3" d="M328.3,156.7h-0.8v-0.8h0.8v-1.2l1.1-0.1v1.4h1.6v0.8h-1.6v2.7c0,0.5,0.1,0.9,0.7,0.9c0.3,0,0.7-0.1,1-0.2
		l0.1,0.8c-0.3,0.1-0.8,0.2-1.3,0.2c-1.1,0-1.6-0.5-1.6-1.6V156.7z"/>
	<path class="st3" d="M332,154.2c0-0.4,0.3-0.7,0.7-0.7s0.7,0.3,0.7,0.7s-0.3,0.7-0.7,0.7S332,154.6,332,154.2z M332.2,155.9h1.1
		v5.1h-1.1V155.9z"/>
	<path class="st3" d="M337.1,155.8c1.4,0,2.3,0.7,2.3,2.2c0,0.3,0,0.5-0.1,0.8h-3.6c0,0.9,0.5,1.6,1.5,1.6c0.7,0,1.1-0.3,1.2-1
		l1,0.2c-0.1,1.2-1.1,1.6-2.2,1.6c-1.7,0-2.6-1-2.6-2.6C334.5,156.9,335.4,155.8,337.1,155.8z M338.2,157.9c0,0,0-0.1,0-0.1
		c0-0.7-0.4-1.2-1.2-1.2c-0.8,0-1.3,0.5-1.4,1.3H338.2z"/>
	<path class="st3" d="M340.4,159.3l1-0.1c0,0.1,0,0.2,0,0.2c0,0.7,0.6,0.9,1.3,0.9c0.5,0,1.2-0.1,1.2-0.7c0-0.5-0.5-0.6-1.4-0.7
		c-1.1-0.2-2-0.4-2-1.5c0-1.2,1.1-1.6,2.2-1.6c0.9,0,2.2,0.3,2.2,1.4c0,0.1,0,0.2,0,0.3l-1,0.1c0-0.1,0-0.1,0-0.2
		c0-0.6-0.6-0.8-1.2-0.8c-0.5,0-1.1,0.1-1.1,0.7c0,0.5,0.4,0.5,1.4,0.7c1.1,0.2,2,0.4,2,1.5c0,1.2-1.2,1.6-2.4,1.6
		c-1,0-2.3-0.3-2.3-1.5C340.4,159.5,340.4,159.4,340.4,159.3z"/>
</g>
<path id="Rectangle_16-3" class="st9" d="M393,201h92c4.4,0,8,3.6,8,8v17c0,4.4-3.6,8-8,8h-92c-4.4,0-8-3.6-8-8v-17
	C385,204.6,388.6,201,393,201z"/>
<g class="st2">
	<path class="st3" d="M395.8,213.7h2.9c1.8,0,2.5,0.7,2.5,1.8c0,1-0.6,1.4-1,1.6v0c0.7,0.2,1.4,0.7,1.4,1.8c0,1.5-1.2,2.1-2.8,2.1
		h-3V213.7z M398.9,216.8c0.7,0,1.2-0.3,1.2-1.1c0-1-0.7-1.1-1.5-1.1H397v2.1H398.9z M398.8,220c0.9,0,1.6-0.1,1.6-1.1
		c0-0.9-0.6-1.2-1.5-1.2H397v2.4H398.8z"/>
	<path class="st3" d="M402.8,215.9h0.9l0.1,0.8h0c0.4-0.7,0.8-1,1.5-1c0.3,0,0.6,0,0.8,0.2l-0.2,1c-0.2-0.2-0.5-0.3-0.8-0.3
		c-1,0-1.2,1-1.2,1.8v2.5h-1.1V215.9z"/>
	<path class="st3" d="M409.2,215.8c1.6,0,2.6,1,2.6,2.6c0,1.6-0.9,2.7-2.6,2.7c-1.6,0-2.6-1-2.6-2.7
		C406.6,216.9,407.5,215.8,409.2,215.8z M409.2,220.3c1.1,0,1.5-0.8,1.5-1.8c0-1-0.4-1.9-1.5-1.9c-1.1,0-1.5,0.8-1.5,1.8
		C407.7,219.4,408.1,220.3,409.2,220.3z"/>
	<path class="st3" d="M412.3,215.9h1.1l0.7,2.5c0.2,0.5,0.3,1,0.4,1.6h0c0.2-0.6,0.3-1.1,0.4-1.6l0.7-2.5h0.9l0.7,2.5
		c0.2,0.5,0.3,1.1,0.4,1.6h0c0.2-0.6,0.3-1.1,0.4-1.6l0.7-2.5h1.1l-1.6,5.1h-1.4l-0.5-1.9c-0.2-0.6-0.3-1.1-0.4-1.6h0
		c-0.1,0.4-0.2,1-0.4,1.6l-0.5,1.9h-1.4L412.3,215.9z"/>
	<path class="st3" d="M420.6,219.3l1-0.1c0,0.1,0,0.2,0,0.2c0,0.7,0.6,0.9,1.3,0.9c0.5,0,1.2-0.1,1.2-0.7c0-0.5-0.5-0.6-1.4-0.7
		c-1.1-0.2-2-0.4-2-1.5c0-1.2,1.1-1.6,2.2-1.6c0.9,0,2.2,0.3,2.2,1.4c0,0.1,0,0.2,0,0.3l-1,0.1c0-0.1,0-0.1,0-0.2
		c0-0.6-0.6-0.8-1.2-0.8c-0.5,0-1.1,0.1-1.1,0.7c0,0.5,0.4,0.5,1.4,0.7c1.1,0.2,2,0.4,2,1.5c0,1.2-1.2,1.6-2.4,1.6
		c-1,0-2.3-0.3-2.3-1.5C420.6,219.5,420.6,219.4,420.6,219.3z"/>
	<path class="st3" d="M428.7,215.8c1.4,0,2.3,0.7,2.3,2.2c0,0.3,0,0.5-0.1,0.8h-3.6c0,0.9,0.5,1.6,1.5,1.6c0.7,0,1.1-0.3,1.2-1
		l1,0.2c-0.1,1.2-1.1,1.6-2.2,1.6c-1.7,0-2.6-1-2.6-2.6C426.2,216.9,427,215.8,428.7,215.8z M429.8,217.9c0,0,0-0.1,0-0.1
		c0-0.7-0.4-1.2-1.2-1.2c-0.8,0-1.3,0.5-1.4,1.3H429.8z"/>
	<path class="st3" d="M435.1,213.7h1.2v6.3h3.7v1h-4.9V213.7z"/>
	<path class="st3" d="M443.2,215.8c1.6,0,2.6,1,2.6,2.6c0,1.6-0.9,2.7-2.6,2.7c-1.6,0-2.6-1-2.6-2.7
		C440.6,216.9,441.5,215.8,443.2,215.8z M443.2,220.3c1.1,0,1.5-0.8,1.5-1.8c0-1-0.4-1.9-1.5-1.9c-1.1,0-1.5,0.8-1.5,1.8
		C441.7,219.4,442.1,220.3,443.2,220.3z"/>
	<path class="st3" d="M449.4,215.8c1,0,2.2,0.4,2.2,1.6c0,0.1,0,0.3,0,0.4l-1,0.1c0-0.1,0-0.2,0-0.3c0-0.7-0.4-1-1.1-1
		c-1.1,0-1.5,0.8-1.5,1.8c0,0.9,0.3,1.9,1.5,1.9c0.8,0,1.2-0.4,1.2-1.2l1,0.2c0,0,0,0.1,0,0.1c0,1.2-1.1,1.7-2.3,1.7
		c-1.6,0-2.5-1-2.5-2.7C446.8,216.8,447.7,215.8,449.4,215.8z"/>
	<path class="st3" d="M454.9,218c0.4,0,0.8,0,1.2,0.1v-0.4c0-0.7-0.2-1.1-1.2-1.1c-0.5,0-1,0.1-1,0.7c0,0.1,0,0.2,0,0.3l-1,0.1
		c-0.1-0.1-0.1-0.3-0.1-0.5c0-1,0.9-1.4,2.2-1.4c1.5,0,2.2,0.6,2.2,1.9v2.3c0,0.2,0.1,0.3,0.3,0.3c0.1,0,0.3,0,0.4-0.1l0.1,0.8
		c-0.2,0.1-0.4,0.1-0.7,0.1c-0.4,0-1-0.1-1.1-0.9h0c-0.3,0.5-0.9,0.9-1.8,0.9c-1,0-1.8-0.5-1.8-1.5C452.5,218.3,453.9,218,454.9,218
		z M454.6,220.3c0.9,0,1.5-0.6,1.5-1.5c-0.4-0.1-0.7-0.1-1.1-0.1c-0.7,0-1.3,0.1-1.3,0.8C453.6,220.1,454,220.3,454.6,220.3z"/>
	<path class="st3" d="M459.1,216.7h-0.8v-0.8h0.8v-1.2l1.1-0.1v1.4h1.6v0.8h-1.6v2.7c0,0.5,0.1,0.9,0.7,0.9c0.3,0,0.7-0.1,1-0.2
		l0.1,0.8c-0.3,0.1-0.8,0.2-1.3,0.2c-1.1,0-1.6-0.5-1.6-1.6V216.7z"/>
	<path class="st3" d="M462.7,214.2c0-0.4,0.3-0.7,0.7-0.7s0.7,0.3,0.7,0.7s-0.3,0.7-0.7,0.7S462.7,214.6,462.7,214.2z M462.9,215.9
		h1.1v5.1h-1.1V215.9z"/>
	<path class="st3" d="M467.9,215.8c1.6,0,2.6,1,2.6,2.6c0,1.6-0.9,2.7-2.6,2.7c-1.6,0-2.6-1-2.6-2.7
		C465.3,216.9,466.2,215.8,467.9,215.8z M467.9,220.3c1.1,0,1.5-0.8,1.5-1.8c0-1-0.4-1.9-1.5-1.9c-1.1,0-1.5,0.8-1.5,1.8
		C466.4,219.4,466.8,220.3,467.9,220.3z"/>
	<path class="st3" d="M471.8,215.9h0.9l0,0.8l0,0c0.4-0.7,1-0.9,1.8-0.9c1.1,0,1.9,0.6,1.9,1.8v3.4h-1.1v-3.2c0-0.7-0.3-1.2-1.1-1.2
		c-0.9,0-1.4,0.7-1.4,1.6v2.8h-1.1V215.9z"/>
	<path class="st3" d="M477.6,219.3l1-0.1c0,0.1,0,0.2,0,0.2c0,0.7,0.6,0.9,1.3,0.9c0.5,0,1.2-0.1,1.2-0.7c0-0.5-0.5-0.6-1.4-0.7
		c-1.1-0.2-2-0.4-2-1.5c0-1.2,1.1-1.6,2.2-1.6c0.9,0,2.2,0.3,2.2,1.4c0,0.1,0,0.2,0,0.3l-1,0.1c0-0.1,0-0.1,0-0.2
		c0-0.6-0.6-0.8-1.2-0.8c-0.5,0-1.1,0.1-1.1,0.7c0,0.5,0.4,0.5,1.4,0.7c1.1,0.2,2,0.4,2,1.5c0,1.2-1.2,1.6-2.4,1.6
		c-1,0-2.3-0.3-2.3-1.5C477.6,219.5,477.6,219.4,477.6,219.3z"/>
</g>
<rect id="Rectangle_16-4" x="385" y="141" class="st9" width="111" height="33"/>
<g class="st2">
	<path class="st3" d="M399,153.5c1.4,0,2.9,0.6,2.9,2.2c0,0.2,0,0.4-0.1,0.6l-1.1,0.1c0-0.2,0-0.4,0-0.5c0-1-0.8-1.4-1.8-1.4
		c-1.6,0-2.3,1.2-2.3,2.8c0,1.5,0.6,2.9,2.4,2.9c1.2,0,1.9-0.6,1.9-1.9l1,0.2c0,0.1,0,0.2,0,0.3c0,1.7-1.5,2.4-3.1,2.4
		c-2.3,0-3.5-1.5-3.5-3.8C395.5,155,396.7,153.5,399,153.5z"/>
	<path class="st3" d="M403.3,153.7h1.1v2.8l0,0c0.4-0.5,0.9-0.7,1.6-0.7c1.1,0,1.9,0.6,1.9,1.8v3.4h-1.1v-3.2c0-0.7-0.3-1.2-1.1-1.2
		c-0.9,0-1.4,0.7-1.4,1.6v2.8h-1.1V153.7z"/>
	<path class="st3" d="M411.9,155.8c1.6,0,2.6,1,2.6,2.6c0,1.6-0.9,2.7-2.6,2.7c-1.6,0-2.6-1-2.6-2.7
		C409.2,156.9,410.1,155.8,411.9,155.8z M411.9,160.3c1.1,0,1.5-0.8,1.5-1.8c0-1-0.4-1.9-1.5-1.9c-1.1,0-1.5,0.8-1.5,1.8
		C410.3,159.4,410.7,160.3,411.9,160.3z"/>
	<path class="st3" d="M418.1,155.8c1.6,0,2.6,1,2.6,2.6c0,1.6-0.9,2.7-2.6,2.7c-1.6,0-2.6-1-2.6-2.7
		C415.4,156.9,416.3,155.8,418.1,155.8z M418.1,160.3c1.1,0,1.5-0.8,1.5-1.8c0-1-0.4-1.9-1.5-1.9c-1.1,0-1.5,0.8-1.5,1.8
		C416.5,159.4,416.9,160.3,418.1,160.3z"/>
	<path class="st3" d="M421.6,159.3l1-0.1c0,0.1,0,0.2,0,0.2c0,0.7,0.6,0.9,1.3,0.9c0.5,0,1.2-0.1,1.2-0.7c0-0.5-0.5-0.6-1.4-0.7
		c-1.1-0.2-2-0.4-2-1.5c0-1.2,1.1-1.6,2.2-1.6c0.9,0,2.2,0.3,2.2,1.4c0,0.1,0,0.2,0,0.3l-1,0.1c0-0.1,0-0.1,0-0.2
		c0-0.6-0.6-0.8-1.2-0.8c-0.5,0-1.1,0.1-1.1,0.7c0,0.5,0.4,0.5,1.4,0.7c1.1,0.2,2,0.4,2,1.5c0,1.2-1.2,1.6-2.4,1.6
		c-1,0-2.3-0.3-2.3-1.5C421.6,159.5,421.6,159.4,421.6,159.3z"/>
	<path class="st3" d="M429.7,155.8c1.4,0,2.3,0.7,2.3,2.2c0,0.3,0,0.5-0.1,0.8h-3.6c0,0.9,0.5,1.6,1.5,1.6c0.7,0,1.1-0.3,1.2-1
		l1,0.2c-0.1,1.2-1.1,1.6-2.2,1.6c-1.7,0-2.6-1-2.6-2.6C427.2,156.9,428,155.8,429.7,155.8z M430.8,157.9c0,0,0-0.1,0-0.1
		c0-0.7-0.4-1.2-1.2-1.2c-0.8,0-1.3,0.5-1.4,1.3H430.8z"/>
	<path class="st3" d="M438.1,158c0.4,0,0.8,0,1.2,0.1v-0.4c0-0.7-0.2-1.1-1.2-1.1c-0.5,0-1,0.1-1,0.7c0,0.1,0,0.2,0,0.3l-1,0.1
		c-0.1-0.1-0.1-0.3-0.1-0.5c0-1,0.9-1.4,2.2-1.4c1.5,0,2.2,0.6,2.2,1.9v2.3c0,0.2,0.1,0.3,0.3,0.3c0.1,0,0.3,0,0.4-0.1l0.1,0.8
		c-0.2,0.1-0.4,0.1-0.7,0.1c-0.4,0-1-0.1-1.1-0.9h0c-0.3,0.5-0.9,0.9-1.8,0.9c-1,0-1.8-0.5-1.8-1.5C435.7,158.3,437,158,438.1,158z
		 M437.7,160.3c0.9,0,1.5-0.6,1.5-1.5c-0.4-0.1-0.7-0.1-1.1-0.1c-0.7,0-1.3,0.1-1.3,0.8C436.8,160.1,437.2,160.3,437.7,160.3z"/>
	<path class="st3" d="M442,155.9h0.9l0,0.8l0,0c0.4-0.7,1-0.9,1.8-0.9c1.1,0,1.9,0.6,1.9,1.8v3.4h-1.1v-3.2c0-0.7-0.3-1.2-1.1-1.2
		c-0.9,0-1.4,0.7-1.4,1.6v2.8H442V155.9z"/>
	<path class="st3" d="M452.9,158c0.4,0,0.8,0,1.2,0.1v-0.4c0-0.7-0.2-1.1-1.2-1.1c-0.5,0-1,0.1-1,0.7c0,0.1,0,0.2,0,0.3l-1,0.1
		c-0.1-0.1-0.1-0.3-0.1-0.5c0-1,0.9-1.4,2.2-1.4c1.5,0,2.2,0.6,2.2,1.9v2.3c0,0.2,0.1,0.3,0.3,0.3c0.1,0,0.3,0,0.4-0.1l0.1,0.8
		c-0.2,0.1-0.4,0.1-0.7,0.1c-0.4,0-1-0.1-1.1-0.9h0c-0.3,0.5-0.9,0.9-1.8,0.9c-1,0-1.8-0.5-1.8-1.5C450.5,158.3,451.8,158,452.9,158
		z M452.5,160.3c0.9,0,1.5-0.6,1.5-1.5c-0.4-0.1-0.7-0.1-1.1-0.1c-0.7,0-1.3,0.1-1.3,0.8C451.6,160.1,452,160.3,452.5,160.3z"/>
	<path class="st3" d="M459.1,155.8c1,0,2.2,0.4,2.2,1.6c0,0.1,0,0.3,0,0.4l-1,0.1c0-0.1,0-0.2,0-0.3c0-0.7-0.4-1-1.1-1
		c-1.1,0-1.5,0.8-1.5,1.8c0,0.9,0.3,1.9,1.5,1.9c0.8,0,1.2-0.4,1.2-1.2l1,0.2c0,0,0,0.1,0,0.1c0,1.2-1.1,1.7-2.3,1.7
		c-1.6,0-2.5-1-2.5-2.7C456.5,156.8,457.5,155.8,459.1,155.8z"/>
	<path class="st3" d="M462.9,156.7h-0.8v-0.8h0.8v-1.2l1.1-0.1v1.4h1.6v0.8H464v2.7c0,0.5,0.1,0.9,0.7,0.9c0.3,0,0.7-0.1,1-0.2
		l0.1,0.8c-0.3,0.1-0.8,0.2-1.3,0.2c-1.1,0-1.6-0.5-1.6-1.6V156.7z"/>
	<path class="st3" d="M466.5,154.2c0-0.4,0.3-0.7,0.7-0.7s0.7,0.3,0.7,0.7s-0.3,0.7-0.7,0.7S466.5,154.6,466.5,154.2z M466.7,155.9
		h1.1v5.1h-1.1V155.9z"/>
	<path class="st3" d="M468.7,155.9h1.2l0.9,2.5c0.2,0.5,0.4,1,0.6,1.7h0c0.2-0.7,0.4-1.2,0.6-1.7l0.9-2.5h1.2l-2,5.1h-1.3
		L468.7,155.9z"/>
	<path class="st3" d="M474.8,154.2c0-0.4,0.3-0.7,0.7-0.7s0.7,0.3,0.7,0.7s-0.3,0.7-0.7,0.7S474.8,154.6,474.8,154.2z M474.9,155.9
		h1.1v5.1h-1.1V155.9z"/>
	<path class="st3" d="M477.8,156.7h-0.8v-0.8h0.8v-1.2l1.1-0.1v1.4h1.6v0.8h-1.6v2.7c0,0.5,0.1,0.9,0.7,0.9c0.3,0,0.7-0.1,1-0.2
		l0.1,0.8c-0.3,0.1-0.8,0.2-1.3,0.2c-1.1,0-1.6-0.5-1.6-1.6V156.7z"/>
	<path class="st3" d="M482,162.5c0.5,0,0.7-0.3,0.9-0.9l0.2-0.5l-2.2-5.2h1.2l0.9,2.2c0.2,0.5,0.4,1,0.6,1.7h0
		c0.2-0.7,0.4-1.1,0.6-1.7l0.9-2.3h1.2l-2.4,6c-0.4,1-0.9,1.5-1.9,1.5c-0.4,0-0.8-0.1-1-0.2l0.1-0.9
		C481.4,162.4,481.7,162.5,482,162.5z"/>
</g>
<path id="Rectangle_16-5" class="st1" d="M420.5,50h37c9.1,0,16.5,7.4,16.5,16.5l0,0c0,9.1-7.4,16.5-16.5,16.5h-37
	c-9.1,0-16.5-7.4-16.5-16.5l0,0C404,57.4,411.4,50,420.5,50z"/>
<g class="st2">
	<path class="st3" d="M414.8,62.7h1.2v3.1h3.9v-3.1h1.2V70h-1.2v-3.3H416V70h-1.2V62.7z"/>
	<path class="st3" d="M424.8,67c0.4,0,0.8,0,1.2,0.1v-0.4c0-0.7-0.2-1.1-1.2-1.1c-0.5,0-1,0.1-1,0.7c0,0.1,0,0.2,0,0.3l-1,0.1
		c-0.1-0.1-0.1-0.3-0.1-0.5c0-1,0.9-1.4,2.2-1.4c1.5,0,2.2,0.6,2.2,1.9v2.3c0,0.2,0.1,0.3,0.3,0.3c0.1,0,0.3,0,0.4-0.1l0.1,0.8
		c-0.2,0.1-0.4,0.1-0.7,0.1c-0.4,0-1-0.1-1.1-0.9h0c-0.3,0.5-0.9,0.9-1.8,0.9c-1,0-1.8-0.5-1.8-1.5C422.4,67.3,423.7,67,424.8,67z
		 M424.4,69.3c0.9,0,1.5-0.6,1.5-1.5c-0.4-0.1-0.7-0.1-1.1-0.1c-0.7,0-1.3,0.1-1.3,0.8C423.5,69.1,423.9,69.3,424.4,69.3z"/>
	<path class="st3" d="M427.9,64.9h1.2l0.9,2.5c0.2,0.5,0.4,1,0.6,1.7h0c0.2-0.7,0.4-1.2,0.6-1.7l0.9-2.5h1.2l-2,5.1h-1.3L427.9,64.9
		z"/>
	<path class="st3" d="M436.2,64.8c1.4,0,2.3,0.7,2.3,2.2c0,0.3,0,0.5-0.1,0.8h-3.6c0,0.9,0.5,1.6,1.5,1.6c0.7,0,1.1-0.3,1.2-1l1,0.2
		c-0.1,1.2-1.1,1.6-2.2,1.6c-1.7,0-2.6-1-2.6-2.6C433.7,65.9,434.5,64.8,436.2,64.8z M437.3,66.9c0,0,0-0.1,0-0.1
		c0-0.7-0.4-1.2-1.2-1.2c-0.8,0-1.3,0.5-1.4,1.3H437.3z"/>
	<path class="st3" d="M442.8,65.7H442v-0.8h0.8v-0.6c0-1.1,0.6-1.8,1.8-1.8c0.3,0,0.7,0,0.9,0.1l-0.1,0.8c-0.3-0.1-0.5-0.1-0.7-0.1
		c-0.7,0-0.8,0.4-0.8,1v0.5h1.4v0.8h-1.4V70h-1.1V65.7z"/>
	<path class="st3" d="M446.2,64.9h1.1v3.3c0,0.7,0.3,1.1,1.1,1.1c1,0,1.4-0.7,1.4-1.7v-2.7h1.1V70H450l0-0.8l0,0
		c-0.4,0.7-1.1,0.9-1.8,0.9c-1.2,0-1.9-0.6-1.9-1.8V64.9z"/>
	<path class="st3" d="M452.4,64.9h0.9l0,0.8l0,0c0.4-0.7,1-0.9,1.8-0.9c1.1,0,1.9,0.6,1.9,1.8V70H456v-3.2c0-0.7-0.3-1.2-1.1-1.2
		c-0.9,0-1.4,0.7-1.4,1.6V70h-1.1V64.9z"/>
	<path class="st3" d="M459.4,68.7c0.4,0,0.7,0.3,0.7,0.7c0,0.4-0.3,0.7-0.7,0.7c-0.4,0-0.7-0.3-0.7-0.7
		C458.7,69,459,68.7,459.4,68.7z M458.8,62.7h1.3l-0.3,5.3h-0.7L458.8,62.7z"/>
	<path class="st3" d="M462.6,68.7c0.4,0,0.7,0.3,0.7,0.7c0,0.4-0.3,0.7-0.7,0.7c-0.4,0-0.7-0.3-0.7-0.7
		C461.9,69,462.2,68.7,462.6,68.7z M462,62.7h1.3l-0.3,5.3h-0.7L462,62.7z"/>
</g>
<rect id="Rectangle_16-6" x="533" y="141" class="st9" width="109" height="33"/>
<g class="st2">
	<path class="st3" d="M547,153.5c1.4,0,2.9,0.6,2.9,2.2c0,0.2,0,0.4-0.1,0.6l-1.1,0.1c0-0.2,0-0.4,0-0.5c0-1-0.8-1.4-1.8-1.4
		c-1.6,0-2.3,1.2-2.3,2.8c0,1.5,0.6,2.9,2.4,2.9c1.2,0,1.9-0.6,1.9-1.9l1,0.2c0,0.1,0,0.2,0,0.3c0,1.7-1.5,2.4-3.1,2.4
		c-2.3,0-3.5-1.5-3.5-3.8C543.5,155,544.7,153.5,547,153.5z"/>
	<path class="st3" d="M551.3,153.7h1.1v2.8l0,0c0.4-0.5,0.9-0.7,1.6-0.7c1.1,0,1.9,0.6,1.9,1.8v3.4h-1.1v-3.2c0-0.7-0.3-1.2-1.1-1.2
		c-0.9,0-1.4,0.7-1.4,1.6v2.8h-1.1V153.7z"/>
	<path class="st3" d="M559.9,155.8c1.6,0,2.6,1,2.6,2.6c0,1.6-0.9,2.7-2.6,2.7c-1.6,0-2.6-1-2.6-2.7
		C557.2,156.9,558.1,155.8,559.9,155.8z M559.9,160.3c1.1,0,1.5-0.8,1.5-1.8c0-1-0.4-1.9-1.5-1.9c-1.1,0-1.5,0.8-1.5,1.8
		C558.3,159.4,558.7,160.3,559.9,160.3z"/>
	<path class="st3" d="M566.1,155.8c1.6,0,2.6,1,2.6,2.6c0,1.6-0.9,2.7-2.6,2.7c-1.6,0-2.6-1-2.6-2.7
		C563.4,156.9,564.3,155.8,566.1,155.8z M566.1,160.3c1.1,0,1.5-0.8,1.5-1.8c0-1-0.4-1.9-1.5-1.9c-1.1,0-1.5,0.8-1.5,1.8
		C564.5,159.4,564.9,160.3,566.1,160.3z"/>
	<path class="st3" d="M569.6,159.3l1-0.1c0,0.1,0,0.2,0,0.2c0,0.7,0.6,0.9,1.3,0.9c0.5,0,1.2-0.1,1.2-0.7c0-0.5-0.5-0.6-1.4-0.7
		c-1.1-0.2-2-0.4-2-1.5c0-1.2,1.1-1.6,2.2-1.6c0.9,0,2.2,0.3,2.2,1.4c0,0.1,0,0.2,0,0.3l-1,0.1c0-0.1,0-0.1,0-0.2
		c0-0.6-0.6-0.8-1.2-0.8c-0.5,0-1.1,0.1-1.1,0.7c0,0.5,0.4,0.5,1.4,0.7c1.1,0.2,2,0.4,2,1.5c0,1.2-1.2,1.6-2.4,1.6
		c-1,0-2.3-0.3-2.3-1.5C569.6,159.5,569.6,159.4,569.6,159.3z"/>
	<path class="st3" d="M577.7,155.8c1.4,0,2.3,0.7,2.3,2.2c0,0.3,0,0.5-0.1,0.8h-3.6c0,0.9,0.5,1.6,1.5,1.6c0.7,0,1.1-0.3,1.2-1
		l1,0.2c-0.1,1.2-1.1,1.6-2.2,1.6c-1.7,0-2.6-1-2.6-2.6C575.2,156.9,576,155.8,577.7,155.8z M578.8,157.9c0,0,0-0.1,0-0.1
		c0-0.7-0.4-1.2-1.2-1.2c-0.8,0-1.3,0.5-1.4,1.3H578.8z"/>
	<path class="st3" d="M586.1,158c0.4,0,0.8,0,1.2,0.1v-0.4c0-0.7-0.2-1.1-1.2-1.1c-0.5,0-1,0.1-1,0.7c0,0.1,0,0.2,0,0.3l-1,0.1
		c-0.1-0.1-0.1-0.3-0.1-0.5c0-1,0.9-1.4,2.2-1.4c1.5,0,2.2,0.6,2.2,1.9v2.3c0,0.2,0.1,0.3,0.3,0.3c0.1,0,0.3,0,0.4-0.1l0.1,0.8
		c-0.2,0.1-0.4,0.1-0.7,0.1c-0.4,0-1-0.1-1.1-0.9h0c-0.3,0.5-0.9,0.9-1.8,0.9c-1,0-1.8-0.5-1.8-1.5C583.7,158.3,585,158,586.1,158z
		 M585.7,160.3c0.9,0,1.5-0.6,1.5-1.5c-0.4-0.1-0.7-0.1-1.1-0.1c-0.7,0-1.3,0.1-1.3,0.8C584.8,160.1,585.2,160.3,585.7,160.3z"/>
	<path class="st3" d="M592.6,153.7h1.1v7.3h-1.1V153.7z"/>
	<path class="st3" d="M597.7,155.8c1.6,0,2.6,1,2.6,2.6c0,1.6-0.9,2.7-2.6,2.7c-1.6,0-2.6-1-2.6-2.7
		C595,156.9,595.9,155.8,597.7,155.8z M597.7,160.3c1.1,0,1.5-0.8,1.5-1.8c0-1-0.4-1.9-1.5-1.9c-1.1,0-1.5,0.8-1.5,1.8
		C596.1,159.4,596.5,160.3,597.7,160.3z"/>
	<path class="st3" d="M603.8,155.8c1,0,2.2,0.4,2.2,1.6c0,0.1,0,0.3,0,0.4l-1,0.1c0-0.1,0-0.2,0-0.3c0-0.7-0.4-1-1.1-1
		c-1.1,0-1.5,0.8-1.5,1.8c0,0.9,0.3,1.9,1.5,1.9c0.8,0,1.2-0.4,1.2-1.2l1,0.2c0,0,0,0.1,0,0.1c0,1.2-1.1,1.7-2.3,1.7
		c-1.6,0-2.5-1-2.5-2.7C601.2,156.8,602.2,155.8,603.8,155.8z"/>
	<path class="st3" d="M609.4,158c0.4,0,0.8,0,1.2,0.1v-0.4c0-0.7-0.2-1.1-1.2-1.1c-0.5,0-1,0.1-1,0.7c0,0.1,0,0.2,0,0.3l-1,0.1
		c-0.1-0.1-0.1-0.3-0.1-0.5c0-1,0.9-1.4,2.2-1.4c1.5,0,2.2,0.6,2.2,1.9v2.3c0,0.2,0.1,0.3,0.3,0.3c0.1,0,0.3,0,0.4-0.1l0.1,0.8
		c-0.2,0.1-0.4,0.1-0.7,0.1c-0.4,0-1-0.1-1.1-0.9h0c-0.3,0.5-0.9,0.9-1.8,0.9c-1,0-1.8-0.5-1.8-1.5C607,158.3,608.3,158,609.4,158z
		 M609,160.3c0.9,0,1.5-0.6,1.5-1.5c-0.4-0.1-0.7-0.1-1.1-0.1c-0.7,0-1.3,0.1-1.3,0.8C608.1,160.1,608.5,160.3,609,160.3z"/>
	<path class="st3" d="M613.5,156.7h-0.8v-0.8h0.8v-1.2l1.1-0.1v1.4h1.6v0.8h-1.6v2.7c0,0.5,0.1,0.9,0.7,0.9c0.3,0,0.7-0.1,1-0.2
		l0.1,0.8c-0.3,0.1-0.8,0.2-1.3,0.2c-1.1,0-1.6-0.5-1.6-1.6V156.7z"/>
	<path class="st3" d="M617.2,154.2c0-0.4,0.3-0.7,0.7-0.7s0.7,0.3,0.7,0.7s-0.3,0.7-0.7,0.7S617.2,154.6,617.2,154.2z M617.3,155.9
		h1.1v5.1h-1.1V155.9z"/>
	<path class="st3" d="M622.4,155.8c1.6,0,2.6,1,2.6,2.6c0,1.6-0.9,2.7-2.6,2.7c-1.6,0-2.6-1-2.6-2.7
		C619.7,156.9,620.6,155.8,622.4,155.8z M622.4,160.3c1.1,0,1.5-0.8,1.5-1.8c0-1-0.4-1.9-1.5-1.9c-1.1,0-1.5,0.8-1.5,1.8
		C620.8,159.4,621.2,160.3,622.4,160.3z"/>
	<path class="st3" d="M626.2,155.9h0.9l0,0.8l0,0c0.4-0.7,1-0.9,1.8-0.9c1.1,0,1.9,0.6,1.9,1.8v3.4h-1.1v-3.2c0-0.7-0.3-1.2-1.1-1.2
		c-0.9,0-1.4,0.7-1.4,1.6v2.8h-1.1V155.9z"/>
</g>
<g id="Rectangle_16-7" transform="translate(12 8)">
	<rect x="238" y="42" class="st10" width="112" height="33"/>
	<rect x="239.5" y="43.5" class="st11" width="109" height="30"/>
</g>
<g class="st2">
	<path class="st9" d="M264,62.5c2.3,0,3.5,1.4,3.5,3.8c0,2.2-1.1,3.9-3.5,3.9c-2.3,0-3.5-1.5-3.5-3.8
		C260.5,64.2,261.6,62.5,264,62.5z M264,69.2c1.7,0,2.2-1.3,2.2-2.8c0-1.5-0.6-2.9-2.3-2.9c-1.7,0-2.3,1.3-2.3,2.8
		C261.7,67.8,262.3,69.2,264,69.2z"/>
	<path class="st9" d="M269.8,72.2h-1.1v-7.3h0.9l0.1,0.8l0,0c0.4-0.6,1-0.9,1.8-0.9c1.5,0,2.2,1.1,2.2,2.6c0,1.5-0.8,2.7-2.4,2.7
		c-0.6,0-1.1-0.2-1.5-0.5l0,0V72.2z M271.2,69.3c1,0,1.4-0.8,1.4-1.8c0-1-0.3-1.9-1.4-1.9c-0.9,0-1.4,0.7-1.4,1.6v1.4
		C270.1,68.9,270.5,69.3,271.2,69.3z"/>
	<path class="st9" d="M275.2,65.7h-0.8v-0.8h0.8v-1.2l1.1-0.1v1.4h1.6v0.8h-1.6v2.7c0,0.5,0.1,0.9,0.7,0.9c0.3,0,0.7-0.1,1-0.2
		l0.1,0.8c-0.3,0.1-0.8,0.2-1.3,0.2c-1.1,0-1.6-0.5-1.6-1.6V65.7z"/>
	<path class="st9" d="M278.9,63.2c0-0.4,0.3-0.7,0.7-0.7s0.7,0.3,0.7,0.7S280,64,279.6,64S278.9,63.6,278.9,63.2z M279,64.9h1.1V70
		H279V64.9z"/>
	<path class="st9" d="M284,64.8c1.6,0,2.6,1,2.6,2.6c0,1.6-0.9,2.7-2.6,2.7c-1.6,0-2.6-1-2.6-2.7C281.4,65.9,282.3,64.8,284,64.8z
		 M284,69.3c1.1,0,1.5-0.8,1.5-1.8c0-1-0.4-1.9-1.5-1.9c-1.1,0-1.5,0.8-1.5,1.8C282.5,68.4,282.9,69.3,284,69.3z"/>
	<path class="st9" d="M287.9,64.9h0.9l0,0.8l0,0c0.4-0.7,1-0.9,1.8-0.9c1.1,0,1.9,0.6,1.9,1.8V70h-1.1v-3.2c0-0.7-0.3-1.2-1.1-1.2
		c-0.9,0-1.4,0.7-1.4,1.6V70h-1.1V64.9z"/>
	<path class="st9" d="M296.1,67c0.4,0,0.8,0,1.2,0.1v-0.4c0-0.7-0.2-1.1-1.2-1.1c-0.5,0-1,0.1-1,0.7c0,0.1,0,0.2,0,0.3l-1,0.1
		c-0.1-0.1-0.1-0.3-0.1-0.5c0-1,0.9-1.4,2.2-1.4c1.5,0,2.2,0.6,2.2,1.9v2.3c0,0.2,0.1,0.3,0.3,0.3c0.1,0,0.3,0,0.4-0.1l0.1,0.8
		c-0.2,0.1-0.4,0.1-0.7,0.1c-0.4,0-1-0.1-1.1-0.9h0c-0.3,0.5-0.9,0.9-1.8,0.9c-1,0-1.8-0.5-1.8-1.5C293.7,67.3,295.1,67,296.1,67z
		 M295.8,69.3c0.9,0,1.5-0.6,1.5-1.5c-0.4-0.1-0.7-0.1-1.1-0.1c-0.7,0-1.3,0.1-1.3,0.8C294.9,69.1,295.2,69.3,295.8,69.3z"/>
	<path class="st9" d="M300.1,62.7h1.1V70h-1.1V62.7z"/>
	<path class="st9" d="M305.4,62.7h4.9v1h-3.7v2.2h3.3v1h-3.3V70h-1.2V62.7z"/>
	<path class="st9" d="M313.5,64.8c1.4,0,2.3,0.7,2.3,2.2c0,0.3,0,0.5-0.1,0.8h-3.6c0,0.9,0.5,1.6,1.5,1.6c0.7,0,1.1-0.3,1.2-1l1,0.2
		c-0.1,1.2-1.1,1.6-2.2,1.6c-1.7,0-2.6-1-2.6-2.6C310.9,65.9,311.8,64.8,313.5,64.8z M314.6,66.9c0,0,0-0.1,0-0.1
		c0-0.7-0.4-1.2-1.2-1.2c-0.8,0-1.3,0.5-1.4,1.3H314.6z"/>
	<path class="st9" d="M319.4,64.8c1.4,0,2.3,0.7,2.3,2.2c0,0.3,0,0.5-0.1,0.8H318c0,0.9,0.5,1.6,1.5,1.6c0.7,0,1.1-0.3,1.2-1l1,0.2
		c-0.1,1.2-1.1,1.6-2.2,1.6c-1.7,0-2.6-1-2.6-2.6C316.9,65.9,317.7,64.8,319.4,64.8z M320.5,66.9c0,0,0-0.1,0-0.1
		c0-0.7-0.4-1.2-1.2-1.2c-0.8,0-1.3,0.5-1.4,1.3H320.5z"/>
	<path class="st9" d="M325.2,64.8c0.6,0,1.1,0.2,1.5,0.5l0,0v-2.6h1.1V70h-0.9l-0.1-0.8h0c-0.4,0.6-1,0.9-1.8,0.9
		c-1.5,0-2.2-1.2-2.2-2.6C322.8,66.1,323.6,64.8,325.2,64.8z M325.3,69.3c0.9,0,1.4-0.7,1.4-1.6v-1.3c-0.3-0.4-0.7-0.8-1.4-0.8
		c-1,0-1.4,0.8-1.4,1.8C323.9,68.3,324.2,69.3,325.3,69.3z"/>
	<path class="st9" d="M329.4,62.7h1.1v2.9l0,0c0.4-0.5,0.9-0.8,1.6-0.8c1.5,0,2.2,1.1,2.2,2.6c0,1.5-0.7,2.7-2.4,2.7
		c-0.7,0-1.3-0.3-1.8-0.8l0,0L330,70h-0.6V62.7z M331.9,69.3c1.1,0,1.4-0.8,1.4-1.8c0-1.1-0.4-1.9-1.4-1.9c-0.9,0-1.4,0.6-1.4,1.6
		v1.4C330.7,68.9,331.2,69.3,331.9,69.3z"/>
	<path class="st9" d="M337.7,67c0.4,0,0.8,0,1.2,0.1v-0.4c0-0.7-0.2-1.1-1.2-1.1c-0.5,0-1,0.1-1,0.7c0,0.1,0,0.2,0,0.3l-1,0.1
		c-0.1-0.1-0.1-0.3-0.1-0.5c0-1,0.9-1.4,2.2-1.4c1.5,0,2.2,0.6,2.2,1.9v2.3c0,0.2,0.1,0.3,0.3,0.3c0.1,0,0.3,0,0.4-0.1l0.1,0.8
		c-0.2,0.1-0.4,0.1-0.7,0.1c-0.4,0-1-0.1-1.1-0.9h0c-0.3,0.5-0.9,0.9-1.8,0.9c-1,0-1.8-0.5-1.8-1.5C335.3,67.3,336.6,67,337.7,67z
		 M337.3,69.3c0.9,0,1.5-0.6,1.5-1.5c-0.4-0.1-0.7-0.1-1.1-0.1c-0.7,0-1.3,0.1-1.3,0.8C336.4,69.1,336.8,69.3,337.3,69.3z"/>
	<path class="st9" d="M343.9,64.8c1,0,2.2,0.4,2.2,1.6c0,0.1,0,0.3,0,0.4l-1,0.1c0-0.1,0-0.2,0-0.3c0-0.7-0.4-1-1.1-1
		c-1.1,0-1.5,0.8-1.5,1.8c0,0.9,0.3,1.9,1.5,1.9c0.8,0,1.2-0.4,1.2-1.2l1,0.2c0,0,0,0.1,0,0.1c0,1.2-1.1,1.7-2.3,1.7
		c-1.6,0-2.5-1-2.5-2.7C341.3,65.8,342.3,64.8,343.9,64.8z"/>
	<path class="st9" d="M347.4,62.7h1.1v4.5l0,0l2.2-2.2h1.4l0,0l-2.4,2.3l2.5,2.8l0,0h-1.4l-2.3-2.6l0,0V70h-1.1V62.7z"/>
</g>
<g id="Rectangle_16-8" transform="translate(12 8)">
	<rect x="507" y="256" class="st10" width="96" height="33"/>
	<rect x="508.5" y="257.5" class="st11" width="93" height="30"/>
</g>
<g class="st2">
	<path class="st9" d="M532,276.7h1.4l2.9,7.3H535l-0.8-2.1h-3.1l-0.8,2.1h-1.2L532,276.7z M533.9,281l-0.5-1.4
		c-0.3-0.7-0.5-1.2-0.7-1.8h0c-0.2,0.6-0.4,1.1-0.7,1.8l-0.5,1.4H533.9z"/>
	<path class="st9" d="M539.4,278.8c1,0,2.2,0.4,2.2,1.6c0,0.1,0,0.3,0,0.4l-1,0.1c0-0.1,0-0.2,0-0.3c0-0.7-0.4-1-1.1-1
		c-1.1,0-1.5,0.8-1.5,1.8c0,0.9,0.3,1.9,1.5,1.9c0.8,0,1.2-0.4,1.2-1.2l1,0.2c0,0,0,0.1,0,0.1c0,1.2-1.1,1.7-2.3,1.7
		c-1.6,0-2.5-1-2.5-2.7C536.8,279.8,537.7,278.8,539.4,278.8z"/>
	<path class="st9" d="M543.2,279.7h-0.8v-0.8h0.8v-1.2l1.1-0.1v1.4h1.6v0.8h-1.6v2.7c0,0.5,0.1,0.9,0.7,0.9c0.3,0,0.7-0.1,1-0.2
		l0.1,0.8c-0.3,0.1-0.8,0.2-1.3,0.2c-1.1,0-1.6-0.5-1.6-1.6V279.7z"/>
	<path class="st9" d="M546.8,277.2c0-0.4,0.3-0.7,0.7-0.7s0.7,0.3,0.7,0.7s-0.3,0.7-0.7,0.7S546.8,277.6,546.8,277.2z M547,278.9
		h1.1v5.1H547V278.9z"/>
	<path class="st9" d="M549,278.9h1.2l0.9,2.5c0.2,0.5,0.4,1,0.6,1.7h0c0.2-0.7,0.4-1.2,0.6-1.7l0.9-2.5h1.2l-2,5.1H551L549,278.9z"
		/>
	<path class="st9" d="M555,277.2c0-0.4,0.3-0.7,0.7-0.7s0.7,0.3,0.7,0.7s-0.3,0.7-0.7,0.7S555,277.6,555,277.2z M555.2,278.9h1.1
		v5.1h-1.1V278.9z"/>
	<path class="st9" d="M558.1,279.7h-0.8v-0.8h0.8v-1.2l1.1-0.1v1.4h1.6v0.8h-1.6v2.7c0,0.5,0.1,0.9,0.7,0.9c0.3,0,0.7-0.1,1-0.2
		l0.1,0.8c-0.3,0.1-0.8,0.2-1.3,0.2c-1.1,0-1.6-0.5-1.6-1.6V279.7z"/>
	<path class="st9" d="M562.3,285.5c0.5,0,0.7-0.3,0.9-0.9l0.2-0.5l-2.2-5.2h1.2l0.9,2.2c0.2,0.5,0.4,1,0.6,1.7h0
		c0.2-0.7,0.4-1.1,0.6-1.7l0.9-2.3h1.2l-2.4,6c-0.4,1-0.9,1.5-1.9,1.5c-0.4,0-0.8-0.1-1-0.2l0.1-0.9
		C561.7,285.4,562,285.5,562.3,285.5z"/>
	<path class="st9" d="M569.9,276.7h1.2v3.1h3.9v-3.1h1.2v7.3H575v-3.3h-3.9v3.3h-1.2V276.7z"/>
	<path class="st9" d="M577.6,277.2c0-0.4,0.3-0.7,0.7-0.7s0.7,0.3,0.7,0.7s-0.3,0.7-0.7,0.7S577.6,277.6,577.6,277.2z M577.8,278.9
		h1.1v5.1h-1.1V278.9z"/>
	<path class="st9" d="M580.1,282.3l1-0.1c0,0.1,0,0.2,0,0.2c0,0.7,0.6,0.9,1.3,0.9c0.5,0,1.2-0.1,1.2-0.7c0-0.5-0.5-0.6-1.4-0.7
		c-1.1-0.2-2-0.4-2-1.5c0-1.2,1.1-1.6,2.2-1.6c0.9,0,2.2,0.3,2.2,1.4c0,0.1,0,0.2,0,0.3l-1,0.1c0-0.1,0-0.1,0-0.2
		c0-0.6-0.6-0.8-1.2-0.8c-0.5,0-1.1,0.1-1.1,0.7c0,0.5,0.4,0.5,1.4,0.7c1.1,0.2,2,0.4,2,1.5c0,1.2-1.2,1.6-2.4,1.6
		c-1,0-2.3-0.3-2.3-1.5C580.1,282.5,580.1,282.4,580.1,282.3z"/>
	<path class="st9" d="M586.2,279.7h-0.8v-0.8h0.8v-1.2l1.1-0.1v1.4h1.6v0.8h-1.6v2.7c0,0.5,0.1,0.9,0.7,0.9c0.3,0,0.7-0.1,1-0.2
		l0.1,0.8c-0.3,0.1-0.8,0.2-1.3,0.2c-1.1,0-1.6-0.5-1.6-1.6V279.7z"/>
	<path class="st9" d="M592.3,278.8c1.6,0,2.6,1,2.6,2.6c0,1.6-0.9,2.7-2.6,2.7c-1.6,0-2.6-1-2.6-2.7
		C589.7,279.9,590.5,278.8,592.3,278.8z M592.3,283.3c1.1,0,1.5-0.8,1.5-1.8c0-1-0.4-1.9-1.5-1.9c-1.1,0-1.5,0.8-1.5,1.8
		C590.8,282.4,591.2,283.3,592.3,283.3z"/>
	<path class="st9" d="M596.2,278.9h0.9l0.1,0.8h0c0.4-0.7,0.8-1,1.5-1c0.3,0,0.6,0,0.8,0.2l-0.2,1c-0.2-0.2-0.5-0.3-0.8-0.3
		c-1,0-1.2,1-1.2,1.8v2.5h-1.1V278.9z"/>
	<path class="st9" d="M600.9,285.5c0.5,0,0.7-0.3,0.9-0.9l0.2-0.5l-2.2-5.2h1.2l0.9,2.2c0.2,0.5,0.4,1,0.6,1.7h0
		c0.2-0.7,0.4-1.1,0.6-1.7l0.9-2.3h1.2l-2.4,6c-0.4,1-0.9,1.5-1.9,1.5c-0.4,0-0.8-0.1-1-0.2l0.1-0.9
		C600.2,285.4,600.6,285.5,600.9,285.5z"/>
</g>
<g class="st2">
	<path class="st12" d="M169.8,341.6l-1,0.6l-0.3-0.5l1-0.5l-1-0.5l0.3-0.5l1,0.6l-0.1-1.2h0.6l-0.1,1.2l1-0.6l0.3,0.5l-1,0.5l1,0.5
		l-0.3,0.5l-1-0.6l0.1,1.2h-0.6L169.8,341.6z"/>
	<path class="st12" d="M175.9,339.5c1.4,0,2.9,0.6,2.9,2.2c0,0.2,0,0.4-0.1,0.6l-1.1,0.1c0-0.2,0-0.4,0-0.5c0-1-0.8-1.4-1.8-1.4
		c-1.6,0-2.3,1.2-2.3,2.8c0,1.5,0.6,2.9,2.4,2.9c1.2,0,1.9-0.6,1.9-1.9l1,0.2c0,0.1,0,0.2,0,0.3c0,1.7-1.5,2.4-3.1,2.4
		c-2.3,0-3.5-1.5-3.5-3.8C172.4,341,173.7,339.5,175.9,339.5z"/>
	<path class="st12" d="M180.3,339.7h1.1v2.8l0,0c0.4-0.5,0.9-0.7,1.6-0.7c1.1,0,1.9,0.6,1.9,1.8v3.4h-1.1v-3.2
		c0-0.7-0.3-1.2-1.1-1.2c-0.9,0-1.4,0.7-1.4,1.6v2.8h-1.1V339.7z"/>
	<path class="st12" d="M186.3,340.2c0-0.4,0.3-0.7,0.7-0.7s0.7,0.3,0.7,0.7s-0.3,0.7-0.7,0.7S186.3,340.6,186.3,340.2z M186.5,341.9
		h1.1v5.1h-1.1V341.9z"/>
	<path class="st12" d="M189.1,339.7h1.1v7.3h-1.1V339.7z"/>
	<path class="st12" d="M193.9,341.8c0.6,0,1.1,0.2,1.5,0.5l0,0v-2.6h1.1v7.3h-0.9l-0.1-0.8h0c-0.4,0.6-1,0.9-1.8,0.9
		c-1.5,0-2.2-1.2-2.2-2.6C191.5,343.1,192.3,341.8,193.9,341.8z M194,346.3c0.9,0,1.4-0.7,1.4-1.6v-1.3c-0.3-0.4-0.7-0.8-1.4-0.8
		c-1,0-1.4,0.8-1.4,1.8C192.6,345.3,192.9,346.3,194,346.3z"/>
	<path class="st12" d="M201.8,349.2h-1.1v-7.3h0.9l0.1,0.8l0,0c0.4-0.6,1-0.9,1.8-0.9c1.5,0,2.2,1.1,2.2,2.6c0,1.5-0.8,2.7-2.4,2.7
		c-0.6,0-1.1-0.2-1.5-0.5l0,0V349.2z M203.2,346.3c1,0,1.4-0.8,1.4-1.8c0-1-0.3-1.9-1.4-1.9c-0.9,0-1.4,0.7-1.4,1.6v1.4
		C202.1,345.9,202.5,346.3,203.2,346.3z"/>
	<path class="st12" d="M207,341.9h0.9l0.1,0.8h0c0.4-0.7,0.8-1,1.5-1c0.3,0,0.6,0,0.8,0.2l-0.2,1c-0.2-0.2-0.5-0.3-0.8-0.3
		c-1,0-1.2,1-1.2,1.8v2.5H207V341.9z"/>
	<path class="st12" d="M213.5,341.8c1.6,0,2.6,1,2.6,2.6c0,1.6-0.9,2.7-2.6,2.7c-1.6,0-2.6-1-2.6-2.7
		C210.8,342.9,211.7,341.8,213.5,341.8z M213.5,346.3c1.1,0,1.5-0.8,1.5-1.8c0-1-0.4-1.9-1.5-1.9c-1.1,0-1.5,0.8-1.5,1.8
		C211.9,345.4,212.3,346.3,213.5,346.3z"/>
	<path class="st12" d="M217.6,342.7h-0.8v-0.8h0.8v-0.3c0-1.5,0.8-2.1,2.2-2.1c0.8,0,1.4,0.2,1.9,0.4l-0.2,0.9
		c-0.5-0.3-1.1-0.4-1.6-0.4c-0.9,0-1.1,0.4-1.1,1.3v0.2h3.3v5.1h-1.1v-4.3h-2.2v4.3h-1.1V342.7z"/>
	<path class="st12" d="M223.5,339.7h1.1v7.3h-1.1V339.7z"/>
	<path class="st12" d="M228.4,341.8c1.4,0,2.3,0.7,2.3,2.2c0,0.3,0,0.5-0.1,0.8H227c0,0.9,0.5,1.6,1.5,1.6c0.7,0,1.1-0.3,1.2-1
		l1,0.2c-0.1,1.2-1.1,1.6-2.2,1.6c-1.7,0-2.6-1-2.6-2.6C225.9,342.9,226.7,341.8,228.4,341.8z M229.6,343.9c0,0,0-0.1,0-0.1
		c0-0.7-0.4-1.2-1.2-1.2c-0.8,0-1.3,0.5-1.4,1.3H229.6z"/>
	<path class="st12" d="M234.7,341.9h0.9l0.1,0.8h0c0.4-0.7,0.8-1,1.5-1c0.3,0,0.6,0,0.8,0.2l-0.2,1c-0.2-0.2-0.5-0.3-0.8-0.3
		c-1,0-1.2,1-1.2,1.8v2.5h-1.1V341.9z"/>
	<path class="st12" d="M241.1,341.8c1.4,0,2.3,0.7,2.3,2.2c0,0.3,0,0.5-0.1,0.8h-3.6c0,0.9,0.5,1.6,1.5,1.6c0.7,0,1.1-0.3,1.2-1
		l1,0.2c-0.1,1.2-1.1,1.6-2.2,1.6c-1.7,0-2.6-1-2.6-2.6C238.5,342.9,239.4,341.8,241.1,341.8z M242.2,343.9c0,0,0-0.1,0-0.1
		c0-0.7-0.4-1.2-1.2-1.2c-0.8,0-1.3,0.5-1.4,1.3H242.2z"/>
	<path class="st12" d="M246.9,341.8c0.8,0,1.3,0.3,1.8,0.8l0,0l0.2-0.6h0.6v7.3h-1.1v-2.9l0,0c-0.4,0.5-0.9,0.8-1.7,0.8
		c-1.5,0-2.2-1.2-2.2-2.6C244.5,343,245.2,341.8,246.9,341.8z M246.9,346.3c0.9,0,1.4-0.7,1.4-1.6v-1.3c-0.3-0.3-0.7-0.7-1.4-0.7
		c-1,0-1.4,0.8-1.4,1.8C245.6,345.4,245.9,346.3,246.9,346.3z"/>
	<path class="st12" d="M251,341.9h1.1v3.3c0,0.7,0.3,1.1,1.1,1.1c1,0,1.4-0.7,1.4-1.7v-2.7h1.1v5.1h-0.9l0-0.8l0,0
		c-0.4,0.7-1.1,0.9-1.8,0.9c-1.2,0-1.9-0.6-1.9-1.8V341.9z"/>
	<path class="st12" d="M257,340.2c0-0.4,0.3-0.7,0.7-0.7s0.7,0.3,0.7,0.7s-0.3,0.7-0.7,0.7S257,340.6,257,340.2z M257.2,341.9h1.1
		v5.1h-1.1V341.9z"/>
	<path class="st12" d="M259.9,341.9h0.9l0.1,0.8h0c0.4-0.7,0.8-1,1.5-1c0.3,0,0.6,0,0.8,0.2l-0.2,1c-0.2-0.2-0.5-0.3-0.8-0.3
		c-1,0-1.2,1-1.2,1.8v2.5h-1.1V341.9z"/>
	<path class="st12" d="M266.2,341.8c1.4,0,2.3,0.7,2.3,2.2c0,0.3,0,0.5-0.1,0.8h-3.6c0,0.9,0.5,1.6,1.5,1.6c0.7,0,1.1-0.3,1.2-1
		l1,0.2c-0.1,1.2-1.1,1.6-2.2,1.6c-1.7,0-2.6-1-2.6-2.6C263.7,342.9,264.5,341.8,266.2,341.8z M267.4,343.9c0,0,0-0.1,0-0.1
		c0-0.7-0.4-1.2-1.2-1.2c-0.8,0-1.3,0.5-1.4,1.3H267.4z"/>
	<path class="st12" d="M272,341.8c0.6,0,1.1,0.2,1.5,0.5l0,0v-2.6h1.1v7.3h-0.9l-0.1-0.8h0c-0.4,0.6-1,0.9-1.8,0.9
		c-1.5,0-2.2-1.2-2.2-2.6C269.6,343.1,270.4,341.8,272,341.8z M272.1,346.3c0.9,0,1.4-0.7,1.4-1.6v-1.3c-0.3-0.4-0.7-0.8-1.4-0.8
		c-1,0-1.4,0.8-1.4,1.8C270.7,345.3,271,346.3,272.1,346.3z"/>
	<path class="st12" d="M277.2,341.6l-1,0.6l-0.3-0.5l1-0.5l-1-0.5l0.3-0.5l1,0.6l-0.1-1.2h0.6l-0.1,1.2l1-0.6l0.3,0.5l-1,0.5l1,0.5
		l-0.3,0.5l-1-0.6l0.1,1.2h-0.6L277.2,341.6z"/>
</g>
<path id="Rectangle_16-9" class="st9" d="M393,264h78c4.4,0,8,3.6,8,8v17c0,4.4-3.6,8-8,8h-78c-4.4,0-8-3.6-8-8v-17
	C385,267.6,388.6,264,393,264z"/>
<g class="st2">
	<path class="st3" d="M395.1,276.7h1.3l1.4,3.8c0.3,0.8,0.6,1.6,0.8,2.4h0c0.3-0.8,0.5-1.6,0.8-2.4l1.4-3.8h1.2l-2.8,7.3h-1.5
		L395.1,276.7z"/>
	<path class="st3" d="M402.8,277.2c0-0.4,0.3-0.7,0.7-0.7s0.7,0.3,0.7,0.7s-0.3,0.7-0.7,0.7S402.8,277.6,402.8,277.2z M403,278.9
		h1.1v5.1H403V278.9z"/>
	<path class="st3" d="M407.9,278.8c1.4,0,2.3,0.7,2.3,2.2c0,0.3,0,0.5-0.1,0.8h-3.6c0,0.9,0.5,1.6,1.5,1.6c0.7,0,1.1-0.3,1.2-1
		l1,0.2c-0.1,1.2-1.1,1.6-2.2,1.6c-1.7,0-2.6-1-2.6-2.6C405.4,279.9,406.2,278.8,407.9,278.8z M409,280.9c0,0,0-0.1,0-0.1
		c0-0.7-0.4-1.2-1.2-1.2c-0.8,0-1.3,0.5-1.4,1.3H409z"/>
	<path class="st3" d="M410.8,278.9h1.1l0.7,2.5c0.2,0.5,0.3,1,0.4,1.6h0c0.2-0.6,0.3-1.1,0.4-1.6l0.7-2.5h0.9l0.7,2.5
		c0.2,0.5,0.3,1.1,0.4,1.6h0c0.2-0.6,0.3-1.1,0.4-1.6l0.7-2.5h1.1L417,284h-1.4l-0.5-1.9c-0.2-0.6-0.3-1.1-0.4-1.6h0
		c-0.1,0.4-0.2,1-0.4,1.6l-0.5,1.9h-1.4L410.8,278.9z"/>
	<path class="st3" d="M422,281.4l1.1-0.1c0,0.2,0,0.4,0,0.5c0,1,0.9,1.4,1.9,1.4c0.9,0,1.8-0.2,1.8-1.2c0-0.9-0.8-1-2-1.3
		c-1.4-0.3-2.7-0.6-2.7-2c0-1.4,1.3-2.2,2.9-2.2c1.4,0,2.8,0.6,2.8,2c0,0.2,0,0.4-0.1,0.5l-1.1,0.1c0-0.1,0-0.3,0-0.4
		c0-0.9-0.8-1.2-1.7-1.2c-0.8,0-1.6,0.2-1.6,1.1s0.8,1,2,1.2c1.6,0.3,2.7,0.7,2.7,2.1c0,1.5-1.3,2.3-3.1,2.3c-1.5,0-3-0.5-3-2.1
		C421.9,281.8,421.9,281.6,422,281.4z"/>
	<path class="st3" d="M429.4,279.7h-0.8v-0.8h0.8v-1.2l1.1-0.1v1.4h1.6v0.8h-1.6v2.7c0,0.5,0.1,0.9,0.7,0.9c0.3,0,0.7-0.1,1-0.2
		l0.1,0.8c-0.3,0.1-0.8,0.2-1.3,0.2c-1.1,0-1.6-0.5-1.6-1.6V279.7z"/>
	<path class="st3" d="M435.3,281c0.4,0,0.8,0,1.2,0.1v-0.4c0-0.7-0.2-1.1-1.2-1.1c-0.5,0-1,0.1-1,0.7c0,0.1,0,0.2,0,0.3l-1,0.1
		c-0.1-0.1-0.1-0.3-0.1-0.5c0-1,0.9-1.4,2.2-1.4c1.5,0,2.2,0.6,2.2,1.9v2.3c0,0.2,0.1,0.3,0.3,0.3c0.1,0,0.3,0,0.4-0.1l0.1,0.8
		c-0.2,0.1-0.4,0.1-0.7,0.1c-0.4,0-1-0.1-1.1-0.9h0c-0.3,0.5-0.9,0.9-1.8,0.9c-1,0-1.8-0.5-1.8-1.5C432.9,281.3,434.2,281,435.3,281
		z M435,283.3c0.9,0,1.5-0.6,1.5-1.5c-0.4-0.1-0.7-0.1-1.1-0.1c-0.7,0-1.3,0.1-1.3,0.8C434,283.1,434.4,283.3,435,283.3z"/>
	<path class="st3" d="M439.5,279.7h-0.8v-0.8h0.8v-1.2l1.1-0.1v1.4h1.6v0.8h-1.6v2.7c0,0.5,0.1,0.9,0.7,0.9c0.3,0,0.7-0.1,1-0.2
		l0.1,0.8c-0.3,0.1-0.8,0.2-1.3,0.2c-1.1,0-1.6-0.5-1.6-1.6V279.7z"/>
	<path class="st3" d="M443.1,277.2c0-0.4,0.3-0.7,0.7-0.7s0.7,0.3,0.7,0.7s-0.3,0.7-0.7,0.7S443.1,277.6,443.1,277.2z M443.3,278.9
		h1.1v5.1h-1.1V278.9z"/>
	<path class="st3" d="M445.6,282.3l1-0.1c0,0.1,0,0.2,0,0.2c0,0.7,0.6,0.9,1.3,0.9c0.5,0,1.2-0.1,1.2-0.7c0-0.5-0.5-0.6-1.4-0.7
		c-1.1-0.2-2-0.4-2-1.5c0-1.2,1.1-1.6,2.2-1.6c0.9,0,2.2,0.3,2.2,1.4c0,0.1,0,0.2,0,0.3l-1,0.1c0-0.1,0-0.1,0-0.2
		c0-0.6-0.6-0.8-1.2-0.8c-0.5,0-1.1,0.1-1.1,0.7c0,0.5,0.4,0.5,1.4,0.7c1.1,0.2,2,0.4,2,1.5c0,1.2-1.2,1.6-2.4,1.6
		c-1,0-2.3-0.3-2.3-1.5C445.6,282.5,445.6,282.4,445.6,282.3z"/>
	<path class="st3" d="M451.7,279.7H451v-0.8h0.8v-1.2l1.1-0.1v1.4h1.6v0.8h-1.6v2.7c0,0.5,0.1,0.9,0.7,0.9c0.3,0,0.7-0.1,1-0.2
		l0.1,0.8c-0.3,0.1-0.8,0.2-1.3,0.2c-1.1,0-1.6-0.5-1.6-1.6V279.7z"/>
	<path class="st3" d="M455.4,277.2c0-0.4,0.3-0.7,0.7-0.7s0.7,0.3,0.7,0.7s-0.3,0.7-0.7,0.7S455.4,277.6,455.4,277.2z M455.5,278.9
		h1.1v5.1h-1.1V278.9z"/>
	<path class="st3" d="M460.5,278.8c1,0,2.2,0.4,2.2,1.6c0,0.1,0,0.3,0,0.4l-1,0.1c0-0.1,0-0.2,0-0.3c0-0.7-0.4-1-1.1-1
		c-1.1,0-1.5,0.8-1.5,1.8c0,0.9,0.3,1.9,1.5,1.9c0.8,0,1.2-0.4,1.2-1.2l1,0.2c0,0,0,0.1,0,0.1c0,1.2-1.1,1.7-2.3,1.7
		c-1.6,0-2.5-1-2.5-2.7C457.9,279.8,458.9,278.8,460.5,278.8z"/>
	<path class="st3" d="M463.7,282.3l1-0.1c0,0.1,0,0.2,0,0.2c0,0.7,0.6,0.9,1.3,0.9c0.5,0,1.2-0.1,1.2-0.7c0-0.5-0.5-0.6-1.4-0.7
		c-1.1-0.2-2-0.4-2-1.5c0-1.2,1.1-1.6,2.2-1.6c0.9,0,2.2,0.3,2.2,1.4c0,0.1,0,0.2,0,0.3l-1,0.1c0-0.1,0-0.1,0-0.2
		c0-0.6-0.6-0.8-1.2-0.8c-0.5,0-1.1,0.1-1.1,0.7c0,0.5,0.4,0.5,1.4,0.7c1.1,0.2,2,0.4,2,1.5c0,1.2-1.2,1.6-2.4,1.6
		c-1,0-2.3-0.3-2.3-1.5C463.6,282.5,463.6,282.4,463.7,282.3z"/>
</g>
<path id="Rectangle_16-10" class="st9" d="M393,327h53c4.4,0,8,3.6,8,8v17c0,4.4-3.6,8-8,8h-53c-4.4,0-8-3.6-8-8v-17
	C385,330.6,388.6,327,393,327z"/>
<g class="st2">
	<path class="st3" d="M395.9,339.7h1.7l1.2,3c0.3,0.7,0.6,1.4,0.8,2.2h0c0.3-0.7,0.6-1.4,0.8-2.2l1.2-3h1.7l0.1,7.3h-1.2l-0.1-6l0,0
		c-0.2,0.6-0.5,1.2-0.7,1.9l-1.5,3.7h-0.9l-1.5-3.7c-0.3-0.7-0.5-1.3-0.7-1.9l0,0l-0.1,6h-1.1L395.9,339.7z"/>
	<path class="st3" d="M405.5,348.5c0.5,0,0.7-0.3,0.9-0.9l0.2-0.5l-2.2-5.2h1.2l0.9,2.2c0.2,0.5,0.4,1,0.6,1.7h0
		c0.2-0.7,0.4-1.1,0.6-1.7l0.9-2.3h1.2l-2.4,6c-0.4,1-0.9,1.5-1.9,1.5c-0.4,0-0.8-0.1-1-0.2l0.1-0.9
		C404.9,348.4,405.3,348.5,405.5,348.5z"/>
	<path class="st3" d="M413.2,339.7h2.9c1.6,0,2.8,0.4,2.8,2.2c0,1.9-1.4,2.4-3,2.4h-1.6v2.7h-1.2V339.7z M416.1,343.4
		c1,0,1.7-0.2,1.7-1.4c0-1.2-0.7-1.4-1.7-1.4h-1.6v2.7H416.1z"/>
	<path class="st3" d="M420,341.9h0.9l0.1,0.8h0c0.4-0.7,0.8-1,1.5-1c0.3,0,0.6,0,0.8,0.2l-0.2,1c-0.2-0.2-0.5-0.3-0.8-0.3
		c-1,0-1.2,1-1.2,1.8v2.5H420V341.9z"/>
	<path class="st3" d="M426.5,341.8c1.6,0,2.6,1,2.6,2.6c0,1.6-0.9,2.7-2.6,2.7c-1.6,0-2.6-1-2.6-2.7
		C423.8,342.9,424.7,341.8,426.5,341.8z M426.5,346.3c1.1,0,1.5-0.8,1.5-1.8c0-1-0.4-1.9-1.5-1.9c-1.1,0-1.5,0.8-1.5,1.8
		C424.9,345.4,425.3,346.3,426.5,346.3z"/>
	<path class="st3" d="M430.6,342.7h-0.8v-0.8h0.8v-0.3c0-1.5,0.8-2.1,2.2-2.1c0.8,0,1.4,0.2,1.9,0.4l-0.2,0.9
		c-0.5-0.3-1.1-0.4-1.6-0.4c-0.9,0-1.1,0.4-1.1,1.3v0.2h3.3v5.1h-1.1v-4.3h-2.2v4.3h-1.1V342.7z"/>
	<path class="st3" d="M436.5,339.7h1.1v7.3h-1.1V339.7z"/>
	<path class="st3" d="M441.4,341.8c1.4,0,2.3,0.7,2.3,2.2c0,0.3,0,0.5-0.1,0.8H440c0,0.9,0.5,1.6,1.5,1.6c0.7,0,1.1-0.3,1.2-1l1,0.2
		c-0.1,1.2-1.1,1.6-2.2,1.6c-1.7,0-2.6-1-2.6-2.6C438.9,342.9,439.7,341.8,441.4,341.8z M442.6,343.9c0,0,0-0.1,0-0.1
		c0-0.7-0.4-1.2-1.2-1.2c-0.8,0-1.3,0.5-1.4,1.3H442.6z"/>
</g>
<path id="Rectangle_16-11" class="st9" d="M497,327h64c4.4,0,8,3.6,8,8v17c0,4.4-3.6,8-8,8h-64c-4.4,0-8-3.6-8-8v-17
	C489,330.6,492.6,327,497,327z"/>
<g class="st2">
	<path class="st3" d="M503,339.5c1.4,0,2.9,0.6,2.9,2.2c0,0.2,0,0.4-0.1,0.6l-1.1,0.1c0-0.2,0-0.4,0-0.5c0-1-0.8-1.4-1.8-1.4
		c-1.6,0-2.3,1.2-2.3,2.8c0,1.5,0.6,2.9,2.4,2.9c1.2,0,1.9-0.6,1.9-1.9l1,0.2c0,0.1,0,0.2,0,0.3c0,1.7-1.5,2.4-3.1,2.4
		c-2.3,0-3.5-1.5-3.5-3.8C499.5,341,500.7,339.5,503,339.5z"/>
	<path class="st3" d="M507.3,339.7h1.1v2.8l0,0c0.4-0.5,0.9-0.7,1.6-0.7c1.1,0,1.9,0.6,1.9,1.8v3.4h-1.1v-3.2c0-0.7-0.3-1.2-1.1-1.2
		c-0.9,0-1.4,0.7-1.4,1.6v2.8h-1.1V339.7z"/>
	<path class="st3" d="M513.3,340.2c0-0.4,0.3-0.7,0.7-0.7s0.7,0.3,0.7,0.7s-0.3,0.7-0.7,0.7S513.3,340.6,513.3,340.2z M513.5,341.9
		h1.1v5.1h-1.1V341.9z"/>
	<path class="st3" d="M516.2,339.7h1.1v7.3h-1.1V339.7z"/>
	<path class="st3" d="M521,341.8c0.6,0,1.1,0.2,1.5,0.5l0,0v-2.6h1.1v7.3h-0.9l-0.1-0.8h0c-0.4,0.6-1,0.9-1.8,0.9
		c-1.5,0-2.2-1.2-2.2-2.6C518.6,343.1,519.3,341.8,521,341.8z M521,346.3c0.9,0,1.4-0.7,1.4-1.6v-1.3c-0.3-0.4-0.7-0.8-1.4-0.8
		c-1,0-1.4,0.8-1.4,1.8C519.7,345.3,519.9,346.3,521,346.3z"/>
	<path class="st3" d="M527.8,339.7h2.9c1.6,0,2.8,0.4,2.8,2.2c0,1.9-1.4,2.4-3,2.4H529v2.7h-1.2V339.7z M530.7,343.4
		c1,0,1.7-0.2,1.7-1.4c0-1.2-0.7-1.4-1.7-1.4H529v2.7H530.7z"/>
	<path class="st3" d="M534.7,341.9h0.9l0.1,0.8h0c0.4-0.7,0.8-1,1.5-1c0.3,0,0.6,0,0.8,0.2l-0.2,1c-0.2-0.2-0.5-0.3-0.8-0.3
		c-1,0-1.2,1-1.2,1.8v2.5h-1.1V341.9z"/>
	<path class="st3" d="M541.1,341.8c1.6,0,2.6,1,2.6,2.6c0,1.6-0.9,2.7-2.6,2.7c-1.6,0-2.6-1-2.6-2.7
		C538.5,342.9,539.3,341.8,541.1,341.8z M541.1,346.3c1.1,0,1.5-0.8,1.5-1.8c0-1-0.4-1.9-1.5-1.9c-1.1,0-1.5,0.8-1.5,1.8
		C539.6,345.4,540,346.3,541.1,346.3z"/>
	<path class="st3" d="M545.2,342.7h-0.8v-0.8h0.8v-0.3c0-1.5,0.8-2.1,2.2-2.1c0.8,0,1.4,0.2,1.9,0.4l-0.2,0.9
		c-0.5-0.3-1.1-0.4-1.6-0.4c-0.9,0-1.1,0.4-1.1,1.3v0.2h3.3v5.1h-1.1v-4.3h-2.2v4.3h-1.1V342.7z"/>
	<path class="st3" d="M551.1,339.7h1.1v7.3h-1.1V339.7z"/>
	<path class="st3" d="M556.1,341.8c1.4,0,2.3,0.7,2.3,2.2c0,0.3,0,0.5-0.1,0.8h-3.6c0,0.9,0.5,1.6,1.5,1.6c0.7,0,1.1-0.3,1.2-1
		l1,0.2c-0.1,1.2-1.1,1.6-2.2,1.6c-1.7,0-2.6-1-2.6-2.6C553.5,342.9,554.3,341.8,556.1,341.8z M557.2,343.9c0,0,0-0.1,0-0.1
		c0-0.7-0.4-1.2-1.2-1.2c-0.8,0-1.3,0.5-1.4,1.3H557.2z"/>
</g>
<g id="Ellipse_13">
	<circle class="st10" cx="107.5" cy="250.5" r="19.5"/>
	<circle class="st13" cx="107.5" cy="250.5" r="18"/>
</g>
<path id="Icon_awesome-check" class="st14" d="M105.2,257.1l-5.8-6c-0.3-0.4-0.3-0.9,0-1.3l1.3-1.3c0.3-0.3,0.9-0.4,1.2,0
	c0,0,0,0,0,0l3.9,4l8.3-8.6c0.3-0.3,0.9-0.4,1.2,0c0,0,0,0,0,0l1.3,1.3c0.3,0.4,0.3,0.9,0,1.3l-10.2,10.6
	C106.1,257.4,105.5,257.4,105.2,257.1C105.2,257.1,105.2,257.1,105.2,257.1z"/>
<g id="Ellipse_11">
	<circle class="st10" cx="200.5" cy="156.5" r="19.5"/>
	<circle class="st15" cx="200.5" cy="156.5" r="18"/>
</g>
<path id="Icon_awesome-times" class="st12" d="M203,156.5l3.8-3.8c0.5-0.5,0.5-1.2,0-1.7l-0.8-0.8c-0.5-0.5-1.2-0.5-1.7,0l-3.8,3.8
	l-3.8-3.8c-0.5-0.5-1.2-0.5-1.7,0l-0.8,0.8c-0.5,0.5-0.5,1.2,0,1.7l3.8,3.8l-3.8,3.8c-0.5,0.5-0.5,1.2,0,1.7l0.8,0.8
	c0.5,0.5,1.2,0.5,1.7,0l3.8-3.8l3.8,3.8c0.5,0.5,1.2,0.5,1.7,0l0.8-0.8c0.5-0.5,0.5-1.2,0-1.7L203,156.5z"/>
<path id="Path_18-23" class="st8" d="M342.8,190.5l1.9-2.3l0.8-1c0.2-0.3,0.6-0.3,0.9-0.1c0,0,0.1,0.1,0.1,0.1l2.7,3.2"/>
<path id="Path_18-24" class="st8" d="M370.5,340.8l2.3,1.9l1,0.8c0.3,0.2,0.3,0.6,0.1,0.9c0,0-0.1,0.1-0.1,0.1l-3.2,2.7"/>
<path id="Path_194" class="st16" d="M374,344h-20c-4.4,0-8-3.6-8-8V187"/>
<path id="Path_195" class="st16" d="M588,187.8V210c0,4.4-3.6,8-8,8h-71.8"/>
<rect id="Rectangle_1435" x="337" y="250" class="st0" width="19" height="6"/>
<path id="Path_197" class="st17" d="M286,328.7l50.1-79h20.4"/>
<path id="Path_18-25" class="st5" d="M305.6,123.2l-1.8,2.3l-0.8,1c-0.2,0.3-0.6,0.3-0.9,0.1c0,0-0.1-0.1-0.1-0.1l-2.8-3.1"/>
<g id="arrows_dark_arrow_1-17" transform="translate(42 107)">
	<path id="Line-17" class="st6" d="M260.5-10.7v29.6"/>
</g>
</svg>
