<svg xmlns="http://www.w3.org/2000/svg" width="17" height="17" viewBox="0 0 17 17">
  <path id="Icon_awesome-times" data-name="Icon awesome-times" d="M11.722,14.125l4.833-4.833a1.519,1.519,0,0,0,0-2.148L15.481,6.07a1.519,1.519,0,0,0-2.148,0L8.5,10.9,3.667,6.07a1.519,1.519,0,0,0-2.148,0L.445,7.144a1.519,1.519,0,0,0,0,2.148l4.833,4.833L.445,18.958a1.519,1.519,0,0,0,0,2.148L1.519,22.18a1.519,1.519,0,0,0,2.148,0L8.5,17.347l4.833,4.833a1.519,1.519,0,0,0,2.148,0l1.074-1.074a1.519,1.519,0,0,0,0-2.148Z" transform="translate(0 -5.625)" fill="#c4123c"/>
</svg>
