<svg xmlns="http://www.w3.org/2000/svg" width="150.693" height="166.109" viewBox="0 0 150.693 166.109">
  <g id="Group_4525" data-name="Group 4525" transform="translate(-837.544 -3613.566)">
    <path id="Path_1990" data-name="Path 1990" d="M166.212,157.883,116.418,186.63a25.561,25.561,0,0,1-25.561,0L41.08,157.883A25.561,25.561,0,0,1,28.3,135.739V78.262A25.561,25.561,0,0,1,41.08,56.117L90.857,27.37a25.561,25.561,0,0,1,25.561,0l49.794,28.747a25.561,25.561,0,0,1,12.781,22.145v57.477a25.561,25.561,0,0,1-12.78,22.145" transform="translate(809.244 3589.621)" fill="#074391"/>
    <path id="Path_1991" data-name="Path 1991" d="M168.729,88.736a1.947,1.947,0,0,1-1.133.85,10.617,10.617,0,0,1-1.292.336,2.974,2.974,0,0,1-2.655-1.044c-1.08-1.08-2.177-2.124-3.292-3.151a5.647,5.647,0,0,1-1.77-3.133,7.455,7.455,0,0,1,0-1.257l1.77-.3a8.038,8.038,0,0,0-.69-.85c-1.027-.814-2.071-1.646-3.133-2.407a29.7,29.7,0,0,0-2.868-1.77c-.478-.3-.974-.6-1.434-.938-1.151-.9-2.354-1.77-3.54-2.726a9.366,9.366,0,0,1-1.629-2.018,4.3,4.3,0,0,0-2.779-2.106,13.17,13.17,0,0,0-7.665.372,5.133,5.133,0,0,0-2.2,1.522c-.584.708-1.257,1.345-1.912,2a3.169,3.169,0,0,0-1.027,1.77,5.063,5.063,0,0,1-1.558,2.726l-.159.177c-.85.885-1.77,1.77-2.549,2.638-.354.372.637,1.77,1.08,2.921a3.133,3.133,0,0,1,.478,1.77,8.16,8.16,0,0,1-2.744,1.151c-2.885.372-3.54-.407-6.408-.832-1.487-.23-5.31-3.08-6.727-2.8a17.136,17.136,0,0,1-3.912.354,6.408,6.408,0,0,1-3.222-1.168,9.417,9.417,0,0,0-7.647-1.274,1.363,1.363,0,0,1-.655,0,1.062,1.062,0,0,0-.885.478c-.62.743-1.292,1.452-1.912,2.177a3.062,3.062,0,0,0-.867,1.77c-.159,1.328-.283,2.673-.425,4.018a2.726,2.726,0,0,1,1.257,2.266,7.969,7.969,0,0,0,.142.9,7.081,7.081,0,0,0,1.77,3.54,12.214,12.214,0,0,0,2.815,2.319,17.809,17.809,0,0,0,2.248,1.133c1.151.531,2.337.991,3.54,1.487a4.708,4.708,0,0,0,1.77.354c2.992.142,11.949-3.133,14.94-3.009a2.354,2.354,0,0,1,1.54.584c.62.549,1.168,1.2,1.77,1.77a.478.478,0,0,1,0,.6,3.54,3.54,0,0,0-.212,3.416,1.646,1.646,0,0,1-.212,1.77c-.726.956-7.452,5.31-8.125,6.337a4.656,4.656,0,0,0-.974,2.744,2.372,2.372,0,0,0,1.027,1.947,11.2,11.2,0,0,0,2.177,1.292,6.426,6.426,0,0,0,3.947.3,2.974,2.974,0,0,1,2.23.283,1.257,1.257,0,0,1,.708,1.168c0,.531-.354.8-.814,1.009a19.3,19.3,0,0,0-2.691,1.381,2.425,2.425,0,0,0-1.062,1.646,21.614,21.614,0,0,0,4.036,1.345,2.319,2.319,0,0,1,1.629,1.168l.885,1.77c.177.336.354.69.549,1.027a2.372,2.372,0,0,1-.266,2.761.124.124,0,0,0-.124.124,33.633,33.633,0,0,0-2.071,3.54,1.31,1.31,0,0,0,.531,1.77h.142a7.592,7.592,0,0,1,1.275.974,1.168,1.168,0,0,1,.3.779,3.133,3.133,0,0,0,1.77,2.868c1.646,1.009,3.346,1.912,5.027,2.832a2.549,2.549,0,0,1,1.487,1.77,4.2,4.2,0,0,0,.867,1.912,1.894,1.894,0,0,0,1.487.743,8.582,8.582,0,0,0,1.5-.23c.407-.106.566,0,.513.389a4.709,4.709,0,0,0,.372,2.089,15.43,15.43,0,0,1,.6,1.947,5.31,5.31,0,0,1-.23,3.027,20.269,20.269,0,0,0-.956,2.815,5.947,5.947,0,0,0,.159,1.77,16.906,16.906,0,0,1,.266,2.319,3.239,3.239,0,0,1-1.4,2.744c-1.611,1.08-3.222,2.248-4.886,3.239a22.765,22.765,0,0,1-7.966,2.726c-1.1.195-2.248.3-3.381.46a10.2,10.2,0,0,0-3.682,1.31,15.935,15.935,0,0,1-1.77.814,7.47,7.47,0,0,1-3.947.177,21.045,21.045,0,0,0-2.761-.354,23.261,23.261,0,0,0-2.726.23.761.761,0,0,0-.655.584.478.478,0,0,1-.513.389,26.273,26.273,0,0,1-2.885.159c-1.629-.106-3.239-.319-4.868-.478h-.195a5.311,5.311,0,0,1,.195-.921c.159-.867,0-1.2-.92-1.54-.531-.212-1.062-.443-1.575-.708a.974.974,0,0,1-.584-1.186,3.54,3.54,0,0,1,.655-1.452,3.186,3.186,0,0,0,.566-2.514c-.8.195-1.522.407-2.266.566a8.851,8.851,0,0,1-4.425,0,10.089,10.089,0,0,1-1.983-.8l-2.85-1.363a10.09,10.09,0,0,0-3.664-.8,9.011,9.011,0,0,1-2.8-.779c-.566-.266-.69-.531-.5-1.151a5.31,5.31,0,0,1,1.08-2.23,5.684,5.684,0,0,0,.549-.885H79.708a2.3,2.3,0,0,1-2.567-1.682,3.788,3.788,0,0,0-2.213-2.514,2.284,2.284,0,0,0-.673-.212,8.5,8.5,0,0,0-3.77.389c-.407.159-.885.266-.956.761a1.381,1.381,0,0,0,.6,1.239c.159.159.389.3.549.478a1.062,1.062,0,0,1-.46,1.77,4.974,4.974,0,0,1-3.77.266,1.363,1.363,0,0,1-.443-.248c-.513-.478-.991-.991-1.487-1.469l-3.009-2.956-1.239-1.2c-.584-.584-1.151-1.2-1.77-1.77s-1.044-.974-1.575-1.434a1.062,1.062,0,0,1-.336-.92c0-1.77,0-3.54.106-5.169a20.109,20.109,0,0,0,0-2.921,5.01,5.01,0,0,0-1.77-3.363,53.917,53.917,0,0,0-5.187-4,2.195,2.195,0,0,0-1.416-.283,1.027,1.027,0,0,1-1.221-.779v-.106a1.328,1.328,0,0,0-1.416-1.08,5.452,5.452,0,0,1-2.478-.5,1.221,1.221,0,0,1-.655-.938,2.142,2.142,0,0,0-.124-.885,1.77,1.77,0,0,0-1.77-1.77h-1.31a1.31,1.31,0,0,1-1.292-1.328h0a1.239,1.239,0,0,1,0-.443c.142-.46.336-.92.513-1.381a6.036,6.036,0,0,0,.177-4.478,3.647,3.647,0,0,1-.212-1.381.779.779,0,0,1,.354-.549,3.151,3.151,0,0,1,.779-.372,1.2,1.2,0,0,0,.832-1.151c0-.779.142-1.54-.513-2.036a2.124,2.124,0,0,0-.956-.425c-.779-.142-1.611-.124-2.39-.319a2.832,2.832,0,0,1-1.77-1.31c-.354-.6-.195-1.133.46-1.31a5.31,5.31,0,0,1,1.292-.159,11.93,11.93,0,0,0,2.514-.159,7.505,7.505,0,0,0,3.7-1.611c.266-.23.549-.425.814-.673a1.363,1.363,0,0,0,.425-1.221,6.514,6.514,0,0,0-1.664-3.717,5.31,5.31,0,0,0-3.4-1.77,2.142,2.142,0,0,1-1.558-.9,1.77,1.77,0,0,1,0-2.089A2.832,2.832,0,0,0,38,98.083a12.71,12.71,0,0,0,.637-3.717,4.833,4.833,0,0,0-.832-2.938,10.161,10.161,0,0,1-1.1-1.77,22,22,0,0,1-1.062-2.584,1.469,1.469,0,0,1,0-.956c.266-.743.584-1.434.885-2.142.62-1.345,1.239-2.691,1.876-4.018.407-.85.867-1.77,1.292-2.531l1.522-2.992c.46-.885.885-1.77,1.381-2.638a12.019,12.019,0,0,0,1.54-5.771,3.54,3.54,0,0,1,.389-1.77,3.54,3.54,0,0,0,.319-.814c.248-.8.177-.991-.531-1.4-1.31-.743-2.6-1.5-3.912-2.23-.566-.319-1.168-.513-1.77-.814a2.177,2.177,0,0,1-.6-.46,1.009,1.009,0,0,1-.159-1.31h0a4.213,4.213,0,0,0,1.735-2.461,1.4,1.4,0,0,1,.655-.832c1.1-.743,2.213-1.469,3.381-2.106a5.063,5.063,0,0,1,1.77-.478,7.4,7.4,0,0,1,1.77,0A1.5,1.5,0,0,0,48.482,51a1.292,1.292,0,0,1,1.363-.248c1.77.478,3.4.885,5.116,1.328a2.071,2.071,0,0,1,.85.319.726.726,0,0,0,1.027,0h0a5.31,5.31,0,0,0,1.416-1.345,2.3,2.3,0,0,1,1.77-1.221,5.558,5.558,0,0,1,2.531,0,4.054,4.054,0,0,1,2.407,1.54,6.974,6.974,0,0,0,3.169,2.354,4.355,4.355,0,0,0,2.514.159,6.9,6.9,0,0,1,5.487.956c.743.478,1.416,1.044,2.124,1.558l1.1.8a1.592,1.592,0,0,0,.407.142A2.018,2.018,0,0,0,82.1,55.723v-.159a6.443,6.443,0,0,0-.549-3.2,8.23,8.23,0,0,1-.354-.92,4.567,4.567,0,0,0-3.009-2.8,12.885,12.885,0,0,1-1.363-.549,1.31,1.31,0,0,1-.885-1.487,2.248,2.248,0,0,0-1.275-2.284A8.514,8.514,0,0,0,69.14,42.8a10.444,10.444,0,0,0-4.266.92,2.584,2.584,0,0,1-.726.195,2.018,2.018,0,0,1-2.053-1.54,10,10,0,0,1-.3-1.77.655.655,0,0,1,.212-.443l1.77-1.558c.354-.3.389-.478.159-.9a.142.142,0,0,1-.142-.124c-.5-.9-.23-1.646.673-1.77a6.922,6.922,0,0,1,1.593.124,7.434,7.434,0,0,1,1.4.23A2.5,2.5,0,0,1,68.467,34a6.338,6.338,0,0,1,1.77-1.027,19.1,19.1,0,0,1,2.921-.885c1.54-.336,3.1-.6,4.656-.885l4.762-.832a19.967,19.967,0,0,1,6.408-.177c1.611.248,3.363.549,4.992.956a36.289,36.289,0,0,1,4.3,1.487c.8.3,1.558.708,2.354.956a13.312,13.312,0,0,0,2.195.407l7.081.85a12.391,12.391,0,0,1,4.178,1.4,24.056,24.056,0,0,0,5.594,2.036,60.008,60.008,0,0,1,6.337,1.77,8.726,8.726,0,0,1,1.469.726,13.33,13.33,0,0,1,2.443,2.124,15.931,15.931,0,0,0,3.54,2.815,26.13,26.13,0,0,1,2.62,1.77c1.115.9,2.213,1.77,3.275,2.815a8.339,8.339,0,0,1,1.221,1.4,11.364,11.364,0,0,1,1.575,3.062,5.806,5.806,0,0,0,.5,1.062,3.328,3.328,0,0,0,2.071,1.469,8.143,8.143,0,0,1,1.77.85c1.558.991,3.115,2,4.62,3.1a9.064,9.064,0,0,1,2.142,2.372,1.451,1.451,0,0,1,.177.46,8.373,8.373,0,0,0,1.558,3.062c.248.336.584.584.832.92s.5.708.726,1.08a1.009,1.009,0,0,1-.124,1.062c-.425.478-.531.513-1.027.283s-1.133-.6-1.77-.832a7.08,7.08,0,0,0-1.345-.283c0,.938-.177,1.77.478,2.354l2.354,2.213c.443.407.9.814,1.328,1.239a29.331,29.331,0,0,0,4.178,3.381l.3.159h.159a13.506,13.506,0,0,1-1.558-3.169c.62,0,1.151-.142,1.77-.142h2.8a3.328,3.328,0,0,1,2.9,1.77,7.842,7.842,0,0,1,.991,3.009c.336,2.39.637,4.8.974,7.187a2.036,2.036,0,0,1-.23,1.363Z" transform="translate(814.162 3594.299)" fill="#587fb4"/>
    <path id="Path_1992" data-name="Path 1992" d="M97.153,51.505a20.728,20.728,0,0,0-13.046,4.425,1.522,1.522,0,0,1-2.142-.266h0a1.5,1.5,0,0,1-.319-.938A1.558,1.558,0,0,0,80.124,53.2H71.592a1.558,1.558,0,0,0-1.522,1.522h0v73.957a1.54,1.54,0,0,0,1.5,1.54h8.851a1.54,1.54,0,0,0,1.522-1.54V103.725a1.5,1.5,0,0,1,1.5-1.5h0a1.452,1.452,0,0,1,.92.319c.6.46,1.221.9,1.77,1.31A21.242,21.242,0,0,0,97.419,106.8a22.6,22.6,0,0,0,17.808-7.612c4.39-4.974,6.6-11.718,6.6-20.056s-2.266-14.9-6.727-19.932a23.012,23.012,0,0,0-17.949-7.7m12.391,28.606A15.931,15.931,0,0,1,106,91.192a12.727,12.727,0,0,1-9.9,3.841,13.294,13.294,0,0,1-10.391-4.266A16.374,16.374,0,0,1,81.771,79.12a17.135,17.135,0,0,1,3.806-11.86A13.17,13.17,0,0,1,95.95,63.118a12.019,12.019,0,0,1,9.984,4.337c2.443,2.974,3.682,7.24,3.682,12.657" transform="translate(841.413 3610.837)" fill="#f3f3f7"/>
    <path id="Path_1993" data-name="Path 1993" d="M67.607,87.671l-11.488-32.5a3.54,3.54,0,0,0-3.257-2.6h-8c-2.584,0-4.3,3.275-3.2,6.142l26.11,68.222a3.31,3.31,0,0,0,6.426,0L100.125,58.6c1.08-2.85-.62-6.125-3.222-6.125h-8a3.54,3.54,0,0,0-3.239,2.691l-11.541,32.5a3.346,3.346,0,0,1-6.514,0" transform="translate(819.271 3611.597)" fill="#f3f3f7"/>
  </g>
</svg>
