<svg xmlns="http://www.w3.org/2000/svg" width="110.001" height="103.479" viewBox="0 0 110.001 103.479">
  <g id="Group_4570" data-name="Group 4570" transform="translate(1.5 1.5)">
    <path id="Path_116" data-name="Path 116" d="M387.591,264.475v21.4a2.842,2.842,0,0,1-2.834,2.834H320.134a2.842,2.842,0,0,1-2.834-2.834v-94.81a2.842,2.842,0,0,1,2.834-2.834h64.624a2.842,2.842,0,0,1,2.834,2.834v17.16" transform="translate(-309.861 -188.229)" fill="none" stroke="#404064" stroke-linecap="round" stroke-miterlimit="10" stroke-width="3"/>
    <g id="Group_2807" data-name="Group 2807" transform="translate(56.896 17.739)">
      <path id="Path_117" data-name="Path 117" d="M530.429,462.266l-6.69,1.406.961-6.768A6.84,6.84,0,0,1,530.429,462.266Z" transform="translate(-523.739 -410.275)" fill="#404064" stroke="#404064" stroke-linecap="round" stroke-miterlimit="10" stroke-width="3"/>
      <path id="Path_118" data-name="Path 118" d="M575.437,279.64,546.8,311.466l-.1.02-13.22,2.779a6.84,6.84,0,0,0-5.729-5.363l1.835-12.926,28.642-31.826a5.669,5.669,0,0,1,8-.422l8.785,7.906A5.669,5.669,0,0,1,575.437,279.64Z" transform="translate(-526.788 -262.275)" fill="none" stroke="#404064" stroke-linecap="round" stroke-miterlimit="10" stroke-width="3"/>
      <line id="Line_678" data-name="Line 678" x1="17.211" y1="15.489" transform="translate(26.147 7.755)" fill="none" stroke="#404064" stroke-linecap="round" stroke-miterlimit="10" stroke-width="3"/>
      <line id="Line_679" data-name="Line 679" x1="20.632" y2="22.926" transform="translate(10.808 13.234)" fill="none" stroke="#404064" stroke-linecap="round" stroke-miterlimit="10" stroke-width="3"/>
      <line id="Line_680" data-name="Line 680" x1="20.716" y2="23.019" transform="translate(16.406 18.346)" fill="none" stroke="#404064" stroke-linecap="round" stroke-miterlimit="10" stroke-width="3"/>
      <path id="Path_119" data-name="Path 119" d="M553.683,417.173a20.216,20.216,0,0,0-3.5-7.846,20.474,20.474,0,0,0-5.6-5.205,20.252,20.252,0,0,0-7.647-2.863" transform="translate(-533.772 -367.961)" fill="none" stroke="#404064" stroke-linecap="round" stroke-miterlimit="10" stroke-width="3"/>
    </g>
    <path id="Path_120" data-name="Path 120" d="M302.421,219.63a8.086,8.086,0,0,0-8.086-8.086c-.218,0-.434.01-.647.026a8.087,8.087,0,0,0-2.441,15.534" transform="translate(-286.25 -205.958)" fill="none" stroke="#404064" stroke-linecap="round" stroke-miterlimit="10" stroke-width="3"/>
    <path id="Path_121" data-name="Path 121" d="M291.161,289.468a8.089,8.089,0,0,1,.086-14.913,7.986,7.986,0,0,1,2.441-.585c.213-.017.429-.026.647-.026a8.08,8.08,0,0,1,8.086,8.086" transform="translate(-286.25 -253.409)" fill="none" stroke="#404064" stroke-linecap="round" stroke-miterlimit="10" stroke-width="3"/>
    <path id="Path_122" data-name="Path 122" d="M291.248,351.6a8.084,8.084,0,0,1,2.441-15.534c.213-.017.429-.026.647-.026a8.079,8.079,0,0,1,8.086,8.086" transform="translate(-286.25 -300.631)" fill="none" stroke="#404064" stroke-linecap="round" stroke-miterlimit="10" stroke-width="3"/>
    <path id="Path_123" data-name="Path 123" d="M291.161,413.968a8.089,8.089,0,0,1,.086-14.914,7.987,7.987,0,0,1,2.441-.585c.213-.017.429-.026.647-.026a8.079,8.079,0,0,1,8.086,8.086" transform="translate(-286.25 -348.082)" fill="none" stroke="#404064" stroke-linecap="round" stroke-miterlimit="10" stroke-width="3"/>
    <path id="Path_124" data-name="Path 124" d="M291.248,476.1a8.084,8.084,0,0,1,2.441-15.534c.213-.017.429-.026.647-.026a8.079,8.079,0,0,1,8.086,8.086" transform="translate(-286.25 -395.304)" fill="none" stroke="#404064" stroke-linecap="round" stroke-miterlimit="10" stroke-width="3"/>
    <path id="Path_125" data-name="Path 125" d="M292.754,538.936a7.646,7.646,0,0,1-6.5-7.906,8.075,8.075,0,0,1,7.439-8.059c.213-.017.429-.026.647-.026a8.079,8.079,0,0,1,8.086,8.086" transform="translate(-286.25 -442.755)" fill="none" stroke="#404064" stroke-linecap="round" stroke-miterlimit="10" stroke-width="3"/>
  </g>
</svg>
