<svg xmlns="http://www.w3.org/2000/svg" width="142.489" height="96.618" viewBox="0 0 142.489 96.618">
  <g id="Group_4573" data-name="Group 4573" transform="translate(1 1.002)">
    <g id="Layer_1" data-name="Layer 1" transform="translate(0 67.124)">
      <g id="Group_2861" data-name="Group 2861" transform="translate(0 0)">
        <path id="Path_174" data-name="Path 174" d="M177.644,540.571H162.452l-2.792-9.857h20.777Z" transform="translate(-157.042 -513.187)" fill="none" stroke="#404064" stroke-linecap="round" stroke-miterlimit="10" stroke-width="2"/>
        <rect id="Rectangle_1391" data-name="Rectangle 1391" width="26.012" height="5.299" rx="2.649" transform="translate(0 12.228)" fill="none" stroke="#404064" stroke-linecap="round" stroke-miterlimit="10" stroke-width="2"/>
        <rect id="Rectangle_1392" data-name="Rectangle 1392" width="17.415" height="5.299" rx="2.649" transform="translate(4.298 6.929)" fill="none" stroke="#404064" stroke-linecap="round" stroke-miterlimit="10" stroke-width="2"/>
        <path id="Path_175" data-name="Path 175" d="M193.768,449.059H188.1a2.341,2.341,0,0,1-2.341-2.341h0a2.341,2.341,0,0,1,2.341-2.341c3.786,0,4.663-.716,5.033-2.248.95.388,3.425,1.346,3.425,4.237C196.557,447.76,196.067,449.059,193.768,449.059Z" transform="translate(-177.977 -442.13)" fill="none" stroke="#404064" stroke-linecap="round" stroke-miterlimit="10" stroke-width="2"/>
        <line id="Line_681" data-name="Line 681" x2="1.149" y2="9.856" transform="translate(8.189 17.527)" fill="none" stroke="#404064" stroke-linecap="round" stroke-miterlimit="10" stroke-width="2"/>
        <line id="Line_682" data-name="Line 682" x1="1.149" y2="9.856" transform="translate(16.942 17.527)" fill="none" stroke="#404064" stroke-linecap="round" stroke-miterlimit="10" stroke-width="2"/>
        <line id="Line_683" data-name="Line 683" y2="9.856" transform="translate(13.006 17.527)" fill="none" stroke="#404064" stroke-linecap="round" stroke-miterlimit="10" stroke-width="2"/>
      </g>
    </g>
    <g id="Group_2862" data-name="Group 2862" transform="translate(37.247 30.025)">
      <rect id="Rectangle_1393" data-name="Rectangle 1393" width="37.157" height="17.422" rx="3" transform="translate(4.423 20.79)" fill="none" stroke="#404064" stroke-linecap="round" stroke-miterlimit="10" stroke-width="2"/>
      <path id="Path_176" data-name="Path 176" d="M424.036,453.105v18.47a2.463,2.463,0,0,1-2.456,2.456H380.488a2.463,2.463,0,0,1-2.456-2.456v-18.47a5.358,5.358,0,0,1,5.342-5.342h35.32A5.358,5.358,0,0,1,424.036,453.105Z" transform="translate(-378.032 -409.552)" fill="none" stroke="#404064" stroke-linecap="round" stroke-miterlimit="10" stroke-width="2"/>
      <path id="Path_177" data-name="Path 177" d="M378.032,491.668a2.761,2.761,0,0,0,3.85-2.538v-.751a2.761,2.761,0,1,1,5.522,0v1.8a2.761,2.761,0,0,0,5.522,0v-2.4a2.761,2.761,0,1,1,5.522,0v3.361a2.761,2.761,0,1,0,5.522,0v-3.216a2.761,2.761,0,0,1,5.522,0v.719a2.761,2.761,0,0,0,5.522,0v-.264a2.761,2.761,0,1,1,5.522,0v1.8a2.76,2.76,0,0,0,2.76,2.761,2.714,2.714,0,0,0,.739-.1v-.16" transform="translate(-378.032 -439.436)" fill="none" stroke="#404064" stroke-linecap="round" stroke-miterlimit="10" stroke-width="2"/>
      <path id="Path_178" data-name="Path 178" d="M437.546,386.589a2.748,2.748,0,0,1-1.958.7,2.806,2.806,0,0,1-2.639-2.826v-.13a2.8,2.8,0,0,0-2.659-2.826,2.761,2.761,0,0,0-2.864,2.758v.655a2.8,2.8,0,0,1-2.662,2.824,2.762,2.762,0,0,1-2.859-2.76v-.125a2.8,2.8,0,0,0-2.659-2.826,2.762,2.762,0,0,0-2.864,2.759v.272a2.8,2.8,0,0,1-2.662,2.824,2.76,2.76,0,0,1-2.859-2.758v-2.4a2.762,2.762,0,0,0-2.86-2.76,2.8,2.8,0,0,0-2.663,2.826v1.665a2.826,2.826,0,0,1-2.769,2.829,2.754,2.754,0,0,1-2.179-1.078" transform="translate(-395.966 -355.17)" fill="none" stroke="#404064" stroke-linecap="round" stroke-miterlimit="10" stroke-width="2"/>
      <path id="Path_179" data-name="Path 179" d="M486.168,254.633l-1.952,3.382a2.254,2.254,0,0,0,1.952,3.382h0a2.254,2.254,0,0,0,1.952-3.382Z" transform="translate(-462.962 -254.633)" fill="none" stroke="#404064" stroke-linecap="round" stroke-miterlimit="10" stroke-width="2"/>
      <path id="Path_180" data-name="Path 180" d="M486.546,302.843V290.389a1.573,1.573,0,0,1,1.573-1.573h.327a1.571,1.571,0,0,1,1.571,1.573v12.454" transform="translate(-465.076 -282.053)" fill="none" stroke="#404064" stroke-linecap="round" stroke-miterlimit="10" stroke-width="2"/>
    </g>
    <g id="Group_2865" data-name="Group 2865" transform="translate(94.485)">
      <g id="Group_2863" data-name="Group 2863" transform="translate(0 68.238)">
        <rect id="Rectangle_1394" data-name="Rectangle 1394" width="46.004" height="26.269" rx="4" fill="none" stroke="#404064" stroke-linecap="round" stroke-miterlimit="10" stroke-width="2"/>
        <path id="Path_181" data-name="Path 181" d="M764.655,491.668a2.761,2.761,0,0,0,3.85-2.538v-.751a2.761,2.761,0,1,1,5.522,0v1.8a2.761,2.761,0,0,0,5.522,0v-2.4a2.761,2.761,0,1,1,5.522,0v3.361a2.761,2.761,0,1,0,5.522,0v-3.216a2.761,2.761,0,0,1,5.522,0v.719a2.761,2.761,0,0,0,5.522,0v-.264a2.761,2.761,0,1,1,5.522,0v1.8a2.76,2.76,0,0,0,2.76,2.761,2.717,2.717,0,0,0,.74-.1v-.16" transform="translate(-764.655 -477.648)" fill="none" stroke="#404064" stroke-linecap="round" stroke-miterlimit="10" stroke-width="2"/>
      </g>
      <path id="Path_182" data-name="Path 182" d="M852.439,159.477v12.74c0,2.176-2.073,3.939-4.631,3.939h-9.383c-2.558,0-4.631-1.764-4.631-3.939v-12.74c0-2.176,2.073-3.939,4.631-3.939h9.383C850.366,155.537,852.439,157.3,852.439,159.477Z" transform="translate(-820.115 -145.117)" fill="none" stroke="#404064" stroke-linecap="round" stroke-miterlimit="10" stroke-width="2"/>
      <path id="Path_183" data-name="Path 183" d="M833.85,178.191a2.4,2.4,0,0,1,.273-.014,2.959,2.959,0,0,1,2.959,2.959v3.6a2.958,2.958,0,1,0,5.915,0v-3.445a2.958,2.958,0,1,1,5.917,0v.769a2.959,2.959,0,0,0,3.571,2.895" transform="translate(-820.159 -163.278)" fill="none" stroke="#404064" stroke-linecap="round" stroke-miterlimit="10" stroke-width="2"/>
      <g id="Group_2864" data-name="Group 2864" transform="translate(8.397 36.665)">
        <rect id="Rectangle_1395" data-name="Rectangle 1395" width="29.21" height="26.269" rx="3" fill="none" stroke="#404064" stroke-linecap="round" stroke-miterlimit="10" stroke-width="2"/>
        <path id="Path_184" data-name="Path 184" d="M807.1,325.715a3.415,3.415,0,0,0,1.008.15,3.454,3.454,0,0,0,3.454-3.454v-3a3.455,3.455,0,1,1,6.909,0v4.2a3.454,3.454,0,1,0,6.909,0v-4.023a3.454,3.454,0,1,1,6.907,0v.9a3.458,3.458,0,0,0,4.023,3.407" transform="translate(-807.099 -310.46)" fill="none" stroke="#404064" stroke-linecap="round" stroke-miterlimit="10" stroke-width="2"/>
      </g>
      <line id="Line_684" data-name="Line 684" y1="5.305" transform="translate(24.986 62.933)" fill="none" stroke="#404064" stroke-linecap="round" stroke-miterlimit="10" stroke-width="2"/>
      <line id="Line_687" data-name="Line 687" y1="5.305" transform="translate(21.029 62.933)" fill="none" stroke="#404064" stroke-linecap="round" stroke-miterlimit="10" stroke-width="2"/>
      <line id="Line_685" data-name="Line 685" y1="5.175" transform="translate(24.986 31.49)" fill="none" stroke="#404064" stroke-linecap="round" stroke-miterlimit="10" stroke-width="2"/>
      <line id="Line_686" data-name="Line 686" y1="5.175" transform="translate(21.029 31.49)" fill="none" stroke="#404064" stroke-linecap="round" stroke-miterlimit="10" stroke-width="2"/>
      <path id="Path_185" data-name="Path 185" d="M840.308,105.132a2.642,2.642,0,0,1-.323-.8,2.785,2.785,0,0,1,.413-2.212,2.961,2.961,0,0,1,1.417-1.087,2.868,2.868,0,0,1,1-.168,3.416,3.416,0,0,1,1.452.357c.159.079.162.078.176-.1a3.373,3.373,0,0,1,.395-1.395,2.861,2.861,0,0,1,1.478-1.315,2.773,2.773,0,0,1,1.9-.084,2.7,2.7,0,0,1,1.421,1.032,5.267,5.267,0,0,1,.757,1.56,3.906,3.906,0,0,1,.156,1.1,6.85,6.85,0,0,1-.348,1.935c-.172.593-.385,1.171-.586,1.755s-.405,1.153-.583,1.739c-.111.368-.23.734-.345,1.1-.014.046-.03.081-.09.064-.283-.084-.573-.136-.86-.2-.429-.1-.862-.181-1.294-.27-.471-.1-.943-.186-1.415-.28-.383-.076-.766-.155-1.148-.239a8,8,0,0,1-1.288-.389,4.113,4.113,0,0,1-1.362-.874A5.927,5.927,0,0,1,840.308,105.132Z" transform="translate(-825.02 -98.199)" fill="none" stroke="#404064" stroke-linecap="round" stroke-miterlimit="10" stroke-width="2"/>
    </g>
  </g>
</svg>
