<?xml version="1.0" encoding="UTF-8"?>
<svg id="Layer_1" data-name="Layer 1" xmlns="http://www.w3.org/2000/svg" viewBox="0 0 287.14 241.92">
  <defs>
    <style>
      .cls-1 {
        fill: #404064;
      }
    </style>
  </defs>
  <path class="cls-1" d="m142.62,61.41v23.95c-4.3,1-8.34,2.69-12,4.93v-28.86c-.02-7.46-6.12-13.56-13.59-13.58h-28.51v-12h28.52c14.07.04,25.54,11.51,25.58,25.56Z"/>
  <path class="cls-1" d="m111.55,132.17h-48.37c.77-1.85,1.19-3.88,1.19-6s-.42-4.15-1.19-6h48.11c-.21,1.68-.32,3.39-.32,5.12,0,2.34.2,4.64.58,6.88Z"/>
  <path class="cls-1" d="m144.57,165.62v25.48c-.05,14.07-11.51,25.53-25.56,25.58h-12.35c-3.32,0-6-2.69-6-6s2.68-6,6-6h12.33c7.46-.02,13.55-6.12,13.58-13.6v-29.69c3.69,2,7.73,3.45,12,4.23Z"/>
  <path class="cls-1" d="m204.98,27.79c0,3.31-2.69,6-6,6h-12.96c-7.46.02-13.56,6.12-13.58,13.6v42.37c-3.68-2.13-7.71-3.7-12-4.6v-37.79c.04-14.07,11.51-25.54,25.56-25.58h12.98c3.31,0,6,2.69,6,6Z"/>
  <path class="cls-1" d="m243.56,120.17v12h-47.35c-1.36,0-2.62-.45-3.62-1.22.26-1.85.39-3.74.39-5.66,0-1.36-.07-2.71-.2-4.04.97-.68,2.15-1.08,3.43-1.08h47.35Z"/>
  <path class="cls-1" d="m207.35,214.13c0,2.12.42,4.15,1.19,6h-22.52c-14.07-.04-25.54-11.51-25.58-25.56v-29.16c4.29-.9,8.32-2.47,12-4.6v33.74c.02,7.46,6.12,13.56,13.6,13.58h22.5c-.77,1.85-1.19,3.88-1.19,6Z"/>
  <path class="cls-1" d="m204.74,120.17c-1.91-19.76-14.7-36.39-32.3-43.78-3.79-1.6-7.82-2.76-12-3.43-2.75-.45-5.58-.68-8.46-.68-3.19,0-6.32.28-9.36.83-4.19.75-8.21,1.99-12,3.67-17.14,7.57-29.53,23.96-31.41,43.39-.16,1.68-.24,3.39-.24,5.12,0,2.33.15,4.63.45,6.88,2.52,19.37,15.54,35.49,33.15,42.44,3.81,1.5,7.83,2.58,12,3.16,2.42.34,4.9.52,7.41.52,2.88,0,5.71-.23,8.46-.68,4.18-.67,8.21-1.84,12-3.43,17.07-7.17,29.62-23.03,32.09-42.01.3-2.25.45-4.55.45-6.88,0-1.73-.08-3.44-.24-5.12Zm-32.3,40.64c-3.68,2.13-7.71,3.7-12,4.6-2.73.58-5.56.88-8.46.88-2.53,0-5.01-.23-7.41-.67-4.27-.78-8.31-2.23-12-4.23-10.92-5.88-18.88-16.57-21.02-29.22-.38-2.24-.58-4.54-.58-6.88,0-1.73.11-3.44.32-5.12,1.58-12.64,8.93-23.51,19.33-29.88,3.66-2.24,7.7-3.93,12-4.93,3.01-.71,6.14-1.08,9.36-1.08,2.9,0,5.73.3,8.46.88,4.29.9,8.32,2.47,12,4.6,11.17,6.46,19.02,18.03,20.34,31.49.13,1.33.2,2.68.2,4.04,0,1.92-.13,3.81-.39,5.66-1.77,12.76-9.43,23.66-20.15,29.86Z"/>
  <path class="cls-1" d="m241.56,0h-20.79c-13.27,0-24.39,9.34-27.13,21.79-.43,1.93-.66,3.94-.66,6s.23,4.07.66,6c2.74,12.45,13.86,21.79,27.13,21.79h20.79c15.32,0,27.79-12.47,27.79-27.79S256.88,0,241.56,0Zm0,43.58h-20.79c-8.71,0-15.79-7.08-15.79-15.79s7.08-15.79,15.79-15.79h20.79c8.7,0,15.79,7.08,15.79,15.79s-7.09,15.79-15.79,15.79Z"/>
  <path class="cls-1" d="m72.73,3.66c-15.32,0-27.79,12.47-27.79,27.79v20.79c0,15.32,12.47,27.79,27.79,27.79s27.79-12.47,27.79-27.79v-20.79c0-15.32-12.47-27.79-27.79-27.79Zm15.79,48.58c0,8.71-7.08,15.79-15.79,15.79s-15.79-7.08-15.79-15.79v-20.79c0-8.71,7.09-15.79,15.79-15.79s15.79,7.08,15.79,15.79v20.79Z"/>
  <path class="cls-1" d="m243.93,186.34h-20.79c-13.26,0-24.38,9.34-27.13,21.79-.43,1.93-.66,3.94-.66,6s.23,4.07.66,6c2.74,12.45,13.87,21.79,27.13,21.79h20.79c15.32,0,27.79-12.46,27.79-27.79s-12.47-27.79-27.79-27.79Zm0,43.58h-20.79c-6.59,0-12.24-4.05-14.6-9.79-.77-1.85-1.19-3.88-1.19-6s.42-4.15,1.19-6c2.36-5.74,8.01-9.79,14.6-9.79h20.79c8.71,0,15.79,7.09,15.79,15.79s-7.08,15.79-15.79,15.79Z"/>
  <path class="cls-1" d="m259.35,87.99c-15.33,0-27.79,12.46-27.79,27.78v20.8c0,15.32,12.46,27.78,27.79,27.78s27.78-12.46,27.78-27.78v-20.8c0-15.32-12.46-27.78-27.78-27.78Zm15.78,48.58c0,8.7-7.08,15.78-15.78,15.78s-15.79-7.08-15.79-15.78v-20.8c0-8.7,7.08-15.78,15.79-15.78s15.78,7.08,15.78,15.78v20.8Z"/>
  <path class="cls-1" d="m75.71,120.17c-2.75-12.45-13.87-21.79-27.13-21.79h-20.79C12.46,98.38,0,110.85,0,126.17s12.46,27.79,27.79,27.79h20.79c13.26,0,24.38-9.34,27.13-21.79.43-1.93.66-3.94.66-6s-.23-4.07-.66-6Zm-27.13,21.79h-20.79c-8.71,0-15.79-7.08-15.79-15.79s7.08-15.79,15.79-15.79h20.79c6.58,0,12.24,4.05,14.6,9.79.77,1.85,1.19,3.88,1.19,6s-.42,4.15-1.19,6c-2.36,5.74-8.02,9.79-14.6,9.79Z"/>
  <path class="cls-1" d="m108.52,204.68c-2.74-12.46-13.86-21.79-27.12-21.79h-20.8c-15.32,0-27.78,12.46-27.78,27.79s12.46,27.79,27.78,27.79h20.8c13.26,0,24.38-9.34,27.12-21.79.43-1.93.66-3.94.66-6s-.23-4.07-.66-6Zm-27.12,21.79h-20.8c-8.7,0-15.78-7.09-15.78-15.79s7.08-15.79,15.78-15.79h20.8c8.7,0,15.78,7.08,15.78,15.79s-7.08,15.79-15.78,15.79Z"/>
</svg>