<?xml version="1.0" encoding="utf-8"?>
<!-- Generator: Adobe Illustrator 27.6.1, SVG Export Plug-In . SVG Version: 6.00 Build 0)  -->
<svg version="1.1" id="Layer_1" xmlns="http://www.w3.org/2000/svg" xmlns:xlink="http://www.w3.org/1999/xlink" x="0px" y="0px"
	 viewBox="0 0 209.5 222.9" style="enable-background:new 0 0 209.5 222.9;" xml:space="preserve">
<style type="text/css">
	.st0{fill:#404064;stroke:#404064;stroke-width:12;stroke-linecap:round;stroke-miterlimit:10;}
	.st1{fill:none;stroke:#404064;stroke-width:12;stroke-linecap:round;stroke-miterlimit:10;}
</style>
<path class="st0" d="M33.4,209.7l-26.2,5.5l3.8-26.5C22,190.3,31.1,198.7,33.4,209.7L33.4,209.7z"/>
<path class="st1" d="M85.2,198.8l-51.8,10.9c-2.3-11-11.4-19.4-22.5-21l7.2-50.7L130.3,13.4c8.2-9.1,22.2-9.9,31.4-1.6l34.4,31
	c9.1,8.2,9.9,22.2,1.6,31.4L85.2,198.8z"/>
<line class="st1" x1="97.8" y1="49.5" x2="18.1" y2="138.1"/>
<line class="st1" x1="165.2" y1="110.2" x2="85.5" y2="198.8"/>
<line class="st1" x1="177.1" y1="97.1" x2="109.6" y2="36.4"/>
<line class="st1" x1="130.4" y1="57.9" x2="49.5" y2="147.7"/>
<line class="st1" x1="152.6" y1="77.9" x2="71.4" y2="168.1"/>
<path class="st1" d="M85.2,198.8c-2.4-11.4-7.1-21.8-13.7-30.8c-6-8.1-13.4-15-21.9-20.4c-9-5.6-19.1-9.5-30-11.2"/>
</svg>
