<svg id="Group_4572" data-name="Group 4572" xmlns="http://www.w3.org/2000/svg" width="107" height="105.036" viewBox="0 0 107 105.036">
  <g id="Group_2811" data-name="Group 2811" transform="translate(39.644 1.178)" opacity="0.25">
    <path id="Path_126" data-name="Path 126" d="M555.577,900.029a49.577,49.577,0,0,0,40.061,40.061v26.117a75.42,75.42,0,0,1-66.177-66.177Z" transform="translate(-529.46 -900.029)" fill="#404064"/>
  </g>
  <g id="Group_2812" data-name="Group 2812" transform="translate(18.196 0)">
    <path id="Path_127" data-name="Path 127" d="M507.893,982.836H420.268V895.211a1.179,1.179,0,0,1,2.357,0v85.268h85.268a1.179,1.179,0,1,1,0,2.357Z" transform="translate(-420.268 -894.032)" fill="#404064"/>
  </g>
  <g id="Group_2813" data-name="Group 2813" transform="translate(4.187 0)">
    <path id="Path_128" data-name="Path 128" d="M350.129,904.764a1.179,1.179,0,0,1-1.179-1.179v-8.375a1.179,1.179,0,0,1,2.357,0v8.375A1.179,1.179,0,0,1,350.129,904.764Z" transform="translate(-348.95 -894.032)" fill="#404064"/>
  </g>
  <g id="Group_2814" data-name="Group 2814" transform="translate(4.187 0)">
    <path id="Path_129" data-name="Path 129" d="M350.129,904.764a1.179,1.179,0,0,1-1.179-1.179v-8.375a1.179,1.179,0,0,1,2.357,0v8.375A1.179,1.179,0,0,1,350.129,904.764Z" transform="translate(-348.95 -894.032)" fill="#404064"/>
  </g>
  <g id="Group_2815" data-name="Group 2815" transform="translate(0 4.187)">
    <path id="Path_130" data-name="Path 130" d="M337.185,917.707h-8.375a1.179,1.179,0,0,1,0-2.357h8.375a1.179,1.179,0,1,1,0,2.357Z" transform="translate(-327.632 -915.35)" fill="#404064"/>
  </g>
  <g id="Group_2816" data-name="Group 2816" transform="translate(96.268 98.491)">
    <path id="Path_131" data-name="Path 131" d="M827.285,1397.807h-8.375a1.179,1.179,0,0,1,0-2.357h8.375a1.179,1.179,0,0,1,0,2.357Z" transform="translate(-817.732 -1395.45)" fill="#404064"/>
  </g>
  <g id="Group_2817" data-name="Group 2817" transform="translate(96.268 98.491)">
    <path id="Path_132" data-name="Path 132" d="M827.285,1397.807h-8.375a1.179,1.179,0,0,1,0-2.357h8.375a1.179,1.179,0,0,1,0,2.357Z" transform="translate(-817.732 -1395.45)" fill="#404064"/>
  </g>
  <g id="Group_2818" data-name="Group 2818" transform="translate(100.455 94.303)">
    <path id="Path_133" data-name="Path 133" d="M840.228,1384.864a1.178,1.178,0,0,1-1.179-1.179v-8.375a1.179,1.179,0,0,1,2.357,0v8.375A1.178,1.178,0,0,1,840.228,1384.864Z" transform="translate(-839.05 -1374.132)" fill="#404064"/>
  </g>
  <g id="Group_2819" data-name="Group 2819" transform="translate(0 84.384)">
    <path id="Path_134" data-name="Path 134" d="M337.185,1325.989h-8.375a1.179,1.179,0,0,1,0-2.357h8.375a1.179,1.179,0,1,1,0,2.357Z" transform="translate(-327.632 -1323.632)" fill="#404064"/>
  </g>
  <g id="Group_2820" data-name="Group 2820" transform="translate(18.196 98.491)">
    <path id="Path_135" data-name="Path 135" d="M429.821,1397.807h-8.375a1.179,1.179,0,0,1,0-2.357h8.375a1.179,1.179,0,0,1,0,2.357Z" transform="translate(-420.268 -1395.45)" fill="#404064"/>
  </g>
  <g id="Group_2821" data-name="Group 2821" transform="translate(86.317 39.661)">
    <path id="Path_136" data-name="Path 136" d="M768.605,1099.013a1.532,1.532,0,1,1,1.532-1.532A1.534,1.534,0,0,1,768.605,1099.013Z" transform="translate(-767.073 -1095.949)" fill="#404064"/>
  </g>
  <g id="Group_2822" data-name="Group 2822" transform="translate(66.477 28.216)">
    <path id="Path_137" data-name="Path 137" d="M667.6,1040.743a1.532,1.532,0,1,1,1.532-1.532A1.534,1.534,0,0,1,667.6,1040.743Z" transform="translate(-666.068 -1037.679)" fill="#404064"/>
  </g>
  <g id="Group_2823" data-name="Group 2823" transform="translate(53.788 27.332)">
    <path id="Path_138" data-name="Path 138" d="M603,1036.243a1.532,1.532,0,1,1,1.532-1.532A1.534,1.534,0,0,1,603,1036.243Z" transform="translate(-601.468 -1033.179)" fill="#404064"/>
  </g>
  <g id="Group_2824" data-name="Group 2824" transform="translate(60.506 8.423)">
    <path id="Path_139" data-name="Path 139" d="M637.2,939.979a1.532,1.532,0,1,1,1.532-1.532A1.534,1.534,0,0,1,637.2,939.979Z" transform="translate(-635.668 -936.915)" fill="#404064"/>
  </g>
  <g id="Group_2825" data-name="Group 2825" transform="translate(50.135 5.713)">
    <path id="Path_140" data-name="Path 140" d="M584.4,926.179a1.532,1.532,0,1,1,1.532-1.532A1.534,1.534,0,0,1,584.4,926.179Z" transform="translate(-582.868 -923.115)" fill="#404064"/>
  </g>
  <g id="Group_2826" data-name="Group 2826" transform="translate(68.363 40.561)">
    <path id="Path_141" data-name="Path 141" d="M677.2,1103.593a1.532,1.532,0,1,1,1.532-1.532A1.534,1.534,0,0,1,677.2,1103.593Z" transform="translate(-675.668 -1100.529)" fill="#404064"/>
  </g>
  <g id="Group_2827" data-name="Group 2827" transform="translate(84.777 49.076)">
    <path id="Path_142" data-name="Path 142" d="M760.765,1146.943a1.532,1.532,0,1,1,1.532-1.532A1.534,1.534,0,0,1,760.765,1146.943Z" transform="translate(-759.233 -1143.879)" fill="#404064"/>
  </g>
  <g id="Group_2828" data-name="Group 2828" transform="translate(73.942 47.898)">
    <path id="Path_143" data-name="Path 143" d="M705.605,1140.943a1.532,1.532,0,1,1,1.532-1.532A1.534,1.534,0,0,1,705.605,1140.943Z" transform="translate(-704.073 -1137.879)" fill="#404064"/>
  </g>
  <g id="Group_2829" data-name="Group 2829" transform="translate(98.661 56.043)">
    <path id="Path_144" data-name="Path 144" d="M831.45,1182.413a1.532,1.532,0,1,1,1.532-1.532A1.534,1.534,0,0,1,831.45,1182.413Z" transform="translate(-829.918 -1179.349)" fill="#404064"/>
  </g>
  <g id="Group_2858" data-name="Group 2858" transform="translate(27.271 5.359)" opacity="0.5">
    <g id="Group_2830" data-name="Group 2830" transform="translate(12.021 44.14)" opacity="0.5">
      <path id="Path_145" data-name="Path 145" d="M529.2,1149.1a1.532,1.532,0,1,1,1.532-1.532A1.534,1.534,0,0,1,529.2,1149.1Z" transform="translate(-527.668 -1146.032)" fill="#404064"/>
    </g>
    <g id="Group_2831" data-name="Group 2831" transform="translate(0.825 22.396)" opacity="0.5">
      <path id="Path_146" data-name="Path 146" d="M472.2,1038.4a1.532,1.532,0,1,1,1.532-1.532A1.534,1.534,0,0,1,472.2,1038.4Z" transform="translate(-470.668 -1035.332)" fill="#404064"/>
    </g>
    <g id="Group_2832" data-name="Group 2832" transform="translate(3.536 34.725)" opacity="0.5">
      <path id="Path_147" data-name="Path 147" d="M486,1101.166a1.532,1.532,0,1,1,1.532-1.532A1.534,1.534,0,0,1,486,1101.166Z" transform="translate(-484.468 -1098.102)" fill="#404064"/>
    </g>
    <g id="Group_2833" data-name="Group 2833" transform="translate(33.795 57.825)" opacity="0.5">
      <path id="Path_148" data-name="Path 148" d="M640.05,1218.766a1.532,1.532,0,1,1,1.532-1.532A1.534,1.534,0,0,1,640.05,1218.766Z" transform="translate(-638.518 -1215.702)" fill="#404064"/>
    </g>
    <g id="Group_2834" data-name="Group 2834" transform="translate(10.843 69.375)" opacity="0.5">
      <path id="Path_149" data-name="Path 149" d="M523.2,1277.566a1.532,1.532,0,1,1,1.532-1.532A1.534,1.534,0,0,1,523.2,1277.566Z" transform="translate(-521.668 -1274.502)" fill="#404064"/>
    </g>
    <g id="Group_2835" data-name="Group 2835" transform="translate(24.042 51.107)" opacity="0.5">
      <path id="Path_150" data-name="Path 150" d="M590.4,1184.566a1.532,1.532,0,1,1,1.532-1.532A1.534,1.534,0,0,1,590.4,1184.566Z" transform="translate(-588.868 -1181.502)" fill="#404064"/>
    </g>
    <g id="Group_2836" data-name="Group 2836" transform="translate(1.179 57.471)" opacity="0.5">
      <path id="Path_151" data-name="Path 151" d="M474,1216.966a1.532,1.532,0,1,1,1.532-1.532A1.534,1.534,0,0,1,474,1216.966Z" transform="translate(-472.468 -1213.902)" fill="#404064"/>
    </g>
    <g id="Group_2837" data-name="Group 2837" transform="translate(20.153 58.178)" opacity="0.5">
      <path id="Path_152" data-name="Path 152" d="M570.6,1220.566a1.532,1.532,0,1,1,1.532-1.532A1.534,1.534,0,0,1,570.6,1220.566Z" transform="translate(-569.068 -1217.502)" fill="#404064"/>
    </g>
    <g id="Group_2838" data-name="Group 2838" transform="translate(22.51 69.021)" opacity="0.5">
      <path id="Path_153" data-name="Path 153" d="M582.6,1275.766a1.532,1.532,0,1,1,1.532-1.532A1.534,1.534,0,0,1,582.6,1275.766Z" transform="translate(-581.068 -1272.702)" fill="#404064"/>
    </g>
    <g id="Group_2839" data-name="Group 2839" transform="translate(44.078 73.264)" opacity="0.5">
      <path id="Path_154" data-name="Path 154" d="M692.4,1297.366a1.532,1.532,0,1,1,1.532-1.532A1.534,1.534,0,0,1,692.4,1297.366Z" transform="translate(-690.868 -1294.302)" fill="#404064"/>
    </g>
    <g id="Group_2840" data-name="Group 2840" transform="translate(49.617 64.425)" opacity="0.5">
      <path id="Path_155" data-name="Path 155" d="M720.6,1252.366a1.532,1.532,0,1,1,1.532-1.532A1.534,1.534,0,0,1,720.6,1252.366Z" transform="translate(-719.068 -1249.302)" fill="#404064"/>
    </g>
    <g id="Group_2841" data-name="Group 2841" transform="translate(43.254 56.293)" opacity="0.5">
      <path id="Path_156" data-name="Path 156" d="M688.205,1210.966a1.532,1.532,0,1,1,1.532-1.532A1.534,1.534,0,0,1,688.205,1210.966Z" transform="translate(-686.673 -1207.902)" fill="#404064"/>
    </g>
    <g id="Group_2842" data-name="Group 2842" transform="translate(60.774 8.319)" opacity="0.5">
      <path id="Path_157" data-name="Path 157" d="M777.4,966.732a1.532,1.532,0,1,1,1.532-1.532A1.534,1.534,0,0,1,777.4,966.732Z" transform="translate(-775.868 -963.668)" fill="#404064"/>
    </g>
    <g id="Group_2843" data-name="Group 2843" transform="translate(52.668 11.896)" opacity="0.5">
      <path id="Path_158" data-name="Path 158" d="M736.132,984.943a1.532,1.532,0,1,1,1.532-1.532A1.534,1.534,0,0,1,736.132,984.943Z" transform="translate(-734.6 -981.879)" fill="#404064"/>
    </g>
    <g id="Group_2844" data-name="Group 2844" transform="translate(58.693)" opacity="0.5">
      <path id="Path_159" data-name="Path 159" d="M766.805,924.379a1.532,1.532,0,1,1,1.532-1.532A1.534,1.534,0,0,1,766.805,924.379Z" transform="translate(-765.273 -921.315)" fill="#404064"/>
    </g>
    <g id="Group_2845" data-name="Group 2845" transform="translate(69.858 13.376)" opacity="0.5">
      <path id="Path_160" data-name="Path 160" d="M823.65,992.478a1.532,1.532,0,1,1,1.532-1.532A1.534,1.534,0,0,1,823.65,992.478Z" transform="translate(-822.118 -989.414)" fill="#404064"/>
    </g>
    <g id="Group_2846" data-name="Group 2846" transform="translate(62.188 20.912)" opacity="0.5">
      <path id="Path_161" data-name="Path 161" d="M784.6,1030.843a1.532,1.532,0,1,1,1.532-1.532A1.534,1.534,0,0,1,784.6,1030.843Z" transform="translate(-783.068 -1027.779)" fill="#404064"/>
    </g>
    <g id="Group_2847" data-name="Group 2847" transform="translate(72.831 25.519)" opacity="0.5">
      <path id="Path_162" data-name="Path 162" d="M838.782,1054.3a1.532,1.532,0,1,1,1.532-1.532A1.534,1.534,0,0,1,838.782,1054.3Z" transform="translate(-837.25 -1051.232)" fill="#404064"/>
    </g>
    <g id="Group_2848" data-name="Group 2848" transform="translate(69.151 4.194)" opacity="0.5">
      <path id="Path_163" data-name="Path 163" d="M820.05,945.732a1.532,1.532,0,1,1,1.532-1.532A1.534,1.534,0,0,1,820.05,945.732Z" transform="translate(-818.518 -942.668)" fill="#404064"/>
    </g>
    <g id="Group_2849" data-name="Group 2849" transform="translate(47.379 0.354)" opacity="0.5">
      <path id="Path_164" data-name="Path 164" d="M709.205,926.179a1.532,1.532,0,1,1,1.532-1.532A1.534,1.534,0,0,1,709.205,926.179Z" transform="translate(-707.673 -923.115)" fill="#404064"/>
    </g>
    <g id="Group_2850" data-name="Group 2850" transform="translate(0.825 8.319)" opacity="0.5">
      <path id="Path_165" data-name="Path 165" d="M472.2,966.732a1.532,1.532,0,1,1,1.532-1.532A1.534,1.534,0,0,1,472.2,966.732Z" transform="translate(-470.668 -963.668)" fill="#404064"/>
    </g>
    <g id="Group_2851" data-name="Group 2851" transform="translate(11.021 25.165)" opacity="0.5">
      <path id="Path_166" data-name="Path 166" d="M524.11,1052.5a1.532,1.532,0,1,1,1.532-1.532A1.534,1.534,0,0,1,524.11,1052.5Z" transform="translate(-522.578 -1049.432)" fill="#404064"/>
    </g>
    <g id="Group_2852" data-name="Group 2852" transform="translate(19.8 34.302)" opacity="0.5">
      <path id="Path_167" data-name="Path 167" d="M568.8,1099.013a1.532,1.532,0,1,1,1.532-1.532A1.534,1.534,0,0,1,568.8,1099.013Z" transform="translate(-567.268 -1095.949)" fill="#404064"/>
    </g>
    <g id="Group_2853" data-name="Group 2853" transform="translate(61.834 66.31)" opacity="0.5">
      <path id="Path_168" data-name="Path 168" d="M782.8,1261.966a1.532,1.532,0,1,1,1.532-1.532A1.534,1.534,0,0,1,782.8,1261.966Z" transform="translate(-781.268 -1258.902)" fill="#404064"/>
    </g>
    <g id="Group_2854" data-name="Group 2854" transform="translate(33.795 49.797)" opacity="0.5">
      <path id="Path_169" data-name="Path 169" d="M640.05,1177.9a1.532,1.532,0,1,1,1.532-1.532A1.534,1.534,0,0,1,640.05,1177.9Z" transform="translate(-638.518 -1174.832)" fill="#404064"/>
    </g>
    <g id="Group_2855" data-name="Group 2855" transform="translate(69.505 70.2)" opacity="0.5">
      <path id="Path_170" data-name="Path 170" d="M821.85,1281.766a1.532,1.532,0,1,1,1.532-1.532A1.534,1.534,0,0,1,821.85,1281.766Z" transform="translate(-820.318 -1278.702)" fill="#404064"/>
    </g>
    <g id="Group_2856" data-name="Group 2856" transform="translate(0 47.911)" opacity="0.5">
      <path id="Path_171" data-name="Path 171" d="M468,1168.3a1.532,1.532,0,1,1,1.532-1.532A1.534,1.534,0,0,1,468,1168.3Z" transform="translate(-466.468 -1165.232)" fill="#404064"/>
    </g>
    <g id="Group_2857" data-name="Group 2857" transform="translate(33.706 68.196)" opacity="0.5">
      <path id="Path_172" data-name="Path 172" d="M639.6,1271.566a1.532,1.532,0,1,1,1.532-1.532A1.534,1.534,0,0,1,639.6,1271.566Z" transform="translate(-638.068 -1268.502)" fill="#404064"/>
    </g>
  </g>
  <g id="Group_2859" data-name="Group 2859" transform="translate(53.435 18.735)">
    <path id="Path_173" data-name="Path 173" d="M601.2,992.478a1.532,1.532,0,1,1,1.532-1.532A1.534,1.534,0,0,1,601.2,992.478Z" transform="translate(-599.668 -989.414)" fill="#404064"/>
  </g>
</svg>
