<svg xmlns="http://www.w3.org/2000/svg" width="110" height="88.715" viewBox="0 0 110 88.715">
  <g id="Group_4571" data-name="Group 4571" transform="translate(1.5 1.5)">
    <path id="Path_111" data-name="Path 111" d="M428.979,164.3h4.28a6.82,6.82,0,0,1,6.8,6.8V185.11" transform="translate(-396.422 -155.175)" fill="none" stroke="#404064" stroke-linecap="round" stroke-miterlimit="10" stroke-width="3"/>
    <path id="Path_1997" data-name="Path 1997" d="M0,0H15.92" transform="translate(17.999 43.044)" fill="none" stroke="#404064" stroke-linecap="round" stroke-width="3"/>
    <path id="Path_112" data-name="Path 112" d="M440.044,472.943v14.1a6.82,6.82,0,0,1-6.8,6.8h-4.282" transform="translate(-396.409 -417.507)" fill="none" stroke="#404064" stroke-linecap="round" stroke-miterlimit="10" stroke-width="3"/>
    <path id="Path_113" data-name="Path 113" d="M692.066,173.276V157.19a6.82,6.82,0,0,1,6.8-6.8h2.55" transform="translate(-628.92 -143.252)" fill="none" stroke="#404064" stroke-linecap="round" stroke-miterlimit="10" stroke-width="3"/>
    <path id="Path_1996" data-name="Path 1996" d="M15.458,0H0" transform="translate(73.474 43.044)" fill="none" stroke="#404064" stroke-linecap="round" stroke-width="3"/>
    <path id="Path_114" data-name="Path 114" d="M692.066,472.573v15.366a6.82,6.82,0,0,0,6.8,6.8h10.1" transform="translate(-628.92 -417.204)" fill="none" stroke="#404064" stroke-linecap="round" stroke-miterlimit="10" stroke-width="3"/>
    <rect id="Rectangle_1382" data-name="Rectangle 1382" width="38.953" height="24.478" rx="9" transform="translate(34.521 30.618)" fill="none" stroke="#404064" stroke-linecap="round" stroke-miterlimit="10" stroke-width="3"/>
    <rect id="Rectangle_1383" data-name="Rectangle 1383" width="17.999" height="14.278" rx="7.139" transform="translate(89.001 35.904)" fill="none" stroke="#404064" stroke-linecap="round" stroke-miterlimit="10" stroke-width="3"/>
    <rect id="Rectangle_1384" data-name="Rectangle 1384" width="17.999" height="14.278" rx="7.139" transform="translate(72.987 0)" fill="none" stroke="#404064" stroke-linecap="round" stroke-miterlimit="10" stroke-width="3"/>
    <rect id="Rectangle_1385" data-name="Rectangle 1385" width="17.999" height="14.278" rx="7.139" transform="translate(80.044 71.436)" fill="none" stroke="#404064" stroke-linecap="round" stroke-miterlimit="10" stroke-width="3"/>
    <rect id="Rectangle_1386" data-name="Rectangle 1386" width="17.999" height="14.278" rx="7.139" transform="translate(0 35.905)" fill="none" stroke="#404064" stroke-linecap="round" stroke-miterlimit="10" stroke-width="3"/>
    <rect id="Rectangle_1387" data-name="Rectangle 1387" width="17.999" height="14.278" rx="7.139" transform="translate(14.557 0)" fill="none" stroke="#404064" stroke-linecap="round" stroke-miterlimit="10" stroke-width="3"/>
    <rect id="Rectangle_1388" data-name="Rectangle 1388" width="17.999" height="14.278" rx="7.139" transform="translate(14.557 69.195)" fill="none" stroke="#404064" stroke-linecap="round" stroke-miterlimit="10" stroke-width="3"/>
  </g>
</svg>
