<svg xmlns="http://www.w3.org/2000/svg" width="69.125" height="69.566" viewBox="0 0 69.125 69.566">
  <g id="Group_2800" data-name="Group 2800" transform="translate(-440.023 -439.582)">
    <circle id="Ellipse_205" data-name="Ellipse 205" cx="32.562" cy="32.562" r="32.562" transform="translate(442.023 442.023)" fill="none" stroke="#404064" stroke-linecap="round" stroke-miterlimit="10" stroke-width="4"/>
    <path id="Path_107" data-name="Path 107" d="M478.51,446.977c.527,1.129,1.087,2.432,1.241,2.854.359.986.795,1.948,1.091,2.956a10.608,10.608,0,0,1,.481,5.559c-.538,2.111-1.671,2.307-3.565,2.683-1.454.289-2.346,1.6-3.688,2.068-1.449.512-3.116-.021-4.6.341s-3.827,1.768-3.023,3.686c.715,1.7,3.645,2.039,5.153,2.291,1.912.321,3.563.519,5.166,1.688,1.733,1.263,2.621,3.333,4.166,4.789,1.87,1.763,3.807.457,6.021.271,1.854-.156,3.419,1.731,3.869,3.4.583,2.159-1.667,3.959-2.878,5.446-1.426,1.753-3.843,3.292-3.4,5.788.142.8.526,1.6.095,2.391-.483.889-1.785,1.035-2.606,1.5-1.959,1.1-1.473,3.538-2.432,5.323-1.315,2.446-3.542.263-4.421-1.485-.659-1.309-1.03-2.774-1.586-4.124-.493-1.2-1.341-2.3-1.779-3.508-.934-2.58.44-5.141-1.237-7.531a34.929,34.929,0,0,0-2.62-3.031c-1.219-1.378-1.037-2.668-1.5-4.366-.507-1.866-2.054-2.953-3.643-3.872a13.925,13.925,0,0,1-4.006-3.851,18.09,18.09,0,0,1-1.616-3.658" transform="translate(-12.044 -3.933)" fill="none" stroke="#404064" stroke-linecap="round" stroke-miterlimit="10" stroke-width="4"/>
    <path id="Path_108" data-name="Path 108" d="M595.141,442.1a12.453,12.453,0,0,1,.4,2.882c.065,1.7.851,3.451,2.781,3.567,2.053.121,3.029-2.272,3.977-3.732.385-.593.769-1.253,1.184-1.9" transform="translate(-121.557 -0.059)" fill="none" stroke="#404064" stroke-linecap="round" stroke-miterlimit="10" stroke-width="4"/>
    <path id="Path_109" data-name="Path 109" d="M649.86,458.952a30.074,30.074,0,0,0-3.422,2.8c-1.371,1.385-3.066,2.758-1.488,4.75,1.189,1.5,3.066,1.539,4.82,1.092a5.761,5.761,0,0,1,2.991-.351,7.458,7.458,0,0,0,2.776.539,5.593,5.593,0,0,0,3.389-2.043" transform="translate(-160.596 -13.439)" fill="none" stroke="#404064" stroke-linecap="round" stroke-miterlimit="10" stroke-width="4"/>
    <path id="Path_110" data-name="Path 110" d="M676.392,582.047a7.209,7.209,0,0,1-2.03-1.242,5.85,5.85,0,0,1-1.977-6.169c.646-3.138,1.25-7.193-1.139-9.831-1.317-1.452-3.093-2.257-4.663-3.378a5.256,5.256,0,0,1-2.142-4.893,5.931,5.931,0,0,1,2.4-4.439c1.715-1.148,3.252-.447,5,.111a19.1,19.1,0,0,0,5.838.426,34.185,34.185,0,0,0,4.745-.229" transform="translate(-176.561 -86.893)" fill="none" stroke="#404064" stroke-linecap="round" stroke-miterlimit="10" stroke-width="4"/>
  </g>
</svg>
