<?xml version="1.0" encoding="UTF-8"?>
<svg id="Layer_1" data-name="Layer 1" xmlns="http://www.w3.org/2000/svg" viewBox="0 0 88.86 65.87">
  <defs>
    <style>
      .cls-1 {
        fill: none;
        stroke: #404064;
        stroke-linecap: round;
        stroke-miterlimit: 10;
        stroke-width: 4px;
      }
    </style>
  </defs>
  <path class="cls-1" d="m23.03,20.02c-2.33-3.93-6.3-6.36-10.32-6.19-.21,0-.42.02-.63.05-6.16.69-11.2,7.39-9.87,13.75.89,4.24,4.47,7.68,9.1,8.78"/>
  <path class="cls-1" d="m12.09,13.88c.68-5.22,5.99-9.82,11.17-11.19,6.5-1.72,12.01,1.83,13.35,2.77.07.05.13.09.17.12"/>
  <path class="cls-1" d="m61.77,11.67c-.19-.37-.39-.74-.61-1.09-1.16-1.93-2.64-3.6-4.33-4.94-2.94-2.32-6.54-3.65-10.28-3.65-4.42,0-7.83,1.87-9.94,3.45"/>
  <path class="cls-1" d="m56.83,5.65c3.47-.14,8.88.41,13.93,4.15,4.51,3.33,6.64,7.67,7.66,10.76"/>
  <path class="cls-1" d="m70.33,48.53c2.54,1.16,5.26,1.45,7.74.75.21-.06.42-.13.62-.2,4.64-1.66,6.31-6.31,7.01-8.3,1.88-5.25,2.14-14.43-4.35-18.8-.95-.64-1.94-1.11-2.94-1.43-2.62-.86-5.26-.74-7.3-.39"/>
  <path class="cls-1" d="m62.41,43.66c3.03.25,6.07-.81,8.16-2.99,2.16-2.25,3.05-5.43,2.6-8.49"/>
  <path class="cls-1" d="m50.22,47.87c.45,2.07,1.48,3.94,3.03,5.31.33.29.66.54,1,.76,3.36,2.22,7.27,1.53,7.56,1.47,3.23-.62,5.17-2.68,5.84-3.38,1.31-1.38,2.15-2.98,2.69-4.63.71-2.22.86-4.54.76-6.57"/>
  <path class="cls-1" d="m49.07,21.39c5.29-3.39,11.36-2.58,13.95.76,1.86,2.41,1.72,5.88.91,8.23-1.08,3.11-3.48,4.74-5.2,5.87-5.26,3.45-8.46,1.89-12.86,4.31-1.71.94-3.83,2.61-5.72,5.84"/>
  <path class="cls-1" d="m28.91,45.38c-6.94,3.6-14.12,2.15-16.7-1.61-1.31-1.91-1.53-4.56-.9-7.35.17-.76.4-1.53.7-2.29.41-1.08.94-2.15,1.58-3.19"/>
  <path class="cls-1" d="m10.52,23.85c3.9-1.49,8.05.11,9.54,3.85,1.19,3.01.47,6.4-1.65,8.71"/>
  <path class="cls-1" d="m27.06,11.22c.44.29.86.6,1.26.93,3.18,2.62,4.91,6.34,4.6,9.92"/>
  <path class="cls-1" d="m29.53,41.7c-6.49-7.87.97-17.94,3.4-19.63.47-.33.94-.61,1.38-.86,4.13-2.22,9.22-2.27,11.37-6.33.19-.35.34-.71.46-1.06.49-1.43.47-2.81.37-3.8"/>
  <path class="cls-1" d="m54.25,55.07c-2.22,1.29-4.46,2.21-6.65,2.78-6.75,1.77-12.98.3-16.19-3.5-2.34-2.78-2.67-6.33-2.5-8.98.13-1.93.53-3.38.62-3.68.43-1.49,12.36-13.31,20.55-13.71"/>
  <path class="cls-1" d="m47.59,57.86c5.89,6.35,15.32,7.83,22.29,3.7,4.39-2.6,7.33-7.15,8.18-12.27"/>
</svg>