<?xml version="1.0" encoding="UTF-8"?>
<svg id="Layer_1" data-name="Layer 1" xmlns="http://www.w3.org/2000/svg" viewBox="0 0 123.1 123.82">
  <defs>
    <style>
      .cls-1 {
        fill: #404064;
      }

      .cls-2 {
        fill: none;
        stroke: #404064;
        stroke-linecap: round;
        stroke-linejoin: round;
        stroke-width: 8px;
      }
    </style>
  </defs>
  <g id="Group_4318" data-name="Group 4318">
    <path id="Path_895" data-name="Path 895" class="cls-2" d="m119.1,96l-19.18,7.94-57.55-23.82,2.8-1.16h.01l16.37,6.77,16.37-6.77h.01l41.17,17.04Z"/>
    <path id="Path_896" data-name="Path 896" class="cls-2" d="m99.92,103.94l-19.19,7.94-57.55-23.82,19.19-7.94,57.55,23.82Z"/>
    <path id="Path_897" data-name="Path 897" class="cls-2" d="m80.73,111.88l-19.18,7.94L4,96l19.18-7.94,57.55,23.82Z"/>
    <path id="Path_898" data-name="Path 898" class="cls-2" d="m119.1,61.91l-41.17,17.05h-.01l-16.37,6.77-16.37-6.77h-.01L4,61.91l41.18-17.04h.01l16.36,6.77,16.36-6.77h.01l41.18,17.04Z"/>
    <path id="Path_899" data-name="Path 899" class="cls-2" d="m61.55,4L4,27.82l44.52-5.97c4.48-.12,8.1,1.49,7.48,3.33l-7.09,9.8,13.36.1c3.98.04,7.11,1.41,6.95,3.06l-3.82,6.73-3.85,6.77,16.36-6.77h.01l41.18-17.05L61.55,4Z"/>
    <path id="Path_900" data-name="Path 900" class="cls-2" d="m69.22,38.14l-3.82,6.73-3.85,6.77-16.36-6.77h-.01L4,27.82l44.52-5.97c4.48-.12,8.1,1.49,7.48,3.33l-7.09,9.8,13.36.1c3.98.04,7.11,1.41,6.95,3.06Z"/>
    <path id="Path_901" data-name="Path 901" class="cls-1" d="m75.77,29.79c-.99,0-1.97-.17-2.89-.54-2.35-.81-3.6-3.38-2.79-5.73.45-1.31,1.48-2.34,2.79-2.79,1.86-.72,3.93-.72,5.79,0,2.35.82,3.6,3.38,2.78,5.74-.45,1.31-1.48,2.33-2.78,2.78h0c-.92.36-1.9.55-2.89.54"/>
  </g>
</svg>