<?xml version="1.0" encoding="UTF-8"?>
<svg id="Layer_1" data-name="Layer 1" xmlns="http://www.w3.org/2000/svg" viewBox="0 0 148.88 122.92">
  <defs>
    <style>
      .cls-1 {
        fill: none;
        stroke: #404064;
        stroke-linecap: round;
        stroke-linejoin: round;
        stroke-width: 8px;
      }
    </style>
  </defs>
  <g id="Group_4313" data-name="Group 4313">
    <path id="Path_866" data-name="Path 866" class="cls-1" d="m63.41,5.38c19.67,0,27.32,15.45,27.83,25.45-30.16-13.85-27.83,9.7-27.83,9.7v62.05c0,6.22-5.97,11.26-12.19,11.26s-13.12-5.04-13.12-11.26v-63.53c0-4.47-3.62-8.09-8.09-8.09h-9.25V11.59c15.79,0,17.18-6.14,26.66-6.21,7.78-.06,16,0,16,0Z"/>
    <rect id="Rectangle_2915" data-name="Rectangle 2915" class="cls-1" x="4" y="6.67" width="16.75" height="29.78"/>
    <line id="Line_1845" data-name="Line 1845" class="cls-1" x1="38.1" y1="40.79" x2="63.41" y2="40.79"/>
    <path id="Path_867" data-name="Path 867" class="cls-1" d="m135.57,115.43c0,1.93-1.57,3.49-3.49,3.49h-9.02c-1.93,0-3.5-1.56-3.5-3.49v-28.5h16.01v28.5Z"/>
    <path id="Path_868" data-name="Path 868" class="cls-1" d="m143.71,56.48c0,5.95-8.35,8.78-8.35,11.46v3.3h-15.6v-3.3c0-2.68-8.35-5.5-8.35-11.46,0,0-1.41-27.58,0-36.63.44-2.85,1.04-3.26,5.14-10.31,4.31-7.39,17.71-7.39,22.02,0,4.11,7.05,4.7,7.47,5.14,10.32,1.4,9.05,0,36.62,0,36.62Z"/>
    <path id="Rectangle_2916" data-name="Rectangle 2916" class="cls-1" d="m113.73,71.23h27.65c1.93,0,3.49,1.56,3.49,3.49h0v8.71c0,1.93-1.56,3.5-3.49,3.5,0,0,0,0,0,0h-27.65c-1.93,0-3.49-1.56-3.49-3.49,0,0,0,0,0,0v-8.71c0-1.93,1.56-3.49,3.49-3.49h0Z"/>
    <line id="Line_1846" data-name="Line 1846" class="cls-1" x1="111.41" y1="19.85" x2="143.71" y2="19.85"/>
  </g>
</svg>