<svg xmlns="http://www.w3.org/2000/svg" width="155.023" height="239.311" viewBox="0 0 155.023 239.311">
  <g id="Group_2788" data-name="Group 2788" transform="translate(4 4)">
    <path id="Path_85" data-name="Path 85" d="M543.5,759.068a83.919,83.919,0,0,0,16.116,4.592,90.782,90.782,0,0,0,32.295-.047,83.93,83.93,0,0,0,16.126-4.649" transform="translate(-502.255 -554.062)" fill="none" stroke="#404064" stroke-linecap="round" stroke-miterlimit="10" stroke-width="8"/>
    <path id="Path_86" data-name="Path 86" d="M608.036,733.075a88.846,88.846,0,0,1-64.543.1" transform="translate(-502.253 -542.959)" fill="none" stroke="#404064" stroke-linecap="round" stroke-miterlimit="10" stroke-width="8"/>
    <path id="Path_87" data-name="Path 87" d="M618.3,473.4a73.276,73.276,0,0,1-21.2,51.943,70.348,70.348,0,0,0-20.041,49.261,88.832,88.832,0,0,1-64.537.1c0-18.5-8.125-35.148-21.033-48.4s-20.21-32.668-20.21-52.62A73.512,73.512,0,0,1,618.3,473.4Z" transform="translate(-471.282 -400.184)" fill="none" stroke="#404064" stroke-linecap="round" stroke-miterlimit="10" stroke-width="8"/>
    <path id="Path_88" data-name="Path 88" d="M501.94,502.807c.2-15.919,4.417-29.779,15.628-41.726" transform="translate(-484.431 -426.302)" fill="none" stroke="#404064" stroke-linecap="round" stroke-miterlimit="10" stroke-width="8"/>
    <path id="Path_89" data-name="Path 89" d="M660.234,440.176l-9.86,17.451-13.747-3.357-2.541,22.536-17.543,2.372" transform="translate(-533.584 -417.336)" fill="none" stroke="#404064" stroke-linecap="round" stroke-miterlimit="10" stroke-width="8"/>
    <path id="Path_90" data-name="Path 90" d="M577.208,790.572a16.436,16.436,0,0,0,26.07-.042" transform="translate(-516.713 -565.665)" fill="none" stroke="#404064" stroke-linecap="round" stroke-miterlimit="10" stroke-width="8"/>
    <path id="Path_91" data-name="Path 91" d="M665.062,434.7,641.5,433.97l-13.7-6.57" transform="translate(-538.412 -411.857)" fill="none" stroke="#404064" stroke-linecap="round" stroke-miterlimit="10" stroke-width="8"/>
    <path id="Path_92" data-name="Path 92" d="M691.5,445.255l.059,23.385-8.242,6.551,6.086,14.454" transform="translate(-562.221 -419.515)" fill="none" stroke="#404064" stroke-linecap="round" stroke-miterlimit="10" stroke-width="8"/>
  </g>
</svg>
