<svg xmlns="http://www.w3.org/2000/svg" width="300.212" height="327.59" viewBox="0 0 300.212 327.59">
  <g id="Group_2789" data-name="Group 2789" transform="translate(-303.629 -1443.26)">
    <path id="Path_93" data-name="Path 93" d="M710.213,1791.85c.623-14.987,2.028-29.342,6.069-43.406a138.971,138.971,0,0,1,5.821-17.388c.82-1.88.3-3.162-1.587-4.161-3.225-1.706-6.767-2.7-9.835-4.78-10.809-7.311-16.448-17.6-19.083-30.253-1.556-7.472-1.14-14.829-1.21-22.246-.036-3.772,1.6-7.351,2.2-11.1.489-3.031,3.529-3.473,6.279-3.513,2.939-.043,5.059,1.105,5.954,4.069.547,1.812.228,3.628.151,5.458-.417,9.926-1.482,19.872,1.347,29.668,3.112,10.776,13.086,19.961,25.351,20.59a87.735,87.735,0,0,1,26.082,4.977c7.943,2.934,15.1-.186,22.143-3.461,10.827-5.031,17.665-13.061,19.066-25.251.506-4.4,4.086-7.352,7.981-6.862,3.922.494,6.677,4.641,5.952,9.129-3.058,18.952-13.98,31.249-31.917,37.566-2.211.779-4.448,1.485-6.68,2.206a3.586,3.586,0,0,0-2.661,4.244c.9,6.853,1.889,13.7,2.862,20.539a142.163,142.163,0,0,0,4.3,20.647,87.719,87.719,0,0,0,4.947,13.981c.9,1.824.786,2.856-1.1,3.724-3.553,1.636-7.013,3.478-10.6,5.016-2.1.9-2.444,1.993-1.418,3.94,4.446,8.439,11.031,13.7,20.821,14.488,3.519.282,7,.977,10.521,1.305a7.832,7.832,0,0,1,7.287,6.13c1.234,4.5-.513,8.375-4.208,10.387a12.447,12.447,0,0,1-6.777,1.736c-14.011-.924-27.151-4.036-37.067-15.062a47.912,47.912,0,0,1-7.921-12.075c-1.489-3.231-4.186-3.971-8.589-2.484-3.4,1.146-4.127,3.207-3.321,6.684,3.785,16.316,9.682,31.673,19.3,45.515a9.662,9.662,0,0,1-2.584,13.5c-3.8,2.32-10.013.667-12.806-3.259-9.6-13.492-15.724-28.581-20.25-44.366-.93-3.242-1.283-6.663-2.275-9.932-.524-1.727-1.269-2.635-3.209-2.747-5.957-.343-7.417-1.637-8.1-7.595C710.842,1802.081,710.586,1796.711,710.213,1791.85Z" transform="translate(-213.186 -115.017)" fill="none" stroke="#404064" stroke-linecap="round" stroke-miterlimit="10" stroke-width="8"/>
    <path id="Path_94" data-name="Path 94" d="M395.047,1852a58.4,58.4,0,0,0-9.067-28.64c-.642-.98-1.4-1.885-2.127-2.808a3.685,3.685,0,0,0-4.194-1.362c-1.807.516-2.27,1.953-2.449,3.625-.622,5.846-1.484,11.677-3.68,17.154-3.787,9.446-10.229,15.672-20.7,17.595-12.318,2.261-23.21-1.641-33.869-6.85a10.836,10.836,0,0,1-6.426-10.844c.249-4.179,1.678-8.086,6.042-9.778a14.8,14.8,0,0,1,11.083.128c3.763,1.49,7.485,3.121,11.336,4.342,7.373,2.338,11.608-.589,12.316-8.209a45.773,45.773,0,0,0-2.656-19.6c-2.452-7.015-3.761-14.329-5.136-21.633-2.014-10.7-2.445-21.541-3.562-32.321-.254-2.445-1.959-3.514-3.762-4.659-11.422-7.257-20.677-16.519-25.575-29.358-4.339-11.374-6.67-23.1-3.72-35.3.714-2.952-.074-6.283,2.809-8.682,2.671-2.222,5.607-2.789,8.272-1.027,2.631,1.739,3.974,4.3,3.183,8.1-3.01,14.462-1.547,28.159,7.285,40.7,3.963,5.627,9.1,9.672,14.513,13.555a19.606,19.606,0,0,0,10.529,3.7c5.712.364,11.585.872,17,2.562,7.728,2.411,14.228.2,20.433-3.709,14.68-9.243,23.828-22.4,27.166-39.523a60.562,60.562,0,0,1,2.06-7.953c.988-2.9,3.564-3.841,6.291-3.717,2.859.13,5.456,1.147,6.058,4.523a23.782,23.782,0,0,1-.483,9.362c-3.752,16.749-11.294,31.381-24.561,42.686A61.787,61.787,0,0,1,393.547,1754c-3.627,1.541-4.988,3.716-4.447,7.575,1.7,12.135,3.2,24.3,7.3,35.947a15.481,15.481,0,0,0,2.926,5.046,76.943,76.943,0,0,1,16.348,32.518c2.956,11.973,2.045,23.962,1.127,35.894-.353,4.591-1.051,9.593-3.4,13.97-2.834,5.292-9.334,8.127-14.249,6.061-6.087-2.558-8.619-8.889-7.008-15.175A80.686,80.686,0,0,0,395.047,1852Z" transform="translate(0 -124.888)" fill="none" stroke="#404064" stroke-linecap="round" stroke-miterlimit="10" stroke-width="8"/>
    <path id="Path_95" data-name="Path 95" d="M388.07,1708.211c-.555-16.3,13.31-26.079,26.382-26.253,13.623-.181,26.8,13.026,26.15,26.582-.638,13.4-10.339,26.49-27.516,26.175C400.894,1734.493,387.229,1724.089,388.07,1708.211Z" transform="translate(-44.805 -130.026)" fill="none" stroke="#404064" stroke-linecap="round" stroke-miterlimit="10" stroke-width="8"/>
    <path id="Path_96" data-name="Path 96" d="M787.891,1715.653c-13.518-.006-23.693-9.873-23.793-24.277-.08-11.48,9.544-23.634,24.839-23.261a24.053,24.053,0,0,1,23.273,22.483C812.79,1704.655,801.156,1716.324,787.891,1715.653Z" transform="translate(-252.848 -125.09)" fill="none" stroke="#404064" stroke-linecap="round" stroke-miterlimit="10" stroke-width="8"/>
    <path id="Path_97" data-name="Path 97" d="M595.006,1471.7a36.9,36.9,0,0,1-32.639,50.528c-.326.02-.651.031-.979.033a36.927,36.927,0,0,1-33.366-19.856c-.534-1.028-1.026-2.091-1.464-3.19-.027-.056-.05-.114-.073-.172a36.763,36.763,0,0,1-.885-24.884c.3-.929.631-1.85,1.005-2.753a36.82,36.82,0,0,1,11.871-15.452q.979-.742,2.015-1.42a37.037,37.037,0,0,1,21.4-6.041c1.047.031,2.091.11,3.126.231A36.883,36.883,0,0,1,595.006,1471.7Z" transform="translate(-120.441 0)" fill="none" stroke="#404064" stroke-linecap="round" stroke-miterlimit="10" stroke-width="8"/>
    <circle id="Ellipse_204" data-name="Ellipse 204" cx="6.491" cy="6.491" r="6.491" transform="translate(425.027 1467.276)" fill="none" stroke="#404064" stroke-linecap="round" stroke-miterlimit="10" stroke-width="8"/>
    <path id="Path_98" data-name="Path 98" d="M598.636,1514.824s18.805,28.828,31.75,31.527" transform="translate(-162.09 -36.949)" fill="none" stroke="#404064" stroke-linecap="round" stroke-miterlimit="10" stroke-width="8"/>
    <path id="Path_99" data-name="Path 99" d="M585.888,1520.169s-2.874,24.131,9.9,42.019" transform="translate(-154.837 -39.926)" fill="none" stroke="#404064" stroke-linecap="round" stroke-miterlimit="10" stroke-width="8"/>
    <path id="Path_100" data-name="Path 100" d="M529.964,1537.662c8.611-10.269,21.392-19.953,21.647-20.15" transform="translate(-123.847 -38.446)" fill="none" stroke="#404064" stroke-linecap="round" stroke-miterlimit="10" stroke-width="8"/>
    <path id="Path_101" data-name="Path 101" d="M530.07,1500.229a173.158,173.158,0,0,1,18.882,2.927" transform="translate(-123.906 -28.821)" fill="none" stroke="#404064" stroke-linecap="round" stroke-miterlimit="10" stroke-width="8"/>
    <path id="Path_102" data-name="Path 102" d="M561.409,1462.151c4.318,7.675,7.868,13.83,7.868,13.83" transform="translate(-141.358 -7.615)" fill="none" stroke="#404064" stroke-linecap="round" stroke-miterlimit="10" stroke-width="8"/>
    <line id="Line_674" data-name="Line 674" y1="19.067" x2="8.006" transform="translate(433.445 1448.495)" fill="none" stroke="#404064" stroke-linecap="round" stroke-miterlimit="10" stroke-width="8"/>
    <path id="Path_103" data-name="Path 103" d="M600.9,1497.229s23.558-7.382,38.338,4.279" transform="translate(-163.349 -25.867)" fill="none" stroke="#404064" stroke-linecap="round" stroke-miterlimit="10" stroke-width="8"/>
    <path id="Path_104" data-name="Path 104" d="M555.537,1465.511" transform="translate(-138.088 -9.487)" fill="none" stroke="#404064" stroke-linecap="round" stroke-miterlimit="10" stroke-width="8"/>
  </g>
</svg>
